G04*
G04 #@! TF.GenerationSoftware,Altium Limited,Altium Designer,23.7.1 (13)*
G04*
G04 Layer_Color=32768*
%FSLAX44Y44*%
%MOMM*%
G71*
G04*
G04 #@! TF.SameCoordinates,08080B6D-4C5C-4958-99E3-925CFEBC34A3*
G04*
G04*
G04 #@! TF.FilePolarity,Positive*
G04*
G01*
G75*
%ADD12C,0.1000*%
%ADD81C,0.0500*%
D12*
X1406000Y537000D02*
Y547000D01*
X1401000Y542000D02*
X1411000D01*
X1392000Y534000D02*
X1420000D01*
X1392000Y550000D02*
X1420000D01*
Y534000D02*
Y550000D01*
X1392000Y534000D02*
Y550000D01*
X1077000Y394500D02*
Y410500D01*
X1049000Y394500D02*
Y410500D01*
Y394500D02*
X1077000D01*
X1049000Y410500D02*
X1077000D01*
X1058000Y402500D02*
X1068000D01*
X1063000Y397500D02*
Y407500D01*
X1046500Y638500D02*
Y654500D01*
X1018500Y638500D02*
Y654500D01*
Y638500D02*
X1046500D01*
X1018500Y654500D02*
X1046500D01*
X1027500Y646500D02*
X1037500D01*
X1032500Y641500D02*
Y651500D01*
X740000Y1215500D02*
X756000D01*
X740000Y1187500D02*
X756000D01*
Y1215500D01*
X740000Y1187500D02*
Y1215500D01*
X748000Y1196500D02*
Y1206500D01*
X743000Y1201500D02*
X753000D01*
X1026500Y559500D02*
X1042500D01*
X1026500Y587500D02*
X1042500D01*
X1026500Y559500D02*
Y587500D01*
X1042500Y559500D02*
Y587500D01*
X1034500Y568500D02*
Y578500D01*
X1029500Y573500D02*
X1039500D01*
X929000Y718500D02*
Y734500D01*
X901000Y718500D02*
Y734500D01*
Y718500D02*
X929000D01*
X901000Y734500D02*
X929000D01*
X910000Y726500D02*
X920000D01*
X915000Y721500D02*
Y731500D01*
D81*
X832000Y718750D02*
Y721250D01*
X830750Y720000D02*
X833250D01*
X703750Y1095000D02*
X706250D01*
X705000Y1093750D02*
Y1096250D01*
X901282Y1173750D02*
Y1176250D01*
X900033Y1175000D02*
X902533D01*
X1059715Y1173750D02*
Y1176250D01*
X1058465Y1175000D02*
X1060965D01*
X703750Y995760D02*
X706250D01*
X705000Y994510D02*
Y997010D01*
X1372148Y1172250D02*
Y1174750D01*
X1370897Y1173500D02*
X1373398D01*
X1208080Y1172750D02*
Y1175250D01*
X1206830Y1174000D02*
X1209330D01*
X1419500Y872000D02*
Y874000D01*
X1418500Y873000D02*
X1420500D01*
X1486500Y866000D02*
Y868000D01*
X1485500Y867000D02*
X1487500D01*
X1518500Y1171750D02*
Y1174250D01*
X1517250Y1173000D02*
X1519750D01*
X1061500Y1029250D02*
Y1031750D01*
X1060250Y1030500D02*
X1062750D01*
M02*
