G04*
G04 #@! TF.GenerationSoftware,Altium Limited,Altium Designer,23.7.1 (13)*
G04*
G04 Layer_Physical_Order=2*
G04 Layer_Color=32768*
%FSLAX44Y44*%
%MOMM*%
G71*
G04*
G04 #@! TF.SameCoordinates,08080B6D-4C5C-4958-99E3-925CFEBC34A3*
G04*
G04*
G04 #@! TF.FilePolarity,Negative*
G04*
G01*
G75*
%ADD10C,0.3000*%
%ADD34C,1.8000*%
%ADD65C,1.0160*%
%ADD66C,2.0000*%
G04:AMPARAMS|DCode=67|XSize=2.5mm|YSize=2.5mm|CornerRadius=0mm|HoleSize=0mm|Usage=FLASHONLY|Rotation=0.000|XOffset=0mm|YOffset=0mm|HoleType=Round|Shape=Relief|Width=0.5mm|Gap=0.25mm|Entries=4|*
%AMTHD67*
7,0,0,2.5000,2.0000,0.5000,45*
%
%ADD67THD67*%
%ADD68C,1.8890*%
%ADD69C,1.7874*%
G04:AMPARAMS|DCode=70|XSize=2.3mm|YSize=2.3mm|CornerRadius=0mm|HoleSize=0mm|Usage=FLASHONLY|Rotation=0.000|XOffset=0mm|YOffset=0mm|HoleType=Round|Shape=Relief|Width=0.5mm|Gap=0.25mm|Entries=4|*
%AMTHD70*
7,0,0,2.3000,1.8000,0.5000,45*
%
%ADD70THD70*%
G04:AMPARAMS|DCode=71|XSize=2.389mm|YSize=2.389mm|CornerRadius=0mm|HoleSize=0mm|Usage=FLASHONLY|Rotation=0.000|XOffset=0mm|YOffset=0mm|HoleType=Round|Shape=Relief|Width=0.5mm|Gap=0.25mm|Entries=4|*
%AMTHD71*
7,0,0,2.3890,1.8890,0.5000,45*
%
%ADD71THD71*%
G04:AMPARAMS|DCode=72|XSize=2.4mm|YSize=2.4mm|CornerRadius=0mm|HoleSize=0mm|Usage=FLASHONLY|Rotation=0.000|XOffset=0mm|YOffset=0mm|HoleType=Round|Shape=Relief|Width=0.5mm|Gap=0.25mm|Entries=4|*
%AMTHD72*
7,0,0,2.4000,1.9000,0.5000,45*
%
%ADD72THD72*%
%ADD73C,2.6000*%
G04:AMPARAMS|DCode=74|XSize=3.1mm|YSize=3.1mm|CornerRadius=0mm|HoleSize=0mm|Usage=FLASHONLY|Rotation=0.000|XOffset=0mm|YOffset=0mm|HoleType=Round|Shape=Relief|Width=0.5mm|Gap=0.25mm|Entries=4|*
%AMTHD74*
7,0,0,3.1000,2.6000,0.5000,45*
%
%ADD74THD74*%
%ADD75C,2.1430*%
%ADD76C,2.3000*%
%ADD77C,1.9000*%
G04:AMPARAMS|DCode=78|XSize=2.2874mm|YSize=2.2874mm|CornerRadius=0mm|HoleSize=0mm|Usage=FLASHONLY|Rotation=0.000|XOffset=0mm|YOffset=0mm|HoleType=Round|Shape=Relief|Width=0.5mm|Gap=0.25mm|Entries=4|*
%AMTHD78*
7,0,0,2.2874,1.7874,0.5000,45*
%
%ADD78THD78*%
%ADD79C,1.4000*%
G04:AMPARAMS|DCode=80|XSize=1.9mm|YSize=1.9mm|CornerRadius=0mm|HoleSize=0mm|Usage=FLASHONLY|Rotation=0.000|XOffset=0mm|YOffset=0mm|HoleType=Round|Shape=Relief|Width=0.5mm|Gap=0.25mm|Entries=4|*
%AMTHD80*
7,0,0,1.9000,1.4000,0.5000,45*
%
%ADD80THD80*%
D10*
X1501000Y637000D02*
X1668000D01*
X1501000D02*
Y1021500D01*
X1666500D01*
X628500Y834000D02*
X980500D01*
Y1065500D01*
X1524000D01*
Y1311500D01*
X1205000Y1311500D02*
X1524000Y1311500D01*
D34*
X1296500Y978500D02*
D03*
X1218080Y1174000D02*
D03*
X1218500Y1129000D02*
D03*
X1217500Y1031500D02*
D03*
X1186500Y978500D02*
D03*
X1069715Y1175000D02*
D03*
X1071500Y1030500D02*
D03*
X1070800Y1130000D02*
D03*
X1528500Y1173000D02*
D03*
X1382148Y1173500D02*
D03*
X1382000Y1128500D02*
D03*
X1363500Y746200D02*
D03*
Y657300D02*
D03*
X1498500Y570500D02*
D03*
X842000Y720000D02*
D03*
X705000Y1105000D02*
D03*
X911282Y1175000D02*
D03*
X765000Y1107700D02*
D03*
X911400Y1130000D02*
D03*
X705000Y1005760D02*
D03*
X770000Y1007499D02*
D03*
X1090600Y572000D02*
D03*
X1116000D02*
D03*
X1325000Y719900D02*
D03*
Y671100D02*
D03*
D65*
X627500Y171500D02*
X1669000D01*
Y1316000D01*
X627500D02*
X1669000D01*
X627500Y171500D02*
Y1316000D01*
D66*
X1438200Y476500D02*
D03*
X1387400D02*
D03*
X1336600D02*
D03*
X1285800D02*
D03*
X1184200D02*
D03*
X1209600D02*
D03*
X1235000D02*
D03*
X1260400D02*
D03*
X1311200D02*
D03*
X1362000D02*
D03*
X1412800D02*
D03*
X1216580Y1235510D02*
D03*
X1599500Y553800D02*
D03*
X1068215Y1236510D02*
D03*
X1531850Y1232300D02*
D03*
X1597000Y1081400D02*
D03*
Y1056000D02*
D03*
X1601000Y881100D02*
D03*
Y766100D02*
D03*
X1380647Y1235010D02*
D03*
X1165780Y1235510D02*
D03*
X1599500Y503000D02*
D03*
Y528400D02*
D03*
Y398400D02*
D03*
Y373000D02*
D03*
X1412800Y379500D02*
D03*
X1362000D02*
D03*
X1311200D02*
D03*
X1260400D02*
D03*
X1235000D02*
D03*
X1209600D02*
D03*
X1184200D02*
D03*
X1285800D02*
D03*
X1336600D02*
D03*
X1387400D02*
D03*
X1438200D02*
D03*
X1601000Y791500D02*
D03*
Y906500D02*
D03*
X752000Y405000D02*
D03*
X702000D02*
D03*
X727000Y730000D02*
D03*
Y780000D02*
D03*
X932000Y405000D02*
D03*
X882000D02*
D03*
X1130000Y296400D02*
D03*
Y245600D02*
D03*
X1067500Y245100D02*
D03*
Y295900D02*
D03*
X1481050Y1232300D02*
D03*
X909783Y1236510D02*
D03*
X858983D02*
D03*
X1017415D02*
D03*
X1329848Y1235010D02*
D03*
X1031500Y777000D02*
D03*
X1158500D02*
D03*
X1141500Y900000D02*
D03*
X1065500D02*
D03*
X705500D02*
D03*
X1159500Y725000D02*
D03*
X1032500D02*
D03*
D67*
X1463600Y476500D02*
D03*
X1597000Y1106800D02*
D03*
X1571500Y613000D02*
D03*
X1599500Y477600D02*
D03*
X1463600Y379500D02*
D03*
X1130000Y271000D02*
D03*
X1067500Y270500D02*
D03*
X1514500Y1110500D02*
D03*
Y983500D02*
D03*
X1601000Y816900D02*
D03*
Y931900D02*
D03*
X1506450Y1232300D02*
D03*
X884383Y1236510D02*
D03*
X1042815D02*
D03*
X1355247Y1235010D02*
D03*
X1191180Y1235510D02*
D03*
X755500Y900000D02*
D03*
X1571500Y740000D02*
D03*
D68*
X1299000Y913600D02*
D03*
X1359500Y912600D02*
D03*
X1245000Y914100D02*
D03*
X1042400Y684000D02*
D03*
X1512100Y704500D02*
D03*
X1015400Y370500D02*
D03*
X1359500Y811000D02*
D03*
X1245000Y812500D02*
D03*
X1299000Y812000D02*
D03*
X1144000Y684000D02*
D03*
X1014400Y455500D02*
D03*
X1116000D02*
D03*
D69*
X1415600Y765000D02*
D03*
X1504500D02*
D03*
X1543500Y772500D02*
D03*
X1544500Y886600D02*
D03*
D70*
X1498500Y595900D02*
D03*
X1363500Y720800D02*
D03*
X1271100Y978500D02*
D03*
X1197500Y1031500D02*
D03*
X1051500Y1030500D02*
D03*
X1161100Y978500D02*
D03*
X822000Y720000D02*
D03*
X1363500Y682700D02*
D03*
X705000Y1085000D02*
D03*
X891282Y1175000D02*
D03*
X1049715D02*
D03*
X765000Y1082300D02*
D03*
X886000Y1130000D02*
D03*
X1045400D02*
D03*
X705000Y985760D02*
D03*
X1362148Y1173500D02*
D03*
X1198080Y1174000D02*
D03*
X770000Y982099D02*
D03*
X1356600Y1128500D02*
D03*
X1193100Y1129000D02*
D03*
X1508500Y1173000D02*
D03*
D71*
X1410500Y704500D02*
D03*
X1117000Y370500D02*
D03*
D72*
X885400Y798000D02*
D03*
X988900Y797500D02*
D03*
D73*
X944000Y884500D02*
D03*
Y939500D02*
D03*
Y994500D02*
D03*
D74*
Y1049500D02*
D03*
D75*
X692000Y510000D02*
D03*
Y624300D02*
D03*
X803740Y514040D02*
D03*
X925660Y635960D02*
D03*
X778340Y575000D02*
D03*
X925660Y514040D02*
D03*
X803740Y635960D02*
D03*
D76*
X850250Y1076100D02*
D03*
Y860200D02*
D03*
Y911000D02*
D03*
Y1025300D02*
D03*
D77*
X691430Y1230470D02*
D03*
Y1205070D02*
D03*
Y1179670D02*
D03*
X860000Y798000D02*
D03*
X834600D02*
D03*
X963500Y797500D02*
D03*
X938100D02*
D03*
D78*
X1543500Y861400D02*
D03*
X1544500Y975500D02*
D03*
D79*
X1180500Y683000D02*
D03*
X1043500Y626500D02*
D03*
X1455000Y853000D02*
D03*
X1290500Y621291D02*
D03*
Y582500D02*
D03*
X1214000Y584500D02*
D03*
X1464500Y570500D02*
D03*
X1072896Y938784D02*
D03*
X1475000Y869105D02*
D03*
X1400450Y928878D02*
D03*
X1251204Y633730D02*
D03*
X1144500Y459541D02*
D03*
X1335000Y563000D02*
D03*
X1258000Y567000D02*
D03*
X1177250Y615000D02*
D03*
D80*
X1282000Y699500D02*
D03*
X1421384Y801116D02*
D03*
X1437500Y678270D02*
D03*
M02*
