G04*
G04 #@! TF.GenerationSoftware,Altium Limited,Altium Designer,23.7.1 (13)*
G04*
G04 Layer_Color=16711935*
%FSLAX44Y44*%
%MOMM*%
G71*
G04*
G04 #@! TF.SameCoordinates,08080B6D-4C5C-4958-99E3-925CFEBC34A3*
G04*
G04*
G04 #@! TF.FilePolarity,Negative*
G04*
G01*
G75*
%ADD34C,1.8000*%
%ADD35C,1.5032*%
%ADD36C,2.3622*%
%ADD37C,1.5000*%
%ADD38C,1.9812*%
%ADD39C,2.4892*%
%ADD40O,1.2160X2.2320*%
%ADD41C,2.7000*%
%ADD42C,2.7432*%
%ADD43R,2.7432X2.7432*%
%ADD44C,2.2032*%
G04:AMPARAMS|DCode=45|XSize=1.8mm|YSize=1.8mm|CornerRadius=0.18mm|HoleSize=0mm|Usage=FLASHONLY|Rotation=90.000|XOffset=0mm|YOffset=0mm|HoleType=Round|Shape=RoundedRectangle|*
%AMROUNDEDRECTD45*
21,1,1.8000,1.4400,0,0,90.0*
21,1,1.4400,1.8000,0,0,90.0*
1,1,0.3600,0.7200,0.7200*
1,1,0.3600,0.7200,-0.7200*
1,1,0.3600,-0.7200,-0.7200*
1,1,0.3600,-0.7200,0.7200*
%
%ADD45ROUNDEDRECTD45*%
%ADD46O,2.2320X1.2160*%
%ADD47C,1.8032*%
%ADD48C,3.2512*%
%ADD49C,0.9032*%
D34*
X1438200Y476500D02*
D03*
X1387400D02*
D03*
X1336600D02*
D03*
X1285800D02*
D03*
X1184200D02*
D03*
X1209600D02*
D03*
X1235000D02*
D03*
X1260400D02*
D03*
X1311200D02*
D03*
X1362000D02*
D03*
X1412800D02*
D03*
X1463600D02*
D03*
X1216580Y1235510D02*
D03*
X1599500Y553800D02*
D03*
X1068215Y1236510D02*
D03*
X1531850Y1232300D02*
D03*
X1597000Y1081400D02*
D03*
Y1056000D02*
D03*
X1601000Y881100D02*
D03*
Y766100D02*
D03*
X1380647Y1235010D02*
D03*
X1165780Y1235510D02*
D03*
X1597000Y1106800D02*
D03*
X1599500Y477600D02*
D03*
X1463600Y379500D02*
D03*
X1130000Y271000D02*
D03*
X1067500Y270500D02*
D03*
X1599500Y503000D02*
D03*
Y528400D02*
D03*
Y398400D02*
D03*
X1412800Y379500D02*
D03*
X1362000D02*
D03*
X1311200D02*
D03*
X1260400D02*
D03*
X1235000D02*
D03*
X1209600D02*
D03*
X1184200D02*
D03*
X1285800D02*
D03*
X1336600D02*
D03*
X1387400D02*
D03*
X1438200D02*
D03*
X1601000Y791500D02*
D03*
Y816900D02*
D03*
Y906500D02*
D03*
Y931900D02*
D03*
X752000Y405000D02*
D03*
X702000D02*
D03*
X727000Y730000D02*
D03*
Y780000D02*
D03*
X932000Y405000D02*
D03*
X882000D02*
D03*
X1130000Y296400D02*
D03*
Y245600D02*
D03*
X1067500Y245100D02*
D03*
Y295900D02*
D03*
X1506450Y1232300D02*
D03*
X1481050D02*
D03*
X909783Y1236510D02*
D03*
X884383D02*
D03*
X858983D02*
D03*
X1042815D02*
D03*
X1017415D02*
D03*
X1355247Y1235010D02*
D03*
X1329848D02*
D03*
X1191180Y1235510D02*
D03*
X1141500Y900000D02*
D03*
X1065500D02*
D03*
D35*
X1296500Y978500D02*
D03*
X1218500Y1129000D02*
D03*
X1217500Y1031500D02*
D03*
X1186500Y978500D02*
D03*
X1070800Y1130000D02*
D03*
X1382000Y1128500D02*
D03*
X1498500Y595900D02*
D03*
X1363500Y720800D02*
D03*
X1271100Y978500D02*
D03*
X1197500Y1031500D02*
D03*
X1161100Y978500D02*
D03*
X1363500Y682700D02*
D03*
Y746200D02*
D03*
Y657300D02*
D03*
X1498500Y570500D02*
D03*
X765000Y1082300D02*
D03*
Y1107700D02*
D03*
X886000Y1130000D02*
D03*
X911400D02*
D03*
X1045400D02*
D03*
X770000Y982099D02*
D03*
Y1007499D02*
D03*
X1356600Y1128500D02*
D03*
X1193100Y1129000D02*
D03*
D36*
X1299000Y913600D02*
D03*
X1359500Y912600D02*
D03*
X1245000Y914100D02*
D03*
X1042400Y684000D02*
D03*
X1410500Y704500D02*
D03*
X1117000Y370500D02*
D03*
X1512100Y704500D02*
D03*
X1015400Y370500D02*
D03*
X1359500Y811000D02*
D03*
X1245000Y812500D02*
D03*
X1299000Y812000D02*
D03*
X1144000Y684000D02*
D03*
X1014400Y455500D02*
D03*
X1116000D02*
D03*
D37*
X1218080Y1174000D02*
D03*
X1069715Y1175000D02*
D03*
X1071500Y1030500D02*
D03*
X1528500Y1173000D02*
D03*
X1382148Y1173500D02*
D03*
X1051500Y1030500D02*
D03*
X822000Y720000D02*
D03*
X842000D02*
D03*
X705000Y1105000D02*
D03*
Y1085000D02*
D03*
X911282Y1175000D02*
D03*
X891282D02*
D03*
X1049715D02*
D03*
X705000Y1005760D02*
D03*
Y985760D02*
D03*
X1362148Y1173500D02*
D03*
X1198080Y1174000D02*
D03*
X1090600Y572000D02*
D03*
X1116000D02*
D03*
X1325000Y719900D02*
D03*
Y671100D02*
D03*
X1508500Y1173000D02*
D03*
D38*
X1415600Y765000D02*
D03*
X1504500D02*
D03*
X1543500Y861400D02*
D03*
Y772500D02*
D03*
X1544500Y975500D02*
D03*
Y886600D02*
D03*
D39*
X1571500Y613000D02*
D03*
X1514500Y1110500D02*
D03*
Y983500D02*
D03*
X1031500Y777000D02*
D03*
X1158500D02*
D03*
X1159500Y725000D02*
D03*
X1032500D02*
D03*
X1571500Y740000D02*
D03*
D40*
X885400Y798000D02*
D03*
X988900Y797500D02*
D03*
X860000Y798000D02*
D03*
X834600D02*
D03*
X963500Y797500D02*
D03*
X938100D02*
D03*
D41*
X944000Y884500D02*
D03*
Y939500D02*
D03*
Y994500D02*
D03*
Y1049500D02*
D03*
D42*
X692000Y510000D02*
D03*
D43*
Y624300D02*
D03*
D44*
X850250Y1076100D02*
D03*
Y860200D02*
D03*
Y911000D02*
D03*
Y1025300D02*
D03*
D45*
X1599500Y373000D02*
D03*
D46*
X691430Y1230470D02*
D03*
Y1205070D02*
D03*
Y1179670D02*
D03*
D47*
X705500Y900000D02*
D03*
X755500D02*
D03*
D48*
X803740Y514040D02*
D03*
X925660Y635960D02*
D03*
X778340Y575000D02*
D03*
X925660Y514040D02*
D03*
X803740Y635960D02*
D03*
D49*
X1180500Y683000D02*
D03*
X1043500Y626500D02*
D03*
X1455000Y853000D02*
D03*
X1282000Y699500D02*
D03*
X1290500Y621291D02*
D03*
Y582500D02*
D03*
X1214000Y584500D02*
D03*
X1464500Y570500D02*
D03*
X1421384Y801116D02*
D03*
X1072896Y938784D02*
D03*
X1437500Y678270D02*
D03*
X1475000Y869105D02*
D03*
X1400450Y928878D02*
D03*
X1251204Y633730D02*
D03*
X1144500Y459541D02*
D03*
X1335000Y563000D02*
D03*
X1258000Y567000D02*
D03*
X1177250Y615000D02*
D03*
M02*
