G04*
G04 #@! TF.GenerationSoftware,Altium Limited,Altium Designer,23.7.1 (13)*
G04*
G04 Layer_Physical_Order=4*
G04 Layer_Color=16711680*
%FSLAX44Y44*%
%MOMM*%
G71*
G04*
G04 #@! TF.SameCoordinates,08080B6D-4C5C-4958-99E3-925CFEBC34A3*
G04*
G04*
G04 #@! TF.FilePolarity,Positive*
G04*
G01*
G75*
%ADD10C,0.3000*%
%ADD50C,0.5000*%
%ADD51C,1.6000*%
%ADD52C,1.3000*%
%ADD53C,2.1590*%
%ADD54C,1.7780*%
%ADD55C,2.2860*%
%ADD56O,1.0160X2.0320*%
%ADD57C,2.5000*%
%ADD58C,2.5400*%
%ADD59R,2.5400X2.5400*%
%ADD60C,2.0000*%
G04:AMPARAMS|DCode=61|XSize=1.6mm|YSize=1.6mm|CornerRadius=0.08mm|HoleSize=0mm|Usage=FLASHONLY|Rotation=90.000|XOffset=0mm|YOffset=0mm|HoleType=Round|Shape=RoundedRectangle|*
%AMROUNDEDRECTD61*
21,1,1.6000,1.4400,0,0,90.0*
21,1,1.4400,1.6000,0,0,90.0*
1,1,0.1600,0.7200,0.7200*
1,1,0.1600,0.7200,-0.7200*
1,1,0.1600,-0.7200,-0.7200*
1,1,0.1600,-0.7200,0.7200*
%
%ADD61ROUNDEDRECTD61*%
%ADD62O,2.0320X1.0160*%
%ADD63C,3.0480*%
%ADD64C,0.7000*%
G36*
X1669000Y1316000D02*
X1669000Y1316000D01*
Y171500D01*
X631065D01*
X627500Y175065D01*
X629715Y1316000D01*
X1669000D01*
D02*
G37*
%LPC*%
G36*
X1069927Y1249510D02*
X1066504D01*
X1063197Y1248624D01*
X1060233Y1246913D01*
X1057813Y1244492D01*
X1056199Y1241697D01*
X1055515Y1241606D01*
X1054832Y1241697D01*
X1053218Y1244492D01*
X1050797Y1246913D01*
X1047833Y1248624D01*
X1044527Y1249510D01*
X1041104D01*
X1037797Y1248624D01*
X1034833Y1246913D01*
X1032413Y1244492D01*
X1030799Y1241697D01*
X1030115Y1241606D01*
X1029432Y1241697D01*
X1027818Y1244492D01*
X1025397Y1246913D01*
X1022433Y1248624D01*
X1019127Y1249510D01*
X1015704D01*
X1012398Y1248624D01*
X1009433Y1246913D01*
X1007013Y1244492D01*
X1005301Y1241528D01*
X1004415Y1238222D01*
Y1234799D01*
X1005301Y1231492D01*
X1007013Y1228528D01*
X1009433Y1226107D01*
X1012398Y1224396D01*
X1015704Y1223510D01*
X1019127D01*
X1022433Y1224396D01*
X1025397Y1226107D01*
X1027818Y1228528D01*
X1029432Y1231323D01*
X1030115Y1231414D01*
X1030799Y1231323D01*
X1032413Y1228528D01*
X1034833Y1226107D01*
X1037797Y1224396D01*
X1041104Y1223510D01*
X1044527D01*
X1047833Y1224396D01*
X1050797Y1226107D01*
X1053218Y1228528D01*
X1054832Y1231323D01*
X1055515Y1231414D01*
X1056199Y1231323D01*
X1057813Y1228528D01*
X1060233Y1226107D01*
X1063197Y1224396D01*
X1066504Y1223510D01*
X1069927D01*
X1073233Y1224396D01*
X1076197Y1226107D01*
X1078618Y1228528D01*
X1080329Y1231492D01*
X1081215Y1234799D01*
Y1238222D01*
X1080329Y1241528D01*
X1078618Y1244492D01*
X1076197Y1246913D01*
X1073233Y1248624D01*
X1069927Y1249510D01*
D02*
G37*
G36*
X911494D02*
X908071D01*
X904765Y1248624D01*
X901801Y1246913D01*
X899380Y1244492D01*
X897766Y1241697D01*
X897083Y1241606D01*
X896399Y1241697D01*
X894785Y1244492D01*
X892365Y1246913D01*
X889401Y1248624D01*
X886094Y1249510D01*
X882671D01*
X879365Y1248624D01*
X876401Y1246913D01*
X873980Y1244492D01*
X872366Y1241697D01*
X871683Y1241606D01*
X870999Y1241697D01*
X869385Y1244492D01*
X866965Y1246913D01*
X864001Y1248624D01*
X860694Y1249510D01*
X857271D01*
X853965Y1248624D01*
X851001Y1246913D01*
X848580Y1244492D01*
X846869Y1241528D01*
X845983Y1238222D01*
Y1234799D01*
X846108Y1234333D01*
X799009Y1187235D01*
X703210D01*
X701594Y1188475D01*
X699142Y1189491D01*
X696510Y1189837D01*
X686350D01*
X683719Y1189491D01*
X681267Y1188475D01*
X679161Y1186859D01*
X677545Y1184753D01*
X676530Y1182301D01*
X676183Y1179670D01*
X676530Y1177039D01*
X677545Y1174586D01*
X679161Y1172481D01*
X681267Y1170865D01*
X683719Y1169849D01*
X686350Y1169503D01*
X696510D01*
X699142Y1169849D01*
X701594Y1170865D01*
X703210Y1172105D01*
X802143D01*
X804101Y1172363D01*
X805925Y1173119D01*
X807492Y1174321D01*
X856806Y1223635D01*
X857271Y1223510D01*
X860694D01*
X864001Y1224396D01*
X866965Y1226107D01*
X869385Y1228528D01*
X870999Y1231323D01*
X871683Y1231414D01*
X872366Y1231323D01*
X873980Y1228528D01*
X876401Y1226107D01*
X879365Y1224396D01*
X882671Y1223510D01*
X886094D01*
X889401Y1224396D01*
X892365Y1226107D01*
X894785Y1228528D01*
X896399Y1231323D01*
X897083Y1231414D01*
X897766Y1231323D01*
X899380Y1228528D01*
X901801Y1226107D01*
X904765Y1224396D01*
X908071Y1223510D01*
X911494D01*
X914801Y1224396D01*
X917765Y1226107D01*
X920185Y1228528D01*
X921897Y1231492D01*
X922783Y1234799D01*
Y1238222D01*
X921897Y1241528D01*
X920185Y1244492D01*
X917765Y1246913D01*
X914801Y1248624D01*
X911494Y1249510D01*
D02*
G37*
G36*
X1218292Y1248510D02*
X1214869D01*
X1211562Y1247624D01*
X1208598Y1245912D01*
X1206178Y1243492D01*
X1204564Y1240697D01*
X1203880Y1240606D01*
X1203197Y1240697D01*
X1201583Y1243492D01*
X1199162Y1245912D01*
X1196198Y1247624D01*
X1192892Y1248510D01*
X1189469D01*
X1186162Y1247624D01*
X1183198Y1245912D01*
X1180778Y1243492D01*
X1179164Y1240697D01*
X1178480Y1240606D01*
X1177797Y1240697D01*
X1176183Y1243492D01*
X1173762Y1245912D01*
X1170798Y1247624D01*
X1167492Y1248510D01*
X1164069D01*
X1160762Y1247624D01*
X1157798Y1245912D01*
X1155378Y1243492D01*
X1153666Y1240528D01*
X1152780Y1237221D01*
Y1233798D01*
X1153666Y1230492D01*
X1155378Y1227528D01*
X1157798Y1225107D01*
X1160762Y1223396D01*
X1164069Y1222510D01*
X1167492D01*
X1170798Y1223396D01*
X1173762Y1225107D01*
X1176183Y1227528D01*
X1177797Y1230323D01*
X1178480Y1230414D01*
X1179164Y1230323D01*
X1180778Y1227528D01*
X1183198Y1225107D01*
X1186162Y1223396D01*
X1189469Y1222510D01*
X1192892D01*
X1196198Y1223396D01*
X1199162Y1225107D01*
X1201583Y1227528D01*
X1203197Y1230323D01*
X1203880Y1230414D01*
X1204564Y1230323D01*
X1206178Y1227528D01*
X1208598Y1225107D01*
X1211562Y1223396D01*
X1214869Y1222510D01*
X1218292D01*
X1221598Y1223396D01*
X1224562Y1225107D01*
X1226983Y1227528D01*
X1228694Y1230492D01*
X1229580Y1233798D01*
Y1237221D01*
X1228694Y1240528D01*
X1226983Y1243492D01*
X1224562Y1245912D01*
X1221598Y1247624D01*
X1218292Y1248510D01*
D02*
G37*
G36*
X1382359Y1248010D02*
X1378936D01*
X1375630Y1247124D01*
X1372665Y1245413D01*
X1370245Y1242992D01*
X1368631Y1240197D01*
X1367948Y1240106D01*
X1367264Y1240197D01*
X1365650Y1242992D01*
X1363230Y1245413D01*
X1360265Y1247124D01*
X1356959Y1248010D01*
X1353536D01*
X1350230Y1247124D01*
X1347265Y1245413D01*
X1344845Y1242992D01*
X1343231Y1240197D01*
X1342547Y1240106D01*
X1341864Y1240197D01*
X1340250Y1242992D01*
X1337830Y1245413D01*
X1334865Y1247124D01*
X1331559Y1248010D01*
X1328136D01*
X1324830Y1247124D01*
X1321865Y1245413D01*
X1319445Y1242992D01*
X1317733Y1240028D01*
X1316848Y1236721D01*
Y1233298D01*
X1317733Y1229992D01*
X1319445Y1227028D01*
X1321865Y1224607D01*
X1324830Y1222896D01*
X1328136Y1222010D01*
X1331559D01*
X1332025Y1222135D01*
X1340054Y1214105D01*
X1341621Y1212903D01*
X1341882Y1212795D01*
X1341629Y1211525D01*
X1043432D01*
X1041474Y1211267D01*
X1039650Y1210511D01*
X1038083Y1209309D01*
X912439Y1083665D01*
X863236D01*
X861901Y1085662D01*
X859812Y1087751D01*
X857355Y1089393D01*
X854626Y1090524D01*
X851728Y1091100D01*
X848773D01*
X845875Y1090524D01*
X843145Y1089393D01*
X840688Y1087751D01*
X838599Y1085662D01*
X836957Y1083205D01*
X835827Y1080475D01*
X835250Y1077577D01*
Y1074623D01*
X835827Y1071725D01*
X836957Y1068995D01*
X838599Y1066538D01*
X840688Y1064449D01*
X843145Y1062807D01*
X845875Y1061676D01*
X848773Y1061100D01*
X851728D01*
X854626Y1061676D01*
X857355Y1062807D01*
X859812Y1064449D01*
X861901Y1066538D01*
X863236Y1068535D01*
X915572D01*
X917530Y1068793D01*
X919354Y1069549D01*
X920921Y1070751D01*
X1046565Y1196395D01*
X1452710D01*
X1454668Y1196653D01*
X1456493Y1197409D01*
X1458059Y1198611D01*
X1473553Y1214105D01*
X1473553Y1214105D01*
X1478873Y1219425D01*
X1479339Y1219300D01*
X1482762D01*
X1486068Y1220186D01*
X1489032Y1221897D01*
X1491453Y1224318D01*
X1493067Y1227113D01*
X1493750Y1227204D01*
X1494434Y1227113D01*
X1496048Y1224318D01*
X1498468Y1221897D01*
X1501432Y1220186D01*
X1504739Y1219300D01*
X1508162D01*
X1511468Y1220186D01*
X1514432Y1221897D01*
X1516853Y1224318D01*
X1518467Y1227113D01*
X1519150Y1227204D01*
X1519834Y1227113D01*
X1521448Y1224318D01*
X1523868Y1221897D01*
X1526832Y1220186D01*
X1530139Y1219300D01*
X1533562D01*
X1536868Y1220186D01*
X1539832Y1221897D01*
X1542253Y1224318D01*
X1543964Y1227282D01*
X1544850Y1230588D01*
Y1234011D01*
X1543964Y1237318D01*
X1542253Y1240282D01*
X1539832Y1242702D01*
X1536868Y1244414D01*
X1533562Y1245300D01*
X1530139D01*
X1526832Y1244414D01*
X1523868Y1242702D01*
X1521448Y1240282D01*
X1519834Y1237487D01*
X1519150Y1237396D01*
X1518467Y1237487D01*
X1516853Y1240282D01*
X1514432Y1242702D01*
X1511468Y1244414D01*
X1508162Y1245300D01*
X1504739D01*
X1501432Y1244414D01*
X1498468Y1242702D01*
X1496048Y1240282D01*
X1494434Y1237487D01*
X1493750Y1237396D01*
X1493067Y1237487D01*
X1491453Y1240282D01*
X1489032Y1242702D01*
X1486068Y1244414D01*
X1482762Y1245300D01*
X1479339D01*
X1476032Y1244414D01*
X1473068Y1242702D01*
X1470648Y1240282D01*
X1468936Y1237318D01*
X1468050Y1234011D01*
Y1230588D01*
X1468175Y1230123D01*
X1465071Y1227019D01*
X1392511D01*
X1391778Y1228289D01*
X1392762Y1229992D01*
X1393647Y1233298D01*
Y1236721D01*
X1392762Y1240028D01*
X1391050Y1242992D01*
X1388630Y1245413D01*
X1385665Y1247124D01*
X1382359Y1248010D01*
D02*
G37*
G36*
X696510Y1240637D02*
X686350D01*
X683719Y1240291D01*
X681267Y1239275D01*
X679161Y1237659D01*
X677545Y1235554D01*
X676530Y1233101D01*
X676183Y1230470D01*
X676530Y1227839D01*
X677545Y1225387D01*
X679161Y1223281D01*
X681267Y1221665D01*
X683719Y1220649D01*
X686350Y1220303D01*
X696510D01*
X699142Y1220649D01*
X701594Y1221665D01*
X703699Y1223281D01*
X705315Y1225387D01*
X706331Y1227839D01*
X706677Y1230470D01*
X706331Y1233101D01*
X705315Y1235554D01*
X703699Y1237659D01*
X701594Y1239275D01*
X699142Y1240291D01*
X696510Y1240637D01*
D02*
G37*
G36*
Y1215237D02*
X686350D01*
X683719Y1214891D01*
X681267Y1213875D01*
X679161Y1212259D01*
X677545Y1210154D01*
X676530Y1207701D01*
X676183Y1205070D01*
X676530Y1202439D01*
X677545Y1199986D01*
X679161Y1197881D01*
X681267Y1196265D01*
X683719Y1195249D01*
X686350Y1194903D01*
X696510D01*
X699142Y1195249D01*
X701594Y1196265D01*
X703699Y1197881D01*
X705315Y1199986D01*
X706331Y1202439D01*
X706677Y1205070D01*
X706331Y1207701D01*
X705315Y1210154D01*
X703699Y1212259D01*
X701594Y1213875D01*
X699142Y1214891D01*
X696510Y1215237D01*
D02*
G37*
G36*
X1071229Y1186500D02*
X1068201D01*
X1065276Y1185716D01*
X1062654Y1184202D01*
X1060513Y1182061D01*
X1060350Y1181779D01*
X1059080D01*
X1058917Y1182061D01*
X1056776Y1184202D01*
X1054154Y1185716D01*
X1051229Y1186500D01*
X1048201D01*
X1045276Y1185716D01*
X1042654Y1184202D01*
X1040513Y1182061D01*
X1038999Y1179439D01*
X1038215Y1176514D01*
Y1173486D01*
X1038999Y1170561D01*
X1040513Y1167939D01*
X1042654Y1165798D01*
X1045276Y1164284D01*
X1048201Y1163500D01*
X1051229D01*
X1054154Y1164284D01*
X1056776Y1165798D01*
X1058917Y1167939D01*
X1059080Y1168221D01*
X1060350D01*
X1060513Y1167939D01*
X1062654Y1165798D01*
X1065276Y1164284D01*
X1068201Y1163500D01*
X1071229D01*
X1074154Y1164284D01*
X1076776Y1165798D01*
X1078917Y1167939D01*
X1080431Y1170561D01*
X1081215Y1173486D01*
Y1176514D01*
X1080431Y1179439D01*
X1078917Y1182061D01*
X1076776Y1184202D01*
X1074154Y1185716D01*
X1071229Y1186500D01*
D02*
G37*
G36*
X912796D02*
X909768D01*
X906844Y1185716D01*
X904221Y1184202D01*
X902080Y1182061D01*
X901917Y1181779D01*
X900647D01*
X900485Y1182061D01*
X898344Y1184202D01*
X895721Y1185716D01*
X892796Y1186500D01*
X889769D01*
X886844Y1185716D01*
X884221Y1184202D01*
X882080Y1182061D01*
X880566Y1179439D01*
X879782Y1176514D01*
Y1173486D01*
X880566Y1170561D01*
X882080Y1167939D01*
X884221Y1165798D01*
X886844Y1164284D01*
X889769Y1163500D01*
X892796D01*
X895721Y1164284D01*
X898344Y1165798D01*
X900485Y1167939D01*
X900647Y1168221D01*
X901917D01*
X902080Y1167939D01*
X904221Y1165798D01*
X906844Y1164284D01*
X909768Y1163500D01*
X912796D01*
X915721Y1164284D01*
X918344Y1165798D01*
X920485Y1167939D01*
X921999Y1170561D01*
X922782Y1173486D01*
Y1176514D01*
X921999Y1179439D01*
X920485Y1182061D01*
X918344Y1184202D01*
X915721Y1185716D01*
X912796Y1186500D01*
D02*
G37*
G36*
X1219594Y1185500D02*
X1216566D01*
X1213642Y1184716D01*
X1211019Y1183203D01*
X1208878Y1181061D01*
X1208715Y1180779D01*
X1207445D01*
X1207282Y1181061D01*
X1205141Y1183203D01*
X1202519Y1184716D01*
X1199594Y1185500D01*
X1196566D01*
X1193641Y1184716D01*
X1191019Y1183203D01*
X1188878Y1181061D01*
X1187364Y1178439D01*
X1186580Y1175514D01*
Y1172486D01*
X1187364Y1169561D01*
X1188878Y1166939D01*
X1191019Y1164798D01*
X1193641Y1163284D01*
X1196566Y1162500D01*
X1199594D01*
X1202519Y1163284D01*
X1205141Y1164798D01*
X1207282Y1166939D01*
X1207445Y1167221D01*
X1208715D01*
X1208878Y1166939D01*
X1211019Y1164798D01*
X1213642Y1163284D01*
X1216566Y1162500D01*
X1219594D01*
X1222519Y1163284D01*
X1225142Y1164798D01*
X1227283Y1166939D01*
X1228797Y1169561D01*
X1229580Y1172486D01*
Y1175514D01*
X1228797Y1178439D01*
X1227283Y1181061D01*
X1225142Y1183203D01*
X1222519Y1184716D01*
X1219594Y1185500D01*
D02*
G37*
G36*
X1383662Y1185000D02*
X1380634D01*
X1377709Y1184216D01*
X1375087Y1182702D01*
X1372945Y1180561D01*
X1372783Y1180279D01*
X1371513D01*
X1371350Y1180561D01*
X1369209Y1182702D01*
X1366586Y1184216D01*
X1363662Y1185000D01*
X1360634D01*
X1357709Y1184216D01*
X1355087Y1182702D01*
X1352945Y1180561D01*
X1351431Y1177939D01*
X1350648Y1175014D01*
Y1171986D01*
X1351431Y1169061D01*
X1352945Y1166439D01*
X1355087Y1164297D01*
X1357709Y1162784D01*
X1360634Y1162000D01*
X1362950D01*
X1378154Y1146795D01*
X1378154Y1146795D01*
X1379721Y1145593D01*
X1381546Y1144837D01*
X1383504Y1144579D01*
X1487644D01*
X1489602Y1144837D01*
X1491426Y1145593D01*
X1492993Y1146795D01*
X1507698Y1161500D01*
X1510014D01*
X1512939Y1162284D01*
X1515561Y1163798D01*
X1517702Y1165939D01*
X1517865Y1166221D01*
X1519135D01*
X1519298Y1165939D01*
X1521439Y1163798D01*
X1524061Y1162284D01*
X1526986Y1161500D01*
X1530014D01*
X1532939Y1162284D01*
X1535561Y1163798D01*
X1537702Y1165939D01*
X1539216Y1168561D01*
X1540000Y1171486D01*
Y1174514D01*
X1539216Y1177439D01*
X1537702Y1180061D01*
X1535561Y1182202D01*
X1532939Y1183716D01*
X1530014Y1184500D01*
X1526986D01*
X1524061Y1183716D01*
X1521439Y1182202D01*
X1519298Y1180061D01*
X1519135Y1179779D01*
X1517865D01*
X1517702Y1180061D01*
X1515561Y1182202D01*
X1512939Y1183716D01*
X1510014Y1184500D01*
X1506986D01*
X1504061Y1183716D01*
X1501439Y1182202D01*
X1499298Y1180061D01*
X1497784Y1177439D01*
X1497000Y1174514D01*
Y1172198D01*
X1484510Y1159709D01*
X1386637D01*
X1385099Y1161246D01*
X1385428Y1162473D01*
X1386586Y1162784D01*
X1389209Y1164297D01*
X1391350Y1166439D01*
X1392864Y1169061D01*
X1393648Y1171986D01*
Y1175014D01*
X1392864Y1177939D01*
X1391350Y1180561D01*
X1389209Y1182702D01*
X1386586Y1184216D01*
X1383662Y1185000D01*
D02*
G37*
G36*
X1072314Y1141500D02*
X1069286D01*
X1066361Y1140716D01*
X1063739Y1139202D01*
X1061598Y1137061D01*
X1060084Y1134439D01*
X1059300Y1131514D01*
Y1128486D01*
X1060084Y1125561D01*
X1061598Y1122939D01*
X1063739Y1120798D01*
X1066361Y1119284D01*
X1069286Y1118500D01*
X1072314D01*
X1075239Y1119284D01*
X1077861Y1120798D01*
X1080002Y1122939D01*
X1081516Y1125561D01*
X1082300Y1128486D01*
Y1131514D01*
X1081516Y1134439D01*
X1080002Y1137061D01*
X1077861Y1139202D01*
X1075239Y1140716D01*
X1072314Y1141500D01*
D02*
G37*
G36*
X1046914D02*
X1043886D01*
X1040961Y1140716D01*
X1038339Y1139202D01*
X1036198Y1137061D01*
X1034684Y1134439D01*
X1033900Y1131514D01*
Y1128486D01*
X1034684Y1125561D01*
X1036198Y1122939D01*
X1038339Y1120798D01*
X1040961Y1119284D01*
X1043886Y1118500D01*
X1046914D01*
X1049839Y1119284D01*
X1052461Y1120798D01*
X1054602Y1122939D01*
X1056116Y1125561D01*
X1056900Y1128486D01*
Y1131514D01*
X1056116Y1134439D01*
X1054602Y1137061D01*
X1052461Y1139202D01*
X1049839Y1140716D01*
X1046914Y1141500D01*
D02*
G37*
G36*
X912914D02*
X909886D01*
X906961Y1140716D01*
X904339Y1139202D01*
X902198Y1137061D01*
X900684Y1134439D01*
X899900Y1131514D01*
Y1128486D01*
X900684Y1125561D01*
X902198Y1122939D01*
X904339Y1120798D01*
X906961Y1119284D01*
X909886Y1118500D01*
X912914D01*
X915839Y1119284D01*
X918461Y1120798D01*
X920602Y1122939D01*
X922116Y1125561D01*
X922900Y1128486D01*
Y1131514D01*
X922116Y1134439D01*
X920602Y1137061D01*
X918461Y1139202D01*
X915839Y1140716D01*
X912914Y1141500D01*
D02*
G37*
G36*
X887514D02*
X884486D01*
X881561Y1140716D01*
X878939Y1139202D01*
X876798Y1137061D01*
X875284Y1134439D01*
X874500Y1131514D01*
Y1128486D01*
X875284Y1125561D01*
X876798Y1122939D01*
X878939Y1120798D01*
X881561Y1119284D01*
X884486Y1118500D01*
X887514D01*
X890439Y1119284D01*
X893061Y1120798D01*
X895202Y1122939D01*
X896717Y1125561D01*
X897500Y1128486D01*
Y1131514D01*
X896717Y1134439D01*
X895202Y1137061D01*
X893061Y1139202D01*
X890439Y1140716D01*
X887514Y1141500D01*
D02*
G37*
G36*
X1220014Y1140500D02*
X1216986D01*
X1214061Y1139716D01*
X1211439Y1138202D01*
X1209298Y1136061D01*
X1207784Y1133439D01*
X1207000Y1130514D01*
Y1127486D01*
X1207784Y1124561D01*
X1209298Y1121939D01*
X1211439Y1119798D01*
X1214061Y1118284D01*
X1216986Y1117500D01*
X1220014D01*
X1222939Y1118284D01*
X1225561Y1119798D01*
X1227702Y1121939D01*
X1229216Y1124561D01*
X1230000Y1127486D01*
Y1130514D01*
X1229216Y1133439D01*
X1227702Y1136061D01*
X1225561Y1138202D01*
X1222939Y1139716D01*
X1220014Y1140500D01*
D02*
G37*
G36*
X1194614D02*
X1191586D01*
X1188661Y1139716D01*
X1186039Y1138202D01*
X1183898Y1136061D01*
X1182384Y1133439D01*
X1181600Y1130514D01*
Y1127486D01*
X1182384Y1124561D01*
X1183898Y1121939D01*
X1186039Y1119798D01*
X1188661Y1118284D01*
X1191586Y1117500D01*
X1194614D01*
X1197539Y1118284D01*
X1200161Y1119798D01*
X1202302Y1121939D01*
X1203816Y1124561D01*
X1204600Y1127486D01*
Y1130514D01*
X1203816Y1133439D01*
X1202302Y1136061D01*
X1200161Y1138202D01*
X1197539Y1139716D01*
X1194614Y1140500D01*
D02*
G37*
G36*
X1383514Y1140000D02*
X1380486D01*
X1377561Y1139216D01*
X1374939Y1137702D01*
X1372798Y1135561D01*
X1371284Y1132939D01*
X1370500Y1130014D01*
Y1126986D01*
X1371284Y1124061D01*
X1372798Y1121439D01*
X1374939Y1119298D01*
X1377561Y1117784D01*
X1380486Y1117000D01*
X1383514D01*
X1386439Y1117784D01*
X1389061Y1119298D01*
X1391203Y1121439D01*
X1392717Y1124061D01*
X1393500Y1126986D01*
Y1130014D01*
X1392717Y1132939D01*
X1391203Y1135561D01*
X1389061Y1137702D01*
X1386439Y1139216D01*
X1383514Y1140000D01*
D02*
G37*
G36*
X1358114D02*
X1355086D01*
X1352162Y1139216D01*
X1349539Y1137702D01*
X1347398Y1135561D01*
X1345884Y1132939D01*
X1345100Y1130014D01*
Y1126986D01*
X1345884Y1124061D01*
X1347398Y1121439D01*
X1349539Y1119298D01*
X1352162Y1117784D01*
X1355086Y1117000D01*
X1358114D01*
X1361039Y1117784D01*
X1363661Y1119298D01*
X1365803Y1121439D01*
X1367317Y1124061D01*
X1368100Y1126986D01*
Y1130014D01*
X1367317Y1132939D01*
X1365803Y1135561D01*
X1363661Y1137702D01*
X1361039Y1139216D01*
X1358114Y1140000D01*
D02*
G37*
G36*
X766514Y1119200D02*
X763486D01*
X760561Y1118416D01*
X757939Y1116902D01*
X756301Y1115265D01*
X736252D01*
X736252Y1115265D01*
X735273Y1115136D01*
X734294Y1115007D01*
X732470Y1114251D01*
X730903Y1113049D01*
X730419Y1112565D01*
X713699D01*
X712061Y1114202D01*
X709439Y1115716D01*
X706514Y1116500D01*
X703486D01*
X700561Y1115716D01*
X697939Y1114202D01*
X695798Y1112061D01*
X694284Y1109439D01*
X693500Y1106514D01*
Y1103486D01*
X694284Y1100561D01*
X695798Y1097939D01*
X697939Y1095798D01*
X698221Y1095635D01*
Y1094365D01*
X697939Y1094202D01*
X695798Y1092061D01*
X694284Y1089439D01*
X693500Y1086514D01*
Y1083486D01*
X694284Y1080561D01*
X695798Y1077939D01*
X697939Y1075798D01*
X700561Y1074284D01*
X703486Y1073500D01*
X706514D01*
X709439Y1074284D01*
X712061Y1075798D01*
X714202Y1077939D01*
X715716Y1080561D01*
X716500Y1083486D01*
Y1086514D01*
X715716Y1089439D01*
X714202Y1092061D01*
X712061Y1094202D01*
X711779Y1094365D01*
Y1095635D01*
X712061Y1095798D01*
X713699Y1097435D01*
X733552D01*
X735510Y1097693D01*
X737334Y1098449D01*
X738901Y1099651D01*
X739385Y1100135D01*
X756301D01*
X757939Y1098498D01*
X760561Y1096984D01*
X763486Y1096200D01*
X766514D01*
X769439Y1096984D01*
X772061Y1098498D01*
X774202Y1100639D01*
X775716Y1103261D01*
X776500Y1106186D01*
Y1109214D01*
X775716Y1112139D01*
X774202Y1114761D01*
X772061Y1116902D01*
X769439Y1118416D01*
X766514Y1119200D01*
D02*
G37*
G36*
X1516118Y1126930D02*
X1512882D01*
X1509707Y1126299D01*
X1506717Y1125060D01*
X1504026Y1123262D01*
X1501738Y1120974D01*
X1499940Y1118283D01*
X1498701Y1115293D01*
X1498070Y1112118D01*
Y1108882D01*
X1498701Y1105708D01*
X1499940Y1102718D01*
X1501738Y1100027D01*
X1504026Y1097738D01*
X1506717Y1095940D01*
X1509707Y1094702D01*
X1512882Y1094070D01*
X1516118D01*
X1519292Y1094702D01*
X1522282Y1095940D01*
X1524973Y1097738D01*
X1527262Y1100027D01*
X1529060Y1102718D01*
X1530298Y1105708D01*
X1530930Y1108882D01*
Y1112118D01*
X1530298Y1115293D01*
X1529060Y1118283D01*
X1527262Y1120974D01*
X1524973Y1123262D01*
X1522282Y1125060D01*
X1519292Y1126299D01*
X1516118Y1126930D01*
D02*
G37*
G36*
X766514Y1093800D02*
X763486D01*
X760561Y1093016D01*
X757939Y1091502D01*
X755798Y1089361D01*
X754284Y1086739D01*
X753500Y1083814D01*
Y1080786D01*
X754284Y1077861D01*
X755798Y1075239D01*
X757939Y1073098D01*
X760561Y1071584D01*
X763486Y1070800D01*
X766514D01*
X769439Y1071584D01*
X772061Y1073098D01*
X774202Y1075239D01*
X775716Y1077861D01*
X776500Y1080786D01*
Y1083814D01*
X775716Y1086739D01*
X774202Y1089361D01*
X772061Y1091502D01*
X769439Y1093016D01*
X766514Y1093800D01*
D02*
G37*
G36*
X1598712Y1119800D02*
X1595289D01*
X1591982Y1118914D01*
X1589018Y1117203D01*
X1586597Y1114782D01*
X1584886Y1111818D01*
X1584000Y1108511D01*
Y1105088D01*
X1584886Y1101782D01*
X1586597Y1098818D01*
X1589018Y1096397D01*
X1591813Y1094783D01*
X1591904Y1094100D01*
X1591813Y1093416D01*
X1589018Y1091803D01*
X1586597Y1089382D01*
X1584886Y1086418D01*
X1584000Y1083111D01*
Y1079688D01*
X1584886Y1076382D01*
X1586597Y1073418D01*
X1589018Y1070997D01*
X1591813Y1069383D01*
X1591904Y1068700D01*
X1591813Y1068016D01*
X1589018Y1066403D01*
X1586597Y1063982D01*
X1584886Y1061018D01*
X1584000Y1057711D01*
Y1054288D01*
X1584886Y1050982D01*
X1586597Y1048018D01*
X1589018Y1045597D01*
X1591982Y1043886D01*
X1595289Y1043000D01*
X1598712D01*
X1602018Y1043886D01*
X1604982Y1045597D01*
X1607403Y1048018D01*
X1609114Y1050982D01*
X1610000Y1054288D01*
Y1057711D01*
X1609114Y1061018D01*
X1607403Y1063982D01*
X1604982Y1066403D01*
X1602187Y1068016D01*
X1602096Y1068700D01*
X1602187Y1069383D01*
X1604982Y1070997D01*
X1607403Y1073418D01*
X1609114Y1076382D01*
X1610000Y1079688D01*
Y1083111D01*
X1609114Y1086418D01*
X1607403Y1089382D01*
X1604982Y1091803D01*
X1602187Y1093416D01*
X1602096Y1094100D01*
X1602187Y1094783D01*
X1604982Y1096397D01*
X1607403Y1098818D01*
X1609114Y1101782D01*
X1610000Y1105088D01*
Y1108511D01*
X1609114Y1111818D01*
X1607403Y1114782D01*
X1604982Y1117203D01*
X1602018Y1118914D01*
X1598712Y1119800D01*
D02*
G37*
G36*
X1219014Y1043000D02*
X1215986D01*
X1213061Y1042216D01*
X1210439Y1040702D01*
X1208298Y1038561D01*
X1208135Y1038279D01*
X1206865D01*
X1206702Y1038561D01*
X1204561Y1040702D01*
X1201939Y1042216D01*
X1199014Y1043000D01*
X1195986D01*
X1193061Y1042216D01*
X1190439Y1040702D01*
X1188298Y1038561D01*
X1186784Y1035939D01*
X1186000Y1033014D01*
Y1029986D01*
X1186784Y1027061D01*
X1188298Y1024439D01*
X1190439Y1022298D01*
X1193061Y1020784D01*
X1195986Y1020000D01*
X1199014D01*
X1201939Y1020784D01*
X1204561Y1022298D01*
X1206702Y1024439D01*
X1206865Y1024721D01*
X1208135D01*
X1208298Y1024439D01*
X1210439Y1022298D01*
X1213061Y1020784D01*
X1215986Y1020000D01*
X1219014D01*
X1221939Y1020784D01*
X1224561Y1022298D01*
X1226702Y1024439D01*
X1228216Y1027061D01*
X1229000Y1029986D01*
Y1033014D01*
X1228216Y1035939D01*
X1226702Y1038561D01*
X1224561Y1040702D01*
X1221939Y1042216D01*
X1219014Y1043000D01*
D02*
G37*
G36*
X1073014Y1042000D02*
X1069986D01*
X1067061Y1041216D01*
X1064439Y1039702D01*
X1062298Y1037561D01*
X1062135Y1037279D01*
X1060865D01*
X1060702Y1037561D01*
X1058561Y1039702D01*
X1055939Y1041216D01*
X1053014Y1042000D01*
X1049986D01*
X1047061Y1041216D01*
X1044439Y1039702D01*
X1042298Y1037561D01*
X1040784Y1034939D01*
X1040000Y1032014D01*
Y1028986D01*
X1040784Y1026061D01*
X1042298Y1023439D01*
X1044439Y1021298D01*
X1047061Y1019784D01*
X1049986Y1019000D01*
X1053014D01*
X1055939Y1019784D01*
X1058561Y1021298D01*
X1060702Y1023439D01*
X1060865Y1023720D01*
X1062135D01*
X1062298Y1023439D01*
X1064439Y1021298D01*
X1067061Y1019784D01*
X1069986Y1019000D01*
X1073014D01*
X1075939Y1019784D01*
X1078561Y1021298D01*
X1080702Y1023439D01*
X1082216Y1026061D01*
X1083000Y1028986D01*
Y1032014D01*
X1082216Y1034939D01*
X1080702Y1037561D01*
X1078561Y1039702D01*
X1075939Y1041216D01*
X1073014Y1042000D01*
D02*
G37*
G36*
X945724Y1067000D02*
X942277D01*
X938896Y1066328D01*
X935711Y1065008D01*
X932844Y1063093D01*
X930407Y1060656D01*
X928492Y1057789D01*
X927173Y1054605D01*
X926500Y1051224D01*
Y1047776D01*
X927173Y1044396D01*
X928492Y1041211D01*
X930407Y1038344D01*
X932844Y1035907D01*
X935711Y1033992D01*
X938896Y1032673D01*
X942277Y1032000D01*
X945724D01*
X949105Y1032673D01*
X952290Y1033992D01*
X955156Y1035907D01*
X957593Y1038344D01*
X959508Y1041211D01*
X960828Y1044396D01*
X961500Y1047776D01*
Y1051224D01*
X960828Y1054605D01*
X959508Y1057789D01*
X957593Y1060656D01*
X955156Y1063093D01*
X952290Y1065008D01*
X949105Y1066328D01*
X945724Y1067000D01*
D02*
G37*
G36*
X851728Y1040300D02*
X848773D01*
X845875Y1039724D01*
X843145Y1038593D01*
X840688Y1036951D01*
X838599Y1034862D01*
X837264Y1032865D01*
X787801D01*
X785843Y1032607D01*
X784019Y1031851D01*
X782452Y1030649D01*
X782452Y1030649D01*
X770802Y1018999D01*
X768486D01*
X765561Y1018215D01*
X762939Y1016701D01*
X761301Y1015063D01*
X738339D01*
X736381Y1014806D01*
X734557Y1014050D01*
X733611Y1013324D01*
X713699D01*
X712061Y1014962D01*
X709439Y1016476D01*
X706514Y1017260D01*
X703486D01*
X700561Y1016476D01*
X697939Y1014962D01*
X695798Y1012821D01*
X694284Y1010199D01*
X693500Y1007274D01*
Y1004246D01*
X694284Y1001321D01*
X695798Y998699D01*
X697939Y996557D01*
X698221Y996395D01*
Y995125D01*
X697939Y994962D01*
X695798Y992821D01*
X694284Y990199D01*
X693500Y987274D01*
Y984246D01*
X694284Y981321D01*
X695798Y978699D01*
X697939Y976557D01*
X700561Y975043D01*
X703486Y974260D01*
X706514D01*
X709439Y975043D01*
X712061Y976557D01*
X714202Y978699D01*
X715716Y981321D01*
X716500Y984246D01*
Y987274D01*
X715716Y990199D01*
X714202Y992821D01*
X712061Y994962D01*
X711779Y995125D01*
Y996395D01*
X712061Y996557D01*
X713699Y998195D01*
X736600D01*
X738558Y998453D01*
X740382Y999209D01*
X741328Y999934D01*
X761301D01*
X762939Y998296D01*
X765561Y996782D01*
X768486Y995999D01*
X771514D01*
X774439Y996782D01*
X777061Y998296D01*
X779202Y1000437D01*
X780716Y1003060D01*
X781500Y1005985D01*
Y1008300D01*
X790935Y1017735D01*
X837264D01*
X838599Y1015738D01*
X840688Y1013649D01*
X843145Y1012007D01*
X845875Y1010876D01*
X848773Y1010300D01*
X851728D01*
X854626Y1010876D01*
X857355Y1012007D01*
X859812Y1013649D01*
X861901Y1015738D01*
X863543Y1018195D01*
X864674Y1020925D01*
X865250Y1023823D01*
Y1026777D01*
X864674Y1029675D01*
X863543Y1032405D01*
X861901Y1034862D01*
X859812Y1036951D01*
X857355Y1038593D01*
X854626Y1039724D01*
X851728Y1040300D01*
D02*
G37*
G36*
X771514Y993599D02*
X768486D01*
X765561Y992815D01*
X762939Y991301D01*
X760798Y989160D01*
X759284Y986537D01*
X758500Y983613D01*
Y980585D01*
X759284Y977660D01*
X760798Y975038D01*
X762939Y972896D01*
X765561Y971382D01*
X768486Y970599D01*
X771514D01*
X774439Y971382D01*
X777061Y972896D01*
X779202Y975038D01*
X780716Y977660D01*
X781500Y980585D01*
Y983613D01*
X780716Y986537D01*
X779202Y989160D01*
X777061Y991301D01*
X774439Y992815D01*
X771514Y993599D01*
D02*
G37*
G36*
X1298014Y990000D02*
X1294986D01*
X1292061Y989216D01*
X1289439Y987702D01*
X1287298Y985561D01*
X1285784Y982939D01*
X1285000Y980014D01*
Y976986D01*
X1285784Y974061D01*
X1287298Y971439D01*
X1289439Y969298D01*
X1292061Y967784D01*
X1294986Y967000D01*
X1298014D01*
X1300939Y967784D01*
X1303561Y969298D01*
X1305702Y971439D01*
X1307216Y974061D01*
X1308000Y976986D01*
Y980014D01*
X1307216Y982939D01*
X1305702Y985561D01*
X1303561Y987702D01*
X1300939Y989216D01*
X1298014Y990000D01*
D02*
G37*
G36*
X1272614D02*
X1269586D01*
X1266661Y989216D01*
X1264039Y987702D01*
X1261898Y985561D01*
X1260384Y982939D01*
X1259600Y980014D01*
Y976986D01*
X1260384Y974061D01*
X1261898Y971439D01*
X1264039Y969298D01*
X1266661Y967784D01*
X1269586Y967000D01*
X1272614D01*
X1275539Y967784D01*
X1278161Y969298D01*
X1280302Y971439D01*
X1281816Y974061D01*
X1282600Y976986D01*
Y980014D01*
X1281816Y982939D01*
X1280302Y985561D01*
X1278161Y987702D01*
X1275539Y989216D01*
X1272614Y990000D01*
D02*
G37*
G36*
X1188014D02*
X1184986D01*
X1182061Y989216D01*
X1179439Y987702D01*
X1177298Y985561D01*
X1175784Y982939D01*
X1175000Y980014D01*
Y976986D01*
X1175784Y974061D01*
X1177298Y971439D01*
X1179439Y969298D01*
X1182061Y967784D01*
X1184986Y967000D01*
X1188014D01*
X1190939Y967784D01*
X1193561Y969298D01*
X1195702Y971439D01*
X1197216Y974061D01*
X1198000Y976986D01*
Y980014D01*
X1197216Y982939D01*
X1195702Y985561D01*
X1193561Y987702D01*
X1190939Y989216D01*
X1188014Y990000D01*
D02*
G37*
G36*
X1162614D02*
X1159586D01*
X1156661Y989216D01*
X1154039Y987702D01*
X1151898Y985561D01*
X1150384Y982939D01*
X1149600Y980014D01*
Y976986D01*
X1150384Y974061D01*
X1151898Y971439D01*
X1154039Y969298D01*
X1156661Y967784D01*
X1159586Y967000D01*
X1162614D01*
X1165539Y967784D01*
X1168161Y969298D01*
X1170302Y971439D01*
X1171816Y974061D01*
X1172600Y976986D01*
Y980014D01*
X1171816Y982939D01*
X1170302Y985561D01*
X1168161Y987702D01*
X1165539Y989216D01*
X1162614Y990000D01*
D02*
G37*
G36*
X1516118Y999930D02*
X1512882D01*
X1509707Y999299D01*
X1506717Y998060D01*
X1504026Y996262D01*
X1501738Y993974D01*
X1499940Y991283D01*
X1498701Y988293D01*
X1498070Y985118D01*
Y981882D01*
X1498701Y978708D01*
X1499940Y975718D01*
X1501738Y973027D01*
X1504026Y970738D01*
X1506717Y968940D01*
X1509707Y967702D01*
X1512882Y967070D01*
X1516118D01*
X1519292Y967702D01*
X1522282Y968940D01*
X1524973Y970738D01*
X1527262Y973027D01*
X1529060Y975718D01*
X1529340Y976393D01*
X1530610Y976141D01*
Y973672D01*
X1531556Y970139D01*
X1533385Y966972D01*
X1535971Y964385D01*
X1539138Y962557D01*
X1542671Y961610D01*
X1546328D01*
X1549861Y962557D01*
X1553029Y964385D01*
X1555615Y966972D01*
X1557443Y970139D01*
X1558390Y973672D01*
Y977329D01*
X1557443Y980862D01*
X1555615Y984029D01*
X1553029Y986615D01*
X1549861Y988444D01*
X1546328Y989390D01*
X1542671D01*
X1539138Y988444D01*
X1535971Y986615D01*
X1533385Y984029D01*
X1532200Y981976D01*
X1530930Y982316D01*
Y985118D01*
X1530298Y988293D01*
X1529060Y991283D01*
X1527262Y993974D01*
X1524973Y996262D01*
X1522282Y998060D01*
X1519292Y999299D01*
X1516118Y999930D01*
D02*
G37*
G36*
X1074015Y947284D02*
X1071777D01*
X1069615Y946705D01*
X1067677Y945586D01*
X1066094Y944003D01*
X1064975Y942065D01*
X1064396Y939903D01*
Y937665D01*
X1064975Y935503D01*
X1066094Y933565D01*
X1067677Y931982D01*
X1069615Y930863D01*
X1071777Y930284D01*
X1074015D01*
X1076177Y930863D01*
X1078115Y931982D01*
X1079698Y933565D01*
X1080817Y935503D01*
X1081396Y937665D01*
Y939903D01*
X1080817Y942065D01*
X1079698Y944003D01*
X1078115Y945586D01*
X1076177Y946705D01*
X1074015Y947284D01*
D02*
G37*
G36*
X1401569Y937378D02*
X1399331D01*
X1397169Y936799D01*
X1395231Y935680D01*
X1393648Y934097D01*
X1392529Y932159D01*
X1391950Y929997D01*
Y927759D01*
X1392529Y925597D01*
X1393648Y923659D01*
X1395231Y922076D01*
X1397169Y920957D01*
X1399331Y920378D01*
X1401569D01*
X1403731Y920957D01*
X1405669Y922076D01*
X1407251Y923659D01*
X1408371Y925597D01*
X1408950Y927759D01*
Y929997D01*
X1408371Y932159D01*
X1407251Y934097D01*
X1405669Y935680D01*
X1403731Y936799D01*
X1401569Y937378D01*
D02*
G37*
G36*
X945724Y1012000D02*
X942277D01*
X938896Y1011327D01*
X935711Y1010008D01*
X932844Y1008093D01*
X930407Y1005656D01*
X928492Y1002789D01*
X927173Y999604D01*
X926500Y996224D01*
Y992776D01*
X927173Y989395D01*
X928492Y986210D01*
X930407Y983344D01*
X932844Y980907D01*
X935711Y978992D01*
X936435Y978691D01*
Y975836D01*
X865217Y904617D01*
X864140Y905336D01*
X864674Y906625D01*
X865250Y909523D01*
Y912477D01*
X864674Y915375D01*
X863543Y918105D01*
X861901Y920562D01*
X859812Y922651D01*
X857355Y924293D01*
X854626Y925424D01*
X851728Y926000D01*
X848773D01*
X845875Y925424D01*
X843145Y924293D01*
X840688Y922651D01*
X838599Y920562D01*
X836957Y918105D01*
X835827Y915375D01*
X835250Y912477D01*
Y909523D01*
X835827Y906625D01*
X836957Y903895D01*
X838599Y901438D01*
X840688Y899349D01*
X841135Y899050D01*
X840767Y897835D01*
X837270D01*
X837270Y897835D01*
X835312Y897577D01*
X833487Y896821D01*
X831921Y895619D01*
X729177Y792875D01*
X728711Y793000D01*
X725288D01*
X721982Y792114D01*
X719018Y790403D01*
X716597Y787982D01*
X714886Y785018D01*
X714000Y781711D01*
Y778288D01*
X714886Y774982D01*
X716597Y772018D01*
X719018Y769597D01*
X721982Y767886D01*
X725288Y767000D01*
X728711D01*
X732018Y767886D01*
X734982Y769597D01*
X737402Y772018D01*
X739114Y774982D01*
X740000Y778288D01*
Y781711D01*
X739875Y782177D01*
X840403Y882705D01*
X860261D01*
X860788Y881435D01*
X854083Y874731D01*
X851728Y875200D01*
X848773D01*
X845875Y874623D01*
X843145Y873493D01*
X840688Y871851D01*
X838599Y869762D01*
X836957Y867305D01*
X835827Y864575D01*
X835250Y861677D01*
Y858723D01*
X835827Y855825D01*
X836957Y853095D01*
X838000Y851535D01*
X837321Y850265D01*
X831270D01*
X829312Y850007D01*
X827487Y849251D01*
X825921Y848049D01*
X825921Y848049D01*
X721651Y743779D01*
X720449Y742212D01*
X719913Y740920D01*
X719018Y740403D01*
X716597Y737982D01*
X714886Y735018D01*
X714000Y731712D01*
Y728289D01*
X714886Y724982D01*
X716597Y722018D01*
X719018Y719597D01*
X721982Y717886D01*
X725288Y717000D01*
X728711D01*
X732018Y717886D01*
X734982Y719597D01*
X737402Y722018D01*
X739114Y724982D01*
X740000Y728289D01*
Y731712D01*
X739114Y735018D01*
X737402Y737982D01*
X737326Y738058D01*
X834403Y835135D01*
X844231D01*
X844757Y833865D01*
X829251Y818359D01*
X828049Y816793D01*
X827293Y814968D01*
X827036Y813010D01*
Y809780D01*
X825796Y808163D01*
X824780Y805711D01*
X824433Y803080D01*
Y792920D01*
X824780Y790288D01*
X825796Y787836D01*
X827411Y785731D01*
X829517Y784115D01*
X831969Y783099D01*
X834600Y782753D01*
X837232Y783099D01*
X837890Y783372D01*
X838610Y782296D01*
X765427Y709113D01*
X716280D01*
X716280Y709113D01*
X714322Y708855D01*
X712498Y708099D01*
X710931Y706897D01*
X666227Y662193D01*
X665025Y660626D01*
X664269Y658802D01*
X664011Y656844D01*
Y604012D01*
X664269Y602054D01*
X665025Y600230D01*
X666227Y598663D01*
X724139Y540751D01*
X725706Y539549D01*
X727530Y538793D01*
X728509Y538664D01*
X729488Y538535D01*
X729488Y538535D01*
X835067D01*
X903463Y470139D01*
X903463Y470139D01*
X905030Y468937D01*
X906854Y468181D01*
X908812Y467923D01*
X908812Y467923D01*
X1002689D01*
X1003215Y466653D01*
X1002131Y465569D01*
X1000403Y462982D01*
X999212Y460107D01*
X998605Y457056D01*
Y453945D01*
X999212Y450893D01*
X1000403Y448018D01*
X1002131Y445432D01*
X1004331Y443231D01*
X1006918Y441503D01*
X1009793Y440312D01*
X1012844Y439705D01*
X1015956D01*
X1019007Y440312D01*
X1021881Y441503D01*
X1024469Y443231D01*
X1026669Y445432D01*
X1028397Y448018D01*
X1029588Y450893D01*
X1030195Y453945D01*
Y457056D01*
X1029588Y460107D01*
X1028397Y462982D01*
X1026669Y465569D01*
X1024469Y467769D01*
X1021964Y469442D01*
Y475488D01*
X1021707Y477446D01*
X1020951Y479270D01*
X1019749Y480837D01*
X1018182Y482039D01*
X1016358Y482795D01*
X1014400Y483053D01*
X911945D01*
X843549Y551449D01*
X841982Y552651D01*
X840158Y553407D01*
X838200Y553665D01*
X781336D01*
X781211Y554935D01*
X784244Y555538D01*
X787927Y557064D01*
X791242Y559279D01*
X794061Y562098D01*
X796276Y565413D01*
X797802Y569096D01*
X798580Y573007D01*
Y576994D01*
X797802Y580904D01*
X796276Y584587D01*
X794061Y587902D01*
X791242Y590722D01*
X787927Y592937D01*
X784244Y594462D01*
X780333Y595240D01*
X776346D01*
X772436Y594462D01*
X768753Y592937D01*
X765438Y590722D01*
X762618Y587902D01*
X760403Y584587D01*
X758878Y580904D01*
X758100Y576994D01*
Y573007D01*
X758878Y569096D01*
X760403Y565413D01*
X762618Y562098D01*
X765438Y559279D01*
X768753Y557064D01*
X772436Y555538D01*
X775469Y554935D01*
X775344Y553665D01*
X732621D01*
X680859Y605427D01*
X681346Y606600D01*
X709700D01*
Y616735D01*
X792080D01*
X794038Y616993D01*
X795339Y617532D01*
X797836Y616498D01*
X801746Y615720D01*
X805733D01*
X809644Y616498D01*
X813327Y618024D01*
X816642Y620239D01*
X819461Y623058D01*
X821676Y626373D01*
X822932Y629404D01*
X892199D01*
X1088034Y433569D01*
X1089392Y432528D01*
X1090973Y431873D01*
X1092670Y431649D01*
X1145905D01*
X1147602Y431873D01*
X1149183Y432528D01*
X1150541Y433569D01*
X1176471Y459499D01*
X1177644Y459013D01*
Y390726D01*
X1176218Y389902D01*
X1173798Y387482D01*
X1172086Y384518D01*
X1171200Y381211D01*
Y377788D01*
X1172086Y374482D01*
X1173798Y371518D01*
X1176218Y369097D01*
X1179183Y367386D01*
X1182489Y366500D01*
X1185912D01*
X1189218Y367386D01*
X1192182Y369097D01*
X1194603Y371518D01*
X1196217Y374313D01*
X1196900Y374404D01*
X1197584Y374313D01*
X1199198Y371518D01*
X1201618Y369097D01*
X1204583Y367386D01*
X1207889Y366500D01*
X1211312D01*
X1214618Y367386D01*
X1217582Y369097D01*
X1220003Y371518D01*
X1221617Y374313D01*
X1222300Y374404D01*
X1222984Y374313D01*
X1224598Y371518D01*
X1227018Y369097D01*
X1229983Y367386D01*
X1233289Y366500D01*
X1236712D01*
X1240018Y367386D01*
X1242982Y369097D01*
X1245403Y371518D01*
X1247017Y374313D01*
X1247700Y374404D01*
X1248384Y374313D01*
X1249998Y371518D01*
X1252418Y369097D01*
X1255383Y367386D01*
X1258689Y366500D01*
X1262112D01*
X1265418Y367386D01*
X1268382Y369097D01*
X1270803Y371518D01*
X1272417Y374313D01*
X1273100Y374404D01*
X1273784Y374313D01*
X1275398Y371518D01*
X1277818Y369097D01*
X1280782Y367386D01*
X1284089Y366500D01*
X1287512D01*
X1290818Y367386D01*
X1293783Y369097D01*
X1296203Y371518D01*
X1297817Y374313D01*
X1298500Y374404D01*
X1299184Y374313D01*
X1300798Y371518D01*
X1303218Y369097D01*
X1306183Y367386D01*
X1309489Y366500D01*
X1312912D01*
X1316218Y367386D01*
X1319182Y369097D01*
X1321603Y371518D01*
X1323217Y374313D01*
X1323900Y374404D01*
X1324584Y374313D01*
X1326198Y371518D01*
X1328618Y369097D01*
X1331582Y367386D01*
X1334889Y366500D01*
X1338312D01*
X1341618Y367386D01*
X1344583Y369097D01*
X1347003Y371518D01*
X1348617Y374313D01*
X1349300Y374404D01*
X1349984Y374313D01*
X1351598Y371518D01*
X1354018Y369097D01*
X1356983Y367386D01*
X1360289Y366500D01*
X1363712D01*
X1367018Y367386D01*
X1369982Y369097D01*
X1372403Y371518D01*
X1374017Y374313D01*
X1374700Y374404D01*
X1375384Y374313D01*
X1376998Y371518D01*
X1379418Y369097D01*
X1382383Y367386D01*
X1385689Y366500D01*
X1389112D01*
X1392418Y367386D01*
X1395383Y369097D01*
X1397803Y371518D01*
X1399417Y374313D01*
X1400100Y374404D01*
X1400784Y374313D01*
X1402398Y371518D01*
X1404818Y369097D01*
X1407782Y367386D01*
X1411089Y366500D01*
X1414512D01*
X1417818Y367386D01*
X1420782Y369097D01*
X1423203Y371518D01*
X1424817Y374313D01*
X1425500Y374404D01*
X1426184Y374313D01*
X1427798Y371518D01*
X1430218Y369097D01*
X1433183Y367386D01*
X1436489Y366500D01*
X1439912D01*
X1443218Y367386D01*
X1446183Y369097D01*
X1448603Y371518D01*
X1450217Y374313D01*
X1450900Y374404D01*
X1451584Y374313D01*
X1453198Y371518D01*
X1455618Y369097D01*
X1458582Y367386D01*
X1461889Y366500D01*
X1465312D01*
X1468618Y367386D01*
X1471582Y369097D01*
X1474003Y371518D01*
X1475714Y374482D01*
X1476600Y377788D01*
Y381211D01*
X1475714Y384518D01*
X1474003Y387482D01*
X1471582Y389902D01*
X1468618Y391614D01*
X1465312Y392500D01*
X1461889D01*
X1458582Y391614D01*
X1455618Y389902D01*
X1453198Y387482D01*
X1451584Y384687D01*
X1450900Y384596D01*
X1450217Y384687D01*
X1448603Y387482D01*
X1446183Y389902D01*
X1444756Y390726D01*
X1444756Y465274D01*
X1446182Y466097D01*
X1448602Y468518D01*
X1450216Y471313D01*
X1450900Y471404D01*
X1451583Y471313D01*
X1453197Y468518D01*
X1455618Y466097D01*
X1458582Y464386D01*
X1461888Y463500D01*
X1465311D01*
X1468618Y464386D01*
X1471582Y466097D01*
X1474002Y468518D01*
X1475714Y471482D01*
X1476600Y474789D01*
Y478211D01*
X1475714Y481518D01*
X1474002Y484482D01*
X1471582Y486903D01*
X1468618Y488614D01*
X1465311Y489500D01*
X1461888D01*
X1458582Y488614D01*
X1455618Y486903D01*
X1453197Y484482D01*
X1451583Y481687D01*
X1450900Y481596D01*
X1450216Y481687D01*
X1448602Y484482D01*
X1446182Y486903D01*
X1445764Y487144D01*
Y524458D01*
X1445764Y524458D01*
X1445507Y526416D01*
X1444751Y528241D01*
X1443549Y529807D01*
X1325641Y647715D01*
X1324074Y648917D01*
X1322250Y649673D01*
X1320292Y649931D01*
X1259840D01*
X1259840Y649931D01*
X1257882Y649673D01*
X1256058Y648917D01*
X1254491Y647715D01*
X1254491Y647715D01*
X1248611Y641835D01*
X1247923Y641651D01*
X1245985Y640532D01*
X1244402Y638949D01*
X1243283Y637011D01*
X1242704Y634849D01*
Y632611D01*
X1243283Y630449D01*
X1244402Y628511D01*
X1245985Y626928D01*
X1247923Y625809D01*
X1250085Y625230D01*
X1252323D01*
X1254485Y625809D01*
X1256423Y626928D01*
X1258006Y628511D01*
X1259125Y630449D01*
X1259309Y631137D01*
X1262973Y634801D01*
X1276392D01*
X1277334Y633531D01*
X1277170Y632291D01*
X1277428Y630334D01*
X1278184Y628509D01*
X1279386Y626942D01*
X1280953Y625740D01*
X1281626Y625461D01*
X1282579Y624572D01*
X1282387Y623855D01*
X1282000Y622410D01*
Y620172D01*
X1282579Y618010D01*
X1282935Y617394D01*
Y586398D01*
X1282579Y585781D01*
X1282000Y583619D01*
Y581381D01*
X1282579Y579219D01*
X1283698Y577281D01*
X1285281Y575699D01*
X1286792Y574826D01*
X1286451Y573556D01*
X1263465D01*
X1263219Y573802D01*
X1261281Y574921D01*
X1259119Y575500D01*
X1256881D01*
X1254719Y574921D01*
X1252781Y573802D01*
X1251198Y572219D01*
X1250079Y570281D01*
X1249500Y568119D01*
Y565881D01*
X1250079Y563719D01*
X1251198Y561781D01*
X1252781Y560198D01*
X1254719Y559079D01*
X1256881Y558500D01*
X1257877D01*
X1258167Y557328D01*
X1258155Y557230D01*
X1256618Y556051D01*
X1255891Y555103D01*
X1254310Y554888D01*
X1222105Y587093D01*
X1221921Y587781D01*
X1220802Y589719D01*
X1219219Y591301D01*
X1217281Y592421D01*
X1215119Y593000D01*
X1212881D01*
X1210719Y592421D01*
X1208781Y591301D01*
X1207198Y589719D01*
X1206079Y587781D01*
X1205500Y585619D01*
Y583381D01*
X1206079Y581219D01*
X1207198Y579281D01*
X1208781Y577698D01*
X1210719Y576579D01*
X1211407Y576395D01*
X1242082Y545720D01*
X1241933Y544072D01*
X1241362Y543634D01*
X1240862Y543133D01*
X1240333Y542443D01*
X1239822Y541778D01*
X1239822Y541776D01*
X1239821Y541775D01*
X1239497Y540993D01*
X1239167Y540197D01*
X1239167Y540195D01*
X1239167Y540193D01*
X1239055Y539344D01*
X1238944Y538500D01*
X1238944Y538498D01*
X1238944Y538497D01*
X1239056Y537652D01*
X1239167Y536803D01*
X1239168Y536801D01*
X1239168Y536800D01*
X1239491Y536022D01*
X1239822Y535222D01*
X1239824Y535220D01*
X1239824Y535219D01*
X1240356Y534527D01*
X1240864Y533864D01*
X1240867Y533862D01*
X1240867Y533862D01*
X1240867Y533862D01*
X1258099Y516630D01*
X1258440Y516368D01*
X1258743Y516064D01*
X1259116Y515849D01*
X1259457Y515588D01*
X1259854Y515423D01*
X1260226Y515208D01*
X1262074Y514443D01*
X1263727Y514000D01*
X1265438Y514000D01*
X1267092Y514443D01*
X1268574Y515299D01*
X1269784Y516509D01*
X1270640Y517991D01*
X1271083Y519644D01*
Y521355D01*
X1270929Y521928D01*
X1271702Y522935D01*
X1279466D01*
X1311728Y490673D01*
X1311242Y489500D01*
X1309488D01*
X1306182Y488614D01*
X1303218Y486903D01*
X1300797Y484482D01*
X1299183Y481687D01*
X1298500Y481596D01*
X1297816Y481687D01*
X1296202Y484482D01*
X1293782Y486903D01*
X1290818Y488614D01*
X1287511Y489500D01*
X1284088D01*
X1282498Y489074D01*
X1241935Y529636D01*
X1240578Y530678D01*
X1238996Y531333D01*
X1237299Y531556D01*
X1217500D01*
X1215803Y531333D01*
X1215103Y531043D01*
X1214131Y532015D01*
X1214567Y533069D01*
X1214791Y534766D01*
X1214567Y536462D01*
X1213913Y538044D01*
X1212871Y539401D01*
X1211513Y540443D01*
X1209932Y541098D01*
X1208235Y541322D01*
X1202642D01*
X1202614Y541333D01*
X1200918Y541556D01*
X1196358D01*
X1194661Y541333D01*
X1193080Y540678D01*
X1191722Y539636D01*
X1186864Y534778D01*
X1185822Y533420D01*
X1185167Y531839D01*
X1184944Y530142D01*
Y519858D01*
X1184944Y519858D01*
Y519858D01*
X1184997Y519455D01*
X1185167Y518161D01*
X1185167Y518161D01*
X1185167Y518161D01*
X1185543Y517254D01*
X1185822Y516580D01*
X1185822Y516580D01*
X1185822Y516580D01*
X1186559Y515619D01*
X1186864Y515222D01*
X1186864Y515222D01*
X1186864Y515222D01*
X1191723Y510364D01*
X1192699Y509615D01*
X1193080Y509323D01*
X1193080Y509323D01*
X1193081Y509322D01*
X1194073Y508912D01*
X1194661Y508668D01*
X1194662Y508667D01*
X1194662Y508667D01*
X1195577Y508547D01*
X1196358Y508444D01*
X1222785D01*
X1228498Y502731D01*
X1229364Y501602D01*
X1238602Y492364D01*
X1239959Y491322D01*
X1241541Y490667D01*
X1243237Y490444D01*
X1244934Y490667D01*
X1246515Y491322D01*
X1247873Y492364D01*
X1248915Y493722D01*
X1249570Y495303D01*
X1249794Y497000D01*
X1249570Y498696D01*
X1248915Y500278D01*
X1247874Y501636D01*
X1239502Y510007D01*
X1238636Y511136D01*
X1232502Y517271D01*
X1232988Y518444D01*
X1234584D01*
X1262362Y490666D01*
X1261732Y489500D01*
X1258688D01*
X1255382Y488614D01*
X1252418Y486903D01*
X1249997Y484482D01*
X1248383Y481687D01*
X1247700Y481596D01*
X1247016Y481687D01*
X1245402Y484482D01*
X1242982Y486903D01*
X1240018Y488614D01*
X1236711Y489500D01*
X1233288D01*
X1229982Y488614D01*
X1227018Y486903D01*
X1224597Y484482D01*
X1222983Y481687D01*
X1222300Y481596D01*
X1221616Y481687D01*
X1220002Y484482D01*
X1217582Y486903D01*
X1214618Y488614D01*
X1211311Y489500D01*
X1207888D01*
X1204582Y488614D01*
X1201618Y486903D01*
X1199197Y484482D01*
X1197583Y481687D01*
X1196900Y481596D01*
X1196216Y481687D01*
X1194602Y484482D01*
X1192182Y486903D01*
X1189218Y488614D01*
X1185911Y489500D01*
X1185390D01*
X1184904Y490673D01*
X1192094Y497864D01*
X1193136Y499222D01*
X1193791Y500803D01*
X1194015Y502500D01*
X1193791Y504197D01*
X1193136Y505778D01*
X1192094Y507136D01*
X1190737Y508178D01*
X1189156Y508833D01*
X1187459Y509056D01*
X1185762Y508833D01*
X1184181Y508178D01*
X1182823Y507136D01*
X1143728Y468041D01*
X1143381D01*
X1141219Y467462D01*
X1139281Y466343D01*
X1137698Y464761D01*
X1136579Y462822D01*
X1136000Y460660D01*
Y458422D01*
X1136579Y456260D01*
X1137698Y454322D01*
X1139281Y452740D01*
X1141219Y451621D01*
X1143381Y451041D01*
X1145619D01*
X1147781Y451621D01*
X1148897Y452265D01*
X1149677Y451249D01*
X1143190Y444761D01*
X1129348D01*
X1128669Y446031D01*
X1129997Y448018D01*
X1131188Y450893D01*
X1131795Y453945D01*
Y457056D01*
X1131188Y460107D01*
X1130804Y461033D01*
X1141636Y471865D01*
X1142678Y473222D01*
X1143333Y474804D01*
X1143556Y476500D01*
Y548784D01*
X1181886Y587115D01*
X1182928Y588472D01*
X1183583Y590054D01*
X1183806Y591750D01*
Y609535D01*
X1184052Y609781D01*
X1185171Y611719D01*
X1185750Y613881D01*
Y616119D01*
X1185171Y618281D01*
X1184052Y620219D01*
X1182469Y621802D01*
X1180531Y622921D01*
X1178369Y623500D01*
X1176131D01*
X1173969Y622921D01*
X1172031Y621802D01*
X1170449Y620219D01*
X1169330Y618281D01*
X1168750Y616119D01*
Y613881D01*
X1169330Y611719D01*
X1170449Y609781D01*
X1170694Y609535D01*
Y594466D01*
X1132364Y556136D01*
X1131322Y554778D01*
X1130667Y553197D01*
X1130444Y551500D01*
Y479216D01*
X1121533Y470305D01*
X1120607Y470688D01*
X1117555Y471295D01*
X1114444D01*
X1111393Y470688D01*
X1108518Y469498D01*
X1105931Y467769D01*
X1103731Y465569D01*
X1102002Y462982D01*
X1100812Y460107D01*
X1100205Y457056D01*
Y453945D01*
X1100812Y450893D01*
X1102002Y448018D01*
X1103330Y446031D01*
X1102651Y444761D01*
X1095386D01*
X925600Y614547D01*
X926086Y615720D01*
X927653D01*
X931564Y616498D01*
X935247Y618024D01*
X938562Y620239D01*
X941381Y623058D01*
X943596Y626373D01*
X945122Y630056D01*
X945900Y633967D01*
Y637954D01*
X945122Y641864D01*
X943596Y645547D01*
X941381Y648862D01*
X938562Y651682D01*
X935247Y653897D01*
X931564Y655422D01*
X927653Y656200D01*
X923666D01*
X919756Y655422D01*
X916073Y653897D01*
X912758Y651682D01*
X909938Y648862D01*
X907723Y645547D01*
X906198Y641864D01*
X905420Y637954D01*
Y636386D01*
X904247Y635900D01*
X899550Y640596D01*
X898193Y641638D01*
X897538Y641909D01*
X896611Y642293D01*
X894915Y642516D01*
X822932D01*
X821676Y645547D01*
X819461Y648862D01*
X816642Y651682D01*
X813327Y653897D01*
X809644Y655422D01*
X805733Y656200D01*
X801746D01*
X797836Y655422D01*
X794153Y653897D01*
X790838Y651682D01*
X788018Y648862D01*
X785803Y645547D01*
X784278Y641864D01*
X783500Y637954D01*
Y633967D01*
X783723Y632846D01*
X782917Y631865D01*
X709700D01*
Y642000D01*
X679141D01*
Y653711D01*
X719413Y693983D01*
X768560D01*
X770518Y694241D01*
X772343Y694997D01*
X773909Y696199D01*
X860534Y782823D01*
X862632Y783099D01*
X865084Y784115D01*
X867189Y785731D01*
X868805Y787836D01*
X869821Y790288D01*
X870167Y792920D01*
Y803080D01*
X869821Y805711D01*
X868805Y808163D01*
X867189Y810269D01*
X865084Y811885D01*
X862632Y812900D01*
X860000Y813247D01*
X857369Y812900D01*
X854917Y811885D01*
X852811Y810269D01*
X851196Y808163D01*
X850180Y805711D01*
X849833Y803080D01*
Y793519D01*
X845225Y788911D01*
X844148Y789630D01*
X844421Y790288D01*
X844767Y792920D01*
Y803080D01*
X844421Y805711D01*
X843405Y808163D01*
X842165Y809780D01*
Y809877D01*
X854033Y821745D01*
X994810D01*
X996768Y822003D01*
X998592Y822759D01*
X1000159Y823961D01*
X1063323Y887125D01*
X1063789Y887000D01*
X1067212D01*
X1070518Y887886D01*
X1073482Y889598D01*
X1075903Y892018D01*
X1077614Y894982D01*
X1078500Y898289D01*
Y901712D01*
X1077614Y905018D01*
X1075903Y907982D01*
X1073482Y910403D01*
X1070518Y912114D01*
X1067212Y913000D01*
X1063789D01*
X1060482Y912114D01*
X1057518Y910403D01*
X1055098Y907982D01*
X1053386Y905018D01*
X1052500Y901712D01*
Y898289D01*
X1052625Y897823D01*
X991676Y836875D01*
X871793D01*
X871267Y838145D01*
X889920Y856797D01*
X952500D01*
X954458Y857055D01*
X956282Y857811D01*
X957849Y859013D01*
X969533Y870697D01*
X969533Y870697D01*
X970735Y872264D01*
X971491Y874088D01*
X971749Y876046D01*
Y919316D01*
X971749Y919316D01*
X971491Y921274D01*
X970735Y923099D01*
X969533Y924666D01*
X969533Y924666D01*
X960527Y933671D01*
X960828Y934396D01*
X961500Y937777D01*
Y941224D01*
X960828Y944605D01*
X959508Y947790D01*
X957593Y950656D01*
X955156Y953093D01*
X952290Y955009D01*
X949105Y956328D01*
X945724Y957000D01*
X942277D01*
X940424Y956632D01*
X939798Y957802D01*
X949349Y967353D01*
X950551Y968920D01*
X951307Y970744D01*
X951565Y972702D01*
Y978691D01*
X952290Y978992D01*
X955156Y980907D01*
X957593Y983344D01*
X959508Y986210D01*
X960828Y989395D01*
X961500Y992776D01*
Y996224D01*
X960828Y999604D01*
X959508Y1002789D01*
X957593Y1005656D01*
X955156Y1008093D01*
X952290Y1010008D01*
X949105Y1011327D01*
X945724Y1012000D01*
D02*
G37*
G36*
X1246555Y929895D02*
X1243444D01*
X1240393Y929288D01*
X1237518Y928097D01*
X1234931Y926369D01*
X1232731Y924168D01*
X1231003Y921581D01*
X1229812Y918707D01*
X1229205Y915655D01*
Y912544D01*
X1229812Y909492D01*
X1231003Y906618D01*
X1232731Y904031D01*
X1234931Y901831D01*
X1237518Y900102D01*
X1240393Y898912D01*
X1243444Y898305D01*
X1246555D01*
X1249607Y898912D01*
X1252482Y900102D01*
X1255069Y901831D01*
X1257269Y904031D01*
X1258997Y906618D01*
X1260188Y909492D01*
X1260795Y912544D01*
Y915655D01*
X1260188Y918707D01*
X1258997Y921581D01*
X1257269Y924168D01*
X1255069Y926369D01*
X1252482Y928097D01*
X1249607Y929288D01*
X1246555Y929895D01*
D02*
G37*
G36*
X1300556Y929395D02*
X1297444D01*
X1294393Y928788D01*
X1291519Y927597D01*
X1288931Y925869D01*
X1286731Y923669D01*
X1285003Y921082D01*
X1283812Y918207D01*
X1283205Y915156D01*
Y912044D01*
X1283812Y908993D01*
X1285003Y906118D01*
X1286731Y903531D01*
X1288931Y901331D01*
X1291519Y899603D01*
X1294393Y898412D01*
X1297444Y897805D01*
X1300556D01*
X1303607Y898412D01*
X1306482Y899603D01*
X1309069Y901331D01*
X1311269Y903531D01*
X1312997Y906118D01*
X1314188Y908993D01*
X1314795Y912044D01*
Y915156D01*
X1314188Y918207D01*
X1312997Y921082D01*
X1311269Y923669D01*
X1309069Y925869D01*
X1306482Y927597D01*
X1303607Y928788D01*
X1300556Y929395D01*
D02*
G37*
G36*
X1361056Y928395D02*
X1357944D01*
X1354893Y927788D01*
X1352018Y926598D01*
X1349431Y924869D01*
X1347231Y922669D01*
X1345503Y920082D01*
X1344312Y917207D01*
X1343705Y914156D01*
Y911044D01*
X1344312Y907993D01*
X1345503Y905118D01*
X1347231Y902531D01*
X1349431Y900331D01*
X1352018Y898603D01*
X1354893Y897412D01*
X1357944Y896805D01*
X1361056D01*
X1364107Y897412D01*
X1366982Y898603D01*
X1369569Y900331D01*
X1371769Y902531D01*
X1373497Y905118D01*
X1374688Y907993D01*
X1375295Y911044D01*
Y914156D01*
X1374688Y917207D01*
X1373497Y920082D01*
X1371769Y922669D01*
X1369569Y924869D01*
X1366982Y926598D01*
X1364107Y927788D01*
X1361056Y928395D01*
D02*
G37*
G36*
X1602712Y944900D02*
X1599289D01*
X1595982Y944014D01*
X1593018Y942303D01*
X1590598Y939882D01*
X1588886Y936918D01*
X1588000Y933612D01*
Y930189D01*
X1588886Y926882D01*
X1590598Y923918D01*
X1593018Y921497D01*
X1595813Y919884D01*
X1595904Y919200D01*
X1595813Y918516D01*
X1593018Y916903D01*
X1590598Y914482D01*
X1588886Y911518D01*
X1588000Y908212D01*
Y904789D01*
X1588426Y903198D01*
X1578385Y893156D01*
X1556754D01*
X1555615Y895129D01*
X1553029Y897715D01*
X1549861Y899544D01*
X1546328Y900490D01*
X1542671D01*
X1539138Y899544D01*
X1535971Y897715D01*
X1533385Y895129D01*
X1531556Y891962D01*
X1530610Y888429D01*
Y884772D01*
X1531556Y881239D01*
X1533385Y878072D01*
X1535971Y875485D01*
X1536944Y874924D01*
Y873654D01*
X1534971Y872515D01*
X1532385Y869929D01*
X1530557Y866761D01*
X1529610Y863229D01*
Y859571D01*
X1530557Y856039D01*
X1532385Y852871D01*
X1534971Y850285D01*
X1538139Y848456D01*
X1541671Y847510D01*
X1545329D01*
X1548861Y848456D01*
X1552029Y850285D01*
X1554615Y852871D01*
X1556443Y856039D01*
X1557390Y859571D01*
Y863229D01*
X1556443Y866761D01*
X1554615Y869929D01*
X1552029Y872515D01*
X1551056Y873076D01*
Y874346D01*
X1553029Y875485D01*
X1555615Y878072D01*
X1556754Y880044D01*
X1581100D01*
X1582797Y880267D01*
X1584378Y880922D01*
X1585736Y881964D01*
X1586834Y883062D01*
X1588000Y882432D01*
Y879389D01*
X1588886Y876082D01*
X1590598Y873118D01*
X1593018Y870697D01*
X1595982Y868986D01*
X1599289Y868100D01*
X1602712D01*
X1606018Y868986D01*
X1608982Y870697D01*
X1611403Y873118D01*
X1613114Y876082D01*
X1614000Y879389D01*
Y882812D01*
X1613114Y886118D01*
X1611403Y889082D01*
X1608982Y891503D01*
X1606187Y893117D01*
X1606096Y893800D01*
X1606187Y894484D01*
X1608982Y896097D01*
X1611403Y898518D01*
X1613114Y901482D01*
X1614000Y904789D01*
Y908212D01*
X1613114Y911518D01*
X1611403Y914482D01*
X1608982Y916903D01*
X1606187Y918516D01*
X1606096Y919200D01*
X1606187Y919884D01*
X1608982Y921497D01*
X1611403Y923918D01*
X1613114Y926882D01*
X1614000Y930189D01*
Y933612D01*
X1613114Y936918D01*
X1611403Y939882D01*
X1608982Y942303D01*
X1606018Y944014D01*
X1602712Y944900D01*
D02*
G37*
G36*
X1143211Y913000D02*
X1139788D01*
X1136482Y912114D01*
X1133518Y910403D01*
X1131097Y907982D01*
X1129386Y905018D01*
X1128500Y901712D01*
Y898289D01*
X1129386Y894982D01*
X1131097Y892018D01*
X1133518Y889598D01*
X1136482Y887886D01*
X1139788Y887000D01*
X1143211D01*
X1146518Y887886D01*
X1149482Y889598D01*
X1151902Y892018D01*
X1153614Y894982D01*
X1154500Y898289D01*
Y901712D01*
X1153614Y905018D01*
X1151902Y907982D01*
X1149482Y910403D01*
X1146518Y912114D01*
X1143211Y913000D01*
D02*
G37*
G36*
X757212D02*
X753789D01*
X750482Y912114D01*
X747518Y910403D01*
X745098Y907982D01*
X743386Y905018D01*
X742500Y901712D01*
Y898289D01*
X743386Y894982D01*
X745098Y892018D01*
X747518Y889598D01*
X750482Y887886D01*
X753789Y887000D01*
X757212D01*
X760518Y887886D01*
X763482Y889598D01*
X765903Y892018D01*
X767614Y894982D01*
X768500Y898289D01*
Y901712D01*
X767614Y905018D01*
X765903Y907982D01*
X763482Y910403D01*
X760518Y912114D01*
X757212Y913000D01*
D02*
G37*
G36*
X707212D02*
X703789D01*
X700482Y912114D01*
X697518Y910403D01*
X695098Y907982D01*
X693386Y905018D01*
X692500Y901712D01*
Y898289D01*
X693386Y894982D01*
X695098Y892018D01*
X697518Y889598D01*
X700482Y887886D01*
X703789Y887000D01*
X707212D01*
X710518Y887886D01*
X713482Y889598D01*
X715903Y892018D01*
X717614Y894982D01*
X718500Y898289D01*
Y901712D01*
X717614Y905018D01*
X715903Y907982D01*
X713482Y910403D01*
X710518Y912114D01*
X707212Y913000D01*
D02*
G37*
G36*
X1476119Y877605D02*
X1473881D01*
X1471719Y877025D01*
X1469781Y875906D01*
X1468198Y874324D01*
X1467079Y872386D01*
X1466500Y870224D01*
Y867986D01*
X1467079Y865824D01*
X1468198Y863886D01*
X1469781Y862303D01*
X1471719Y861184D01*
X1473881Y860605D01*
X1476119D01*
X1478281Y861184D01*
X1480219Y862303D01*
X1481801Y863886D01*
X1482921Y865824D01*
X1483500Y867986D01*
Y870224D01*
X1482921Y872386D01*
X1481801Y874324D01*
X1480219Y875906D01*
X1478281Y877025D01*
X1476119Y877605D01*
D02*
G37*
G36*
X1456119Y861500D02*
X1453881D01*
X1451719Y860921D01*
X1449781Y859802D01*
X1448198Y858219D01*
X1447079Y856281D01*
X1446500Y854119D01*
Y851881D01*
X1447079Y849719D01*
X1448198Y847781D01*
X1449781Y846198D01*
X1451719Y845079D01*
X1453881Y844500D01*
X1456119D01*
X1458281Y845079D01*
X1460219Y846198D01*
X1461802Y847781D01*
X1462921Y849719D01*
X1463500Y851881D01*
Y854119D01*
X1462921Y856281D01*
X1461802Y858219D01*
X1460219Y859802D01*
X1458281Y860921D01*
X1456119Y861500D01*
D02*
G37*
G36*
X1361056Y826795D02*
X1357944D01*
X1354893Y826188D01*
X1352018Y824997D01*
X1349431Y823269D01*
X1347231Y821069D01*
X1345503Y818482D01*
X1344312Y815607D01*
X1343705Y812556D01*
Y809445D01*
X1344312Y806393D01*
X1345503Y803518D01*
X1347231Y800931D01*
X1349431Y798731D01*
X1352018Y797003D01*
X1354893Y795812D01*
X1357944Y795205D01*
X1361056D01*
X1364107Y795812D01*
X1366982Y797003D01*
X1369569Y798731D01*
X1371769Y800931D01*
X1373497Y803518D01*
X1374688Y806393D01*
X1375295Y809445D01*
Y812556D01*
X1374688Y815607D01*
X1373497Y818482D01*
X1371769Y821069D01*
X1369569Y823269D01*
X1366982Y824997D01*
X1364107Y826188D01*
X1361056Y826795D01*
D02*
G37*
G36*
X1422503Y809616D02*
X1420265D01*
X1418103Y809037D01*
X1416165Y807918D01*
X1414582Y806335D01*
X1413463Y804397D01*
X1412884Y802235D01*
Y799997D01*
X1413463Y797835D01*
X1414582Y795897D01*
X1416165Y794314D01*
X1418103Y793195D01*
X1420265Y792616D01*
X1422503D01*
X1424665Y793195D01*
X1426603Y794314D01*
X1428186Y795897D01*
X1429305Y797835D01*
X1429884Y799997D01*
Y802235D01*
X1429305Y804397D01*
X1428186Y806335D01*
X1426603Y807918D01*
X1424665Y809037D01*
X1422503Y809616D01*
D02*
G37*
G36*
X1602712Y829900D02*
X1599289D01*
X1595982Y829014D01*
X1593018Y827303D01*
X1590598Y824882D01*
X1588886Y821918D01*
X1588000Y818612D01*
Y815189D01*
X1588886Y811882D01*
X1590598Y808918D01*
X1593018Y806497D01*
X1595813Y804884D01*
X1595904Y804200D01*
X1595813Y803516D01*
X1593018Y801903D01*
X1590598Y799482D01*
X1589774Y798056D01*
X1562500D01*
X1560804Y797833D01*
X1559222Y797178D01*
X1557864Y796136D01*
X1547529Y785800D01*
X1545329Y786390D01*
X1541671D01*
X1538139Y785443D01*
X1534971Y783615D01*
X1532385Y781029D01*
X1530557Y777861D01*
X1529610Y774329D01*
Y770671D01*
X1530557Y767139D01*
X1532385Y763971D01*
X1534971Y761385D01*
X1538139Y759556D01*
X1541671Y758610D01*
X1545329D01*
X1548861Y759556D01*
X1552029Y761385D01*
X1554615Y763971D01*
X1556443Y767139D01*
X1557390Y770671D01*
Y774329D01*
X1556801Y776529D01*
X1565216Y784944D01*
X1589774D01*
X1590598Y783518D01*
X1593018Y781097D01*
X1595813Y779484D01*
X1595904Y778800D01*
X1595813Y778117D01*
X1593018Y776503D01*
X1590598Y774082D01*
X1588886Y771118D01*
X1588000Y767812D01*
Y764389D01*
X1588886Y761082D01*
X1590598Y758118D01*
X1593018Y755697D01*
X1595982Y753986D01*
X1599289Y753100D01*
X1602712D01*
X1606018Y753986D01*
X1608982Y755697D01*
X1611403Y758118D01*
X1613114Y761082D01*
X1614000Y764389D01*
Y767812D01*
X1613114Y771118D01*
X1611403Y774082D01*
X1608982Y776503D01*
X1606187Y778117D01*
X1606096Y778800D01*
X1606187Y779484D01*
X1608982Y781097D01*
X1611403Y783518D01*
X1613114Y786482D01*
X1614000Y789789D01*
Y793212D01*
X1613114Y796518D01*
X1611403Y799482D01*
X1608982Y801903D01*
X1606187Y803516D01*
X1606096Y804200D01*
X1606187Y804884D01*
X1608982Y806497D01*
X1611403Y808918D01*
X1613114Y811882D01*
X1614000Y815189D01*
Y818612D01*
X1613114Y821918D01*
X1611403Y824882D01*
X1608982Y827303D01*
X1606018Y829014D01*
X1602712Y829900D01*
D02*
G37*
G36*
X885400Y813247D02*
X882769Y812900D01*
X880317Y811885D01*
X878211Y810269D01*
X876596Y808163D01*
X875580Y805711D01*
X875233Y803080D01*
Y792920D01*
X875580Y790288D01*
X876596Y787836D01*
X878211Y785731D01*
X880317Y784115D01*
X882769Y783099D01*
X885400Y782753D01*
X888032Y783099D01*
X890484Y784115D01*
X892589Y785731D01*
X894205Y787836D01*
X895221Y790288D01*
X895567Y792920D01*
Y803080D01*
X895221Y805711D01*
X894205Y808163D01*
X892589Y810269D01*
X890484Y811885D01*
X888032Y812900D01*
X885400Y813247D01*
D02*
G37*
G36*
X988900Y812747D02*
X986269Y812401D01*
X983817Y811385D01*
X981711Y809769D01*
X980095Y807663D01*
X979080Y805211D01*
X978733Y802580D01*
Y792420D01*
X979080Y789789D01*
X980095Y787337D01*
X981711Y785231D01*
X983817Y783615D01*
X986269Y782599D01*
X988900Y782253D01*
X991532Y782599D01*
X993984Y783615D01*
X996089Y785231D01*
X997705Y787337D01*
X998721Y789789D01*
X999067Y792420D01*
Y802580D01*
X998721Y805211D01*
X997705Y807663D01*
X996089Y809769D01*
X993984Y811385D01*
X991532Y812401D01*
X988900Y812747D01*
D02*
G37*
G36*
X963500D02*
X960869Y812401D01*
X958417Y811385D01*
X956311Y809769D01*
X954695Y807663D01*
X953680Y805211D01*
X953333Y802580D01*
Y792420D01*
X953680Y789789D01*
X954695Y787337D01*
X956311Y785231D01*
X958417Y783615D01*
X960869Y782599D01*
X963500Y782253D01*
X966132Y782599D01*
X968584Y783615D01*
X970689Y785231D01*
X972305Y787337D01*
X973321Y789789D01*
X973667Y792420D01*
Y802580D01*
X973321Y805211D01*
X972305Y807663D01*
X970689Y809769D01*
X968584Y811385D01*
X966132Y812401D01*
X963500Y812747D01*
D02*
G37*
G36*
X938100D02*
X935469Y812401D01*
X933017Y811385D01*
X930911Y809769D01*
X929295Y807663D01*
X928280Y805211D01*
X927933Y802580D01*
Y792420D01*
X928280Y789789D01*
X929295Y787337D01*
X930911Y785231D01*
X933017Y783615D01*
X935469Y782599D01*
X938100Y782253D01*
X940732Y782599D01*
X943184Y783615D01*
X945289Y785231D01*
X946905Y787337D01*
X947921Y789789D01*
X948267Y792420D01*
Y802580D01*
X947921Y805211D01*
X946905Y807663D01*
X945289Y809769D01*
X943184Y811385D01*
X940732Y812401D01*
X938100Y812747D01*
D02*
G37*
G36*
X1160118Y793430D02*
X1156882D01*
X1153708Y792799D01*
X1150718Y791560D01*
X1148027Y789762D01*
X1145738Y787474D01*
X1143940Y784783D01*
X1142701Y781793D01*
X1142070Y778618D01*
Y775382D01*
X1142701Y772208D01*
X1143940Y769218D01*
X1145738Y766527D01*
X1148027Y764238D01*
X1150718Y762440D01*
X1153708Y761202D01*
X1156882Y760570D01*
X1160118D01*
X1163292Y761202D01*
X1166283Y762440D01*
X1168974Y764238D01*
X1171262Y766527D01*
X1173060Y769218D01*
X1174299Y772208D01*
X1174930Y775382D01*
Y778618D01*
X1174299Y781793D01*
X1173060Y784783D01*
X1171262Y787474D01*
X1168974Y789762D01*
X1166283Y791560D01*
X1163292Y792799D01*
X1160118Y793430D01*
D02*
G37*
G36*
X1506329Y778890D02*
X1502671D01*
X1499139Y777944D01*
X1495971Y776115D01*
X1493385Y773529D01*
X1491557Y770362D01*
X1490610Y766829D01*
Y763172D01*
X1490898Y762096D01*
X1448651Y719849D01*
X1447449Y718283D01*
X1446693Y716458D01*
X1446435Y714501D01*
Y682333D01*
X1445165Y681993D01*
X1444301Y683489D01*
X1442719Y685072D01*
X1440781Y686191D01*
X1438619Y686770D01*
X1436381D01*
X1434219Y686191D01*
X1432281Y685072D01*
X1430698Y683489D01*
X1429579Y681551D01*
X1429000Y679389D01*
Y677151D01*
X1429579Y674989D01*
X1430698Y673051D01*
X1432281Y671468D01*
X1434219Y670349D01*
X1436381Y669770D01*
X1438619D01*
X1440781Y670349D01*
X1442719Y671468D01*
X1444301Y673051D01*
X1445165Y674547D01*
X1446435Y674207D01*
Y615000D01*
X1446693Y613042D01*
X1447449Y611218D01*
X1448651Y609651D01*
X1479064Y579238D01*
X1478578Y578065D01*
X1468397D01*
X1467780Y578421D01*
X1465618Y579000D01*
X1463380D01*
X1461219Y578421D01*
X1459280Y577302D01*
X1457698Y575719D01*
X1456579Y573781D01*
X1455999Y571619D01*
Y569381D01*
X1456579Y567219D01*
X1457698Y565281D01*
X1459280Y563699D01*
X1461219Y562579D01*
X1463380Y562000D01*
X1465618D01*
X1467780Y562579D01*
X1468397Y562936D01*
X1489801D01*
X1491439Y561298D01*
X1494061Y559784D01*
X1496986Y559000D01*
X1499302D01*
X1560651Y497651D01*
X1560651Y497651D01*
X1562218Y496449D01*
X1564043Y495693D01*
X1566000Y495435D01*
X1566001Y495435D01*
X1588856D01*
X1589097Y495018D01*
X1591518Y492597D01*
X1594313Y490983D01*
X1594404Y490300D01*
X1594313Y489616D01*
X1591518Y488002D01*
X1589097Y485582D01*
X1587386Y482618D01*
X1586500Y479311D01*
Y475888D01*
X1587386Y472582D01*
X1589097Y469618D01*
X1591518Y467197D01*
X1594482Y465486D01*
X1597789Y464600D01*
X1601212D01*
X1604518Y465486D01*
X1607482Y467197D01*
X1609902Y469618D01*
X1611614Y472582D01*
X1612500Y475888D01*
Y479311D01*
X1611614Y482618D01*
X1609902Y485582D01*
X1607482Y488002D01*
X1604687Y489616D01*
X1604596Y490300D01*
X1604687Y490983D01*
X1607482Y492597D01*
X1609902Y495018D01*
X1611614Y497982D01*
X1612500Y501288D01*
Y504711D01*
X1611614Y508018D01*
X1609902Y510982D01*
X1607482Y513402D01*
X1604687Y515016D01*
X1604596Y515700D01*
X1604687Y516383D01*
X1607482Y517997D01*
X1609902Y520418D01*
X1611614Y523382D01*
X1612500Y526688D01*
Y530111D01*
X1611614Y533418D01*
X1609902Y536382D01*
X1607482Y538802D01*
X1604687Y540416D01*
X1604596Y541100D01*
X1604687Y541783D01*
X1607482Y543397D01*
X1609902Y545818D01*
X1611614Y548782D01*
X1612500Y552088D01*
Y555511D01*
X1611614Y558818D01*
X1609902Y561782D01*
X1607482Y564202D01*
X1604518Y565914D01*
X1601212Y566800D01*
X1597789D01*
X1594482Y565914D01*
X1591518Y564202D01*
X1589097Y561782D01*
X1587386Y558818D01*
X1586500Y555511D01*
Y552088D01*
X1587386Y548782D01*
X1589097Y545818D01*
X1591518Y543397D01*
X1594313Y541783D01*
X1594404Y541100D01*
X1594313Y540416D01*
X1591518Y538802D01*
X1589097Y536382D01*
X1587386Y533418D01*
X1586500Y530111D01*
Y526688D01*
X1587386Y523382D01*
X1589097Y520418D01*
X1591518Y517997D01*
X1594313Y516383D01*
X1594404Y515700D01*
X1594313Y515016D01*
X1591518Y513402D01*
X1589097Y510982D01*
X1588856Y510564D01*
X1569134D01*
X1510000Y569698D01*
Y572014D01*
X1509216Y574939D01*
X1507702Y577561D01*
X1505561Y579702D01*
X1502939Y581217D01*
X1500014Y582000D01*
X1497698D01*
X1496368Y583330D01*
X1496751Y583993D01*
X1497094Y584400D01*
X1500014D01*
X1502939Y585184D01*
X1505561Y586698D01*
X1507702Y588839D01*
X1509216Y591461D01*
X1510000Y594386D01*
Y597414D01*
X1509216Y600339D01*
X1507702Y602961D01*
X1505561Y605103D01*
X1502939Y606617D01*
X1500014Y607400D01*
X1496986D01*
X1494061Y606617D01*
X1491439Y605103D01*
X1489298Y602961D01*
X1487784Y600339D01*
X1487000Y597414D01*
Y594494D01*
X1486593Y594151D01*
X1485930Y593769D01*
X1461565Y618134D01*
Y711367D01*
X1501596Y751398D01*
X1502671Y751110D01*
X1506329D01*
X1509861Y752057D01*
X1513029Y753885D01*
X1515615Y756472D01*
X1517443Y759639D01*
X1518390Y763172D01*
Y766829D01*
X1517443Y770362D01*
X1515615Y773529D01*
X1513029Y776115D01*
X1509861Y777944D01*
X1506329Y778890D01*
D02*
G37*
G36*
X1417429D02*
X1413771D01*
X1410239Y777944D01*
X1407071Y776115D01*
X1404485Y773529D01*
X1402657Y770362D01*
X1401710Y766829D01*
Y763172D01*
X1402657Y759639D01*
X1404485Y756472D01*
X1407071Y753885D01*
X1410239Y752057D01*
X1413771Y751110D01*
X1417429D01*
X1420961Y752057D01*
X1424129Y753885D01*
X1426715Y756472D01*
X1428543Y759639D01*
X1429490Y763172D01*
Y766829D01*
X1428543Y770362D01*
X1426715Y773529D01*
X1424129Y776115D01*
X1420961Y777944D01*
X1417429Y778890D01*
D02*
G37*
G36*
X1365014Y757700D02*
X1361986D01*
X1359061Y756917D01*
X1356439Y755403D01*
X1354298Y753261D01*
X1354006Y752756D01*
X1351300D01*
X1349603Y752533D01*
X1348022Y751878D01*
X1346664Y750836D01*
X1327077Y731249D01*
X1326514Y731400D01*
X1323486D01*
X1320561Y730616D01*
X1317939Y729102D01*
X1315798Y726961D01*
X1314284Y724339D01*
X1313500Y721414D01*
Y718386D01*
X1314284Y715461D01*
X1315798Y712839D01*
X1317939Y710698D01*
X1320561Y709184D01*
X1323486Y708400D01*
X1326514D01*
X1329439Y709184D01*
X1332061Y710698D01*
X1334202Y712839D01*
X1335716Y715461D01*
X1336500Y718386D01*
Y721414D01*
X1336349Y721977D01*
X1353602Y739231D01*
X1354298Y739139D01*
X1356439Y736998D01*
X1359061Y735484D01*
X1361986Y734700D01*
X1365014D01*
X1367939Y735484D01*
X1370561Y736998D01*
X1372702Y739139D01*
X1374216Y741761D01*
X1375000Y744686D01*
Y747714D01*
X1374216Y750639D01*
X1372702Y753261D01*
X1370561Y755403D01*
X1367939Y756917D01*
X1365014Y757700D01*
D02*
G37*
G36*
X1300556Y827795D02*
X1297444D01*
X1294393Y827188D01*
X1291519Y825997D01*
X1288931Y824269D01*
X1286731Y822069D01*
X1285003Y819482D01*
X1283812Y816607D01*
X1283205Y813556D01*
Y810444D01*
X1283812Y807393D01*
X1285003Y804518D01*
X1286731Y801931D01*
X1288931Y799731D01*
X1291519Y798003D01*
X1292694Y797516D01*
Y744548D01*
X1290864Y742718D01*
X1289822Y741360D01*
X1289167Y739779D01*
X1289056Y738936D01*
X1288810Y738344D01*
X1288586Y736647D01*
X1288808Y734950D01*
X1289462Y733368D01*
X1290503Y732010D01*
X1291860Y730967D01*
X1293441Y730311D01*
X1295137Y730086D01*
X1296834Y730308D01*
X1298416Y730962D01*
X1299774Y732003D01*
X1300133Y732361D01*
X1300134Y732363D01*
X1300136Y732364D01*
X1300639Y733019D01*
X1301176Y733718D01*
X1301176Y733720D01*
X1301178Y733722D01*
X1301502Y734505D01*
X1301721Y735031D01*
X1303886Y737197D01*
X1304928Y738554D01*
X1305583Y740136D01*
X1305806Y741832D01*
Y797723D01*
X1306482Y798003D01*
X1309069Y799731D01*
X1311269Y801931D01*
X1312997Y804518D01*
X1314188Y807393D01*
X1314795Y810444D01*
Y813556D01*
X1314188Y816607D01*
X1312997Y819482D01*
X1311269Y822069D01*
X1309069Y824269D01*
X1306482Y825997D01*
X1303607Y827188D01*
X1300556Y827795D01*
D02*
G37*
G36*
X843514Y731500D02*
X840486D01*
X837561Y730716D01*
X834939Y729202D01*
X832798Y727061D01*
X832635Y726779D01*
X831365D01*
X831202Y727061D01*
X829061Y729202D01*
X826439Y730716D01*
X823514Y731500D01*
X820486D01*
X817561Y730716D01*
X814939Y729202D01*
X812798Y727061D01*
X811284Y724439D01*
X810500Y721514D01*
Y718486D01*
X811284Y715561D01*
X812798Y712939D01*
X814939Y710798D01*
X817561Y709284D01*
X820486Y708500D01*
X823514D01*
X826439Y709284D01*
X829061Y710798D01*
X831202Y712939D01*
X831365Y713221D01*
X832635D01*
X832798Y712939D01*
X834939Y710798D01*
X837561Y709284D01*
X840486Y708500D01*
X843514D01*
X846439Y709284D01*
X849061Y710798D01*
X851202Y712939D01*
X852716Y715561D01*
X853500Y718486D01*
Y721514D01*
X852716Y724439D01*
X851202Y727061D01*
X849061Y729202D01*
X846439Y730716D01*
X843514Y731500D01*
D02*
G37*
G36*
X1573118Y756430D02*
X1569882D01*
X1566708Y755799D01*
X1563717Y754560D01*
X1561026Y752762D01*
X1558738Y750474D01*
X1556940Y747783D01*
X1555701Y744792D01*
X1555070Y741618D01*
Y738382D01*
X1555701Y735208D01*
X1556940Y732217D01*
X1558738Y729527D01*
X1561026Y727238D01*
X1563717Y725440D01*
X1566708Y724201D01*
X1569882Y723570D01*
X1573118D01*
X1576293Y724201D01*
X1579283Y725440D01*
X1581974Y727238D01*
X1584262Y729527D01*
X1586060Y732217D01*
X1587299Y735208D01*
X1587930Y738382D01*
Y741618D01*
X1587299Y744792D01*
X1586060Y747783D01*
X1584262Y750474D01*
X1581974Y752762D01*
X1579283Y754560D01*
X1576293Y755799D01*
X1573118Y756430D01*
D02*
G37*
G36*
X1365014Y732300D02*
X1361986D01*
X1359061Y731516D01*
X1356439Y730003D01*
X1354298Y727861D01*
X1352784Y725239D01*
X1352000Y722314D01*
Y719286D01*
X1352784Y716361D01*
X1354298Y713739D01*
X1356439Y711598D01*
X1359061Y710084D01*
X1361986Y709300D01*
X1365014D01*
X1367939Y710084D01*
X1370561Y711598D01*
X1372702Y713739D01*
X1374216Y716361D01*
X1375000Y719286D01*
Y722314D01*
X1374216Y725239D01*
X1372702Y727861D01*
X1370561Y730003D01*
X1367939Y731516D01*
X1365014Y732300D01*
D02*
G37*
G36*
X1034118Y741430D02*
X1030882D01*
X1027707Y740798D01*
X1024717Y739560D01*
X1022026Y737762D01*
X1019738Y735473D01*
X1017940Y732782D01*
X1016701Y729792D01*
X1016070Y726618D01*
Y723382D01*
X1016701Y720207D01*
X1017940Y717217D01*
X1019738Y714526D01*
X1022026Y712238D01*
X1024717Y710440D01*
X1027707Y709201D01*
X1030882Y708570D01*
X1034118D01*
X1037292Y709201D01*
X1040282Y710440D01*
X1042973Y712238D01*
X1045262Y714526D01*
X1047060Y717217D01*
X1048298Y720207D01*
X1048930Y723382D01*
Y726618D01*
X1048298Y729792D01*
X1047060Y732782D01*
X1045262Y735473D01*
X1042973Y737762D01*
X1040282Y739560D01*
X1037292Y740798D01*
X1034118Y741430D01*
D02*
G37*
G36*
X1033118Y793430D02*
X1029882D01*
X1026708Y792799D01*
X1023718Y791560D01*
X1021027Y789762D01*
X1018738Y787474D01*
X1016940Y784783D01*
X1015702Y781793D01*
X1015070Y778618D01*
Y775382D01*
X1015702Y772208D01*
X1016940Y769218D01*
X1018738Y766527D01*
X1021027Y764238D01*
X1023718Y762440D01*
X1026708Y761202D01*
X1029882Y760570D01*
X1033118D01*
X1036292Y761202D01*
X1037519Y761710D01*
X1078865Y720364D01*
X1080222Y719322D01*
X1081804Y718667D01*
X1083501Y718444D01*
X1144432D01*
X1144940Y717217D01*
X1146738Y714526D01*
X1149026Y712238D01*
X1151717Y710440D01*
X1152944Y709932D01*
Y702215D01*
X1149533Y698805D01*
X1148607Y699188D01*
X1145556Y699795D01*
X1142445D01*
X1139393Y699188D01*
X1136518Y697998D01*
X1133932Y696269D01*
X1131731Y694069D01*
X1130003Y691482D01*
X1128812Y688607D01*
X1128205Y685556D01*
Y682445D01*
X1128812Y679393D01*
X1130003Y676518D01*
X1131731Y673931D01*
X1133932Y671731D01*
X1136518Y670003D01*
X1139393Y668812D01*
X1142445Y668205D01*
X1145556D01*
X1148607Y668812D01*
X1151482Y670003D01*
X1154069Y671731D01*
X1156269Y673931D01*
X1157998Y676518D01*
X1159188Y679393D01*
X1159795Y682445D01*
Y685556D01*
X1159188Y688607D01*
X1158805Y689533D01*
X1164136Y694864D01*
X1165178Y696222D01*
X1165833Y697803D01*
X1166056Y699500D01*
Y709932D01*
X1167282Y710440D01*
X1169973Y712238D01*
X1172262Y714526D01*
X1174060Y717217D01*
X1175298Y720207D01*
X1175930Y723382D01*
Y726618D01*
X1175298Y729792D01*
X1174060Y732782D01*
X1172262Y735473D01*
X1169973Y737762D01*
X1167282Y739560D01*
X1164292Y740798D01*
X1161118Y741430D01*
X1157882D01*
X1154707Y740798D01*
X1151717Y739560D01*
X1149026Y737762D01*
X1146738Y735473D01*
X1144940Y732782D01*
X1144432Y731556D01*
X1086216D01*
X1046791Y770981D01*
X1047299Y772208D01*
X1047930Y775382D01*
Y778618D01*
X1047299Y781793D01*
X1046060Y784783D01*
X1044262Y787474D01*
X1041974Y789762D01*
X1039283Y791560D01*
X1036292Y792799D01*
X1033118Y793430D01*
D02*
G37*
G36*
X1246555Y828295D02*
X1243444D01*
X1240393Y827688D01*
X1237518Y826497D01*
X1234931Y824769D01*
X1232731Y822569D01*
X1231003Y819982D01*
X1229812Y817107D01*
X1229205Y814055D01*
Y810944D01*
X1229812Y807893D01*
X1231003Y805018D01*
X1232731Y802431D01*
X1234931Y800231D01*
X1237518Y798502D01*
X1238444Y798119D01*
Y719000D01*
X1238667Y717303D01*
X1239322Y715722D01*
X1240364Y714364D01*
X1258280Y696448D01*
X1258822Y695140D01*
X1259864Y693782D01*
X1261222Y692740D01*
X1262803Y692085D01*
X1264500Y691862D01*
X1266197Y692085D01*
X1267778Y692740D01*
X1269136Y693782D01*
X1270178Y695140D01*
X1270833Y696721D01*
X1271056Y698418D01*
Y699500D01*
X1270833Y701197D01*
X1270178Y702778D01*
X1269136Y704136D01*
X1251556Y721716D01*
Y798119D01*
X1252482Y798502D01*
X1255069Y800231D01*
X1257269Y802431D01*
X1258997Y805018D01*
X1260188Y807893D01*
X1260795Y810944D01*
Y814055D01*
X1260188Y817107D01*
X1258997Y819982D01*
X1257269Y822569D01*
X1255069Y824769D01*
X1252482Y826497D01*
X1249607Y827688D01*
X1246555Y828295D01*
D02*
G37*
G36*
X1283119Y708000D02*
X1280881D01*
X1278719Y707421D01*
X1276781Y706302D01*
X1275198Y704719D01*
X1274079Y702781D01*
X1273500Y700619D01*
Y698381D01*
X1274079Y696219D01*
X1275198Y694281D01*
X1276781Y692698D01*
X1278719Y691579D01*
X1280881Y691000D01*
X1283119D01*
X1285281Y691579D01*
X1287219Y692698D01*
X1288802Y694281D01*
X1289921Y696219D01*
X1290500Y698381D01*
Y700619D01*
X1289921Y702781D01*
X1288802Y704719D01*
X1287219Y706302D01*
X1285281Y707421D01*
X1283119Y708000D01*
D02*
G37*
G36*
X1513656Y720295D02*
X1510544D01*
X1507493Y719688D01*
X1504618Y718497D01*
X1502031Y716769D01*
X1499831Y714569D01*
X1498103Y711982D01*
X1496912Y709107D01*
X1496305Y706056D01*
Y702944D01*
X1496912Y699893D01*
X1498103Y697018D01*
X1499831Y694431D01*
X1502031Y692231D01*
X1504618Y690503D01*
X1507493Y689312D01*
X1510544Y688705D01*
X1513656D01*
X1516707Y689312D01*
X1519582Y690503D01*
X1522169Y692231D01*
X1524369Y694431D01*
X1526097Y697018D01*
X1527288Y699893D01*
X1527895Y702944D01*
Y706056D01*
X1527288Y709107D01*
X1526097Y711982D01*
X1524369Y714569D01*
X1522169Y716769D01*
X1519582Y718497D01*
X1516707Y719688D01*
X1513656Y720295D01*
D02*
G37*
G36*
X1412056D02*
X1408944D01*
X1405893Y719688D01*
X1403018Y718497D01*
X1400431Y716769D01*
X1398231Y714569D01*
X1396503Y711982D01*
X1395312Y709107D01*
X1394705Y706056D01*
Y702944D01*
X1395312Y699893D01*
X1396503Y697018D01*
X1398231Y694431D01*
X1400431Y692231D01*
X1403018Y690503D01*
X1405893Y689312D01*
X1408944Y688705D01*
X1412056D01*
X1415107Y689312D01*
X1417982Y690503D01*
X1420569Y692231D01*
X1422769Y694431D01*
X1424497Y697018D01*
X1425688Y699893D01*
X1426295Y702944D01*
Y706056D01*
X1425688Y709107D01*
X1424497Y711982D01*
X1422769Y714569D01*
X1420569Y716769D01*
X1417982Y718497D01*
X1415107Y719688D01*
X1412056Y720295D01*
D02*
G37*
G36*
X1181619Y691500D02*
X1179381D01*
X1177219Y690921D01*
X1175281Y689802D01*
X1173698Y688219D01*
X1172579Y686281D01*
X1172000Y684119D01*
Y681881D01*
X1172579Y679719D01*
X1173698Y677781D01*
X1175281Y676198D01*
X1177219Y675079D01*
X1179381Y674500D01*
X1181619D01*
X1183781Y675079D01*
X1185719Y676198D01*
X1187302Y677781D01*
X1188421Y679719D01*
X1189000Y681881D01*
Y684119D01*
X1188421Y686281D01*
X1187302Y688219D01*
X1185719Y689802D01*
X1183781Y690921D01*
X1181619Y691500D01*
D02*
G37*
G36*
X1365014Y694200D02*
X1361986D01*
X1359061Y693417D01*
X1356439Y691902D01*
X1354298Y689761D01*
X1352784Y687139D01*
X1352000Y684214D01*
Y681186D01*
X1352784Y678261D01*
X1354298Y675639D01*
X1356439Y673498D01*
X1359061Y671984D01*
X1361986Y671200D01*
X1365014D01*
X1367939Y671984D01*
X1370561Y673498D01*
X1372702Y675639D01*
X1374216Y678261D01*
X1375000Y681186D01*
Y684214D01*
X1374216Y687139D01*
X1372702Y689761D01*
X1370561Y691902D01*
X1367939Y693417D01*
X1365014Y694200D01*
D02*
G37*
G36*
X1043956Y699795D02*
X1040845D01*
X1037793Y699188D01*
X1034919Y697998D01*
X1032331Y696269D01*
X1030132Y694069D01*
X1028403Y691482D01*
X1027212Y688607D01*
X1026605Y685556D01*
Y682445D01*
X1027212Y679393D01*
X1028403Y676518D01*
X1030132Y673931D01*
X1032331Y671731D01*
X1034919Y670003D01*
X1037793Y668812D01*
X1040845Y668205D01*
X1043956D01*
X1047008Y668812D01*
X1049882Y670003D01*
X1052469Y671731D01*
X1054669Y673931D01*
X1056398Y676518D01*
X1057588Y679393D01*
X1058195Y682445D01*
Y685556D01*
X1057588Y688607D01*
X1056398Y691482D01*
X1054669Y694069D01*
X1052469Y696269D01*
X1049882Y697998D01*
X1047008Y699188D01*
X1043956Y699795D01*
D02*
G37*
G36*
X1326514Y682600D02*
X1323486D01*
X1320561Y681816D01*
X1317939Y680302D01*
X1315798Y678161D01*
X1314284Y675539D01*
X1313500Y672614D01*
Y669586D01*
X1314284Y666661D01*
X1315798Y664039D01*
X1317939Y661898D01*
X1320561Y660384D01*
X1323486Y659600D01*
X1326514D01*
X1327077Y659751D01*
X1334164Y652664D01*
X1335522Y651622D01*
X1337103Y650967D01*
X1338800Y650744D01*
X1354006D01*
X1354298Y650239D01*
X1356439Y648098D01*
X1359061Y646584D01*
X1361986Y645800D01*
X1365014D01*
X1367939Y646584D01*
X1370561Y648098D01*
X1372702Y650239D01*
X1374216Y652861D01*
X1375000Y655786D01*
Y658814D01*
X1374216Y661739D01*
X1372702Y664361D01*
X1370561Y666503D01*
X1367939Y668017D01*
X1365014Y668800D01*
X1361986D01*
X1359061Y668017D01*
X1356439Y666503D01*
X1354298Y664361D01*
X1354006Y663856D01*
X1341516D01*
X1336349Y669023D01*
X1336500Y669586D01*
Y672614D01*
X1335716Y675539D01*
X1334202Y678161D01*
X1332061Y680302D01*
X1329439Y681816D01*
X1326514Y682600D01*
D02*
G37*
G36*
X1044619Y635000D02*
X1042381D01*
X1040219Y634421D01*
X1038281Y633302D01*
X1036698Y631719D01*
X1035579Y629781D01*
X1035000Y627619D01*
Y625381D01*
X1035579Y623219D01*
X1036698Y621281D01*
X1038281Y619698D01*
X1040219Y618579D01*
X1042381Y618000D01*
X1044619D01*
X1046781Y618579D01*
X1048719Y619698D01*
X1050302Y621281D01*
X1051421Y623219D01*
X1052000Y625381D01*
Y627619D01*
X1051421Y629781D01*
X1050302Y631719D01*
X1048719Y633302D01*
X1046781Y634421D01*
X1044619Y635000D01*
D02*
G37*
G36*
X1573118Y629430D02*
X1569882D01*
X1566708Y628799D01*
X1563717Y627560D01*
X1561026Y625762D01*
X1558738Y623474D01*
X1556940Y620783D01*
X1555701Y617793D01*
X1555070Y614618D01*
Y611382D01*
X1555701Y608208D01*
X1556940Y605218D01*
X1558738Y602527D01*
X1561026Y600238D01*
X1563717Y598440D01*
X1566708Y597201D01*
X1569882Y596570D01*
X1573118D01*
X1576293Y597201D01*
X1579283Y598440D01*
X1581974Y600238D01*
X1584262Y602527D01*
X1586060Y605218D01*
X1587299Y608208D01*
X1587930Y611382D01*
Y614618D01*
X1587299Y617793D01*
X1586060Y620783D01*
X1584262Y623474D01*
X1581974Y625762D01*
X1579283Y627560D01*
X1576293Y628799D01*
X1573118Y629430D01*
D02*
G37*
G36*
X1117514Y583500D02*
X1114486D01*
X1111561Y582716D01*
X1108939Y581202D01*
X1106797Y579061D01*
X1105284Y576439D01*
X1104500Y573514D01*
Y570486D01*
X1105284Y567561D01*
X1106797Y564939D01*
X1108939Y562798D01*
X1111561Y561284D01*
X1114486Y560500D01*
X1117514D01*
X1120439Y561284D01*
X1123061Y562798D01*
X1125202Y564939D01*
X1126716Y567561D01*
X1127500Y570486D01*
Y573514D01*
X1126716Y576439D01*
X1125202Y579061D01*
X1123061Y581202D01*
X1120439Y582716D01*
X1117514Y583500D01*
D02*
G37*
G36*
X1092114D02*
X1089086D01*
X1086161Y582716D01*
X1083539Y581202D01*
X1081397Y579061D01*
X1079883Y576439D01*
X1079100Y573514D01*
Y570486D01*
X1079883Y567561D01*
X1081397Y564939D01*
X1083539Y562798D01*
X1086161Y561284D01*
X1089086Y560500D01*
X1092114D01*
X1095039Y561284D01*
X1097661Y562798D01*
X1099802Y564939D01*
X1101316Y567561D01*
X1102100Y570486D01*
Y573514D01*
X1101316Y576439D01*
X1099802Y579061D01*
X1097661Y581202D01*
X1095039Y582716D01*
X1092114Y583500D01*
D02*
G37*
G36*
X805733Y534280D02*
X801746D01*
X797836Y533502D01*
X794153Y531977D01*
X790838Y529762D01*
X788018Y526942D01*
X785803Y523627D01*
X784966Y521605D01*
X749784D01*
X749784Y521605D01*
X747826Y521347D01*
X746002Y520591D01*
X744435Y519389D01*
X742611Y517565D01*
X708025D01*
X707686Y518384D01*
X705749Y521283D01*
X703283Y523749D01*
X700384Y525686D01*
X697163Y527020D01*
X693743Y527700D01*
X690257D01*
X686837Y527020D01*
X683616Y525686D01*
X680717Y523749D01*
X678252Y521283D01*
X676315Y518384D01*
X674980Y515163D01*
X674300Y511743D01*
Y508257D01*
X674980Y504837D01*
X676315Y501616D01*
X678252Y498717D01*
X680717Y496251D01*
X683616Y494314D01*
X686837Y492980D01*
X690257Y492300D01*
X693743D01*
X697163Y492980D01*
X700384Y494314D01*
X703283Y496251D01*
X705749Y498717D01*
X707686Y501616D01*
X708025Y502435D01*
X745744D01*
X747702Y502693D01*
X749526Y503449D01*
X751093Y504651D01*
X752917Y506475D01*
X784966D01*
X785803Y504453D01*
X788018Y501138D01*
X790838Y498319D01*
X794153Y496104D01*
X797836Y494578D01*
X801746Y493800D01*
X805733D01*
X809644Y494578D01*
X813327Y496104D01*
X816642Y498319D01*
X819461Y501138D01*
X821676Y504453D01*
X823202Y508136D01*
X823980Y512047D01*
Y516034D01*
X823202Y519944D01*
X821676Y523627D01*
X819461Y526942D01*
X816642Y529762D01*
X813327Y531977D01*
X809644Y533502D01*
X805733Y534280D01*
D02*
G37*
G36*
X927653D02*
X923666D01*
X919756Y533502D01*
X916073Y531977D01*
X912758Y529762D01*
X909938Y526942D01*
X907723Y523627D01*
X906198Y519944D01*
X905420Y516034D01*
Y512047D01*
X906198Y508136D01*
X907723Y504453D01*
X909938Y501138D01*
X912758Y498319D01*
X916073Y496104D01*
X919756Y494578D01*
X923666Y493800D01*
X927653D01*
X931564Y494578D01*
X935247Y496104D01*
X938562Y498319D01*
X941381Y501138D01*
X943596Y504453D01*
X945122Y508136D01*
X945900Y512047D01*
Y516034D01*
X945122Y519944D01*
X943596Y523627D01*
X941381Y526942D01*
X938562Y529762D01*
X935247Y531977D01*
X931564Y533502D01*
X927653Y534280D01*
D02*
G37*
G36*
X883711Y418000D02*
X880288D01*
X876982Y417114D01*
X874018Y415402D01*
X871597Y412982D01*
X871356Y412565D01*
X762644D01*
X762403Y412982D01*
X759982Y415402D01*
X757018Y417114D01*
X753711Y418000D01*
X750288D01*
X746982Y417114D01*
X744018Y415402D01*
X741598Y412982D01*
X739886Y410018D01*
X739000Y406711D01*
Y403288D01*
X739886Y399982D01*
X741598Y397018D01*
X744018Y394597D01*
X746982Y392886D01*
X750288Y392000D01*
X753711D01*
X757018Y392886D01*
X759982Y394597D01*
X762403Y397018D01*
X762644Y397435D01*
X871356D01*
X871597Y397018D01*
X874018Y394597D01*
X876982Y392886D01*
X880288Y392000D01*
X883711D01*
X887018Y392886D01*
X889982Y394597D01*
X892402Y397018D01*
X894114Y399982D01*
X895000Y403288D01*
Y406711D01*
X894114Y410018D01*
X892402Y412982D01*
X889982Y415402D01*
X887018Y417114D01*
X883711Y418000D01*
D02*
G37*
G36*
X933712D02*
X930289D01*
X926982Y417114D01*
X924018Y415402D01*
X921598Y412982D01*
X919886Y410018D01*
X919000Y406711D01*
Y403288D01*
X919886Y399982D01*
X921598Y397018D01*
X924018Y394597D01*
X926982Y392886D01*
X930289Y392000D01*
X933712D01*
X937018Y392886D01*
X939982Y394597D01*
X942403Y397018D01*
X944114Y399982D01*
X945000Y403288D01*
Y406711D01*
X944114Y410018D01*
X942403Y412982D01*
X939982Y415402D01*
X937018Y417114D01*
X933712Y418000D01*
D02*
G37*
G36*
X703712D02*
X700289D01*
X696982Y417114D01*
X694018Y415402D01*
X691598Y412982D01*
X689886Y410018D01*
X689000Y406711D01*
Y403288D01*
X689886Y399982D01*
X691598Y397018D01*
X694018Y394597D01*
X696982Y392886D01*
X700289Y392000D01*
X703712D01*
X707018Y392886D01*
X709982Y394597D01*
X712403Y397018D01*
X714114Y399982D01*
X715000Y403288D01*
Y406711D01*
X714114Y410018D01*
X712403Y412982D01*
X709982Y415402D01*
X707018Y417114D01*
X703712Y418000D01*
D02*
G37*
G36*
X1601212Y411400D02*
X1597789D01*
X1594482Y410514D01*
X1591518Y408803D01*
X1589097Y406382D01*
X1587386Y403418D01*
X1586500Y400112D01*
Y396688D01*
X1587386Y393382D01*
X1589097Y390418D01*
X1591518Y387997D01*
X1592581Y387384D01*
X1592322Y386211D01*
X1592256Y386105D01*
X1590037Y385663D01*
X1588118Y384382D01*
X1586837Y382463D01*
X1586386Y380200D01*
Y365800D01*
X1586837Y363537D01*
X1588118Y361618D01*
X1590037Y360336D01*
X1592300Y359886D01*
X1606700D01*
X1608963Y360336D01*
X1610882Y361618D01*
X1612164Y363537D01*
X1612614Y365800D01*
Y380200D01*
X1612164Y382463D01*
X1610882Y384382D01*
X1608963Y385663D01*
X1606744Y386105D01*
X1606678Y386211D01*
X1606419Y387384D01*
X1607482Y387997D01*
X1609902Y390418D01*
X1611614Y393382D01*
X1612500Y396688D01*
Y400112D01*
X1611614Y403418D01*
X1609902Y406382D01*
X1607482Y408803D01*
X1604518Y410514D01*
X1601212Y411400D01*
D02*
G37*
G36*
X1118556Y386295D02*
X1115444D01*
X1112393Y385688D01*
X1109518Y384497D01*
X1106931Y382769D01*
X1104731Y380569D01*
X1103003Y377982D01*
X1101812Y375107D01*
X1101205Y372056D01*
Y368945D01*
X1101812Y365893D01*
X1103003Y363018D01*
X1104731Y360431D01*
X1106931Y358231D01*
X1109518Y356503D01*
X1112393Y355312D01*
X1115444Y354705D01*
X1118556D01*
X1121607Y355312D01*
X1124482Y356503D01*
X1127069Y358231D01*
X1129269Y360431D01*
X1130997Y363018D01*
X1132188Y365893D01*
X1132795Y368945D01*
Y372056D01*
X1132188Y375107D01*
X1130997Y377982D01*
X1129269Y380569D01*
X1127069Y382769D01*
X1124482Y384497D01*
X1121607Y385688D01*
X1118556Y386295D01*
D02*
G37*
G36*
X1016956D02*
X1013844D01*
X1010793Y385688D01*
X1007918Y384497D01*
X1005331Y382769D01*
X1003131Y380569D01*
X1001403Y377982D01*
X1000212Y375107D01*
X999605Y372056D01*
Y368945D01*
X1000212Y365893D01*
X1001403Y363018D01*
X1003131Y360431D01*
X1005331Y358231D01*
X1007918Y356503D01*
X1010793Y355312D01*
X1013844Y354705D01*
X1016956D01*
X1020007Y355312D01*
X1022882Y356503D01*
X1025469Y358231D01*
X1027669Y360431D01*
X1029397Y363018D01*
X1030588Y365893D01*
X1031195Y368945D01*
Y372056D01*
X1030588Y375107D01*
X1029397Y377982D01*
X1027669Y380569D01*
X1025469Y382769D01*
X1022882Y384497D01*
X1020007Y385688D01*
X1016956Y386295D01*
D02*
G37*
G36*
X1131711Y309400D02*
X1128288D01*
X1124982Y308514D01*
X1122018Y306803D01*
X1119597Y304382D01*
X1117886Y301418D01*
X1117000Y298112D01*
Y294689D01*
X1117886Y291382D01*
X1119597Y288418D01*
X1122018Y285998D01*
X1124813Y284384D01*
X1124904Y283700D01*
X1124813Y283017D01*
X1122018Y281403D01*
X1119597Y278982D01*
X1117886Y276018D01*
X1117000Y272712D01*
Y269289D01*
X1117886Y265982D01*
X1119597Y263018D01*
X1122018Y260598D01*
X1124813Y258984D01*
X1124904Y258300D01*
X1124813Y257617D01*
X1122018Y256003D01*
X1119597Y253582D01*
X1117886Y250618D01*
X1117000Y247312D01*
Y243889D01*
X1117886Y240582D01*
X1119597Y237618D01*
X1122018Y235198D01*
X1124982Y233486D01*
X1128288Y232600D01*
X1131711D01*
X1135018Y233486D01*
X1137982Y235198D01*
X1140402Y237618D01*
X1142114Y240582D01*
X1143000Y243889D01*
Y247312D01*
X1142114Y250618D01*
X1140402Y253582D01*
X1137982Y256003D01*
X1135187Y257617D01*
X1135096Y258300D01*
X1135187Y258984D01*
X1137982Y260598D01*
X1140402Y263018D01*
X1142114Y265982D01*
X1143000Y269289D01*
Y272712D01*
X1142114Y276018D01*
X1140402Y278982D01*
X1137982Y281403D01*
X1135187Y283017D01*
X1135096Y283700D01*
X1135187Y284384D01*
X1137982Y285998D01*
X1140402Y288418D01*
X1142114Y291382D01*
X1143000Y294689D01*
Y298112D01*
X1142114Y301418D01*
X1140402Y304382D01*
X1137982Y306803D01*
X1135018Y308514D01*
X1131711Y309400D01*
D02*
G37*
G36*
X1069212Y308900D02*
X1065788D01*
X1062482Y308014D01*
X1059518Y306302D01*
X1057097Y303882D01*
X1055386Y300918D01*
X1054500Y297611D01*
Y294188D01*
X1055386Y290882D01*
X1057097Y287918D01*
X1059518Y285497D01*
X1062313Y283883D01*
X1062404Y283200D01*
X1062313Y282516D01*
X1059518Y280902D01*
X1057097Y278482D01*
X1055386Y275518D01*
X1054500Y272211D01*
Y268788D01*
X1055386Y265482D01*
X1057097Y262518D01*
X1059518Y260097D01*
X1062313Y258483D01*
X1062404Y257800D01*
X1062313Y257116D01*
X1059518Y255502D01*
X1057097Y253082D01*
X1055386Y250118D01*
X1054500Y246811D01*
Y243388D01*
X1055386Y240082D01*
X1057097Y237118D01*
X1059518Y234697D01*
X1062482Y232986D01*
X1065788Y232100D01*
X1069212D01*
X1072518Y232986D01*
X1075482Y234697D01*
X1077903Y237118D01*
X1079614Y240082D01*
X1080500Y243388D01*
Y246811D01*
X1079614Y250118D01*
X1077903Y253082D01*
X1075482Y255502D01*
X1072687Y257116D01*
X1072596Y257800D01*
X1072687Y258483D01*
X1075482Y260097D01*
X1077903Y262518D01*
X1079614Y265482D01*
X1080500Y268788D01*
Y272211D01*
X1079614Y275518D01*
X1077903Y278482D01*
X1075482Y280902D01*
X1072687Y282516D01*
X1072596Y283200D01*
X1072687Y283883D01*
X1075482Y285497D01*
X1077903Y287918D01*
X1079614Y290882D01*
X1080500Y294188D01*
Y297611D01*
X1079614Y300918D01*
X1077903Y303882D01*
X1075482Y306302D01*
X1072518Y308014D01*
X1069212Y308900D01*
D02*
G37*
%LPD*%
G36*
X926869Y943076D02*
X926500Y941224D01*
Y937777D01*
X927173Y934396D01*
X928492Y931211D01*
X930407Y928345D01*
X932844Y925907D01*
X935711Y923992D01*
X938896Y922673D01*
X942277Y922000D01*
X945724D01*
X949105Y922673D01*
X949829Y922973D01*
X956619Y916183D01*
Y898289D01*
X955446Y897803D01*
X955156Y898093D01*
X952290Y900008D01*
X949105Y901328D01*
X945724Y902000D01*
X942277D01*
X938896Y901328D01*
X935711Y900008D01*
X932844Y898093D01*
X930407Y895656D01*
X928492Y892790D01*
X928192Y892065D01*
X875857D01*
X875331Y893335D01*
X925698Y943702D01*
X926869Y943076D01*
D02*
G37*
G36*
X928492Y876211D02*
X930407Y873344D01*
X930651Y873100D01*
X930165Y871927D01*
X886786D01*
X886786Y871927D01*
X884828Y871669D01*
X883004Y870913D01*
X881437Y869711D01*
X864986Y853260D01*
X863910Y853980D01*
X864674Y855825D01*
X865250Y858723D01*
Y861677D01*
X864782Y864033D01*
X877684Y876935D01*
X928192D01*
X928492Y876211D01*
D02*
G37*
G36*
X1405235Y512623D02*
Y487144D01*
X1404818Y486903D01*
X1402397Y484482D01*
X1400783Y481687D01*
X1400100Y481596D01*
X1399416Y481687D01*
X1397802Y484482D01*
X1395382Y486903D01*
X1392418Y488614D01*
X1389111Y489500D01*
X1385688D01*
X1382382Y488614D01*
X1379418Y486903D01*
X1376997Y484482D01*
X1375383Y481687D01*
X1374700Y481596D01*
X1374016Y481687D01*
X1372402Y484482D01*
X1369982Y486903D01*
X1367018Y488614D01*
X1363711Y489500D01*
X1360288D01*
X1359823Y489375D01*
X1293147Y556051D01*
X1291580Y557253D01*
X1289756Y558009D01*
X1287798Y558267D01*
X1262413D01*
X1262073Y559537D01*
X1263219Y560198D01*
X1263465Y560444D01*
X1326885D01*
X1327079Y559719D01*
X1328198Y557781D01*
X1329781Y556199D01*
X1331719Y555079D01*
X1333881Y554500D01*
X1336119D01*
X1338281Y555079D01*
X1340219Y556199D01*
X1341802Y557781D01*
X1342921Y559719D01*
X1343500Y561881D01*
Y564119D01*
X1342921Y566281D01*
X1341802Y568219D01*
X1340219Y569802D01*
X1338281Y570921D01*
X1336119Y571500D01*
X1334690D01*
X1334554Y571636D01*
X1334554Y571636D01*
X1334554Y571636D01*
X1334115Y571973D01*
X1333197Y572678D01*
X1333196Y572678D01*
X1333196Y572678D01*
X1332410Y573004D01*
X1331615Y573333D01*
X1331615Y573333D01*
X1331615Y573333D01*
X1330373Y573496D01*
X1329919Y573556D01*
X1329918Y573556D01*
X1329918Y573556D01*
X1294548D01*
X1294208Y574826D01*
X1295719Y575699D01*
X1297301Y577281D01*
X1298421Y579219D01*
X1299000Y581381D01*
Y583619D01*
X1298421Y585781D01*
X1298065Y586398D01*
Y617394D01*
X1298286Y617777D01*
X1299632Y618226D01*
X1405235Y512623D01*
D02*
G37*
G36*
X1337128Y490673D02*
X1336642Y489500D01*
X1334888D01*
X1334423Y489375D01*
X1287949Y535849D01*
X1286382Y537051D01*
X1284558Y537807D01*
X1282600Y538064D01*
X1271133D01*
X1267234Y541964D01*
X1267720Y543137D01*
X1284664D01*
X1337128Y490673D01*
D02*
G37*
G36*
X1430635Y521325D02*
Y487144D01*
X1430218Y486903D01*
X1427797Y484482D01*
X1426183Y481687D01*
X1425500Y481596D01*
X1424816Y481687D01*
X1423202Y484482D01*
X1420782Y486903D01*
X1420365Y487144D01*
Y515756D01*
X1420365Y515757D01*
X1420107Y517715D01*
X1419351Y519539D01*
X1418149Y521106D01*
X1418149Y521106D01*
X1305627Y633628D01*
X1306113Y634801D01*
X1317159D01*
X1430635Y521325D01*
D02*
G37*
G36*
X1222983Y471313D02*
X1224597Y468518D01*
X1227018Y466097D01*
X1229982Y464386D01*
X1233288Y463500D01*
X1236711D01*
X1240018Y464386D01*
X1242982Y466097D01*
X1245402Y468518D01*
X1247016Y471313D01*
X1247700Y471404D01*
X1248383Y471313D01*
X1249997Y468518D01*
X1252418Y466097D01*
X1253844Y465274D01*
X1253844Y390726D01*
X1252418Y389902D01*
X1249998Y387482D01*
X1248384Y384687D01*
X1247700Y384596D01*
X1247017Y384687D01*
X1245403Y387482D01*
X1242982Y389902D01*
X1240018Y391614D01*
X1236712Y392500D01*
X1233289D01*
X1229983Y391614D01*
X1227018Y389902D01*
X1224598Y387482D01*
X1222984Y384687D01*
X1222300Y384596D01*
X1221617Y384687D01*
X1220003Y387482D01*
X1217582Y389902D01*
X1214618Y391614D01*
X1211312Y392500D01*
X1207889D01*
X1204583Y391614D01*
X1201618Y389902D01*
X1199198Y387482D01*
X1197584Y384687D01*
X1196900Y384596D01*
X1196217Y384687D01*
X1194603Y387482D01*
X1192182Y389902D01*
X1190756Y390726D01*
Y465274D01*
X1192182Y466097D01*
X1194602Y468518D01*
X1196216Y471313D01*
X1196900Y471404D01*
X1197583Y471313D01*
X1199197Y468518D01*
X1201618Y466097D01*
X1204582Y464386D01*
X1207888Y463500D01*
X1211311D01*
X1214618Y464386D01*
X1217582Y466097D01*
X1220002Y468518D01*
X1221616Y471313D01*
X1222300Y471404D01*
X1222983Y471313D01*
D02*
G37*
G36*
X1426183D02*
X1427797Y468518D01*
X1430218Y466097D01*
X1431644Y465274D01*
X1431644Y390726D01*
X1430218Y389902D01*
X1427798Y387482D01*
X1426184Y384687D01*
X1425500Y384596D01*
X1424817Y384687D01*
X1423203Y387482D01*
X1420782Y389902D01*
X1419356Y390726D01*
X1419356Y465274D01*
X1420782Y466097D01*
X1423202Y468518D01*
X1424816Y471313D01*
X1425500Y471404D01*
X1426183Y471313D01*
D02*
G37*
G36*
X1400783D02*
X1402397Y468518D01*
X1404818Y466097D01*
X1406244Y465274D01*
X1406244Y390726D01*
X1404818Y389902D01*
X1402398Y387482D01*
X1400784Y384687D01*
X1400100Y384596D01*
X1399417Y384687D01*
X1397803Y387482D01*
X1395383Y389902D01*
X1393956Y390726D01*
X1393956Y465274D01*
X1395382Y466097D01*
X1397802Y468518D01*
X1399416Y471313D01*
X1400100Y471404D01*
X1400783Y471313D01*
D02*
G37*
G36*
X1375383D02*
X1376997Y468518D01*
X1379418Y466097D01*
X1380844Y465274D01*
X1380844Y390726D01*
X1379418Y389902D01*
X1376998Y387482D01*
X1375384Y384687D01*
X1374700Y384596D01*
X1374017Y384687D01*
X1372403Y387482D01*
X1369982Y389902D01*
X1369565Y390144D01*
Y465856D01*
X1369982Y466097D01*
X1372402Y468518D01*
X1374016Y471313D01*
X1374700Y471404D01*
X1375383Y471313D01*
D02*
G37*
G36*
X1349983D02*
X1351597Y468518D01*
X1354018Y466097D01*
X1354435Y465856D01*
Y390143D01*
X1354018Y389902D01*
X1351598Y387482D01*
X1349984Y384687D01*
X1349300Y384596D01*
X1348617Y384687D01*
X1347003Y387482D01*
X1344583Y389902D01*
X1343156Y390726D01*
X1343156Y465274D01*
X1344582Y466097D01*
X1347002Y468518D01*
X1348616Y471313D01*
X1349300Y471404D01*
X1349983Y471313D01*
D02*
G37*
G36*
X1324583D02*
X1326197Y468518D01*
X1328618Y466097D01*
X1330044Y465274D01*
X1330044Y390726D01*
X1328618Y389902D01*
X1326198Y387482D01*
X1324584Y384687D01*
X1323900Y384596D01*
X1323217Y384687D01*
X1321603Y387482D01*
X1319182Y389902D01*
X1317756Y390726D01*
X1317756Y465274D01*
X1319182Y466097D01*
X1321602Y468518D01*
X1323216Y471313D01*
X1323900Y471404D01*
X1324583Y471313D01*
D02*
G37*
G36*
X1299183D02*
X1300797Y468518D01*
X1303218Y466097D01*
X1304644Y465274D01*
X1304644Y390726D01*
X1303218Y389902D01*
X1300798Y387482D01*
X1299184Y384687D01*
X1298500Y384596D01*
X1297817Y384687D01*
X1296203Y387482D01*
X1293783Y389902D01*
X1292356Y390726D01*
X1292356Y465274D01*
X1293782Y466097D01*
X1296202Y468518D01*
X1297816Y471313D01*
X1298500Y471404D01*
X1299183Y471313D01*
D02*
G37*
G36*
X1273783D02*
X1275397Y468518D01*
X1277818Y466097D01*
X1279244Y465274D01*
X1279244Y390726D01*
X1277818Y389902D01*
X1275398Y387482D01*
X1273784Y384687D01*
X1273100Y384596D01*
X1272417Y384687D01*
X1270803Y387482D01*
X1268382Y389902D01*
X1266956Y390726D01*
X1266956Y465274D01*
X1268382Y466097D01*
X1270802Y468518D01*
X1272416Y471313D01*
X1273100Y471404D01*
X1273783Y471313D01*
D02*
G37*
D10*
X1295500Y737000D02*
Y738082D01*
X1295142Y736642D02*
X1295500Y737000D01*
X1299250Y741832D02*
Y811750D01*
X1295500Y738082D02*
X1299250Y741832D01*
X1325000Y719900D02*
X1351300Y746200D01*
X1363500D01*
X1325000Y671100D02*
X1338800Y657300D01*
X1363500D01*
X1438200Y476500D02*
X1438200Y379500D01*
X1412800Y476500D02*
X1412800Y379500D01*
X1387400Y476500D02*
X1387400Y379500D01*
X1336600Y476500D02*
X1336600Y379500D01*
X1245500Y538500D02*
X1246000Y539000D01*
X1245500Y538500D02*
X1262735Y521265D01*
X1264583Y520500D01*
X1311200Y476500D02*
X1311200Y379500D01*
X1216735Y524235D02*
X1217500Y525000D01*
X1237299D01*
X1285800Y476500D01*
X1285800Y379500D01*
X1260400Y476500D02*
X1260400Y379500D01*
X1234000Y506238D02*
X1243238Y497000D01*
X1234000Y506238D02*
Y506500D01*
X1225501Y515000D02*
X1234000Y506500D01*
X1196358Y515000D02*
X1225501D01*
X1191500Y519858D02*
X1196358Y515000D01*
X1191500Y519858D02*
Y530142D01*
X1196358Y535000D01*
X1200918D01*
X1201152Y534766D01*
X1208235D01*
X1144500Y459541D02*
X1187459Y502500D01*
X1299000Y812000D02*
X1299250Y811750D01*
X1245000Y719000D02*
Y812500D01*
Y719000D02*
X1264500Y699500D01*
Y698418D02*
Y699500D01*
X1333918Y563000D02*
X1335000D01*
X1329918Y567000D02*
X1333918Y563000D01*
X1258000Y567000D02*
X1329918D01*
X1144000Y684000D02*
X1159500Y699500D01*
Y725000D01*
X1083501D02*
X1159500D01*
X1031500Y777000D02*
X1083501Y725000D01*
X1116000Y455500D02*
X1137000Y476500D01*
Y551500D01*
X1177250Y591750D01*
Y615000D01*
X1544500Y886600D02*
X1581100D01*
X1601000Y906500D01*
X1543500Y772500D02*
X1562500Y791500D01*
X1601000D01*
X803740Y635960D02*
X894915D01*
X1092670Y438205D01*
X1145905D01*
X1184200Y476500D01*
X1184200D01*
Y379500D02*
Y476500D01*
D50*
X1468204Y1219454D02*
X1481050Y1232300D01*
X1452710Y1203960D02*
X1468204Y1219454D01*
X1284735Y632291D02*
X1296265D01*
X1412800Y515757D01*
Y476500D02*
Y515757D01*
X1290500Y582500D02*
Y621291D01*
X1287798Y550702D02*
X1362000Y476500D01*
X1261967Y550702D02*
X1287798D01*
X1362000Y379500D02*
Y476500D01*
Y379500D02*
X1362000Y379500D01*
X1214000Y584500D02*
X1268000Y530500D01*
X1282600D01*
X1336600Y476500D01*
X1454000Y714501D02*
X1504500Y765000D01*
X1454000Y615000D02*
Y714501D01*
Y615000D02*
X1498500Y570500D01*
X1464500D02*
X1498500D01*
X834600Y798000D02*
Y813010D01*
X850900Y829310D01*
X994810D01*
X1065500Y900000D01*
X1014400Y455500D02*
Y475488D01*
X908812D02*
X1014400D01*
X838200Y546100D02*
X908812Y475488D01*
X729488Y546100D02*
X838200D01*
X671576Y604012D02*
X729488Y546100D01*
X671576Y604012D02*
Y656844D01*
X716280Y701548D01*
X768560D01*
X860000Y792988D01*
Y798000D01*
X944000Y939500D02*
X964184Y919316D01*
Y876046D02*
Y919316D01*
X952500Y864362D02*
X964184Y876046D01*
X886786Y864362D02*
X952500D01*
X865124Y842700D02*
X886786Y864362D01*
X831270Y842700D02*
X865124D01*
X727000Y738430D02*
X831270Y842700D01*
X727000Y730000D02*
Y738430D01*
X874550Y884500D02*
X944000D01*
X850250Y860200D02*
X874550Y884500D01*
X787801Y1025300D02*
X850250D01*
X770000Y1007499D02*
X787801Y1025300D01*
X692000Y624300D02*
X792080D01*
X803740Y635960D01*
X691430Y1179670D02*
X802143D01*
X858983Y1236510D01*
X944000Y972702D02*
Y994500D01*
X861568Y890270D02*
X944000Y972702D01*
X837270Y890270D02*
X861568D01*
X727000Y780000D02*
X837270Y890270D01*
X850250Y1076100D02*
X915572D01*
X1043432Y1203960D01*
X1452710D01*
X1566000Y503000D02*
X1599500D01*
X1498500Y570500D02*
X1566000Y503000D01*
X1329848Y1235010D02*
X1345403Y1219454D01*
X1468204D01*
X1362148Y1173500D02*
X1383504Y1152144D01*
X1487644D01*
X1508500Y1173000D01*
X752000Y405000D02*
X882000D01*
X749784Y514040D02*
X803740D01*
X745744Y510000D02*
X749784Y514040D01*
X692000Y510000D02*
X745744D01*
X736252Y1107700D02*
X765000D01*
X733552Y1105000D02*
X736252Y1107700D01*
X705000Y1105000D02*
X733552D01*
X738339Y1007499D02*
X770000D01*
X736600Y1005760D02*
X738339Y1007499D01*
X705000Y1005760D02*
X736600D01*
X1251204Y633730D02*
X1259840Y642366D01*
X1320292D01*
X1438200Y524458D01*
Y476500D02*
Y524458D01*
D51*
Y476500D02*
D03*
X1387400D02*
D03*
X1336600D02*
D03*
X1285800D02*
D03*
X1184200D02*
D03*
X1209600D02*
D03*
X1235000D02*
D03*
X1260400D02*
D03*
X1311200D02*
D03*
X1362000D02*
D03*
X1412800D02*
D03*
X1463600D02*
D03*
X1216580Y1235510D02*
D03*
X1599500Y553800D02*
D03*
X1068215Y1236510D02*
D03*
X1531850Y1232300D02*
D03*
X1597000Y1081400D02*
D03*
Y1056000D02*
D03*
X1601000Y881100D02*
D03*
Y766100D02*
D03*
X1380647Y1235010D02*
D03*
X1165780Y1235510D02*
D03*
X1597000Y1106800D02*
D03*
X1599500Y477600D02*
D03*
X1463600Y379500D02*
D03*
X1130000Y271000D02*
D03*
X1067500Y270500D02*
D03*
X1599500Y503000D02*
D03*
Y528400D02*
D03*
Y398400D02*
D03*
X1412800Y379500D02*
D03*
X1362000D02*
D03*
X1311200D02*
D03*
X1260400D02*
D03*
X1235000D02*
D03*
X1209600D02*
D03*
X1184200D02*
D03*
X1285800D02*
D03*
X1336600D02*
D03*
X1387400D02*
D03*
X1438200D02*
D03*
X1601000Y791500D02*
D03*
Y816900D02*
D03*
Y906500D02*
D03*
Y931900D02*
D03*
X752000Y405000D02*
D03*
X702000D02*
D03*
X727000Y730000D02*
D03*
Y780000D02*
D03*
X932000Y405000D02*
D03*
X882000D02*
D03*
X1130000Y296400D02*
D03*
Y245600D02*
D03*
X1067500Y245100D02*
D03*
Y295900D02*
D03*
X1506450Y1232300D02*
D03*
X1481050D02*
D03*
X909783Y1236510D02*
D03*
X884383D02*
D03*
X858983D02*
D03*
X1042815D02*
D03*
X1017415D02*
D03*
X1355247Y1235010D02*
D03*
X1329848D02*
D03*
X1191180Y1235510D02*
D03*
X1141500Y900000D02*
D03*
X1065500D02*
D03*
X705500D02*
D03*
X755500D02*
D03*
D52*
X1296500Y978500D02*
D03*
X1218080Y1174000D02*
D03*
X1218500Y1129000D02*
D03*
X1217500Y1031500D02*
D03*
X1186500Y978500D02*
D03*
X1069715Y1175000D02*
D03*
X1071500Y1030500D02*
D03*
X1070800Y1130000D02*
D03*
X1528500Y1173000D02*
D03*
X1382148Y1173500D02*
D03*
X1382000Y1128500D02*
D03*
X1498500Y595900D02*
D03*
X1363500Y720800D02*
D03*
X1271100Y978500D02*
D03*
X1197500Y1031500D02*
D03*
X1051500Y1030500D02*
D03*
X1161100Y978500D02*
D03*
X822000Y720000D02*
D03*
X1363500Y682700D02*
D03*
Y746200D02*
D03*
Y657300D02*
D03*
X1498500Y570500D02*
D03*
X842000Y720000D02*
D03*
X705000Y1105000D02*
D03*
Y1085000D02*
D03*
X911282Y1175000D02*
D03*
X891282D02*
D03*
X1049715D02*
D03*
X765000Y1082300D02*
D03*
Y1107700D02*
D03*
X886000Y1130000D02*
D03*
X911400D02*
D03*
X1045400D02*
D03*
X705000Y1005760D02*
D03*
Y985760D02*
D03*
X1362148Y1173500D02*
D03*
X1198080Y1174000D02*
D03*
X770000Y982099D02*
D03*
Y1007499D02*
D03*
X1356600Y1128500D02*
D03*
X1193100Y1129000D02*
D03*
X1090600Y572000D02*
D03*
X1116000D02*
D03*
X1325000Y719900D02*
D03*
Y671100D02*
D03*
X1508500Y1173000D02*
D03*
D53*
X1299000Y913600D02*
D03*
X1359500Y912600D02*
D03*
X1245000Y914100D02*
D03*
X1042400Y684000D02*
D03*
X1410500Y704500D02*
D03*
X1117000Y370500D02*
D03*
X1512100Y704500D02*
D03*
X1015400Y370500D02*
D03*
X1359500Y811000D02*
D03*
X1245000Y812500D02*
D03*
X1299000Y812000D02*
D03*
X1144000Y684000D02*
D03*
X1014400Y455500D02*
D03*
X1116000D02*
D03*
D54*
X1415600Y765000D02*
D03*
X1504500D02*
D03*
X1543500Y861400D02*
D03*
Y772500D02*
D03*
X1544500Y975500D02*
D03*
Y886600D02*
D03*
D55*
X1571500Y613000D02*
D03*
X1514500Y1110500D02*
D03*
Y983500D02*
D03*
X1031500Y777000D02*
D03*
X1158500D02*
D03*
X1159500Y725000D02*
D03*
X1032500D02*
D03*
X1571500Y740000D02*
D03*
D56*
X885400Y798000D02*
D03*
X988900Y797500D02*
D03*
X860000Y798000D02*
D03*
X834600D02*
D03*
X963500Y797500D02*
D03*
X938100D02*
D03*
D57*
X944000Y884500D02*
D03*
Y939500D02*
D03*
Y994500D02*
D03*
Y1049500D02*
D03*
D58*
X692000Y510000D02*
D03*
D59*
Y624300D02*
D03*
D60*
X850250Y1076100D02*
D03*
Y860200D02*
D03*
Y911000D02*
D03*
Y1025300D02*
D03*
D61*
X1599500Y373000D02*
D03*
D62*
X691430Y1230470D02*
D03*
Y1205070D02*
D03*
Y1179670D02*
D03*
D63*
X803740Y514040D02*
D03*
X925660Y635960D02*
D03*
X778340Y575000D02*
D03*
X925660Y514040D02*
D03*
X803740Y635960D02*
D03*
D64*
X1180500Y683000D02*
D03*
X1043500Y626500D02*
D03*
X1455000Y853000D02*
D03*
X1282000Y699500D02*
D03*
X1290500Y621291D02*
D03*
Y582500D02*
D03*
X1214000Y584500D02*
D03*
X1464500Y570500D02*
D03*
X1421384Y801116D02*
D03*
X1072896Y938784D02*
D03*
X1437500Y678270D02*
D03*
X1475000Y869105D02*
D03*
X1400450Y928878D02*
D03*
X1251204Y633730D02*
D03*
X1144500Y459541D02*
D03*
X1335000Y563000D02*
D03*
X1258000Y567000D02*
D03*
X1177250Y615000D02*
D03*
M02*
