G04*
G04 #@! TF.GenerationSoftware,Altium Limited,Altium Designer,23.7.1 (13)*
G04*
G04 Layer_Color=16711935*
%FSLAX44Y44*%
%MOMM*%
G71*
G04*
G04 #@! TF.SameCoordinates,08080B6D-4C5C-4958-99E3-925CFEBC34A3*
G04*
G04*
G04 #@! TF.FilePolarity,Positive*
G04*
G01*
G75*
%ADD13C,0.1778*%
%ADD81C,0.0500*%
G36*
X1175183Y341527D02*
X1193217D01*
X1184327Y350417D01*
Y350671D01*
X1175183Y341527D01*
D02*
G37*
G36*
X1175183Y438527D02*
X1193217D01*
X1184327Y447417D01*
Y447671D01*
X1175183Y438527D01*
D02*
G37*
G36*
X1634973Y1046983D02*
Y1065017D01*
X1626083Y1056127D01*
X1625829Y1056127D01*
X1634973Y1046983D01*
D02*
G37*
G36*
X1601777Y556331D02*
X1601796Y556312D01*
X1601805Y556275D01*
X1601832Y556229D01*
X1601860Y556174D01*
X1601897Y556109D01*
X1601990Y555952D01*
X1602091Y555767D01*
X1602221Y555582D01*
X1602369Y555388D01*
X1602526Y555193D01*
X1602535Y555184D01*
X1602544Y555175D01*
X1602572Y555147D01*
X1602600Y555110D01*
X1602692Y555027D01*
X1602803Y554916D01*
X1602933Y554805D01*
X1603081Y554685D01*
X1603228Y554583D01*
X1603386Y554491D01*
Y553982D01*
X1596960D01*
Y554768D01*
X1601962D01*
X1601953Y554777D01*
X1601916Y554824D01*
X1601860Y554879D01*
X1601796Y554972D01*
X1601712Y555073D01*
X1601620Y555203D01*
X1601518Y555351D01*
X1601416Y555517D01*
Y555526D01*
X1601407Y555536D01*
X1601370Y555591D01*
X1601324Y555684D01*
X1601268Y555794D01*
X1601204Y555924D01*
X1601139Y556063D01*
X1601074Y556201D01*
X1601019Y556340D01*
X1601777D01*
Y556331D01*
D02*
G37*
G36*
X1603358Y477209D02*
Y476571D01*
X1599216D01*
Y475702D01*
X1598495D01*
Y476571D01*
X1596960D01*
Y477357D01*
X1598495D01*
Y480140D01*
X1599216D01*
X1603358Y477209D01*
D02*
G37*
G36*
X1600613Y767697D02*
X1600602D01*
X1600580Y767685D01*
X1600536Y767674D01*
X1600480Y767663D01*
X1600414Y767652D01*
X1600336Y767630D01*
X1600169Y767574D01*
X1599970Y767497D01*
X1599781Y767397D01*
X1599603Y767286D01*
X1599448Y767153D01*
X1599437Y767130D01*
X1599392Y767086D01*
X1599337Y766997D01*
X1599281Y766886D01*
X1599215Y766753D01*
X1599159Y766587D01*
X1599115Y766398D01*
X1599104Y766198D01*
Y766131D01*
X1599115Y766087D01*
X1599126Y765965D01*
X1599159Y765809D01*
X1599215Y765632D01*
X1599292Y765443D01*
X1599404Y765255D01*
X1599559Y765077D01*
X1599581Y765055D01*
X1599648Y764999D01*
X1599748Y764933D01*
X1599881Y764844D01*
X1600047Y764755D01*
X1600236Y764688D01*
X1600458Y764633D01*
X1600702Y764611D01*
X1600713D01*
X1600735D01*
X1600769D01*
X1600813Y764622D01*
X1600935Y764633D01*
X1601080Y764666D01*
X1601257Y764711D01*
X1601435Y764788D01*
X1601612Y764899D01*
X1601779Y765044D01*
X1601801Y765066D01*
X1601845Y765121D01*
X1601912Y765210D01*
X1601990Y765332D01*
X1602067Y765488D01*
X1602134Y765676D01*
X1602178Y765887D01*
X1602201Y766120D01*
Y766220D01*
X1602189Y766298D01*
X1602178Y766398D01*
X1602156Y766509D01*
X1602134Y766642D01*
X1602101Y766786D01*
X1602933Y766675D01*
Y766620D01*
X1602922Y766575D01*
Y766431D01*
X1602944Y766309D01*
X1602966Y766165D01*
X1603000Y765998D01*
X1603055Y765809D01*
X1603133Y765632D01*
X1603233Y765443D01*
Y765432D01*
X1603244Y765421D01*
X1603288Y765366D01*
X1603366Y765288D01*
X1603466Y765199D01*
X1603610Y765110D01*
X1603777Y765033D01*
X1603965Y764977D01*
X1604077Y764955D01*
X1604199D01*
X1604210D01*
X1604221D01*
X1604287D01*
X1604376Y764977D01*
X1604498Y764999D01*
X1604632Y765044D01*
X1604776Y765099D01*
X1604920Y765188D01*
X1605053Y765310D01*
X1605064Y765321D01*
X1605109Y765377D01*
X1605164Y765454D01*
X1605231Y765554D01*
X1605286Y765687D01*
X1605342Y765843D01*
X1605386Y766020D01*
X1605397Y766220D01*
Y766309D01*
X1605375Y766409D01*
X1605353Y766542D01*
X1605309Y766686D01*
X1605253Y766831D01*
X1605164Y766986D01*
X1605053Y767130D01*
X1605042Y767141D01*
X1604987Y767186D01*
X1604909Y767253D01*
X1604798Y767330D01*
X1604654Y767408D01*
X1604476Y767486D01*
X1604265Y767552D01*
X1604021Y767597D01*
X1604187Y768540D01*
X1604199D01*
X1604232Y768529D01*
X1604276Y768518D01*
X1604343Y768507D01*
X1604421Y768485D01*
X1604509Y768451D01*
X1604720Y768385D01*
X1604964Y768274D01*
X1605209Y768140D01*
X1605442Y767974D01*
X1605653Y767763D01*
X1605664Y767752D01*
X1605675Y767730D01*
X1605697Y767697D01*
X1605730Y767652D01*
X1605775Y767597D01*
X1605819Y767519D01*
X1605864Y767441D01*
X1605919Y767341D01*
X1606008Y767119D01*
X1606097Y766864D01*
X1606152Y766564D01*
X1606174Y766409D01*
Y766131D01*
X1606163Y766009D01*
X1606141Y765865D01*
X1606108Y765687D01*
X1606052Y765488D01*
X1605986Y765288D01*
X1605897Y765088D01*
Y765077D01*
X1605886Y765066D01*
X1605853Y764999D01*
X1605786Y764899D01*
X1605708Y764788D01*
X1605597Y764655D01*
X1605475Y764522D01*
X1605331Y764389D01*
X1605164Y764278D01*
X1605142Y764267D01*
X1605087Y764233D01*
X1604987Y764189D01*
X1604865Y764134D01*
X1604720Y764078D01*
X1604554Y764034D01*
X1604365Y764000D01*
X1604176Y763989D01*
X1604154D01*
X1604088D01*
X1603999Y764000D01*
X1603877Y764023D01*
X1603732Y764056D01*
X1603577Y764111D01*
X1603422Y764178D01*
X1603266Y764267D01*
X1603244Y764278D01*
X1603200Y764311D01*
X1603122Y764378D01*
X1603033Y764466D01*
X1602933Y764577D01*
X1602822Y764711D01*
X1602722Y764866D01*
X1602622Y765055D01*
Y765044D01*
X1602611Y765022D01*
X1602600Y764988D01*
X1602589Y764944D01*
X1602545Y764822D01*
X1602478Y764666D01*
X1602389Y764489D01*
X1602278Y764311D01*
X1602134Y764145D01*
X1601967Y763989D01*
X1601945Y763978D01*
X1601879Y763934D01*
X1601768Y763867D01*
X1601623Y763801D01*
X1601446Y763734D01*
X1601235Y763667D01*
X1600991Y763623D01*
X1600724Y763612D01*
X1600713D01*
X1600680D01*
X1600625D01*
X1600558Y763623D01*
X1600469Y763634D01*
X1600369Y763656D01*
X1600258Y763678D01*
X1600136Y763701D01*
X1599870Y763789D01*
X1599725Y763856D01*
X1599592Y763923D01*
X1599448Y764011D01*
X1599304Y764111D01*
X1599159Y764222D01*
X1599026Y764355D01*
X1599015Y764367D01*
X1598993Y764389D01*
X1598960Y764433D01*
X1598915Y764489D01*
X1598860Y764555D01*
X1598804Y764644D01*
X1598737Y764744D01*
X1598682Y764866D01*
X1598615Y764988D01*
X1598549Y765133D01*
X1598493Y765277D01*
X1598438Y765443D01*
X1598393Y765621D01*
X1598360Y765809D01*
X1598338Y765998D01*
X1598327Y766209D01*
Y766309D01*
X1598338Y766376D01*
X1598349Y766464D01*
X1598360Y766564D01*
X1598382Y766675D01*
X1598405Y766797D01*
X1598471Y767064D01*
X1598582Y767341D01*
X1598649Y767486D01*
X1598726Y767619D01*
X1598826Y767752D01*
X1598926Y767885D01*
X1598937Y767896D01*
X1598960Y767918D01*
X1598993Y767952D01*
X1599037Y767985D01*
X1599093Y768041D01*
X1599170Y768096D01*
X1599248Y768163D01*
X1599348Y768229D01*
X1599459Y768296D01*
X1599570Y768363D01*
X1599836Y768485D01*
X1600147Y768585D01*
X1600314Y768618D01*
X1600491Y768640D01*
X1600613Y767697D01*
D02*
G37*
G36*
X1604243Y819429D02*
X1604265Y819407D01*
X1604276Y819362D01*
X1604310Y819307D01*
X1604343Y819240D01*
X1604387Y819163D01*
X1604498Y818974D01*
X1604620Y818752D01*
X1604776Y818530D01*
X1604953Y818297D01*
X1605142Y818064D01*
X1605153Y818053D01*
X1605164Y818041D01*
X1605198Y818008D01*
X1605231Y817964D01*
X1605342Y817864D01*
X1605475Y817731D01*
X1605630Y817597D01*
X1605808Y817453D01*
X1605986Y817331D01*
X1606174Y817220D01*
Y816609D01*
X1598460D01*
Y817553D01*
X1604465D01*
X1604454Y817564D01*
X1604409Y817620D01*
X1604343Y817686D01*
X1604265Y817797D01*
X1604165Y817919D01*
X1604054Y818075D01*
X1603932Y818252D01*
X1603810Y818452D01*
Y818463D01*
X1603799Y818474D01*
X1603755Y818541D01*
X1603699Y818652D01*
X1603633Y818785D01*
X1603555Y818941D01*
X1603477Y819107D01*
X1603399Y819274D01*
X1603333Y819440D01*
X1604243D01*
Y819429D01*
D02*
G37*
G36*
X1600613Y882697D02*
X1600602D01*
X1600580Y882685D01*
X1600536Y882674D01*
X1600480Y882663D01*
X1600414Y882652D01*
X1600336Y882630D01*
X1600169Y882574D01*
X1599970Y882497D01*
X1599781Y882397D01*
X1599603Y882286D01*
X1599448Y882153D01*
X1599437Y882130D01*
X1599392Y882086D01*
X1599337Y881997D01*
X1599281Y881886D01*
X1599215Y881753D01*
X1599159Y881587D01*
X1599115Y881398D01*
X1599104Y881198D01*
Y881131D01*
X1599115Y881087D01*
X1599126Y880965D01*
X1599159Y880809D01*
X1599215Y880632D01*
X1599292Y880443D01*
X1599404Y880255D01*
X1599559Y880077D01*
X1599581Y880055D01*
X1599648Y879999D01*
X1599748Y879933D01*
X1599881Y879844D01*
X1600047Y879755D01*
X1600236Y879688D01*
X1600458Y879633D01*
X1600702Y879611D01*
X1600713D01*
X1600735D01*
X1600769D01*
X1600813Y879622D01*
X1600935Y879633D01*
X1601080Y879666D01*
X1601257Y879711D01*
X1601435Y879788D01*
X1601612Y879899D01*
X1601779Y880044D01*
X1601801Y880066D01*
X1601845Y880121D01*
X1601912Y880210D01*
X1601990Y880332D01*
X1602067Y880488D01*
X1602134Y880676D01*
X1602178Y880887D01*
X1602201Y881120D01*
Y881220D01*
X1602189Y881298D01*
X1602178Y881398D01*
X1602156Y881509D01*
X1602134Y881642D01*
X1602101Y881786D01*
X1602933Y881675D01*
Y881620D01*
X1602922Y881575D01*
Y881431D01*
X1602944Y881309D01*
X1602966Y881165D01*
X1603000Y880998D01*
X1603055Y880809D01*
X1603133Y880632D01*
X1603233Y880443D01*
Y880432D01*
X1603244Y880421D01*
X1603288Y880366D01*
X1603366Y880288D01*
X1603466Y880199D01*
X1603610Y880110D01*
X1603777Y880033D01*
X1603965Y879977D01*
X1604077Y879955D01*
X1604199D01*
X1604210D01*
X1604221D01*
X1604287D01*
X1604376Y879977D01*
X1604498Y879999D01*
X1604632Y880044D01*
X1604776Y880099D01*
X1604920Y880188D01*
X1605053Y880310D01*
X1605064Y880321D01*
X1605109Y880377D01*
X1605164Y880454D01*
X1605231Y880554D01*
X1605286Y880687D01*
X1605342Y880843D01*
X1605386Y881020D01*
X1605397Y881220D01*
Y881309D01*
X1605375Y881409D01*
X1605353Y881542D01*
X1605309Y881686D01*
X1605253Y881831D01*
X1605164Y881986D01*
X1605053Y882130D01*
X1605042Y882141D01*
X1604987Y882186D01*
X1604909Y882253D01*
X1604798Y882330D01*
X1604654Y882408D01*
X1604476Y882486D01*
X1604265Y882552D01*
X1604021Y882597D01*
X1604187Y883540D01*
X1604199D01*
X1604232Y883529D01*
X1604276Y883518D01*
X1604343Y883507D01*
X1604421Y883485D01*
X1604509Y883451D01*
X1604720Y883385D01*
X1604964Y883274D01*
X1605209Y883140D01*
X1605442Y882974D01*
X1605653Y882763D01*
X1605664Y882752D01*
X1605675Y882730D01*
X1605697Y882697D01*
X1605730Y882652D01*
X1605775Y882597D01*
X1605819Y882519D01*
X1605864Y882441D01*
X1605919Y882341D01*
X1606008Y882119D01*
X1606097Y881864D01*
X1606152Y881564D01*
X1606174Y881409D01*
Y881131D01*
X1606163Y881009D01*
X1606141Y880865D01*
X1606108Y880687D01*
X1606052Y880488D01*
X1605986Y880288D01*
X1605897Y880088D01*
Y880077D01*
X1605886Y880066D01*
X1605853Y879999D01*
X1605786Y879899D01*
X1605708Y879788D01*
X1605597Y879655D01*
X1605475Y879522D01*
X1605331Y879389D01*
X1605164Y879278D01*
X1605142Y879267D01*
X1605087Y879233D01*
X1604987Y879189D01*
X1604865Y879134D01*
X1604720Y879078D01*
X1604554Y879034D01*
X1604365Y879000D01*
X1604176Y878989D01*
X1604154D01*
X1604088D01*
X1603999Y879000D01*
X1603877Y879023D01*
X1603732Y879056D01*
X1603577Y879111D01*
X1603422Y879178D01*
X1603266Y879267D01*
X1603244Y879278D01*
X1603200Y879311D01*
X1603122Y879378D01*
X1603033Y879466D01*
X1602933Y879577D01*
X1602822Y879711D01*
X1602722Y879866D01*
X1602622Y880055D01*
Y880044D01*
X1602611Y880022D01*
X1602600Y879988D01*
X1602589Y879944D01*
X1602545Y879822D01*
X1602478Y879666D01*
X1602389Y879489D01*
X1602278Y879311D01*
X1602134Y879145D01*
X1601967Y878989D01*
X1601945Y878978D01*
X1601879Y878934D01*
X1601768Y878867D01*
X1601623Y878801D01*
X1601446Y878734D01*
X1601235Y878667D01*
X1600991Y878623D01*
X1600724Y878612D01*
X1600713D01*
X1600680D01*
X1600625D01*
X1600558Y878623D01*
X1600469Y878634D01*
X1600369Y878656D01*
X1600258Y878678D01*
X1600136Y878701D01*
X1599870Y878789D01*
X1599725Y878856D01*
X1599592Y878923D01*
X1599448Y879011D01*
X1599304Y879111D01*
X1599159Y879222D01*
X1599026Y879355D01*
X1599015Y879367D01*
X1598993Y879389D01*
X1598960Y879433D01*
X1598915Y879489D01*
X1598860Y879555D01*
X1598804Y879644D01*
X1598737Y879744D01*
X1598682Y879866D01*
X1598615Y879988D01*
X1598549Y880133D01*
X1598493Y880277D01*
X1598438Y880443D01*
X1598393Y880621D01*
X1598360Y880809D01*
X1598338Y880998D01*
X1598327Y881209D01*
Y881309D01*
X1598338Y881376D01*
X1598349Y881464D01*
X1598360Y881564D01*
X1598382Y881675D01*
X1598405Y881797D01*
X1598471Y882064D01*
X1598582Y882341D01*
X1598649Y882486D01*
X1598726Y882619D01*
X1598826Y882752D01*
X1598926Y882885D01*
X1598937Y882896D01*
X1598960Y882918D01*
X1598993Y882952D01*
X1599037Y882985D01*
X1599093Y883041D01*
X1599170Y883096D01*
X1599248Y883163D01*
X1599348Y883229D01*
X1599459Y883296D01*
X1599570Y883363D01*
X1599836Y883485D01*
X1600147Y883585D01*
X1600314Y883618D01*
X1600491Y883640D01*
X1600613Y882697D01*
D02*
G37*
G36*
X1604243Y934429D02*
X1604265Y934407D01*
X1604276Y934362D01*
X1604310Y934307D01*
X1604343Y934240D01*
X1604387Y934163D01*
X1604498Y933974D01*
X1604620Y933752D01*
X1604776Y933530D01*
X1604953Y933297D01*
X1605142Y933064D01*
X1605153Y933053D01*
X1605164Y933041D01*
X1605198Y933008D01*
X1605231Y932964D01*
X1605342Y932864D01*
X1605475Y932731D01*
X1605630Y932597D01*
X1605808Y932453D01*
X1605986Y932331D01*
X1606174Y932220D01*
Y931609D01*
X1598460D01*
Y932553D01*
X1604465D01*
X1604454Y932564D01*
X1604409Y932620D01*
X1604343Y932686D01*
X1604265Y932797D01*
X1604165Y932919D01*
X1604054Y933075D01*
X1603932Y933252D01*
X1603810Y933452D01*
Y933463D01*
X1603799Y933474D01*
X1603755Y933541D01*
X1603699Y933652D01*
X1603633Y933785D01*
X1603555Y933941D01*
X1603477Y934107D01*
X1603399Y934274D01*
X1603333Y934440D01*
X1604243D01*
Y934429D01*
D02*
G37*
%LPC*%
G36*
X1599216Y479373D02*
Y477357D01*
X1602082D01*
X1599216Y479373D01*
D02*
G37*
%LPD*%
D13*
X1455900Y471500D02*
X1458439D01*
X1457170D01*
Y479118D01*
X1455900Y477848D01*
X1467326Y471500D02*
X1462248D01*
X1467326Y476578D01*
Y477848D01*
X1466057Y479118D01*
X1463517D01*
X1462248Y477848D01*
X1182900Y471500D02*
X1185439D01*
X1184170D01*
Y479118D01*
X1182900Y477848D01*
X819172Y723500D02*
X824250D01*
X819172Y718422D01*
Y717152D01*
X820441Y715882D01*
X822980D01*
X824250Y717152D01*
X843250Y723500D02*
X840711D01*
X841980D01*
Y715882D01*
X843250Y717152D01*
X701500Y1082172D02*
Y1087250D01*
X706578Y1082172D01*
X707848D01*
X709118Y1083441D01*
Y1085980D01*
X707848Y1087250D01*
X701500Y1106250D02*
Y1103711D01*
Y1104980D01*
X709118D01*
X707848Y1106250D01*
X888454Y1178500D02*
X893533D01*
X888454Y1173422D01*
Y1172152D01*
X889724Y1170882D01*
X892263D01*
X893533Y1172152D01*
X912533Y1178500D02*
X909993D01*
X911263D01*
Y1170882D01*
X912533Y1172152D01*
X1046887Y1178500D02*
X1051965D01*
X1046887Y1173422D01*
Y1172152D01*
X1048156Y1170882D01*
X1050695D01*
X1051965Y1172152D01*
X1070965Y1178500D02*
X1068426D01*
X1069696D01*
Y1170882D01*
X1070965Y1172152D01*
X701500Y982932D02*
Y988010D01*
X706578Y982932D01*
X707848D01*
X709118Y984201D01*
Y986740D01*
X707848Y988010D01*
X701500Y1007010D02*
Y1004471D01*
Y1005740D01*
X709118D01*
X707848Y1007010D01*
X1359319Y1177000D02*
X1364398D01*
X1359319Y1171922D01*
Y1170652D01*
X1360589Y1169382D01*
X1363128D01*
X1364398Y1170652D01*
X1383398Y1177000D02*
X1380858D01*
X1382128D01*
Y1169382D01*
X1383398Y1170652D01*
X1195252Y1177500D02*
X1200330D01*
X1195252Y1172422D01*
Y1171152D01*
X1196521Y1169883D01*
X1199061D01*
X1200330Y1171152D01*
X1219330Y1177500D02*
X1216791D01*
X1218061D01*
Y1169883D01*
X1219330Y1171152D01*
X940250Y885750D02*
Y883211D01*
Y884481D01*
X947868D01*
X946598Y885750D01*
X940250Y936505D02*
Y941583D01*
X945328Y936505D01*
X946598D01*
X947868Y937775D01*
Y940314D01*
X946598Y941583D01*
Y997417D02*
X947868Y996147D01*
Y993608D01*
X946598Y992338D01*
X945328D01*
X944059Y993608D01*
Y994878D01*
Y993608D01*
X942789Y992338D01*
X941520D01*
X940250Y993608D01*
Y996147D01*
X941520Y997417D01*
X940250Y1049441D02*
X947868D01*
X944059Y1053250D01*
Y1048172D01*
X1595652Y1103400D02*
X1594382Y1104670D01*
Y1107209D01*
X1595652Y1108478D01*
X1596922D01*
X1598191Y1107209D01*
Y1105939D01*
Y1107209D01*
X1599461Y1108478D01*
X1600730D01*
X1602000Y1107209D01*
Y1104670D01*
X1600730Y1103400D01*
X1602000Y1054400D02*
Y1056939D01*
Y1055670D01*
X1594382D01*
X1595652Y1054400D01*
X1182900Y374500D02*
X1185439D01*
X1184170D01*
Y382118D01*
X1182900Y380848D01*
X1455900Y374500D02*
X1458439D01*
X1457170D01*
Y382118D01*
X1455900Y380848D01*
X1467326Y374500D02*
X1462248D01*
X1467326Y379578D01*
Y380848D01*
X1466057Y382118D01*
X1463518D01*
X1462248Y380848D01*
X1117250Y575500D02*
X1114711D01*
X1115980D01*
Y567882D01*
X1117250Y569152D01*
X1087672Y575500D02*
X1092750D01*
X1087672Y570422D01*
Y569152D01*
X1088941Y567882D01*
X1091480D01*
X1092750Y569152D01*
X694778Y1181720D02*
X696048Y1180450D01*
Y1177911D01*
X694778Y1176642D01*
X693509D01*
X692239Y1177911D01*
Y1179181D01*
Y1177911D01*
X690969Y1176642D01*
X689700D01*
X688430Y1177911D01*
Y1180450D01*
X689700Y1181720D01*
X688430Y1202392D02*
Y1207470D01*
X693509Y1202392D01*
X694778D01*
X696048Y1203661D01*
Y1206200D01*
X694778Y1207470D01*
X688430Y1231720D02*
Y1229181D01*
Y1230450D01*
X696048D01*
X694778Y1231720D01*
X836650Y794652D02*
X835380Y793382D01*
X832841D01*
X831572Y794652D01*
Y795922D01*
X832841Y797191D01*
X834111D01*
X832841D01*
X831572Y798461D01*
Y799730D01*
X832841Y801000D01*
X835380D01*
X836650Y799730D01*
X857322Y801000D02*
X862400D01*
X857322Y795922D01*
Y794652D01*
X858591Y793382D01*
X861131D01*
X862400Y794652D01*
X886650Y801000D02*
X884111D01*
X885380D01*
Y793382D01*
X886650Y794652D01*
X940150Y794152D02*
X938880Y792883D01*
X936341D01*
X935072Y794152D01*
Y795422D01*
X936341Y796691D01*
X937611D01*
X936341D01*
X935072Y797961D01*
Y799230D01*
X936341Y800500D01*
X938880D01*
X940150Y799230D01*
X960822Y800500D02*
X965900D01*
X960822Y795422D01*
Y794152D01*
X962091Y792882D01*
X964631D01*
X965900Y794152D01*
X990150Y800500D02*
X987611D01*
X988880D01*
Y792883D01*
X990150Y794152D01*
X1044750Y650250D02*
X1042211D01*
X1043480D01*
Y642632D01*
X1044750Y643902D01*
X1019172Y650250D02*
X1024250D01*
X1019172Y645172D01*
Y643902D01*
X1020441Y642633D01*
X1022980D01*
X1024250Y643902D01*
X744250Y1213750D02*
Y1211211D01*
Y1212480D01*
X751868D01*
X750598Y1213750D01*
X744250Y1188172D02*
Y1193250D01*
X749328Y1188172D01*
X750598D01*
X751868Y1189441D01*
Y1191980D01*
X750598Y1193250D01*
X1038250Y561250D02*
Y563789D01*
Y562520D01*
X1030632D01*
X1031902Y561250D01*
X1038250Y586828D02*
Y581750D01*
X1033172Y586828D01*
X1031902D01*
X1030632Y585559D01*
Y583020D01*
X1031902Y581750D01*
X1142500Y903750D02*
X1139961D01*
X1141230D01*
Y896133D01*
X1142500Y897402D01*
X1062922Y903500D02*
X1068000D01*
X1062922Y898422D01*
Y897152D01*
X1064191Y895882D01*
X1066730D01*
X1068000Y897152D01*
X1252000Y682922D02*
Y688000D01*
X1257078Y682922D01*
X1258348D01*
X1259617Y684191D01*
Y686730D01*
X1258348Y688000D01*
Y680383D02*
X1259617Y679113D01*
Y676574D01*
X1258348Y675304D01*
X1257078D01*
X1255809Y676574D01*
X1254539Y675304D01*
X1253270D01*
X1252000Y676574D01*
Y679113D01*
X1253270Y680383D01*
X1254539D01*
X1255809Y679113D01*
X1257078Y680383D01*
X1258348D01*
X1255809Y679113D02*
Y676574D01*
X1252000Y607000D02*
Y604461D01*
Y605730D01*
X1259617D01*
X1258348Y607000D01*
X1259617Y595574D02*
Y600652D01*
X1255809D01*
X1257078Y598113D01*
Y596843D01*
X1255809Y595574D01*
X1253270D01*
X1252000Y596843D01*
Y599383D01*
X1253270Y600652D01*
X1224000Y607000D02*
Y604461D01*
Y605730D01*
X1231618D01*
X1230348Y607000D01*
X1224000Y596843D02*
X1231618D01*
X1227809Y600652D01*
Y595574D01*
X1224000Y686000D02*
Y683461D01*
Y684730D01*
X1231618D01*
X1230348Y686000D01*
X1408250Y861000D02*
X1410789D01*
X1409520D01*
Y868618D01*
X1408250Y867348D01*
X1431828Y868367D02*
X1426750D01*
Y864559D01*
X1429289Y865828D01*
X1430559D01*
X1431828Y864559D01*
Y862020D01*
X1430559Y860750D01*
X1428020D01*
X1426750Y862020D01*
X1430578Y884867D02*
X1428039Y883598D01*
X1425500Y881059D01*
Y878520D01*
X1426770Y877250D01*
X1429309D01*
X1430578Y878520D01*
Y879789D01*
X1429309Y881059D01*
X1425500D01*
X1408250Y877250D02*
X1410789D01*
X1409520D01*
Y884867D01*
X1408250Y883598D01*
X1414598D02*
X1415867Y884867D01*
X1418407D01*
X1419676Y883598D01*
Y878520D01*
X1418407Y877250D01*
X1415867D01*
X1414598Y878520D01*
Y883598D01*
X1505672Y1176500D02*
X1510750D01*
X1505672Y1171422D01*
Y1170152D01*
X1506941Y1168883D01*
X1509480D01*
X1510750Y1170152D01*
X1529750Y1176500D02*
X1527211D01*
X1528480D01*
Y1168883D01*
X1529750Y1170152D01*
X1048672Y1034000D02*
X1053750D01*
X1048672Y1028922D01*
Y1027652D01*
X1049941Y1026383D01*
X1052480D01*
X1053750Y1027652D01*
X1072750Y1034000D02*
X1070211D01*
X1071480D01*
Y1026383D01*
X1072750Y1027652D01*
X927250Y730250D02*
X924711D01*
X925980D01*
Y722633D01*
X927250Y723902D01*
X901672Y730250D02*
X906750D01*
X901672Y725172D01*
Y723902D01*
X902941Y722633D01*
X905480D01*
X906750Y723902D01*
D81*
X1471600Y476500D02*
G03*
X1471600Y476500I-8000J0D01*
G01*
X1446200D02*
G03*
X1446200Y476500I-8000J0D01*
G01*
X1420800D02*
G03*
X1420800Y476500I-8000J0D01*
G01*
X1395400D02*
G03*
X1395400Y476500I-8000J0D01*
G01*
X1370000D02*
G03*
X1370000Y476500I-8000J0D01*
G01*
X1344600D02*
G03*
X1344600Y476500I-8000J0D01*
G01*
X1319200D02*
G03*
X1319200Y476500I-8000J0D01*
G01*
X1293800D02*
G03*
X1293800Y476500I-8000J0D01*
G01*
X1268400D02*
G03*
X1268400Y476500I-8000J0D01*
G01*
X1243000D02*
G03*
X1243000Y476500I-8000J0D01*
G01*
X1217600D02*
G03*
X1217600Y476500I-8000J0D01*
G01*
X1192200D02*
G03*
X1192200Y476500I-8000J0D01*
G01*
X1607500Y477600D02*
G03*
X1607500Y477600I-8000J0D01*
G01*
Y503000D02*
G03*
X1607500Y503000I-8000J0D01*
G01*
Y528400D02*
G03*
X1607500Y528400I-8000J0D01*
G01*
Y553800D02*
G03*
X1607500Y553800I-8000J0D01*
G01*
D02*
G03*
X1607500Y553800I-8000J0D01*
G01*
X1612300Y564100D02*
G03*
X1609500Y566500I-2600J-200D01*
G01*
X1589500Y566500D02*
G03*
X1586700Y564100I-200J-2600D01*
G01*
X1609500Y464900D02*
G03*
X1612300Y467700I0J2800D01*
G01*
X1586700D02*
G03*
X1589500Y464900I2800J0D01*
G01*
X1370000Y746200D02*
G03*
X1370000Y746200I-6500J0D01*
G01*
Y720800D02*
G03*
X1370000Y720800I-6500J0D01*
G01*
X1357195Y744356D02*
G03*
X1357253Y722530I21375J-10856D01*
G01*
X1369765Y722564D02*
G03*
X1369782Y744401I-21335J10936D01*
G01*
X1224000Y1031500D02*
G03*
X1224000Y1031500I-6500J0D01*
G01*
X1204000D02*
G03*
X1204000Y1031500I-6500J0D01*
G01*
X1235000D02*
G03*
X1235000Y1031500I-27500J0D01*
G01*
X1370000Y657300D02*
G03*
X1370000Y657300I-6500J0D01*
G01*
Y682700D02*
G03*
X1370000Y682700I-6500J0D01*
G01*
X1369805Y659144D02*
G03*
X1369747Y680970I-21375J10856D01*
G01*
X1357235Y680936D02*
G03*
X1357218Y659099I21335J-10936D01*
G01*
X1167600Y978500D02*
G03*
X1167600Y978500I-6500J0D01*
G01*
X1193000D02*
G03*
X1193000Y978500I-6500J0D01*
G01*
X1162943Y972195D02*
G03*
X1184770Y972253I10856J21375D01*
G01*
X1184736Y984765D02*
G03*
X1162899Y984782I-10936J-21335D01*
G01*
X1505000Y595900D02*
G03*
X1505000Y595900I-6500J0D01*
G01*
Y570500D02*
G03*
X1505000Y570500I-6500J0D01*
G01*
X1492195Y594057D02*
G03*
X1492253Y572230I21375J-10856D01*
G01*
X1504765Y572264D02*
G03*
X1504782Y594101I-21335J10936D01*
G01*
X859500Y720000D02*
G03*
X859500Y720000I-27500J0D01*
G01*
X828500D02*
G03*
X828500Y720000I-6500J0D01*
G01*
X848500D02*
G03*
X848500Y720000I-6500J0D01*
G01*
X732500Y1095000D02*
G03*
X732500Y1095000I-27500J0D01*
G01*
X711500Y1085000D02*
G03*
X711500Y1085000I-6500J0D01*
G01*
Y1105000D02*
G03*
X711500Y1105000I-6500J0D01*
G01*
X928783Y1175000D02*
G03*
X928783Y1175000I-27500J0D01*
G01*
X897783D02*
G03*
X897783Y1175000I-6500J0D01*
G01*
X917783D02*
G03*
X917783Y1175000I-6500J0D01*
G01*
X1087215D02*
G03*
X1087215Y1175000I-27500J0D01*
G01*
X1056215D02*
G03*
X1056215Y1175000I-6500J0D01*
G01*
X1076215D02*
G03*
X1076215Y1175000I-6500J0D01*
G01*
X771500Y1082300D02*
G03*
X771500Y1082300I-6500J0D01*
G01*
Y1107700D02*
G03*
X771500Y1107700I-6500J0D01*
G01*
X771305Y1084144D02*
G03*
X771247Y1105970I-21375J10856D01*
G01*
X758735Y1105936D02*
G03*
X758718Y1084099I21335J-10936D01*
G01*
X892500Y1130000D02*
G03*
X892500Y1130000I-6500J0D01*
G01*
X917900D02*
G03*
X917900Y1130000I-6500J0D01*
G01*
X887844Y1123695D02*
G03*
X909670Y1123753I10856J21375D01*
G01*
X909636Y1136265D02*
G03*
X887799Y1136282I-10936J-21335D01*
G01*
X1051900Y1130000D02*
G03*
X1051900Y1130000I-6500J0D01*
G01*
X1077300D02*
G03*
X1077300Y1130000I-6500J0D01*
G01*
X1047244Y1123695D02*
G03*
X1069070Y1123753I10856J21375D01*
G01*
X1069036Y1136265D02*
G03*
X1047199Y1136282I-10936J-21335D01*
G01*
X732500Y995760D02*
G03*
X732500Y995760I-27500J0D01*
G01*
X711500Y985760D02*
G03*
X711500Y985760I-6500J0D01*
G01*
Y1005760D02*
G03*
X711500Y1005760I-6500J0D01*
G01*
X1399648Y1173500D02*
G03*
X1399648Y1173500I-27500J0D01*
G01*
X1368648D02*
G03*
X1368648Y1173500I-6500J0D01*
G01*
X1388648D02*
G03*
X1388648Y1173500I-6500J0D01*
G01*
X1235580Y1174000D02*
G03*
X1235580Y1174000I-27500J0D01*
G01*
X1204580D02*
G03*
X1204580Y1174000I-6500J0D01*
G01*
X1224580D02*
G03*
X1224580Y1174000I-6500J0D01*
G01*
X776500Y982099D02*
G03*
X776500Y982099I-6500J0D01*
G01*
Y1007499D02*
G03*
X776500Y1007499I-6500J0D01*
G01*
X776305Y983942D02*
G03*
X776247Y1005769I-21375J10856D01*
G01*
X763735Y1005734D02*
G03*
X763718Y983897I21335J-10936D01*
G01*
X1363100Y1128500D02*
G03*
X1363100Y1128500I-6500J0D01*
G01*
X1388500D02*
G03*
X1388500Y1128500I-6500J0D01*
G01*
X1358444Y1122195D02*
G03*
X1380270Y1122253I10856J21375D01*
G01*
X1380236Y1134765D02*
G03*
X1358399Y1134782I-10936J-21335D01*
G01*
X1199600Y1129000D02*
G03*
X1199600Y1129000I-6500J0D01*
G01*
X1225000D02*
G03*
X1225000Y1129000I-6500J0D01*
G01*
X1194944Y1122695D02*
G03*
X1216770Y1122753I10856J21375D01*
G01*
X1216736Y1135265D02*
G03*
X1194899Y1135282I-10936J-21335D01*
G01*
X963953Y941134D02*
G03*
X961398Y949669I-3453J3616D01*
G01*
X963953Y996134D02*
G03*
X961398Y1004669I-3453J3616D01*
G01*
X960750Y937840D02*
G03*
X963306Y929306I3453J-3616D01*
G01*
X960750Y992840D02*
G03*
X963306Y984306I3453J-3616D01*
G01*
X956500Y884500D02*
G03*
X956500Y884500I-12500J0D01*
G01*
Y939500D02*
G03*
X956500Y939500I-12500J0D01*
G01*
X956500Y994500D02*
G03*
X956500Y994500I-12500J0D01*
G01*
X956500Y1049500D02*
G03*
X956500Y1049500I-12500J0D01*
G01*
X860250Y860200D02*
G03*
X860250Y860200I-10000J0D01*
G01*
Y911000D02*
G03*
X860250Y911000I-10000J0D01*
G01*
Y1025300D02*
G03*
X860250Y1025300I-10000J0D01*
G01*
Y1076100D02*
G03*
X860250Y1076100I-10000J0D01*
G01*
X1605000Y1106800D02*
G03*
X1605000Y1106800I-8000J0D01*
G01*
Y1081400D02*
G03*
X1605000Y1081400I-8000J0D01*
G01*
Y1056000D02*
G03*
X1605000Y1056000I-8000J0D01*
G01*
X1192200Y379500D02*
G03*
X1192200Y379500I-8000J0D01*
G01*
X1217600D02*
G03*
X1217600Y379500I-8000J0D01*
G01*
X1243000D02*
G03*
X1243000Y379500I-8000J0D01*
G01*
X1268400D02*
G03*
X1268400Y379500I-8000J0D01*
G01*
X1293800D02*
G03*
X1293800Y379500I-8000J0D01*
G01*
X1319200D02*
G03*
X1319200Y379500I-8000J0D01*
G01*
X1344600D02*
G03*
X1344600Y379500I-8000J0D01*
G01*
X1370000D02*
G03*
X1370000Y379500I-8000J0D01*
G01*
X1395400D02*
G03*
X1395400Y379500I-8000J0D01*
G01*
X1420800D02*
G03*
X1420800Y379500I-8000J0D01*
G01*
X1446200D02*
G03*
X1446200Y379500I-8000J0D01*
G01*
X1471600D02*
G03*
X1471600Y379500I-8000J0D01*
G01*
X1609000Y791500D02*
G03*
X1609000Y791500I-8000J0D01*
G01*
X1588200Y756200D02*
G03*
X1591000Y753400I2800J0D01*
G01*
X1611000Y753400D02*
G03*
X1613800Y756200I0J2800D01*
G01*
X1591000Y829600D02*
G03*
X1588200Y827200I-200J-2600D01*
G01*
X1613800D02*
G03*
X1611000Y829600I-2600J-200D01*
G01*
X1609000Y816900D02*
G03*
X1609000Y816900I-8000J0D01*
G01*
Y766100D02*
G03*
X1609000Y766100I-8000J0D01*
G01*
Y906500D02*
G03*
X1609000Y906500I-8000J0D01*
G01*
X1588200Y871200D02*
G03*
X1591000Y868400I2800J0D01*
G01*
X1611000Y868400D02*
G03*
X1613800Y871200I0J2800D01*
G01*
X1591000Y944600D02*
G03*
X1588200Y942200I-200J-2600D01*
G01*
X1613800D02*
G03*
X1611000Y944600I-2600J-200D01*
G01*
X1609000Y931900D02*
G03*
X1609000Y931900I-8000J0D01*
G01*
Y881100D02*
G03*
X1609000Y881100I-8000J0D01*
G01*
X1079300Y562000D02*
G03*
X1079329Y582068I24000J10000D01*
G01*
X1073967Y561972D02*
G03*
X1073941Y581952I29333J10028D01*
G01*
X1122500Y572000D02*
G03*
X1122500Y572000I-6500J0D01*
G01*
X1097100D02*
G03*
X1097100Y572000I-6500J0D01*
G01*
X677066Y1174253D02*
G03*
X677066Y1235887I14364J30817D01*
G01*
X695930Y1174590D02*
G03*
X701430Y1179970I60J5440D01*
G01*
D02*
G03*
X696053Y1184750I-5078J-299D01*
G01*
X681180Y1179970D02*
G03*
X686680Y1174590I5440J60D01*
G01*
X685687Y1184728D02*
G03*
X681160Y1179949I126J-4652D01*
G01*
X685687Y1235528D02*
G03*
X681160Y1230750I126J-4652D01*
G01*
X681180Y1230770D02*
G03*
X686680Y1225390I5440J60D01*
G01*
X701430Y1230770D02*
G03*
X696053Y1235550I-5078J-299D01*
G01*
X695930Y1225390D02*
G03*
X701430Y1230770I60J5440D01*
G01*
X685687Y1210128D02*
G03*
X681160Y1205350I126J-4652D01*
G01*
X681180Y1205370D02*
G03*
X686680Y1199990I5440J60D01*
G01*
X701430Y1205370D02*
G03*
X696053Y1210150I-5078J-299D01*
G01*
X695930Y1199990D02*
G03*
X701430Y1205370I60J5440D01*
G01*
X829183Y812364D02*
G03*
X890817Y812364I30817J-14364D01*
G01*
X829520Y793500D02*
G03*
X834900Y788000I5440J-60D01*
G01*
D02*
G03*
X839680Y793377I-299J5078D01*
G01*
X834900Y808250D02*
G03*
X829520Y802750I60J-5440D01*
G01*
X839658Y803743D02*
G03*
X834880Y808270I-4652J-126D01*
G01*
X890458Y803743D02*
G03*
X885680Y808270I-4652J-126D01*
G01*
X885700Y808250D02*
G03*
X880320Y802750I60J-5440D01*
G01*
X885700Y788000D02*
G03*
X890480Y793377I-299J5078D01*
G01*
X880320Y793500D02*
G03*
X885700Y788000I5440J-60D01*
G01*
X865058Y803743D02*
G03*
X860280Y808270I-4652J-126D01*
G01*
X860300Y808250D02*
G03*
X854920Y802750I60J-5440D01*
G01*
X860300Y788000D02*
G03*
X865080Y793377I-299J5078D01*
G01*
X854920Y793500D02*
G03*
X860300Y788000I5440J-60D01*
G01*
X932683Y811864D02*
G03*
X994317Y811864I30817J-14364D01*
G01*
X933020Y793000D02*
G03*
X938400Y787500I5440J-60D01*
G01*
D02*
G03*
X943180Y792877I-299J5078D01*
G01*
X938400Y807750D02*
G03*
X933020Y802250I60J-5440D01*
G01*
X943158Y803243D02*
G03*
X938380Y807770I-4652J-126D01*
G01*
X993958Y803243D02*
G03*
X989180Y807770I-4652J-126D01*
G01*
X989200Y807750D02*
G03*
X983820Y802250I60J-5440D01*
G01*
X989200Y787500D02*
G03*
X993980Y792877I-299J5078D01*
G01*
X983820Y793000D02*
G03*
X989200Y787500I5440J-60D01*
G01*
X968558Y803243D02*
G03*
X963780Y807770I-4652J-126D01*
G01*
X963800Y807750D02*
G03*
X958420Y802250I60J-5440D01*
G01*
X963800Y787500D02*
G03*
X968580Y792877I-299J5078D01*
G01*
X958420Y793000D02*
G03*
X963800Y787500I5440J-60D01*
G01*
X1164500Y900000D02*
G03*
X1164500Y900000I-61000J0D01*
G01*
X1149500D02*
G03*
X1149500Y900000I-8000J0D01*
G01*
X1073500D02*
G03*
X1073500Y900000I-8000J0D01*
G01*
X1237000Y691000D02*
G03*
X1247000Y691000I5000J0D01*
G01*
X1404000Y868000D02*
G03*
X1404000Y878000I0J5000D01*
G01*
X1331500Y719900D02*
G03*
X1331500Y719900I-6500J0D01*
G01*
Y671100D02*
G03*
X1331500Y671100I-6500J0D01*
G01*
X1301525Y658168D02*
G03*
X1348475Y658168I23475J5582D01*
G01*
Y732832D02*
G03*
X1301525Y732832I-23475J-5582D01*
G01*
X783000Y900000D02*
G03*
X783000Y900000I-52500J0D01*
G01*
X713500Y900000D02*
G03*
X713500Y900000I-8000J0D01*
G01*
X763500Y900000D02*
G03*
X763500Y900000I-8000J0D01*
G01*
X1546000Y1173000D02*
G03*
X1546000Y1173000I-27500J0D01*
G01*
X1515000D02*
G03*
X1515000Y1173000I-6500J0D01*
G01*
X1535000D02*
G03*
X1535000Y1173000I-6500J0D01*
G01*
X1089000Y1030500D02*
G03*
X1089000Y1030500I-27500J0D01*
G01*
X1058000D02*
G03*
X1058000Y1030500I-6500J0D01*
G01*
X1078000D02*
G03*
X1078000Y1030500I-6500J0D01*
G01*
X1158800Y512060D02*
X1489000D01*
X1438200Y451862D02*
Y459482D01*
X1209346Y458974D02*
X1222046D01*
X1489000Y476500D02*
Y512060D01*
Y451100D02*
Y476500D01*
X1158800Y451100D02*
X1489000D01*
X1222046Y451354D02*
Y458974D01*
X1158800Y451100D02*
Y512060D01*
X1209346Y451354D02*
Y458974D01*
X1425500Y459482D02*
X1438200D01*
X1425500Y451862D02*
Y459482D01*
X1586700Y487760D02*
X1589240Y490300D01*
X1609660D02*
X1612200Y487760D01*
X1612300Y467440D02*
Y487760D01*
X1586700Y467440D02*
Y487760D01*
Y467440D02*
X1586800D01*
X1586700Y492840D02*
X1586800D01*
X1589340Y490300D01*
X1586700Y492940D02*
Y513300D01*
Y492940D02*
X1586800Y492840D01*
X1612200Y467440D02*
X1612300D01*
X1609660Y490300D02*
X1612200Y492840D01*
X1612300D02*
Y513300D01*
X1586800Y513160D02*
X1589340Y515700D01*
X1586800Y518240D02*
X1589340Y515700D01*
X1586700Y518240D02*
X1586800D01*
X1586700D02*
Y538560D01*
Y543740D02*
X1586800Y543640D01*
X1586700Y543740D02*
Y564100D01*
X1612200Y518240D02*
X1612300D01*
Y538560D01*
X1609660Y515700D02*
X1612200Y513160D01*
X1609660Y515700D02*
X1612200Y518240D01*
X1612300Y543640D02*
Y564100D01*
X1586700Y538560D02*
X1589240Y541100D01*
X1589340D01*
X1586800Y543640D02*
X1589340Y541100D01*
X1586700Y543640D02*
X1586800D01*
X1609660Y541100D02*
X1612200Y538560D01*
X1609660Y541100D02*
X1612200Y543640D01*
X1589500Y566500D02*
X1609500D01*
X1589500Y464900D02*
X1609500D01*
X862750Y719750D02*
X868750D01*
X865750Y716750D02*
Y722750D01*
X705250Y1125750D02*
Y1131750D01*
X702250Y1128750D02*
X708250D01*
X932033Y1174750D02*
X938033D01*
X935032Y1171750D02*
Y1177750D01*
X1090465Y1174750D02*
X1096465D01*
X1093465Y1171750D02*
Y1177750D01*
X705250Y1026510D02*
Y1032510D01*
X702250Y1029510D02*
X708250D01*
X1402897Y1173250D02*
X1408898D01*
X1405898Y1170250D02*
Y1176250D01*
X1238830Y1173750D02*
X1244830D01*
X1241830Y1170750D02*
Y1176750D01*
X959250Y884500D02*
X971250D01*
X965250Y1055500D02*
X965250Y1043500D01*
X965250Y878500D02*
X965250Y890500D01*
X960750Y938000D02*
X963884Y941134D01*
X960750Y993000D02*
X963884Y996134D01*
X960750Y992840D02*
Y993000D01*
Y937841D02*
Y938000D01*
X990000Y848000D02*
Y1085250D01*
X919750Y848000D02*
X990000D01*
X919750D02*
Y1085250D01*
X990000D01*
X818500Y847500D02*
Y923700D01*
X882000D01*
Y847500D02*
Y923700D01*
Y1012600D02*
Y1088800D01*
X818500Y1012600D02*
Y1088800D01*
Y847500D02*
X882000D01*
X876920Y923700D02*
Y1012600D01*
X818500Y1088800D02*
X882000D01*
X818500Y1012600D02*
X882000D01*
X824850Y923700D02*
Y1012600D01*
X1614526Y1048888D02*
Y1061588D01*
X1561440Y1132200D02*
X1597000D01*
X1614526Y1048888D02*
X1622146D01*
X1622400Y1030600D02*
Y1132200D01*
X1614780Y1099434D02*
Y1112134D01*
Y1099434D02*
X1622400D01*
X1597000Y1132200D02*
X1622400D01*
X1614526Y1061588D02*
X1622146D01*
X1561440Y1030600D02*
X1622400D01*
X1614780Y1112134D02*
X1622400D01*
X1561440Y1030600D02*
Y1132200D01*
X1425500Y354862D02*
Y362482D01*
X1438200D01*
X1209346Y354354D02*
Y361974D01*
X1158800Y354100D02*
Y415060D01*
X1222046Y354354D02*
Y361974D01*
X1158800Y354100D02*
X1489000D01*
Y379500D01*
Y415060D01*
X1209346Y361974D02*
X1222046D01*
X1438200Y354862D02*
Y362482D01*
X1158800Y415060D02*
X1489000D01*
X1611160Y804200D02*
X1613700Y806740D01*
X1611160Y804200D02*
X1613700Y801660D01*
X1588200Y806740D02*
X1588300D01*
X1590840Y804200D01*
X1590740D02*
X1590840D01*
X1588200Y801660D02*
X1590740Y804200D01*
X1613800Y781340D02*
Y801660D01*
X1588200Y806840D02*
X1588300Y806740D01*
X1588200Y781340D02*
Y801660D01*
X1591000Y753400D02*
X1611000D01*
X1591000Y829600D02*
X1611000D01*
X1613800Y806740D02*
Y827200D01*
X1588200Y806840D02*
Y827200D01*
X1613700Y755940D02*
X1613800D01*
X1588200D02*
X1588300D01*
X1588200D02*
Y776260D01*
X1613800Y755940D02*
Y776260D01*
X1611160Y778800D02*
X1613700Y776260D01*
X1611160Y778800D02*
X1613700Y781340D01*
X1588200Y776260D02*
X1590740Y778800D01*
X1590840D01*
X1588300Y781340D02*
X1590840Y778800D01*
X1611160Y919200D02*
X1613700Y921740D01*
X1611160Y919200D02*
X1613700Y916660D01*
X1588200Y921740D02*
X1588300D01*
X1590840Y919200D01*
X1590740D02*
X1590840D01*
X1588200Y916660D02*
X1590740Y919200D01*
X1613800Y896340D02*
Y916660D01*
X1588200Y921840D02*
X1588300Y921740D01*
X1588200Y896340D02*
Y916660D01*
X1591000Y868400D02*
X1611000D01*
X1591000Y944600D02*
X1611000D01*
X1613800Y921740D02*
Y942200D01*
X1588200Y921840D02*
Y942200D01*
X1613700Y870940D02*
X1613800D01*
X1588200D02*
X1588300D01*
X1588200D02*
Y891260D01*
X1613800Y870940D02*
Y891260D01*
X1611160Y893800D02*
X1613700Y891260D01*
X1611160Y893800D02*
X1613700Y896340D01*
X1588200Y891260D02*
X1590740Y893800D01*
X1590840D01*
X1588300Y896340D02*
X1590840Y893800D01*
X1079300Y562000D02*
Y582039D01*
X1079328Y582068D01*
X1073967Y561971D02*
Y581926D01*
X1073941Y581952D02*
X1073967Y581926D01*
X1139800Y568500D02*
Y573500D01*
X1137300Y571000D02*
X1142300D01*
X677066Y1174253D02*
Y1235887D01*
X686680Y1174590D02*
X695930D01*
X685813Y1184750D02*
X696053D01*
X685813Y1235550D02*
X696053D01*
X686680Y1225390D02*
X695930D01*
X685813Y1210150D02*
X696053D01*
X686680Y1199990D02*
X695930D01*
X829183Y812364D02*
X890817D01*
X829520Y793500D02*
Y802750D01*
X839680Y793377D02*
Y803617D01*
X890480Y793377D02*
Y803617D01*
X880320Y793500D02*
Y802750D01*
X865080Y793377D02*
Y803617D01*
X854920Y793500D02*
Y802750D01*
X932683Y811864D02*
X994317D01*
X933020Y793000D02*
Y802250D01*
X943180Y792877D02*
Y803118D01*
X993980Y792877D02*
Y803118D01*
X983820Y793000D02*
Y802250D01*
X968580Y792877D02*
Y803118D01*
X958420Y793000D02*
Y802250D01*
X1049000Y639000D02*
Y654000D01*
X1038000D02*
X1049000D01*
X1038000Y639000D02*
Y654000D01*
Y639000D02*
X1049000D01*
X1012500Y656500D02*
X1052500D01*
X1012500Y636500D02*
X1052500D01*
Y656500D01*
X1012500Y636500D02*
Y656500D01*
X1016000Y639000D02*
X1027000D01*
X1016000D02*
Y654000D01*
X1027000D01*
Y639000D02*
Y654000D01*
X740500Y1218000D02*
X755500D01*
X740500Y1207000D02*
Y1218000D01*
Y1207000D02*
X755500D01*
Y1218000D01*
X738000Y1181500D02*
Y1221500D01*
X758000Y1181500D02*
Y1221500D01*
X738000D02*
X758000D01*
X738000Y1181500D02*
X758000D01*
X755500Y1185000D02*
Y1196000D01*
X740500Y1185000D02*
X755500D01*
X740500D02*
Y1196000D01*
X755500D01*
X1027000Y557000D02*
X1042000D01*
Y568000D01*
X1027000D02*
X1042000D01*
X1027000Y557000D02*
Y568000D01*
X1044500Y553500D02*
Y593500D01*
X1024500Y553500D02*
Y593500D01*
Y553500D02*
X1044500D01*
X1024500Y593500D02*
X1044500D01*
X1027000Y579000D02*
Y590000D01*
X1042000D01*
Y579000D02*
Y590000D01*
X1027000Y579000D02*
X1042000D01*
X1168500Y900000D02*
X1175500D01*
X1172000Y896500D02*
Y903500D01*
X1241000Y642000D02*
X1243000D01*
X1242000Y641000D02*
Y643000D01*
X1264500Y593000D02*
Y691000D01*
X1219500Y593000D02*
X1264500D01*
X1219500D02*
Y691000D01*
X1264500D01*
X1404000Y888500D02*
X1435000D01*
Y857500D02*
Y888500D01*
X1404000Y857500D02*
X1435000D01*
X1404000D02*
Y888500D01*
X1348500Y658168D02*
Y732832D01*
X1301500Y658168D02*
Y732832D01*
X1549250Y1172750D02*
X1555250D01*
X1552250Y1169750D02*
Y1175750D01*
X1092250Y1030250D02*
X1098250D01*
X1095250Y1027250D02*
Y1033250D01*
X931500Y719000D02*
Y734000D01*
X920500D02*
X931500D01*
X920500Y719000D02*
Y734000D01*
Y719000D02*
X931500D01*
X895000Y736500D02*
X935000D01*
X895000Y716500D02*
X935000D01*
Y736500D01*
X895000Y716500D02*
Y736500D01*
X898500Y719000D02*
X909500D01*
X898500D02*
Y734000D01*
X909500D01*
Y719000D02*
Y734000D01*
X1232500Y1031502D02*
X1225835D01*
X1229168Y1028169D02*
Y1034834D01*
X1219500Y1036500D02*
X1216168D01*
X1217834D01*
Y1026503D01*
X1219500Y1028169D01*
X1193836Y1036500D02*
X1200500D01*
X1193836Y1029836D01*
Y1028169D01*
X1195502Y1026503D01*
X1198834D01*
X1200500Y1028169D01*
X683500Y899498D02*
X693497D01*
X688498Y904496D02*
Y894499D01*
X703500Y895000D02*
X707499D01*
X705499D01*
Y906996D01*
X703500Y904997D01*
X759497Y894000D02*
X751500D01*
X759497Y901997D01*
Y903997D01*
X757498Y905996D01*
X753499D01*
X751500Y903997D01*
M02*
