G04*
G04 #@! TF.GenerationSoftware,Altium Limited,Altium Designer,23.7.1 (13)*
G04*
G04 Layer_Color=128*
%FSLAX44Y44*%
%MOMM*%
G71*
G04*
G04 #@! TF.SameCoordinates,08080B6D-4C5C-4958-99E3-925CFEBC34A3*
G04*
G04*
G04 #@! TF.FilePolarity,Positive*
G04*
G01*
G75*
%ADD83C,0.1270*%
D83*
X1433200Y476500D02*
X1443200D01*
X1438200Y471500D02*
Y481500D01*
X1382400Y476500D02*
X1392400D01*
X1387400Y471500D02*
Y481500D01*
X1331600Y476500D02*
X1341600D01*
X1336600Y471500D02*
Y481500D01*
X1280800Y476500D02*
X1290800D01*
X1285800Y471500D02*
Y481500D01*
X1179200Y476500D02*
X1189200D01*
X1184200Y471500D02*
Y481500D01*
X1204600Y476500D02*
X1214600D01*
X1209600Y471500D02*
Y481500D01*
X1230000Y476500D02*
X1240000D01*
X1235000Y471500D02*
Y481500D01*
X1255400Y476500D02*
X1265400D01*
X1260400Y471500D02*
Y481500D01*
X1306200Y476500D02*
X1316200D01*
X1311200Y471500D02*
Y481500D01*
X1357000Y476500D02*
X1367000D01*
X1362000Y471500D02*
Y481500D01*
X1407800Y476500D02*
X1417800D01*
X1412800Y471500D02*
Y481500D01*
X1458600Y476500D02*
X1468600D01*
X1463600Y471500D02*
Y481500D01*
X1292500Y978500D02*
X1300500D01*
X1296500Y974500D02*
Y982500D01*
X1294555Y913600D02*
X1303445D01*
X1299000Y909155D02*
Y918045D01*
X1355055Y912600D02*
X1363945D01*
X1359500Y908155D02*
Y917045D01*
X1214080Y1174000D02*
X1222080D01*
X1218080Y1170000D02*
Y1178000D01*
X1214500Y1129000D02*
X1222500D01*
X1218500Y1125000D02*
Y1133000D01*
X1211580Y1235510D02*
X1221580D01*
X1216580Y1230510D02*
Y1240510D01*
X1213500Y1031500D02*
X1221500D01*
X1217500Y1027500D02*
Y1035500D01*
X1240555Y914100D02*
X1249445D01*
X1245000Y909655D02*
Y918545D01*
X1182500Y978500D02*
X1190500D01*
X1186500Y974500D02*
Y982500D01*
X1411663Y765000D02*
X1419537D01*
X1415600Y761063D02*
Y768937D01*
X1594500Y553800D02*
X1604500D01*
X1599500Y548800D02*
Y558800D01*
X1065715Y1175000D02*
X1073715D01*
X1069715Y1171000D02*
Y1179000D01*
X1063215Y1236510D02*
X1073215D01*
X1068215Y1231510D02*
Y1241510D01*
X1067500Y1030500D02*
X1075500D01*
X1071500Y1026500D02*
Y1034500D01*
X1066800Y1130000D02*
X1074800D01*
X1070800Y1126000D02*
Y1134000D01*
X1037955Y684000D02*
X1046845D01*
X1042400Y679555D02*
Y688445D01*
X1526850Y1232300D02*
X1536850D01*
X1531850Y1227300D02*
Y1237300D01*
X1592000Y1081400D02*
X1602000D01*
X1597000Y1076400D02*
Y1086400D01*
X1524500Y1173000D02*
X1532500D01*
X1528500Y1169000D02*
Y1177000D01*
X1592000Y1056000D02*
X1602000D01*
X1597000Y1051000D02*
Y1061000D01*
X1596000Y881100D02*
X1606000D01*
X1601000Y876100D02*
Y886100D01*
X1596000Y766100D02*
X1606000D01*
X1601000Y761100D02*
Y771100D01*
X1375647Y1235010D02*
X1385647D01*
X1380647Y1230010D02*
Y1240010D01*
X1378148Y1173500D02*
X1386148D01*
X1382148Y1169500D02*
Y1177500D01*
X1160780Y1235510D02*
X1170780D01*
X1165780Y1230510D02*
Y1240510D01*
X1378000Y1128500D02*
X1386000D01*
X1382000Y1124500D02*
Y1132500D01*
X1592000Y1106800D02*
X1602000D01*
X1597000Y1101800D02*
Y1111800D01*
X1566500Y613000D02*
X1576500D01*
X1571500Y608000D02*
Y618000D01*
X1494500Y595900D02*
X1502500D01*
X1498500Y591900D02*
Y599900D01*
X1594500Y477600D02*
X1604500D01*
X1599500Y472600D02*
Y482600D01*
X1458600Y379500D02*
X1468600D01*
X1463600Y374500D02*
Y384500D01*
X1406055Y704500D02*
X1414945D01*
X1410500Y700055D02*
Y708945D01*
X1359500Y720800D02*
X1367500D01*
X1363500Y716800D02*
Y724800D01*
X1267100Y978500D02*
X1275100D01*
X1271100Y974500D02*
Y982500D01*
X1193500Y1031500D02*
X1201500D01*
X1197500Y1027500D02*
Y1035500D01*
X1047500Y1030500D02*
X1055500D01*
X1051500Y1026500D02*
Y1034500D01*
X1157100Y978500D02*
X1165100D01*
X1161100Y974500D02*
Y982500D01*
X880900Y798000D02*
X889900D01*
X885400Y793500D02*
Y802500D01*
X984400Y797500D02*
X993400D01*
X988900Y793000D02*
Y802000D01*
X818000Y720000D02*
X826000D01*
X822000Y716000D02*
Y724000D01*
X1359500Y682700D02*
X1367500D01*
X1363500Y678700D02*
Y686700D01*
X1112555Y370500D02*
X1121445D01*
X1117000Y366055D02*
Y374945D01*
X1125000Y271000D02*
X1135000D01*
X1130000Y266000D02*
Y276000D01*
X1062500Y270500D02*
X1072500D01*
X1067500Y265500D02*
Y275500D01*
X1509500Y1110500D02*
X1519500D01*
X1514500Y1105500D02*
Y1115500D01*
X1509500Y983500D02*
X1519500D01*
X1514500Y978500D02*
Y988500D01*
X1594500Y503000D02*
X1604500D01*
X1599500Y498000D02*
Y508000D01*
X1594500Y528400D02*
X1604500D01*
X1599500Y523400D02*
Y533400D01*
X1359500Y746200D02*
X1367500D01*
X1363500Y742200D02*
Y750200D01*
X1359500Y657300D02*
X1367500D01*
X1363500Y653300D02*
Y661300D01*
X1494500Y570500D02*
X1502500D01*
X1498500Y566500D02*
Y574500D01*
X838000Y720000D02*
X846000D01*
X842000Y716000D02*
Y724000D01*
X701000Y1105000D02*
X709000D01*
X705000Y1101000D02*
Y1109000D01*
X701000Y1085000D02*
X709000D01*
X705000Y1081000D02*
Y1089000D01*
X907282Y1175000D02*
X915282D01*
X911282Y1171000D02*
Y1179000D01*
X887282Y1175000D02*
X895282D01*
X891282Y1171000D02*
Y1179000D01*
X1045715Y1175000D02*
X1053715D01*
X1049715Y1171000D02*
Y1179000D01*
X761000Y1082300D02*
X769000D01*
X765000Y1078300D02*
Y1086300D01*
X761000Y1107700D02*
X769000D01*
X765000Y1103700D02*
Y1111700D01*
X882000Y1130000D02*
X890000D01*
X886000Y1126000D02*
Y1134000D01*
X907400Y1130000D02*
X915400D01*
X911400Y1126000D02*
Y1134000D01*
X1041400Y1130000D02*
X1049400D01*
X1045400Y1126000D02*
Y1134000D01*
X701000Y1005760D02*
X709000D01*
X705000Y1001760D02*
Y1009760D01*
X701000Y985760D02*
X709000D01*
X705000Y981760D02*
Y989760D01*
X1358148Y1173500D02*
X1366148D01*
X1362148Y1169500D02*
Y1177500D01*
X1194080Y1174000D02*
X1202080D01*
X1198080Y1170000D02*
Y1178000D01*
X766000Y982099D02*
X774000D01*
X770000Y978099D02*
Y986099D01*
X766000Y1007499D02*
X774000D01*
X770000Y1003499D02*
Y1011499D01*
X1352600Y1128500D02*
X1360600D01*
X1356600Y1124500D02*
Y1132500D01*
X1189100Y1129000D02*
X1197100D01*
X1193100Y1125000D02*
Y1133000D01*
X936000Y884500D02*
X952000D01*
X944000Y876500D02*
Y892500D01*
X936000Y939500D02*
X952000D01*
X944000Y931500D02*
Y947500D01*
X936000Y994500D02*
X952000D01*
X944000Y986500D02*
Y1002500D01*
X936000Y1049500D02*
X952000D01*
X944000Y1041500D02*
Y1057500D01*
X686285Y510000D02*
X697715D01*
X692000Y504285D02*
Y515715D01*
X686285Y624300D02*
X697715D01*
X692000Y618585D02*
Y630015D01*
X843750Y1076100D02*
X856750D01*
X850250Y1069600D02*
Y1082600D01*
X843750Y860200D02*
X856750D01*
X850250Y853700D02*
Y866700D01*
X843750Y911000D02*
X856750D01*
X850250Y904500D02*
Y917500D01*
X843750Y1025300D02*
X856750D01*
X850250Y1018800D02*
Y1031800D01*
X1594500Y398400D02*
X1604500D01*
X1599500Y393400D02*
Y403400D01*
X1594500Y373000D02*
X1604500D01*
X1599500Y368000D02*
Y378000D01*
X1407800Y379500D02*
X1417800D01*
X1412800Y374500D02*
Y384500D01*
X1357000Y379500D02*
X1367000D01*
X1362000Y374500D02*
Y384500D01*
X1306200Y379500D02*
X1316200D01*
X1311200Y374500D02*
Y384500D01*
X1255400Y379500D02*
X1265400D01*
X1260400Y374500D02*
Y384500D01*
X1230000Y379500D02*
X1240000D01*
X1235000Y374500D02*
Y384500D01*
X1204600Y379500D02*
X1214600D01*
X1209600Y374500D02*
Y384500D01*
X1179200Y379500D02*
X1189200D01*
X1184200Y374500D02*
Y384500D01*
X1280800Y379500D02*
X1290800D01*
X1285800Y374500D02*
Y384500D01*
X1331600Y379500D02*
X1341600D01*
X1336600Y374500D02*
Y384500D01*
X1382400Y379500D02*
X1392400D01*
X1387400Y374500D02*
Y384500D01*
X1433200Y379500D02*
X1443200D01*
X1438200Y374500D02*
Y384500D01*
X1596000Y791500D02*
X1606000D01*
X1601000Y786500D02*
Y796500D01*
X1596000Y816900D02*
X1606000D01*
X1601000Y811900D02*
Y821900D01*
X1596000Y906500D02*
X1606000D01*
X1601000Y901500D02*
Y911500D01*
X1596000Y931900D02*
X1606000D01*
X1601000Y926900D02*
Y936900D01*
X747000Y405000D02*
X757000D01*
X752000Y400000D02*
Y410000D01*
X697000Y405000D02*
X707000D01*
X702000Y400000D02*
Y410000D01*
X722000Y730000D02*
X732000D01*
X727000Y725000D02*
Y735000D01*
X722000Y780000D02*
X732000D01*
X727000Y775000D02*
Y785000D01*
X927000Y405000D02*
X937000D01*
X932000Y400000D02*
Y410000D01*
X877000Y405000D02*
X887000D01*
X882000Y400000D02*
Y410000D01*
X1125000Y296400D02*
X1135000D01*
X1130000Y291400D02*
Y301400D01*
X1125000Y245600D02*
X1135000D01*
X1130000Y240600D02*
Y250600D01*
X1062500Y245100D02*
X1072500D01*
X1067500Y240100D02*
Y250100D01*
X1062500Y295900D02*
X1072500D01*
X1067500Y290900D02*
Y300900D01*
X1501450Y1232300D02*
X1511450D01*
X1506450Y1227300D02*
Y1237300D01*
X1476050Y1232300D02*
X1486050D01*
X1481050Y1227300D02*
Y1237300D01*
X904783Y1236510D02*
X914783D01*
X909783Y1231510D02*
Y1241510D01*
X879383Y1236510D02*
X889383D01*
X884383Y1231510D02*
Y1241510D01*
X853983Y1236510D02*
X863983D01*
X858983Y1231510D02*
Y1241510D01*
X1037815Y1236510D02*
X1047815D01*
X1042815Y1231510D02*
Y1241510D01*
X1012415Y1236510D02*
X1022415D01*
X1017415Y1231510D02*
Y1241510D01*
X1350247Y1235010D02*
X1360247D01*
X1355247Y1230010D02*
Y1240010D01*
X1324848Y1235010D02*
X1334848D01*
X1329848Y1230010D02*
Y1240010D01*
X1186180Y1235510D02*
X1196180D01*
X1191180Y1230510D02*
Y1240510D01*
X1086600Y572000D02*
X1094600D01*
X1090600Y568000D02*
Y576000D01*
X1112000Y572000D02*
X1120000D01*
X1116000Y568000D02*
Y576000D01*
X686930Y1230470D02*
X695930D01*
X691430Y1225970D02*
Y1234970D01*
X686930Y1205070D02*
X695930D01*
X691430Y1200570D02*
Y1209570D01*
X686930Y1179670D02*
X695930D01*
X691430Y1175170D02*
Y1184170D01*
X855500Y798000D02*
X864500D01*
X860000Y793500D02*
Y802500D01*
X830100Y798000D02*
X839100D01*
X834600Y793500D02*
Y802500D01*
X959000Y797500D02*
X968000D01*
X963500Y793000D02*
Y802000D01*
X933600Y797500D02*
X942600D01*
X938100Y793000D02*
Y802000D01*
X1507655Y704500D02*
X1516545D01*
X1512100Y700055D02*
Y708945D01*
X1010955Y370500D02*
X1019845D01*
X1015400Y366055D02*
Y374945D01*
X1500563Y765000D02*
X1508437D01*
X1504500Y761063D02*
Y768937D01*
X1355055Y811000D02*
X1363945D01*
X1359500Y806555D02*
Y815445D01*
X1240555Y812500D02*
X1249445D01*
X1245000Y808055D02*
Y816945D01*
X1294555Y812000D02*
X1303445D01*
X1299000Y807555D02*
Y816445D01*
X1139555Y684000D02*
X1148445D01*
X1144000Y679555D02*
Y688445D01*
X1026500Y777000D02*
X1036500D01*
X1031500Y772000D02*
Y782000D01*
X1153500Y777000D02*
X1163500D01*
X1158500Y772000D02*
Y782000D01*
X1539563Y861400D02*
X1547437D01*
X1543500Y857463D02*
Y865337D01*
X1539563Y772500D02*
X1547437D01*
X1543500Y768563D02*
Y776437D01*
X1540563Y975500D02*
X1548437D01*
X1544500Y971563D02*
Y979437D01*
X1540563Y886600D02*
X1548437D01*
X1544500Y882663D02*
Y890537D01*
X1009955Y455500D02*
X1018845D01*
X1014400Y451055D02*
Y459945D01*
X1111555Y455500D02*
X1120445D01*
X1116000Y451055D02*
Y459945D01*
X1136500Y900000D02*
X1146500D01*
X1141500Y895000D02*
Y905000D01*
X1060500Y900000D02*
X1070500D01*
X1065500Y895000D02*
Y905000D01*
X1321000Y719900D02*
X1329000D01*
X1325000Y715900D02*
Y723900D01*
X1321000Y671100D02*
X1329000D01*
X1325000Y667100D02*
Y675100D01*
X700500Y900000D02*
X710500D01*
X705500Y895000D02*
Y905000D01*
X750500Y900000D02*
X760500D01*
X755500Y895000D02*
Y905000D01*
X1504500Y1173000D02*
X1512500D01*
X1508500Y1169000D02*
Y1177000D01*
X1154500Y725000D02*
X1164500D01*
X1159500Y720000D02*
Y730000D01*
X1027500Y725000D02*
X1037500D01*
X1032500Y720000D02*
Y730000D01*
X1566500Y740000D02*
X1576500D01*
X1571500Y735000D02*
Y745000D01*
X798025Y514040D02*
X809455D01*
X803740Y508325D02*
Y519755D01*
X919945Y635960D02*
X931375D01*
X925660Y630245D02*
Y641675D01*
X772625Y575000D02*
X784055D01*
X778340Y569285D02*
Y580715D01*
X919945Y514040D02*
X931375D01*
X925660Y508325D02*
Y519755D01*
X798025Y635960D02*
X809455D01*
X803740Y630245D02*
Y641675D01*
X1178500Y683000D02*
X1182500D01*
X1180500Y681000D02*
Y685000D01*
X1041500Y626500D02*
X1045500D01*
X1043500Y624500D02*
Y628500D01*
X1453000Y853000D02*
X1457000D01*
X1455000Y851000D02*
Y855000D01*
X1280000Y699500D02*
X1284000D01*
X1282000Y697500D02*
Y701500D01*
X1288500Y621291D02*
X1292500D01*
X1290500Y619291D02*
Y623291D01*
X1288500Y582500D02*
X1292500D01*
X1290500Y580500D02*
Y584500D01*
X1212000Y584500D02*
X1216000D01*
X1214000Y582500D02*
Y586500D01*
X1462500Y570500D02*
X1466499D01*
X1464500Y568500D02*
Y572500D01*
X1419384Y801116D02*
X1423384D01*
X1421384Y799116D02*
Y803116D01*
X1070896Y938784D02*
X1074896D01*
X1072896Y936784D02*
Y940784D01*
X1435500Y678270D02*
X1439500D01*
X1437500Y676270D02*
Y680270D01*
X1473000Y869105D02*
X1477000D01*
X1475000Y867105D02*
Y871105D01*
X1398450Y928878D02*
X1402450D01*
X1400450Y926878D02*
Y930878D01*
X1249204Y633730D02*
X1253204D01*
X1251204Y631730D02*
Y635730D01*
X1142500Y459541D02*
X1146500D01*
X1144500Y457541D02*
Y461541D01*
X1333000Y563000D02*
X1337000D01*
X1335000Y561000D02*
Y565000D01*
X1256000Y567000D02*
X1260000D01*
X1258000Y565000D02*
Y569000D01*
X1175250Y615000D02*
X1179250D01*
X1177250Y613000D02*
Y617000D01*
M02*
