G04*
G04 #@! TF.GenerationSoftware,Altium Limited,Altium Designer,23.7.1 (13)*
G04*
G04 Layer_Color=16711935*
%FSLAX44Y44*%
%MOMM*%
G71*
G04*
G04 #@! TF.SameCoordinates,08080B6D-4C5C-4958-99E3-925CFEBC34A3*
G04*
G04*
G04 #@! TF.FilePolarity,Positive*
G04*
G01*
G75*
%ADD12C,0.1000*%
D12*
X1395000Y534750D02*
X1417000D01*
X1395000Y549250D02*
X1417000D01*
Y534750D02*
Y549250D01*
X1395000Y534750D02*
Y549250D01*
X1074000Y395250D02*
Y409750D01*
X1052000Y395250D02*
Y409750D01*
Y395250D02*
X1074000D01*
X1052000Y409750D02*
X1074000D01*
X1043500Y639250D02*
Y653750D01*
X1021500Y639250D02*
Y653750D01*
Y639250D02*
X1043500D01*
X1021500Y653750D02*
X1043500D01*
X740750Y1212500D02*
X755250D01*
X740750Y1190500D02*
X755250D01*
Y1212500D01*
X740750Y1190500D02*
Y1212500D01*
X1027250Y562500D02*
X1041750D01*
X1027250Y584500D02*
X1041750D01*
X1027250Y562500D02*
Y584500D01*
X1041750Y562500D02*
Y584500D01*
X926000Y719250D02*
Y733750D01*
X904000Y719250D02*
Y733750D01*
Y719250D02*
X926000D01*
X904000Y733750D02*
X926000D01*
M02*
