G04*
G04 #@! TF.GenerationSoftware,Altium Limited,Altium Designer,23.7.1 (13)*
G04*
G04 Layer_Color=2752767*
%FSLAX44Y44*%
%MOMM*%
G71*
G04*
G04 #@! TF.SameCoordinates,08080B6D-4C5C-4958-99E3-925CFEBC34A3*
G04*
G04*
G04 #@! TF.FilePolarity,Positive*
G04*
G01*
G75*
%ADD82C,0.1693*%
%ADD83C,0.1270*%
%ADD84C,0.1016*%
D82*
X1443280Y476500D02*
G03*
X1443280Y476500I-5080J0D01*
G01*
X1392480D02*
G03*
X1392480Y476500I-5080J0D01*
G01*
X1341680D02*
G03*
X1341680Y476500I-5080J0D01*
G01*
X1290880D02*
G03*
X1290880Y476500I-5080J0D01*
G01*
X1189280D02*
G03*
X1189280Y476500I-5080J0D01*
G01*
X1214680D02*
G03*
X1214680Y476500I-5080J0D01*
G01*
X1240080D02*
G03*
X1240080Y476500I-5080J0D01*
G01*
X1265480D02*
G03*
X1265480Y476500I-5080J0D01*
G01*
X1316280D02*
G03*
X1316280Y476500I-5080J0D01*
G01*
X1367080D02*
G03*
X1367080Y476500I-5080J0D01*
G01*
X1417880D02*
G03*
X1417880Y476500I-5080J0D01*
G01*
X1468680D02*
G03*
X1468680Y476500I-5080J0D01*
G01*
X1604580Y553800D02*
G03*
X1604580Y553800I-5080J0D01*
G01*
X1602080Y1081400D02*
G03*
X1602080Y1081400I-5080J0D01*
G01*
Y1056000D02*
G03*
X1602080Y1056000I-5080J0D01*
G01*
X1606080Y881100D02*
G03*
X1606080Y881100I-5080J0D01*
G01*
Y766100D02*
G03*
X1606080Y766100I-5080J0D01*
G01*
X1602080Y1106800D02*
G03*
X1602080Y1106800I-5080J0D01*
G01*
X1576580Y613000D02*
G03*
X1576580Y613000I-5080J0D01*
G01*
X1604580Y477600D02*
G03*
X1604580Y477600I-5080J0D01*
G01*
X1468680Y379500D02*
G03*
X1468680Y379500I-5080J0D01*
G01*
X1519580Y1110500D02*
G03*
X1519580Y1110500I-5080J0D01*
G01*
Y983500D02*
G03*
X1519580Y983500I-5080J0D01*
G01*
X1604580Y503000D02*
G03*
X1604580Y503000I-5080J0D01*
G01*
Y528400D02*
G03*
X1604580Y528400I-5080J0D01*
G01*
Y398400D02*
G03*
X1604580Y398400I-5080J0D01*
G01*
Y373000D02*
G03*
X1604580Y373000I-5080J0D01*
G01*
X1417880Y379500D02*
G03*
X1417880Y379500I-5080J0D01*
G01*
X1367080D02*
G03*
X1367080Y379500I-5080J0D01*
G01*
X1316280D02*
G03*
X1316280Y379500I-5080J0D01*
G01*
X1265480D02*
G03*
X1265480Y379500I-5080J0D01*
G01*
X1240080D02*
G03*
X1240080Y379500I-5080J0D01*
G01*
X1214680D02*
G03*
X1214680Y379500I-5080J0D01*
G01*
X1189280D02*
G03*
X1189280Y379500I-5080J0D01*
G01*
X1290880D02*
G03*
X1290880Y379500I-5080J0D01*
G01*
X1341680D02*
G03*
X1341680Y379500I-5080J0D01*
G01*
X1392480D02*
G03*
X1392480Y379500I-5080J0D01*
G01*
X1443280D02*
G03*
X1443280Y379500I-5080J0D01*
G01*
X1606080Y791500D02*
G03*
X1606080Y791500I-5080J0D01*
G01*
Y816900D02*
G03*
X1606080Y816900I-5080J0D01*
G01*
Y906500D02*
G03*
X1606080Y906500I-5080J0D01*
G01*
Y931900D02*
G03*
X1606080Y931900I-5080J0D01*
G01*
X757080Y405000D02*
G03*
X757080Y405000I-5080J0D01*
G01*
X707080D02*
G03*
X707080Y405000I-5080J0D01*
G01*
X732080Y730000D02*
G03*
X732080Y730000I-5080J0D01*
G01*
Y780000D02*
G03*
X732080Y780000I-5080J0D01*
G01*
X937080Y405000D02*
G03*
X937080Y405000I-5080J0D01*
G01*
X887080D02*
G03*
X887080Y405000I-5080J0D01*
G01*
X1036580Y777000D02*
G03*
X1036580Y777000I-5080J0D01*
G01*
X1163580D02*
G03*
X1163580Y777000I-5080J0D01*
G01*
X1146580Y900000D02*
G03*
X1146580Y900000I-5080J0D01*
G01*
X1070580D02*
G03*
X1070580Y900000I-5080J0D01*
G01*
X710580D02*
G03*
X710580Y900000I-5080J0D01*
G01*
X760580D02*
G03*
X760580Y900000I-5080J0D01*
G01*
X1164580Y725000D02*
G03*
X1164580Y725000I-5080J0D01*
G01*
X1037580D02*
G03*
X1037580Y725000I-5080J0D01*
G01*
X1576580Y740000D02*
G03*
X1576580Y740000I-5080J0D01*
G01*
X1185580Y683000D02*
G03*
X1185580Y683000I-5080J0D01*
G01*
X1048580Y626500D02*
G03*
X1048580Y626500I-5080J0D01*
G01*
X1460080Y853000D02*
G03*
X1460080Y853000I-5080J0D01*
G01*
X1287080Y699500D02*
G03*
X1287080Y699500I-5080J0D01*
G01*
X1295580Y621291D02*
G03*
X1295580Y621291I-5080J0D01*
G01*
Y582500D02*
G03*
X1295580Y582500I-5080J0D01*
G01*
X1219080Y584500D02*
G03*
X1219080Y584500I-5080J0D01*
G01*
X1469579Y570500D02*
G03*
X1469579Y570500I-5080J0D01*
G01*
X1426464Y801116D02*
G03*
X1426464Y801116I-5080J0D01*
G01*
X1077976Y938784D02*
G03*
X1077976Y938784I-5080J0D01*
G01*
X1442580Y678270D02*
G03*
X1442580Y678270I-5080J0D01*
G01*
X1480080Y869105D02*
G03*
X1480080Y869105I-5080J0D01*
G01*
X1405530Y928878D02*
G03*
X1405530Y928878I-5080J0D01*
G01*
X1256284Y633730D02*
G03*
X1256284Y633730I-5080J0D01*
G01*
X1149580Y459541D02*
G03*
X1149580Y459541I-5080J0D01*
G01*
X1340080Y563000D02*
G03*
X1340080Y563000I-5080J0D01*
G01*
X1263080Y567000D02*
G03*
X1263080Y567000I-5080J0D01*
G01*
X1182330Y615000D02*
G03*
X1182330Y615000I-5080J0D01*
G01*
D83*
X1291420Y973420D02*
Y983580D01*
X1301580D01*
Y973420D01*
X1291420D01*
X1299000Y908520D02*
X1293920Y918680D01*
X1304080D01*
X1299000Y908520D01*
X1359500Y907520D02*
X1354420Y917680D01*
X1364580D01*
X1359500Y907520D01*
X1213000Y1168920D02*
Y1179080D01*
X1223160D01*
Y1168920D01*
X1213000D01*
X1213420Y1123920D02*
Y1134080D01*
X1223580D01*
Y1123920D01*
X1213420D01*
X1211500Y1230430D02*
X1214040Y1235510D01*
X1211500Y1240590D01*
X1216580Y1238050D01*
X1221660Y1240590D01*
X1219120Y1235510D01*
X1221660Y1230430D01*
X1216580Y1232970D01*
X1211500Y1230430D01*
X1212420Y1026420D02*
Y1036580D01*
X1222580D01*
Y1026420D01*
X1212420D01*
X1245000Y909020D02*
X1239920Y919180D01*
X1250080D01*
X1245000Y909020D01*
X1181420Y973420D02*
Y983580D01*
X1191580D01*
Y973420D01*
X1181420D01*
X1415600Y759920D02*
X1418140Y762460D01*
X1420680D01*
X1418140Y765000D01*
X1420680Y767540D01*
X1418140D01*
X1415600Y770080D01*
X1413060Y767540D01*
X1410520D01*
X1413060Y765000D01*
X1410520Y762460D01*
X1413060D01*
X1415600Y759920D01*
X1064635Y1169920D02*
Y1180080D01*
X1074795D01*
Y1169920D01*
X1064635D01*
X1063135Y1231430D02*
X1065675Y1236510D01*
X1063135Y1241590D01*
X1068215Y1239050D01*
X1073295Y1241590D01*
X1070755Y1236510D01*
X1073295Y1231430D01*
X1068215Y1233970D01*
X1063135Y1231430D01*
X1066420Y1025420D02*
Y1035580D01*
X1076580D01*
Y1025420D01*
X1066420D01*
X1065720Y1124920D02*
Y1135080D01*
X1075880D01*
Y1124920D01*
X1065720D01*
X1042400Y678920D02*
X1037320Y689080D01*
X1047480D01*
X1042400Y678920D01*
X1526770Y1227220D02*
X1529310Y1232300D01*
X1526770Y1237380D01*
X1531850Y1234840D01*
X1536930Y1237380D01*
X1534390Y1232300D01*
X1536930Y1227220D01*
X1531850Y1229760D01*
X1526770Y1227220D01*
X1523420Y1167920D02*
Y1178080D01*
X1533580D01*
Y1167920D01*
X1523420D01*
X1375567Y1229930D02*
X1378107Y1235010D01*
X1375567Y1240090D01*
X1380647Y1237550D01*
X1385728Y1240090D01*
X1383188Y1235010D01*
X1385728Y1229930D01*
X1380647Y1232470D01*
X1375567Y1229930D01*
X1377068Y1168420D02*
Y1178580D01*
X1387228D01*
Y1168420D01*
X1377068D01*
X1160700Y1230430D02*
X1163240Y1235510D01*
X1160700Y1240590D01*
X1165780Y1238050D01*
X1170860Y1240590D01*
X1168320Y1235510D01*
X1170860Y1230430D01*
X1165780Y1232970D01*
X1160700Y1230430D01*
X1376920Y1123420D02*
Y1133580D01*
X1387080D01*
Y1123420D01*
X1376920D01*
X1493420Y590820D02*
Y600980D01*
X1503580D01*
Y590820D01*
X1493420D01*
X1410500Y699420D02*
X1405420Y709580D01*
X1415580D01*
X1410500Y699420D01*
X1358420Y715720D02*
Y725880D01*
X1368580D01*
Y715720D01*
X1358420D01*
X1266020Y973420D02*
Y983580D01*
X1276180D01*
Y973420D01*
X1266020D01*
X1192420Y1026420D02*
Y1036580D01*
X1202580D01*
Y1026420D01*
X1192420D01*
X1046420Y1025420D02*
Y1035580D01*
X1056580D01*
Y1025420D01*
X1046420D01*
X1156020Y973420D02*
Y983580D01*
X1166180D01*
Y973420D01*
X1156020D01*
X880320Y792920D02*
Y803080D01*
X890480D01*
Y792920D01*
X880320D01*
X882352Y794952D02*
Y801048D01*
X888448D01*
Y794952D01*
X882352D01*
X983820Y792420D02*
Y802580D01*
X993980D01*
Y792420D01*
X983820D01*
X985852Y794452D02*
Y800548D01*
X991948D01*
Y794452D01*
X985852D01*
X816920Y714920D02*
Y725080D01*
X827080D01*
Y714920D01*
X816920D01*
X1358420Y677620D02*
Y687780D01*
X1368580D01*
Y677620D01*
X1358420D01*
X1117000Y365420D02*
X1111920Y375580D01*
X1122080D01*
X1117000Y365420D01*
X1124920Y265920D02*
X1127460Y271000D01*
X1124920Y276080D01*
X1130000Y273540D01*
X1135080Y276080D01*
X1132540Y271000D01*
X1135080Y265920D01*
X1130000Y268460D01*
X1124920Y265920D01*
X1062420Y265420D02*
X1064960Y270500D01*
X1062420Y275580D01*
X1067500Y273040D01*
X1072580Y275580D01*
X1070040Y270500D01*
X1072580Y265420D01*
X1067500Y267960D01*
X1062420Y265420D01*
X1358420Y741120D02*
Y751280D01*
X1368580D01*
Y741120D01*
X1358420D01*
Y652220D02*
Y662380D01*
X1368580D01*
Y652220D01*
X1358420D01*
X1493420Y565420D02*
Y575580D01*
X1503580D01*
Y565420D01*
X1493420D01*
X836920Y714920D02*
Y725080D01*
X847080D01*
Y714920D01*
X836920D01*
X699920Y1099920D02*
Y1110080D01*
X710080D01*
Y1099920D01*
X699920D01*
Y1079920D02*
Y1090080D01*
X710080D01*
Y1079920D01*
X699920D01*
X906202Y1169920D02*
Y1180080D01*
X916362D01*
Y1169920D01*
X906202D01*
X886202D02*
Y1180080D01*
X896362D01*
Y1169920D01*
X886202D01*
X1044635D02*
Y1180080D01*
X1054795D01*
Y1169920D01*
X1044635D01*
X759920Y1077220D02*
Y1087380D01*
X770080D01*
Y1077220D01*
X759920D01*
Y1102620D02*
Y1112780D01*
X770080D01*
Y1102620D01*
X759920D01*
X880920Y1124920D02*
Y1135080D01*
X891080D01*
Y1124920D01*
X880920D01*
X906320D02*
Y1135080D01*
X916480D01*
Y1124920D01*
X906320D01*
X1040320D02*
Y1135080D01*
X1050480D01*
Y1124920D01*
X1040320D01*
X699920Y1000680D02*
Y1010840D01*
X710080D01*
Y1000680D01*
X699920D01*
Y980680D02*
Y990840D01*
X710080D01*
Y980680D01*
X699920D01*
X1357068Y1168420D02*
Y1178580D01*
X1367228D01*
Y1168420D01*
X1357068D01*
X1193000Y1168920D02*
Y1179080D01*
X1203160D01*
Y1168920D01*
X1193000D01*
X764920Y977019D02*
Y987179D01*
X775080D01*
Y977019D01*
X764920D01*
Y1002419D02*
Y1012579D01*
X775080D01*
Y1002419D01*
X764920D01*
X1351520Y1123420D02*
Y1133580D01*
X1361680D01*
Y1123420D01*
X1351520D01*
X1188020Y1123920D02*
Y1134080D01*
X1198180D01*
Y1123920D01*
X1188020D01*
X938920Y879420D02*
X941460D01*
X944000Y881960D01*
X946540Y879420D01*
X949080D01*
Y881960D01*
X946540Y884500D01*
X949080Y887040D01*
Y889580D01*
X946540D01*
X944000Y887040D01*
X941460Y889580D01*
X938920D01*
Y887040D01*
X941460Y884500D01*
X938920Y881960D01*
Y879420D01*
Y934420D02*
X941460D01*
X944000Y936960D01*
X946540Y934420D01*
X949080D01*
Y936960D01*
X946540Y939500D01*
X949080Y942040D01*
Y944580D01*
X946540D01*
X944000Y942040D01*
X941460Y944580D01*
X938920D01*
Y942040D01*
X941460Y939500D01*
X938920Y936960D01*
Y934420D01*
Y989420D02*
X941460D01*
X944000Y991960D01*
X946540Y989420D01*
X949080D01*
Y991960D01*
X946540Y994500D01*
X949080Y997040D01*
Y999580D01*
X946540D01*
X944000Y997040D01*
X941460Y999580D01*
X938920D01*
Y997040D01*
X941460Y994500D01*
X938920Y991960D01*
Y989420D01*
Y1044420D02*
X941460D01*
X944000Y1046960D01*
X946540Y1044420D01*
X949080D01*
Y1046960D01*
X946540Y1049500D01*
X949080Y1052040D01*
Y1054580D01*
X946540D01*
X944000Y1052040D01*
X941460Y1054580D01*
X938920D01*
Y1052040D01*
X941460Y1049500D01*
X938920Y1046960D01*
Y1044420D01*
X689460Y507460D02*
Y504920D01*
X694540D01*
Y507460D01*
X697080D01*
Y512540D01*
X694540D01*
Y515080D01*
X689460D01*
Y512540D01*
X686920D01*
Y507460D01*
X689460D01*
Y621760D02*
Y619220D01*
X694540D01*
Y621760D01*
X697080D01*
Y626840D01*
X694540D01*
Y629380D01*
X689460D01*
Y626840D01*
X686920D01*
Y621760D01*
X689460D01*
X845170Y1076100D02*
X850250Y1081180D01*
X855330Y1076100D01*
X850250Y1071020D01*
X845170Y1076100D01*
Y860200D02*
X850250Y865280D01*
X855330Y860200D01*
X850250Y855120D01*
X845170Y860200D01*
Y911000D02*
X850250Y916080D01*
X855330Y911000D01*
X850250Y905920D01*
X845170Y911000D01*
Y1025300D02*
X850250Y1030380D01*
X855330Y1025300D01*
X850250Y1020220D01*
X845170Y1025300D01*
X1124920Y291320D02*
X1127460Y296400D01*
X1124920Y301480D01*
X1130000Y298940D01*
X1135080Y301480D01*
X1132540Y296400D01*
X1135080Y291320D01*
X1130000Y293860D01*
X1124920Y291320D01*
Y240520D02*
X1127460Y245600D01*
X1124920Y250680D01*
X1130000Y248140D01*
X1135080Y250680D01*
X1132540Y245600D01*
X1135080Y240520D01*
X1130000Y243060D01*
X1124920Y240520D01*
X1062420Y240020D02*
X1064960Y245100D01*
X1062420Y250180D01*
X1067500Y247640D01*
X1072580Y250180D01*
X1070040Y245100D01*
X1072580Y240020D01*
X1067500Y242560D01*
X1062420Y240020D01*
Y290820D02*
X1064960Y295900D01*
X1062420Y300980D01*
X1067500Y298440D01*
X1072580Y300980D01*
X1070040Y295900D01*
X1072580Y290820D01*
X1067500Y293360D01*
X1062420Y290820D01*
X1501370Y1227220D02*
X1503910Y1232300D01*
X1501370Y1237380D01*
X1506450Y1234840D01*
X1511530Y1237380D01*
X1508990Y1232300D01*
X1511530Y1227220D01*
X1506450Y1229760D01*
X1501370Y1227220D01*
X1475970D02*
X1478510Y1232300D01*
X1475970Y1237380D01*
X1481050Y1234840D01*
X1486130Y1237380D01*
X1483590Y1232300D01*
X1486130Y1227220D01*
X1481050Y1229760D01*
X1475970Y1227220D01*
X904703Y1231430D02*
X907243Y1236510D01*
X904703Y1241590D01*
X909783Y1239050D01*
X914863Y1241590D01*
X912323Y1236510D01*
X914863Y1231430D01*
X909783Y1233970D01*
X904703Y1231430D01*
X879303D02*
X881843Y1236510D01*
X879303Y1241590D01*
X884383Y1239050D01*
X889463Y1241590D01*
X886923Y1236510D01*
X889463Y1231430D01*
X884383Y1233970D01*
X879303Y1231430D01*
X853903D02*
X856443Y1236510D01*
X853903Y1241590D01*
X858983Y1239050D01*
X864063Y1241590D01*
X861523Y1236510D01*
X864063Y1231430D01*
X858983Y1233970D01*
X853903Y1231430D01*
X1037735D02*
X1040275Y1236510D01*
X1037735Y1241590D01*
X1042815Y1239050D01*
X1047895Y1241590D01*
X1045355Y1236510D01*
X1047895Y1231430D01*
X1042815Y1233970D01*
X1037735Y1231430D01*
X1012335D02*
X1014875Y1236510D01*
X1012335Y1241590D01*
X1017415Y1239050D01*
X1022495Y1241590D01*
X1019955Y1236510D01*
X1022495Y1231430D01*
X1017415Y1233970D01*
X1012335Y1231430D01*
X1350168Y1229930D02*
X1352708Y1235010D01*
X1350168Y1240090D01*
X1355247Y1237550D01*
X1360327Y1240090D01*
X1357787Y1235010D01*
X1360327Y1229930D01*
X1355247Y1232470D01*
X1350168Y1229930D01*
X1324767D02*
X1327307Y1235010D01*
X1324767Y1240090D01*
X1329848Y1237550D01*
X1334928Y1240090D01*
X1332388Y1235010D01*
X1334928Y1229930D01*
X1329848Y1232470D01*
X1324767Y1229930D01*
X1186100Y1230430D02*
X1188640Y1235510D01*
X1186100Y1240590D01*
X1191180Y1238050D01*
X1196260Y1240590D01*
X1193720Y1235510D01*
X1196260Y1230430D01*
X1191180Y1232970D01*
X1186100Y1230430D01*
X1085520Y566920D02*
Y577080D01*
X1095680D01*
Y566920D01*
X1085520D01*
X1110920D02*
Y577080D01*
X1121080D01*
Y566920D01*
X1110920D01*
X686350Y1225390D02*
Y1235550D01*
X696510D01*
Y1225390D01*
X686350D01*
X688382Y1227422D02*
Y1233518D01*
X694478D01*
Y1227422D01*
X688382D01*
X686350Y1199990D02*
Y1210150D01*
X696510D01*
Y1199990D01*
X686350D01*
X688382Y1202022D02*
Y1208118D01*
X694478D01*
Y1202022D01*
X688382D01*
X686350Y1174590D02*
Y1184750D01*
X696510D01*
Y1174590D01*
X686350D01*
X688382Y1176622D02*
Y1182718D01*
X694478D01*
Y1176622D01*
X688382D01*
X854920Y792920D02*
Y803080D01*
X865080D01*
Y792920D01*
X854920D01*
X856952Y794952D02*
Y801048D01*
X863048D01*
Y794952D01*
X856952D01*
X829520Y792920D02*
Y803080D01*
X839680D01*
Y792920D01*
X829520D01*
X831552Y794952D02*
Y801048D01*
X837648D01*
Y794952D01*
X831552D01*
X958420Y792420D02*
Y802580D01*
X968580D01*
Y792420D01*
X958420D01*
X960452Y794452D02*
Y800548D01*
X966548D01*
Y794452D01*
X960452D01*
X933020Y792420D02*
Y802580D01*
X943180D01*
Y792420D01*
X933020D01*
X935052Y794452D02*
Y800548D01*
X941148D01*
Y794452D01*
X935052D01*
X1512100Y699420D02*
X1507020Y709580D01*
X1517180D01*
X1512100Y699420D01*
X1015400Y365420D02*
X1010320Y375580D01*
X1020480D01*
X1015400Y365420D01*
X1504500Y759920D02*
X1507040Y762460D01*
X1509580D01*
X1507040Y765000D01*
X1509580Y767540D01*
X1507040D01*
X1504500Y770080D01*
X1501960Y767540D01*
X1499420D01*
X1501960Y765000D01*
X1499420Y762460D01*
X1501960D01*
X1504500Y759920D01*
X1359500Y805920D02*
X1354420Y816080D01*
X1364580D01*
X1359500Y805920D01*
X1245000Y807420D02*
X1239920Y817580D01*
X1250080D01*
X1245000Y807420D01*
X1299000Y806920D02*
X1293920Y817080D01*
X1304080D01*
X1299000Y806920D01*
X1144000Y678920D02*
X1138920Y689080D01*
X1149080D01*
X1144000Y678920D01*
X1543500Y856320D02*
X1546040Y858860D01*
X1548580D01*
X1546040Y861400D01*
X1548580Y863940D01*
X1546040D01*
X1543500Y866480D01*
X1540960Y863940D01*
X1538420D01*
X1540960Y861400D01*
X1538420Y858860D01*
X1540960D01*
X1543500Y856320D01*
Y767420D02*
X1546040Y769960D01*
X1548580D01*
X1546040Y772500D01*
X1548580Y775040D01*
X1546040D01*
X1543500Y777580D01*
X1540960Y775040D01*
X1538420D01*
X1540960Y772500D01*
X1538420Y769960D01*
X1540960D01*
X1543500Y767420D01*
X1544500Y970420D02*
X1547040Y972960D01*
X1549580D01*
X1547040Y975500D01*
X1549580Y978040D01*
X1547040D01*
X1544500Y980580D01*
X1541960Y978040D01*
X1539420D01*
X1541960Y975500D01*
X1539420Y972960D01*
X1541960D01*
X1544500Y970420D01*
Y881520D02*
X1547040Y884060D01*
X1549580D01*
X1547040Y886600D01*
X1549580Y889140D01*
X1547040D01*
X1544500Y891680D01*
X1541960Y889140D01*
X1539420D01*
X1541960Y886600D01*
X1539420Y884060D01*
X1541960D01*
X1544500Y881520D01*
X1014400Y450420D02*
X1009320Y460580D01*
X1019480D01*
X1014400Y450420D01*
X1116000D02*
X1110920Y460580D01*
X1121080D01*
X1116000Y450420D01*
X1319920Y714820D02*
Y724980D01*
X1330080D01*
Y714820D01*
X1319920D01*
Y666020D02*
Y676180D01*
X1330080D01*
Y666020D01*
X1319920D01*
X1503420Y1167920D02*
Y1178080D01*
X1513580D01*
Y1167920D01*
X1503420D01*
X801200Y511500D02*
Y508960D01*
X806280D01*
Y511500D01*
X808820D01*
Y516580D01*
X806280D01*
Y519120D01*
X801200D01*
Y516580D01*
X798660D01*
Y511500D01*
X801200D01*
X923120Y633420D02*
Y630880D01*
X928200D01*
Y633420D01*
X930740D01*
Y638500D01*
X928200D01*
Y641040D01*
X923120D01*
Y638500D01*
X920580D01*
Y633420D01*
X923120D01*
X775800Y572460D02*
Y569920D01*
X780880D01*
Y572460D01*
X783420D01*
Y577540D01*
X780880D01*
Y580080D01*
X775800D01*
Y577540D01*
X773260D01*
Y572460D01*
X775800D01*
X923120Y511500D02*
Y508960D01*
X928200D01*
Y511500D01*
X930740D01*
Y516580D01*
X928200D01*
Y519120D01*
X923120D01*
Y516580D01*
X920580D01*
Y511500D01*
X923120D01*
X801200Y633420D02*
Y630880D01*
X806280D01*
Y633420D01*
X808820D01*
Y638500D01*
X806280D01*
Y641040D01*
X801200D01*
Y638500D01*
X798660D01*
Y633420D01*
X801200D01*
D84*
X1183548Y683000D02*
G03*
X1183548Y683000I-3048J0D01*
G01*
X1046548Y626500D02*
G03*
X1046548Y626500I-3048J0D01*
G01*
X1458048Y853000D02*
G03*
X1458048Y853000I-3048J0D01*
G01*
X1285048Y699500D02*
G03*
X1285048Y699500I-3048J0D01*
G01*
X1293548Y621291D02*
G03*
X1293548Y621291I-3048J0D01*
G01*
Y582500D02*
G03*
X1293548Y582500I-3048J0D01*
G01*
X1217048Y584500D02*
G03*
X1217048Y584500I-3048J0D01*
G01*
X1467547Y570500D02*
G03*
X1467547Y570500I-3048J0D01*
G01*
X1424432Y801116D02*
G03*
X1424432Y801116I-3048J0D01*
G01*
X1075944Y938784D02*
G03*
X1075944Y938784I-3048J0D01*
G01*
X1440548Y678270D02*
G03*
X1440548Y678270I-3048J0D01*
G01*
X1478048Y869105D02*
G03*
X1478048Y869105I-3048J0D01*
G01*
X1403498Y928878D02*
G03*
X1403498Y928878I-3048J0D01*
G01*
X1254252Y633730D02*
G03*
X1254252Y633730I-3048J0D01*
G01*
X1147548Y459541D02*
G03*
X1147548Y459541I-3048J0D01*
G01*
X1338048Y563000D02*
G03*
X1338048Y563000I-3048J0D01*
G01*
X1261048Y567000D02*
G03*
X1261048Y567000I-3048J0D01*
G01*
X1180298Y615000D02*
G03*
X1180298Y615000I-3048J0D01*
G01*
M02*
