M48
;Layer_Color=9474304
;FILE_FORMAT=2:4
INCH,LZ
;TYPE=PLATED
T01F00S00C0.0157
T02F00S00C0.0310
T03F00S00C0.0315
T04F00S00C0.0350
T05F00S00C0.0354
T06F00S00C0.0394
T07F00S00C0.0450
T08F00S00C0.0512
;TYPE=NON_PLATED
T09F00S00C0.0394
T10F00S00C0.0630
%
T01
X047795Y023012
X049528Y022323
X050807Y022933
Y02446
X04926Y02495
X050472Y027539
X056594Y026704
X057657Y022461
X052559Y022165
X046348Y024213
X046476Y02689
X041083Y024665
X045059Y018092
X04224Y03696
X055136Y03657
X055492Y032579
X057283Y033583
X058071Y034217
T02
X055732Y030118
X059232
X060768Y030413
Y033913
X060807Y034906
Y038406
T03
X052165Y026421
Y028343
X053681Y028378
Y029378
Y026878
Y025878
X058996Y023461
Y022461
X043937Y02252
X042937
X03315Y028346
X032362
X030315Y038665
Y039665
X027756Y039597
Y038809
Y042717
Y043504
X030118Y04361
Y04261
X034882Y044488
X035882
X035877Y04626
X03509
X041327
X042115
X042157Y044488
X041157
X041398Y040571
X042185
X045713Y038524
X046713
X047146Y04061
X047933
X047972Y044449
X046972
X047168Y04622
X047956
X053628Y046201
X054415
X054409Y044429
X053409
X05939Y046181
X060177
X051043Y038524
X050043
T04
X039976Y014587
X043976
X055532Y027736
X059531
X045039Y026929
X041039
X039937Y017933
X043937
X049016Y031988
X051142Y031969
X053524Y031929
Y035929
X051142Y035968
X049016Y035988
T05
X027222Y046444
X032858Y031417
X033858
X034858
X036933Y031398
X037933
X038933
X027222Y047444
Y048444
T06
X046622Y014941
X047622
X048622
X049622
X050622
X051622
X052622
X053622
X054622
X055622
X056622
X057622
X062972Y014685
Y015685
Y018803
Y019803
Y020803
Y021803
X063032Y030161
Y031161
X06187Y029134
Y024134
X057622Y01876
X056622
X055622
X054622
X053622
X052622
X051622
X050622
X049622
X048622
X047622
X046622
X04565Y028543
X04561Y030591
X04061
X04065Y028543
X036693Y015945
X034724
X029606
X027638
X028622Y02874
Y030709
X027776Y035433
X029744
X041949
X044941
X059626Y03872
Y04372
X062874Y043575
Y042575
Y041575
X063032Y036689
Y035689
Y034689
Y032161
T07
X031643Y020238
X036443
Y025038
X031643
X030643Y022638
X027244Y024579
Y020079
T08
X033474Y033866
Y035866
Y040366
Y042366
T09
X042028Y00965
Y01065
Y01165
X044488Y011669
Y010669
Y009669
X046897Y048642
X047897
X052356Y048622
X053356
X054356
X058309Y048516
X059309
X060309
X045897Y048642
X042056Y048682
X041056
X040056
X035818
X034818
X033818
T10
X037165Y034823
Y036988
Y039154
Y041319
M30
