G04*
G04 #@! TF.GenerationSoftware,Altium Limited,Altium Designer,23.7.1 (13)*
G04*
G04 Layer_Physical_Order=3*
G04 Layer_Color=128*
%FSTAX44Y44*%
%MOMM*%
G71*
G04*
G04 #@! TF.SameCoordinates,65A94E3A-F732-46F6-9CE8-1871680BC999*
G04*
G04*
G04 #@! TF.FilePolarity,Negative*
G04*
G01*
G75*
%ADD34C,1.8000*%
%ADD50C,0.5000*%
%ADD65C,1.0160*%
%ADD66C,2.0000*%
G04:AMPARAMS|DCode=67|XSize=2.5mm|YSize=2.5mm|CornerRadius=0mm|HoleSize=0mm|Usage=FLASHONLY|Rotation=0.000|XOffset=0mm|YOffset=0mm|HoleType=Round|Shape=Relief|Width=0.5mm|Gap=0.25mm|Entries=4|*
%AMTHD67*
7,0,0,2.5000,2.0000,0.5000,45*
%
%ADD67THD67*%
%ADD68C,1.8890*%
%ADD69C,1.7874*%
G04:AMPARAMS|DCode=70|XSize=2.3mm|YSize=2.3mm|CornerRadius=0mm|HoleSize=0mm|Usage=FLASHONLY|Rotation=0.000|XOffset=0mm|YOffset=0mm|HoleType=Round|Shape=Relief|Width=0.5mm|Gap=0.25mm|Entries=4|*
%AMTHD70*
7,0,0,2.3000,1.8000,0.5000,45*
%
%ADD70THD70*%
G04:AMPARAMS|DCode=71|XSize=2.389mm|YSize=2.389mm|CornerRadius=0mm|HoleSize=0mm|Usage=FLASHONLY|Rotation=0.000|XOffset=0mm|YOffset=0mm|HoleType=Round|Shape=Relief|Width=0.5mm|Gap=0.25mm|Entries=4|*
%AMTHD71*
7,0,0,2.3890,1.8890,0.5000,45*
%
%ADD71THD71*%
%ADD73C,2.6000*%
%ADD75C,2.1430*%
%ADD76C,2.3000*%
%ADD77C,1.9000*%
G04:AMPARAMS|DCode=78|XSize=2.2874mm|YSize=2.2874mm|CornerRadius=0mm|HoleSize=0mm|Usage=FLASHONLY|Rotation=0.000|XOffset=0mm|YOffset=0mm|HoleType=Round|Shape=Relief|Width=0.5mm|Gap=0.25mm|Entries=4|*
%AMTHD78*
7,0,0,2.2874,1.7874,0.5000,45*
%
%ADD78THD78*%
G04:AMPARAMS|DCode=79|XSize=1.9mm|YSize=1.9mm|CornerRadius=0mm|HoleSize=0mm|Usage=FLASHONLY|Rotation=0.000|XOffset=0mm|YOffset=0mm|HoleType=Round|Shape=Relief|Width=0.5mm|Gap=0.25mm|Entries=4|*
%AMTHD79*
7,0,0,1.9000,1.4000,0.5000,45*
%
%ADD79THD79*%
%ADD80C,1.4000*%
D34*
X011865Y009785D02*
D03*
X014985Y005959D02*
D03*
X013635Y007208D02*
D03*
X012711Y009785D02*
D03*
X011975Y010315D02*
D03*
X010515Y010305D02*
D03*
X011611Y009785D02*
D03*
X00822Y0072D02*
D03*
X013635Y006827D02*
D03*
Y007462D02*
D03*
Y006573D02*
D03*
X014985Y005705D02*
D03*
X00842Y0072D02*
D03*
X00705Y01105D02*
D03*
Y01085D02*
D03*
X00911282Y01175D02*
D03*
X00891282D02*
D03*
X01049715D02*
D03*
X00765Y010823D02*
D03*
Y011077D02*
D03*
X00886Y0113D02*
D03*
X009114D02*
D03*
X010454D02*
D03*
X00705Y0100576D02*
D03*
Y0098576D02*
D03*
X01362148Y011735D02*
D03*
X0119808Y01174D02*
D03*
X0077Y00982099D02*
D03*
Y01007499D02*
D03*
X013566Y011285D02*
D03*
X011931Y01129D02*
D03*
X010906Y00572D02*
D03*
X01116D02*
D03*
X01325Y007199D02*
D03*
Y006711D02*
D03*
X015085Y01173D02*
D03*
D50*
X01382Y0089D02*
Y010825D01*
X011925Y0089D02*
X01382D01*
X011925D02*
Y012035D01*
X011925Y012055D02*
Y012685D01*
X01112Y012035D02*
X011925D01*
X01257D02*
X01322D01*
X01257Y012045D02*
Y012685D01*
X011925D02*
X01257D01*
X015145Y01256D02*
X015285D01*
X015145Y01145D02*
Y01256D01*
Y01145D02*
X01551D01*
Y01058D02*
Y01145D01*
Y01058D02*
X01614D01*
Y01106D01*
X01574D02*
X01614D01*
X01574D02*
Y01256D01*
X015285D02*
X01574D01*
X0152Y00718D02*
X01673D01*
X0152D02*
Y010835D01*
X01322D02*
X0152D01*
X01322D02*
Y012035D01*
X01112D02*
Y01316D01*
D65*
X006275Y001715D02*
X01669D01*
Y01316D01*
X006275D02*
X01669D01*
X006275Y001715D02*
Y01316D01*
D66*
X014382Y004765D02*
D03*
X013874D02*
D03*
X013366D02*
D03*
X012858D02*
D03*
X011842D02*
D03*
X012096D02*
D03*
X01235D02*
D03*
X012604D02*
D03*
X013112D02*
D03*
X01362D02*
D03*
X014128D02*
D03*
X014636D02*
D03*
X01597Y01056D02*
D03*
Y011068D02*
D03*
X015715Y00613D02*
D03*
X015995Y004776D02*
D03*
X014636Y003795D02*
D03*
X0113Y00271D02*
D03*
X010675Y002705D02*
D03*
X015145Y011105D02*
D03*
Y009835D02*
D03*
X015995Y00503D02*
D03*
Y005284D02*
D03*
Y003984D02*
D03*
Y00373D02*
D03*
X014128Y003795D02*
D03*
X01362D02*
D03*
X013112D02*
D03*
X012604D02*
D03*
X01235D02*
D03*
X012096D02*
D03*
X011842D02*
D03*
X012858D02*
D03*
X013366D02*
D03*
X013874D02*
D03*
X014382D02*
D03*
X01601Y007915D02*
D03*
Y008169D02*
D03*
Y009065D02*
D03*
Y009319D02*
D03*
X00752Y00405D02*
D03*
X00702D02*
D03*
X00727Y0073D02*
D03*
Y0078D02*
D03*
X00932Y00405D02*
D03*
X00882D02*
D03*
X0113Y002964D02*
D03*
Y002456D02*
D03*
X010675Y002451D02*
D03*
Y002959D02*
D03*
X0150645Y012323D02*
D03*
X0148105D02*
D03*
X00909783Y0123651D02*
D03*
X00884383D02*
D03*
X00858983D02*
D03*
X01042815D02*
D03*
X01017415D02*
D03*
X01355247Y0123501D02*
D03*
X01329848D02*
D03*
X0119118Y0123551D02*
D03*
X010315Y00777D02*
D03*
X011585D02*
D03*
X011415Y009D02*
D03*
X010655D02*
D03*
X007055D02*
D03*
X007555D02*
D03*
X011595Y00725D02*
D03*
X010325D02*
D03*
X015715Y0074D02*
D03*
D67*
X0121658Y0123551D02*
D03*
X015995Y005538D02*
D03*
X01068215Y0123651D02*
D03*
X0153185Y012323D02*
D03*
X01597Y010814D02*
D03*
X01601Y008811D02*
D03*
Y007661D02*
D03*
X01380647Y0123501D02*
D03*
X0116578Y0123551D02*
D03*
D68*
X014105Y007045D02*
D03*
X01117Y003705D02*
D03*
X015121Y007045D02*
D03*
X010154Y003705D02*
D03*
X013595Y00811D02*
D03*
X01245Y008125D02*
D03*
X01299Y00812D02*
D03*
X01144Y00684D02*
D03*
X010144Y004555D02*
D03*
X01116D02*
D03*
D69*
X015045Y00765D02*
D03*
X015435Y008614D02*
D03*
Y007725D02*
D03*
X015445Y009755D02*
D03*
Y008866D02*
D03*
D70*
X012965Y009785D02*
D03*
X0121808Y01174D02*
D03*
X012185Y01129D02*
D03*
X012175Y010315D02*
D03*
X01069715Y01175D02*
D03*
X010715Y010305D02*
D03*
X010708Y0113D02*
D03*
X015285Y01173D02*
D03*
X01382148Y011735D02*
D03*
X01382Y011285D02*
D03*
D71*
X01299Y009136D02*
D03*
X013595Y009126D02*
D03*
X01245Y009141D02*
D03*
X010424Y00684D02*
D03*
D73*
X00944Y008845D02*
D03*
Y009395D02*
D03*
Y009945D02*
D03*
Y010495D02*
D03*
D75*
X00692Y0051D02*
D03*
Y006243D02*
D03*
X0080374Y0051404D02*
D03*
X0092566Y0063596D02*
D03*
X0077834Y00575D02*
D03*
X0092566Y0051404D02*
D03*
X0080374Y0063596D02*
D03*
D76*
X0085025Y010761D02*
D03*
Y008602D02*
D03*
Y00911D02*
D03*
Y010253D02*
D03*
D77*
X008854Y00798D02*
D03*
X009889Y007975D02*
D03*
X0069143Y0123047D02*
D03*
Y0120507D02*
D03*
Y0117967D02*
D03*
X0086Y00798D02*
D03*
X008346D02*
D03*
X009635Y007975D02*
D03*
X009381D02*
D03*
D78*
X014156Y00765D02*
D03*
D79*
X011805Y00683D02*
D03*
X010435Y006265D02*
D03*
X01072896Y00938784D02*
D03*
X01475Y00869105D02*
D03*
D80*
X014095Y008275D02*
D03*
X01455Y00853D02*
D03*
X01282Y006995D02*
D03*
X012905Y00621291D02*
D03*
Y005825D02*
D03*
X01214Y005845D02*
D03*
X014645Y005705D02*
D03*
X014375Y0067827D02*
D03*
X0140045Y00928878D02*
D03*
X01251204Y0063373D02*
D03*
X011445Y00459541D02*
D03*
X01335Y00563D02*
D03*
X01258Y00567D02*
D03*
X0117725Y00615D02*
D03*
M02*
