G04*
G04 #@! TF.GenerationSoftware,Altium Limited,Altium Designer,23.7.1 (13)*
G04*
G04 Layer_Physical_Order=1*
G04 Layer_Color=255*
%FSTAX44Y44*%
%MOMM*%
G71*
G04*
G04 #@! TF.SameCoordinates,65A94E3A-F732-46F6-9CE8-1871680BC999*
G04*
G04*
G04 #@! TF.FilePolarity,Positive*
G04*
G01*
G75*
%ADD10C,0.3000*%
G04:AMPARAMS|DCode=18|XSize=0.3mm|YSize=2mm|CornerRadius=0.015mm|HoleSize=0mm|Usage=FLASHONLY|Rotation=0.000|XOffset=0mm|YOffset=0mm|HoleType=Round|Shape=RoundedRectangle|*
%AMROUNDEDRECTD18*
21,1,0.3000,1.9700,0,0,0.0*
21,1,0.2700,2.0000,0,0,0.0*
1,1,0.0300,0.1350,-0.9850*
1,1,0.0300,-0.1350,-0.9850*
1,1,0.0300,-0.1350,0.9850*
1,1,0.0300,0.1350,0.9850*
%
%ADD18ROUNDEDRECTD18*%
G04:AMPARAMS|DCode=19|XSize=1.2mm|YSize=1.425mm|CornerRadius=0.06mm|HoleSize=0mm|Usage=FLASHONLY|Rotation=0.000|XOffset=0mm|YOffset=0mm|HoleType=Round|Shape=RoundedRectangle|*
%AMROUNDEDRECTD19*
21,1,1.2000,1.3050,0,0,0.0*
21,1,1.0800,1.4250,0,0,0.0*
1,1,0.1200,0.5400,-0.6525*
1,1,0.1200,-0.5400,-0.6525*
1,1,0.1200,-0.5400,0.6525*
1,1,0.1200,0.5400,0.6525*
%
%ADD19ROUNDEDRECTD19*%
G04:AMPARAMS|DCode=20|XSize=0.3mm|YSize=1.6mm|CornerRadius=0.015mm|HoleSize=0mm|Usage=FLASHONLY|Rotation=270.000|XOffset=0mm|YOffset=0mm|HoleType=Round|Shape=RoundedRectangle|*
%AMROUNDEDRECTD20*
21,1,0.3000,1.5700,0,0,270.0*
21,1,0.2700,1.6000,0,0,270.0*
1,1,0.0300,-0.7850,-0.1350*
1,1,0.0300,-0.7850,0.1350*
1,1,0.0300,0.7850,0.1350*
1,1,0.0300,0.7850,-0.1350*
%
%ADD20ROUNDEDRECTD20*%
G04:AMPARAMS|DCode=21|XSize=1.5mm|YSize=1.1mm|CornerRadius=0.055mm|HoleSize=0mm|Usage=FLASHONLY|Rotation=270.000|XOffset=0mm|YOffset=0mm|HoleType=Round|Shape=RoundedRectangle|*
%AMROUNDEDRECTD21*
21,1,1.5000,0.9900,0,0,270.0*
21,1,1.3900,1.1000,0,0,270.0*
1,1,0.1100,-0.4950,-0.6950*
1,1,0.1100,-0.4950,0.6950*
1,1,0.1100,0.4950,0.6950*
1,1,0.1100,0.4950,-0.6950*
%
%ADD21ROUNDEDRECTD21*%
%ADD22R,0.8000X1.2000*%
G04:AMPARAMS|DCode=23|XSize=1.5mm|YSize=1.1mm|CornerRadius=0.055mm|HoleSize=0mm|Usage=FLASHONLY|Rotation=180.000|XOffset=0mm|YOffset=0mm|HoleType=Round|Shape=RoundedRectangle|*
%AMROUNDEDRECTD23*
21,1,1.5000,0.9900,0,0,180.0*
21,1,1.3900,1.1000,0,0,180.0*
1,1,0.1100,-0.6950,0.4950*
1,1,0.1100,0.6950,0.4950*
1,1,0.1100,0.6950,-0.4950*
1,1,0.1100,-0.6950,-0.4950*
%
%ADD23ROUNDEDRECTD23*%
%ADD24R,1.1000X1.5000*%
G04:AMPARAMS|DCode=25|XSize=1mm|YSize=1.425mm|CornerRadius=0.05mm|HoleSize=0mm|Usage=FLASHONLY|Rotation=0.000|XOffset=0mm|YOffset=0mm|HoleType=Round|Shape=RoundedRectangle|*
%AMROUNDEDRECTD25*
21,1,1.0000,1.3250,0,0,0.0*
21,1,0.9000,1.4250,0,0,0.0*
1,1,0.1000,0.4500,-0.6625*
1,1,0.1000,-0.4500,-0.6625*
1,1,0.1000,-0.4500,0.6625*
1,1,0.1000,0.4500,0.6625*
%
%ADD25ROUNDEDRECTD25*%
%ADD50C,0.5000*%
%ADD51C,1.6000*%
%ADD52C,1.3000*%
%ADD53C,2.1590*%
%ADD54C,1.7780*%
%ADD55C,2.2860*%
%ADD56O,1.0160X2.0320*%
%ADD57C,2.5000*%
%ADD58C,2.5400*%
%ADD59R,2.5400X2.5400*%
%ADD60C,2.0000*%
G04:AMPARAMS|DCode=61|XSize=1.6mm|YSize=1.6mm|CornerRadius=0.08mm|HoleSize=0mm|Usage=FLASHONLY|Rotation=90.000|XOffset=0mm|YOffset=0mm|HoleType=Round|Shape=RoundedRectangle|*
%AMROUNDEDRECTD61*
21,1,1.6000,1.4400,0,0,90.0*
21,1,1.4400,1.6000,0,0,90.0*
1,1,0.1600,0.7200,0.7200*
1,1,0.1600,0.7200,-0.7200*
1,1,0.1600,-0.7200,-0.7200*
1,1,0.1600,-0.7200,0.7200*
%
%ADD61ROUNDEDRECTD61*%
%ADD62O,2.0320X1.0160*%
%ADD63C,3.0480*%
%ADD64C,0.7000*%
G36*
X015245Y01243067D02*
X01523868Y01242702D01*
X01521448Y01240282D01*
X01519736Y01237318D01*
X0151885Y01234011D01*
Y01230588D01*
X01519736Y01227282D01*
X01521448Y01224318D01*
X01523868Y01221897D01*
X015245Y01221532D01*
Y01183834D01*
X01524061Y01183716D01*
X01521439Y01182202D01*
X01519298Y01180061D01*
X01517784Y01177439D01*
X01516425Y01177274D01*
X01515702Y01178526D01*
X01514026Y01180202D01*
X01511974Y01181387D01*
X01511Y01181647D01*
Y01173D01*
Y01164352D01*
X01511974Y01164613D01*
X01514026Y01165798D01*
X01515702Y01167474D01*
X01516425Y01168726D01*
X01517784Y01168561D01*
X01519298Y01165939D01*
X01521439Y01163798D01*
X01524061Y01162284D01*
X015245Y01162166D01*
Y01121859D01*
X01523327Y01121373D01*
X01523053Y01121647D01*
X01519877Y01123481D01*
X01517Y01124252D01*
Y011105D01*
Y01096749D01*
X01519877Y0109752D01*
X01523053Y01099353D01*
X01523327Y01099627D01*
X015245Y01099141D01*
Y010655D01*
X00980734D01*
X0098025Y01065015D01*
Y00900524D01*
X0096277Y00883044D01*
X009615Y0088357D01*
Y00886224D01*
X00960828Y00889605D01*
X00959508Y0089279D01*
X00957593Y00895656D01*
X00955156Y00898093D01*
X0095229Y00900008D01*
X00949105Y00901328D01*
X00945724Y00902D01*
X00942277D01*
X00938896Y00901328D01*
X00935711Y00900008D01*
X00932844Y00898093D01*
X00930407Y00895656D01*
X00928492Y0089279D01*
X00927173Y00889605D01*
X009265Y00886224D01*
Y00882776D01*
X00927173Y00879396D01*
X00928492Y00876211D01*
X00930407Y00873344D01*
X00932844Y00870907D01*
X00935711Y00868992D01*
X00938896Y00867673D01*
X00942277Y00867D01*
X0094493D01*
X00945456Y0086573D01*
X00913726Y00834D01*
X00911565D01*
Y011185D01*
X00912914D01*
X00915839Y01119284D01*
X00918461Y01120798D01*
X00920602Y01122939D01*
X00922116Y01125561D01*
X009229Y01128486D01*
Y01131514D01*
X00922116Y01134439D01*
X00920602Y01137061D01*
X00918965Y01138699D01*
Y01152398D01*
X00918965Y01152398D01*
X00918847Y01153293D01*
Y01166301D01*
X00920485Y01167939D01*
X00921999Y01170561D01*
X00922782Y01173486D01*
Y01176514D01*
X00921999Y01179439D01*
X00920485Y01182061D01*
X00918847Y01183699D01*
Y01204976D01*
X00918589Y01206934D01*
X00917834Y01208758D01*
X00917347Y01209392D01*
Y01225866D01*
X00917765Y01226107D01*
X00920185Y01228528D01*
X00921009Y01229954D01*
X01006189D01*
X01007013Y01228528D01*
X01009433Y01226107D01*
X01012398Y01224396D01*
X01015704Y0122351D01*
X01019127D01*
X01022433Y01224396D01*
X01025397Y01226107D01*
X01027818Y01228528D01*
X01029529Y01231492D01*
X01030415Y01234799D01*
Y01238222D01*
X01029529Y01241528D01*
X01027818Y01244492D01*
X01025397Y01246913D01*
X01022433Y01248624D01*
X01019127Y0124951D01*
X01015704D01*
X01012398Y01248624D01*
X01009433Y01246913D01*
X01007013Y01244492D01*
X01006189Y01243066D01*
X00921009D01*
X00920185Y01244492D01*
X00917765Y01246913D01*
X00914801Y01248624D01*
X00911494Y0124951D01*
X00908071D01*
X00906481Y01249084D01*
X00899919Y01255646D01*
X00898561Y01256688D01*
X0089698Y01257343D01*
X00895283Y01257566D01*
X00690514D01*
X00688817Y01257343D01*
X00687236Y01256688D01*
X00685878Y01255646D01*
X00670134Y01239902D01*
X00669092Y01238545D01*
X00668438Y01236963D01*
X00668214Y01235267D01*
Y0121665D01*
X00668438Y01214953D01*
X00669092Y01213372D01*
X00670134Y01212014D01*
X00676287Y01205861D01*
X00676183Y0120507D01*
X0067653Y01202439D01*
X00677545Y01199986D01*
X00679161Y01197881D01*
X00681267Y01196265D01*
X00683719Y01195249D01*
X0068635Y01194903D01*
X0069651D01*
X00699142Y01195249D01*
X00701594Y01196265D01*
X00703699Y01197881D01*
X00705315Y01199986D01*
X00706331Y01202439D01*
X00706677Y0120507D01*
X00706331Y01207701D01*
X00705315Y01210154D01*
X00703699Y01212259D01*
X00701594Y01213875D01*
X00699142Y01214891D01*
X0069651Y01215237D01*
X0068635D01*
X00685559Y01215133D01*
X0068138Y01219312D01*
X00681448Y01220478D01*
X00682497Y01221156D01*
X00683719Y01220649D01*
X0068635Y01220303D01*
X0069651D01*
X00699142Y01220649D01*
X00701594Y01221665D01*
X0070321Y01222905D01*
X00707559D01*
X00723313Y01207151D01*
X0072488Y01205949D01*
X00726704Y01205193D01*
X00728662Y01204935D01*
X00728662Y01204935D01*
X00736122D01*
X00737049Y01203549D01*
X00738885Y01202322D01*
X00739762Y01202148D01*
Y01200853D01*
X00738885Y01200678D01*
X00737049Y01199451D01*
X00736122Y01198065D01*
X00725078D01*
X0072312Y01197807D01*
X00721296Y01197051D01*
X00719729Y01195849D01*
X00719729Y01195849D01*
X00711115Y01187235D01*
X0070321D01*
X00701594Y01188475D01*
X00699142Y01189491D01*
X0069651Y01189837D01*
X0068635D01*
X00683719Y01189491D01*
X00681267Y01188475D01*
X00679161Y01186859D01*
X00677545Y01184753D01*
X0067653Y01182301D01*
X00676183Y0117967D01*
X0067653Y01177039D01*
X00677545Y01174586D01*
X00679161Y01172481D01*
X00681267Y01170865D01*
X00683719Y01169849D01*
X00683866Y0116983D01*
Y0111857D01*
X00684123Y01116612D01*
X00684879Y01114787D01*
X00686081Y01113221D01*
X006935Y01105802D01*
Y01103486D01*
X00694284Y01100561D01*
X00695798Y01097939D01*
X00697939Y01095798D01*
X00700561Y01094284D01*
X00700726Y01092925D01*
X00699474Y01092202D01*
X00697798Y01090526D01*
X00696613Y01088474D01*
X00696352Y010875D01*
X00705D01*
X00713647D01*
X00713387Y01088474D01*
X00712202Y01090526D01*
X00710526Y01092202D01*
X00709274Y01092925D01*
X00709439Y01094284D01*
X00712061Y01095798D01*
X00714202Y01097939D01*
X00715716Y01100561D01*
X007165Y01103486D01*
Y01106514D01*
X00715716Y01109439D01*
X00714202Y01112061D01*
X00712061Y01114202D01*
X00709439Y01115716D01*
X00706514Y011165D01*
X00704198D01*
X00698995Y01121703D01*
Y0116983D01*
X00699142Y01169849D01*
X00701594Y01170865D01*
X0070321Y01172105D01*
X00714248D01*
X00716206Y01172363D01*
X0071803Y01173119D01*
X00719597Y01174321D01*
X00728211Y01182935D01*
X00736122D01*
X00737049Y01181549D01*
X00738885Y01180322D01*
X0074105Y01179891D01*
X0075495D01*
X00757115Y01180322D01*
X00758951Y01181549D01*
X00760178Y01183385D01*
X00760609Y0118555D01*
Y0119545D01*
X00760178Y01197616D01*
X00758951Y01199451D01*
X00757115Y01200678D01*
X00756238Y01200853D01*
Y01202148D01*
X00757115Y01202322D01*
X00758951Y01203549D01*
X00760136Y01203665D01*
X00771453Y01192349D01*
Y01118523D01*
X00770353Y01117888D01*
X00769439Y01118416D01*
X00766514Y011192D01*
X00763486D01*
X00760561Y01118416D01*
X00757939Y01116902D01*
X00755798Y01114761D01*
X00754284Y01112139D01*
X007535Y01109214D01*
Y01106186D01*
X00754284Y01103261D01*
X00755798Y01100639D01*
X00757939Y01098498D01*
X00760561Y01096984D01*
X00763486Y010962D01*
X00766514D01*
X00769439Y01096984D01*
X00770353Y01097512D01*
X00771453Y01096877D01*
Y01090221D01*
X00770183Y010897D01*
X00768474Y01090687D01*
X007675Y01090948D01*
Y010823D01*
Y01073652D01*
X00768474Y01073913D01*
X00770183Y01074901D01*
X00771453Y0107438D01*
Y0101965D01*
X00770802Y01018999D01*
X00768486D01*
X00765561Y01018215D01*
X00762939Y01016701D01*
X00760798Y0101456D01*
X00759284Y01011937D01*
X007585Y01009013D01*
Y01005985D01*
X00759284Y0100306D01*
X00760798Y01000437D01*
X00762939Y00998296D01*
X00765561Y00996782D01*
X00768486Y00995999D01*
X00771514D01*
X00774439Y00996782D01*
X00777061Y00998296D01*
X00779202Y01000437D01*
X00780716Y0100306D01*
X007815Y01005985D01*
Y010083D01*
X00784367Y01011168D01*
X00784367Y01011168D01*
X00785569Y01012734D01*
X00786325Y01014559D01*
X00786583Y01016517D01*
Y01195482D01*
X00786325Y0119744D01*
X00785569Y01199264D01*
X00784367Y01200831D01*
X00767349Y01217849D01*
X00765782Y01219051D01*
X00763958Y01219807D01*
X00762Y01220065D01*
X00759878D01*
X00758951Y01221451D01*
X00757115Y01222678D01*
X0075495Y01223109D01*
X0074105D01*
X00738885Y01222678D01*
X00737049Y01221451D01*
X00736122Y01220065D01*
X00731795D01*
X00716041Y01235819D01*
X00714474Y01237021D01*
X0071265Y01237777D01*
X00710692Y01238035D01*
X0070321D01*
X00701594Y01239275D01*
X00699142Y01240291D01*
X0069651Y01240637D01*
X00691072D01*
X00690586Y0124181D01*
X00693229Y01244454D01*
X00847288D01*
X00847923Y01243354D01*
X00846869Y01241528D01*
X00845983Y01238222D01*
Y01234799D01*
X00846869Y01231492D01*
X0084858Y01228528D01*
X00851001Y01226107D01*
X00853965Y01224396D01*
X00857271Y0122351D01*
X00860694D01*
X00864001Y01224396D01*
X00866965Y01226107D01*
X00869385Y01228528D01*
X00871097Y01231492D01*
X00871983Y01234799D01*
Y01238222D01*
X00871097Y01241528D01*
X00870042Y01243354D01*
X00870677Y01244454D01*
X00875818D01*
X00876304Y01243281D01*
X00875981Y01242957D01*
X00874598Y01240563D01*
X00874182Y0123901D01*
X00894583D01*
X00894167Y01240563D01*
X00893491Y01241734D01*
X00894507Y01242514D01*
X00897209Y01239812D01*
X00896783Y01238222D01*
Y01234799D01*
X00897669Y01231492D01*
X0089938Y01228528D01*
X00901801Y01226107D01*
X00902218Y01225866D01*
Y01206476D01*
X00902476Y01204518D01*
X00903232Y01202693D01*
X00903718Y0120206D01*
Y01183699D01*
X0090208Y01182061D01*
X00900566Y01179439D01*
X00899207Y01179274D01*
X00898484Y01180526D01*
X00896808Y01182202D01*
X00894756Y01183387D01*
X00893782Y01183648D01*
Y01175D01*
Y01166352D01*
X00894756Y01166613D01*
X00896808Y01167798D01*
X00898484Y01169474D01*
X00899207Y01170726D01*
X00900566Y01170561D01*
X0090208Y01167939D01*
X00903718Y01166301D01*
Y01152516D01*
X00903836Y01151621D01*
Y01138699D01*
X00902198Y01137061D01*
X00900684Y01134439D01*
X008999Y01131514D01*
Y01129198D01*
X00898651Y01127949D01*
X00897449Y01126382D01*
X00896693Y01124558D01*
X00896435Y011226D01*
Y00834D01*
X00637586D01*
Y01305914D01*
X015245D01*
Y01243067D01*
D02*
G37*
G36*
X01658914Y00638698D02*
X01501969D01*
X01501765Y00638782D01*
Y00676709D01*
X01501377Y0067866D01*
X01501018Y00679197D01*
Y0068272D01*
X01507591Y00689293D01*
X01510544Y00688705D01*
X01513656D01*
X01516707Y00689312D01*
X01519582Y00690503D01*
X01522169Y00692231D01*
X01524369Y00694431D01*
X01526097Y00697018D01*
X01527288Y00699893D01*
X01527895Y00702944D01*
Y00706056D01*
X01527288Y00709107D01*
X01526097Y00711982D01*
X01524369Y00714569D01*
X01522169Y00716769D01*
X01519582Y00718497D01*
X01516707Y00719688D01*
X01513656Y00720295D01*
X01510544D01*
X01507493Y00719688D01*
X01504618Y00718497D01*
X01502794Y00717279D01*
X01502491Y00717649D01*
X01502017Y00718038D01*
X01501813Y00718147D01*
Y00718378D01*
X01501765Y0071862D01*
Y00750038D01*
X01501902Y00750311D01*
X01502671Y0075111D01*
X01506329D01*
X01509861Y00752057D01*
X01513029Y00753885D01*
X01515615Y00756472D01*
X01517443Y00759639D01*
X0151839Y00763172D01*
Y00766829D01*
X01517443Y00770362D01*
X01515615Y00773529D01*
X01513029Y00776115D01*
X01509861Y00777944D01*
X01506329Y0077889D01*
X01502671D01*
X01501902Y00779689D01*
X01501765Y00779962D01*
Y00801376D01*
X01501825Y0080168D01*
X01502105Y00801847D01*
X01503416Y00801886D01*
X01529898Y00775404D01*
X0152961Y00774329D01*
Y00770671D01*
X01530557Y00767139D01*
X01532385Y00763971D01*
X01534971Y00761385D01*
X01538139Y00759556D01*
X01541671Y0075861D01*
X01545329D01*
X01548861Y00759556D01*
X01552029Y00761385D01*
X01554615Y00763971D01*
X01556443Y00767139D01*
X0155739Y00770671D01*
Y00774329D01*
X01556443Y00777861D01*
X01554615Y00781029D01*
X01552029Y00783615D01*
X01548861Y00785443D01*
X01545329Y0078639D01*
X01541671D01*
X01540596Y00786102D01*
X01505565Y00821133D01*
Y00841808D01*
X01506465Y0084241D01*
X01507681Y00844229D01*
X01508108Y00846375D01*
Y00859625D01*
X01507681Y00861771D01*
X01506465Y0086359D01*
X01504646Y00864806D01*
X015025Y00865233D01*
X01501018D01*
Y00868765D01*
X015024D01*
X01504585Y008692D01*
X01506437Y00870438D01*
X01507675Y0087229D01*
X01507903Y00873435D01*
X01517904D01*
X01519862Y00873693D01*
X01521686Y00874449D01*
X01523253Y00875651D01*
X01526638Y00879035D01*
X01532829D01*
X01533385Y00878072D01*
X01535971Y00875485D01*
X01539138Y00873657D01*
X01539734Y00873497D01*
Y00872182D01*
X01539104Y00872014D01*
X01536507Y00870514D01*
X01534386Y00868393D01*
X01532886Y00865796D01*
X01532378Y008639D01*
X015435D01*
X01554622D01*
X01554114Y00865796D01*
X01552614Y00868393D01*
X01550494Y00870514D01*
X01548131Y00871878D01*
X01548089Y0087268D01*
X01548246Y00873224D01*
X01549861Y00873657D01*
X01553029Y00875485D01*
X01555615Y00878072D01*
X01557443Y00881239D01*
X0155839Y00884772D01*
Y00888429D01*
X01557443Y00891962D01*
X01555615Y00895129D01*
X01553029Y00897715D01*
X01549861Y00899544D01*
X01546328Y0090049D01*
X01542671D01*
X01539138Y00899544D01*
X01535971Y00897715D01*
X01533385Y00895129D01*
X01532829Y00894165D01*
X01523504D01*
X01523504Y00894165D01*
X01521546Y00893907D01*
X01519722Y00893151D01*
X01518155Y00891949D01*
X01514771Y00888565D01*
X01507903D01*
X01507675Y0088971D01*
X01506437Y00891562D01*
X01504585Y008928D01*
X015024Y00893235D01*
X01501765D01*
Y00974028D01*
X01502217Y00974515D01*
X01502301Y00974547D01*
X01503795Y00974505D01*
X01505947Y00972353D01*
X01509123Y00970519D01*
X01512Y00969749D01*
Y009835D01*
Y00997252D01*
X01509123Y00996481D01*
X01505947Y00994647D01*
X01503794Y00992495D01*
X01502301Y00992454D01*
X01502217Y00992486D01*
X01501765Y00992973D01*
Y01020339D01*
X01501791Y01020428D01*
X01501813Y01020658D01*
X01501977Y01020822D01*
X01502028Y01020899D01*
X01502324Y01021144D01*
X0150255Y01021266D01*
X01502729Y01021414D01*
X0150296D01*
X01503213Y01021464D01*
X01658914D01*
Y00638698D01*
D02*
G37*
G36*
Y01026562D02*
X01502711D01*
X01501966Y01026414D01*
X0150121Y01026336D01*
X01500997Y01026221D01*
X0150076Y01026174D01*
X01500128Y01025752D01*
X0149946Y01025391D01*
X01498514Y01024609D01*
X01498361Y01024421D01*
X0149816Y01024286D01*
X01497738Y01023655D01*
X01497259Y01023066D01*
X01497189Y01022834D01*
X01497055Y01022632D01*
X01496907Y01021887D01*
X01496689Y0102116D01*
X01496714Y01020919D01*
X01496667Y01020681D01*
Y00991756D01*
X01496732Y00991426D01*
X0149671Y0099109D01*
X01496925Y00990459D01*
X01497055Y00989805D01*
X01497242Y00989525D01*
X0149735Y00989207D01*
X01497789Y00988705D01*
X0149816Y00988151D01*
X01498439Y00987964D01*
X014986Y00987782D01*
X0149807Y00985118D01*
Y00981882D01*
X014986Y00979219D01*
X01498439Y00979036D01*
X0149816Y00978849D01*
X01497789Y00978295D01*
X0149735Y00977794D01*
X01497242Y00977475D01*
X01497055Y00977196D01*
X01496925Y00976542D01*
X0149671Y0097591D01*
X01496732Y00975574D01*
X01496667Y00975245D01*
Y00893235D01*
X014916D01*
X01489415Y008928D01*
X01489087Y00892581D01*
X01489D01*
X0148632Y00895261D01*
X01484962Y00896303D01*
X01483381Y00896958D01*
X01481684Y00897181D01*
X01436101D01*
Y009061D01*
X01435701Y0090811D01*
X01434563Y00909813D01*
X01432859Y00910951D01*
X0143085Y00911351D01*
X0142815D01*
X01428046Y0091133D01*
X01427065Y00912136D01*
Y009211D01*
X01427065Y009211D01*
X01426807Y00923058D01*
X01426051Y00924882D01*
X01424849Y00926449D01*
X01424849Y00926449D01*
X01417071Y00934227D01*
X01415504Y00935429D01*
X0141368Y00936185D01*
X01411722Y00936443D01*
X01404347D01*
X01403731Y00936799D01*
X01401569Y00937378D01*
X01399331D01*
X01397169Y00936799D01*
X01395231Y0093568D01*
X01393648Y00934097D01*
X01392529Y00932159D01*
X0139195Y00929997D01*
Y00927759D01*
X01392529Y00925597D01*
X01393648Y00923659D01*
X01395231Y00922076D01*
X01397169Y00920957D01*
X01399331Y00920378D01*
X01401569D01*
X01403731Y00920957D01*
X01404347Y00921313D01*
X01408588D01*
X01411935Y00917966D01*
Y00912136D01*
X01410953Y0091133D01*
X0141085Y00911351D01*
X0140815D01*
X0140614Y00910951D01*
X01404437Y00909813D01*
X01403299Y0090811D01*
X01402899Y009061D01*
Y00902806D01*
X01373299D01*
X01372701Y00903926D01*
X01373497Y00905118D01*
X01374688Y00907993D01*
X01375295Y00911044D01*
Y00914156D01*
X01374688Y00917207D01*
X01373497Y00920082D01*
X01371769Y00922669D01*
X01369569Y00924869D01*
X01366982Y00926598D01*
X01364107Y00927788D01*
X01361056Y00928395D01*
X01357944D01*
X01354893Y00927788D01*
X01352018Y00926598D01*
X01349431Y00924869D01*
X01347231Y00922669D01*
X01345503Y00920082D01*
X01344312Y00917207D01*
X01343705Y00914156D01*
Y00911044D01*
X01344312Y00907993D01*
X01345503Y00905118D01*
X01347231Y00902531D01*
X01349431Y00900331D01*
X01352018Y00898603D01*
X01354893Y00897412D01*
X01357237Y00896946D01*
X01357655Y00895568D01*
X013266Y00864513D01*
X01265998D01*
X01264301Y00864289D01*
X0126272Y00863634D01*
X01261362Y00862592D01*
X01223069Y00824299D01*
X01222027Y00822942D01*
X01221372Y0082136D01*
X01221149Y00819664D01*
Y00805336D01*
X01221372Y00803639D01*
X01222027Y00802058D01*
X01223069Y008007D01*
X012332Y00790569D01*
X01234558Y00789527D01*
X01236139Y00788872D01*
X01237836Y00788649D01*
X01282205D01*
X01283902Y00788872D01*
X01285483Y00789527D01*
X01286841Y00790569D01*
X01293467Y00797195D01*
X01294393Y00796812D01*
X01297444Y00796205D01*
X01300556D01*
X01303607Y00796812D01*
X01306482Y00798003D01*
X01309069Y00799731D01*
X01311269Y00801931D01*
X01312997Y00804518D01*
X01314188Y00807393D01*
X01314795Y00810444D01*
Y00813556D01*
X01314188Y00816607D01*
X01312997Y00819482D01*
X01311269Y00822069D01*
X01309069Y00824269D01*
X01306482Y00825997D01*
X01303607Y00827188D01*
X01300556Y00827795D01*
X01297444D01*
X01294393Y00827188D01*
X01291519Y00825997D01*
X01288931Y00824269D01*
X01286731Y00822069D01*
X01285003Y00819482D01*
X01283812Y00816607D01*
X01283205Y00813556D01*
Y00810444D01*
X01283812Y00807393D01*
X01284196Y00806467D01*
X0127949Y00801761D01*
X01258348D01*
X01257669Y00803031D01*
X01258997Y00805018D01*
X01260188Y00807893D01*
X01260795Y00810944D01*
Y00814055D01*
X01260188Y00817107D01*
X01259804Y00818033D01*
X01286396Y00844624D01*
X01378358D01*
X01378884Y00843354D01*
X01362115Y00826584D01*
X01361056Y00826795D01*
X01357944D01*
X01354893Y00826188D01*
X01352018Y00824997D01*
X01349431Y00823269D01*
X01347231Y00821069D01*
X01345503Y00818482D01*
X01344312Y00815607D01*
X01343705Y00812556D01*
Y00809445D01*
X01344312Y00806393D01*
X01344695Y00805467D01*
X01319069Y00779841D01*
X01317643D01*
X01315946Y00779618D01*
X01314365Y00778963D01*
X01313007Y00777921D01*
X01227778Y00692691D01*
X01221583Y00698886D01*
X01220226Y00699928D01*
X01218644Y00700583D01*
X01216947Y00700806D01*
X01155381D01*
X01153684Y00700583D01*
X01152103Y00699928D01*
X01150745Y00698886D01*
X01150332Y00698474D01*
X01148607Y00699188D01*
X01145556Y00699795D01*
X01142445D01*
X01139393Y00699188D01*
X01136518Y00697998D01*
X0113454Y00696675D01*
X0113327Y00697354D01*
Y00727856D01*
X01142069Y00736655D01*
X0114626D01*
X01146553Y0073595D01*
X01146679Y00735385D01*
X0114494Y00732782D01*
X01143701Y00729792D01*
X0114307Y00726618D01*
Y00723382D01*
X01143701Y00720207D01*
X0114494Y00717217D01*
X01146738Y00714526D01*
X01149026Y00712238D01*
X01151717Y0071044D01*
X01154707Y00709201D01*
X01157882Y0070857D01*
X01161118D01*
X01164292Y00709201D01*
X01167282Y0071044D01*
X01169973Y00712238D01*
X01172262Y00714526D01*
X0117406Y00717217D01*
X01175298Y00720207D01*
X0117593Y00723382D01*
Y00726618D01*
X01175298Y00729792D01*
X0117406Y00732782D01*
X01172262Y00735473D01*
X01169973Y00737762D01*
X01167472Y00739433D01*
X01167045Y00740803D01*
X01182893Y00756651D01*
X01182893Y00756651D01*
X01184095Y00758218D01*
X01184851Y00760042D01*
X01185109Y00762D01*
Y007874D01*
X01185109Y007874D01*
X01184851Y00789358D01*
X01184095Y00791182D01*
X01182893Y00792749D01*
X01182893Y00792749D01*
X01174257Y00801385D01*
X0117269Y00802587D01*
X01170866Y00803343D01*
X01168908Y00803601D01*
X011303D01*
X01128342Y00803343D01*
X01126518Y00802587D01*
X01124951Y00801385D01*
X01107679Y00784113D01*
X01106477Y00782546D01*
X01105721Y00780722D01*
X01105463Y00778764D01*
Y00648462D01*
X01105483Y00648315D01*
X01105469Y00648168D01*
X01108104Y00580368D01*
X01106797Y00579061D01*
X01105284Y00576439D01*
X011045Y00573514D01*
Y00570486D01*
X01105284Y00567561D01*
X01106797Y00564939D01*
X01108939Y00562798D01*
X01111561Y00561284D01*
X01114486Y005605D01*
X01117514D01*
X01120439Y00561284D01*
X01123061Y00562798D01*
X01123848Y00563585D01*
X01125021Y00563099D01*
Y00493576D01*
X01125279Y00491618D01*
X01126035Y00489794D01*
X01127237Y00488227D01*
X01146287Y00469177D01*
X0114563Y00468039D01*
X01145619Y00468041D01*
X01143381D01*
X01141219Y00467462D01*
X01139281Y00466343D01*
X01137698Y00464761D01*
X01136579Y00462822D01*
X01136Y0046066D01*
Y00460313D01*
X01133032Y00457345D01*
X01131654Y00457763D01*
X01131188Y00460107D01*
X01129997Y00462982D01*
X01128269Y00465569D01*
X01126068Y00467769D01*
X01123482Y00469498D01*
X01120607Y00470688D01*
X01117555Y00471295D01*
X01114444D01*
X01111393Y00470688D01*
X01108518Y00469498D01*
X01105931Y00467769D01*
X01103731Y00465569D01*
X01102002Y00462982D01*
X01100812Y00460107D01*
X01100205Y00457056D01*
Y00453945D01*
X01100812Y00450893D01*
X01102002Y00448018D01*
X01103731Y00445432D01*
X01105931Y00443231D01*
X01108518Y00441503D01*
X01111393Y00440312D01*
X01113737Y00439846D01*
X01114155Y00438468D01*
X0108577Y00410083D01*
X010845Y00410609D01*
Y00415D01*
X0106377D01*
X010635Y00415D01*
X010625D01*
X0106223Y00415D01*
X010415D01*
Y00393898D01*
X01028126Y00380524D01*
X01027669Y00380569D01*
X01025469Y00382769D01*
X01022882Y00384497D01*
X01020007Y00385688D01*
X01016956Y00386295D01*
X01013844D01*
X01010793Y00385688D01*
X01007918Y00384497D01*
X01005331Y00382769D01*
X01003131Y00380569D01*
X01001403Y00377982D01*
X01000212Y00375107D01*
X00999605Y00372056D01*
Y00368945D01*
X01000212Y00365893D01*
X01001403Y00363018D01*
X01002194Y00361834D01*
X01001208Y00361025D01*
X00958287Y00403945D01*
Y00624355D01*
X0095946Y00624841D01*
X01021891Y0056241D01*
Y0055755D01*
X01022322Y00555384D01*
X01023549Y00553548D01*
X01025384Y00552322D01*
X0102755Y00551891D01*
X0104145D01*
X01043615Y00552322D01*
X01045451Y00553548D01*
X01046678Y00555384D01*
X01047109Y0055755D01*
Y0056745D01*
X01046678Y00569615D01*
X01045451Y00571451D01*
X01043615Y00572678D01*
X01042737Y00572853D01*
Y00574147D01*
X01043615Y00574322D01*
X01045451Y00575549D01*
X01046378Y00576936D01*
X01074966D01*
X010791Y00572802D01*
Y00570486D01*
X01079883Y00567561D01*
X01081397Y00564939D01*
X01083539Y00562798D01*
X01086161Y00561284D01*
X01089086Y005605D01*
X01092114D01*
X01095039Y00561284D01*
X01097661Y00562798D01*
X01099802Y00564939D01*
X01101316Y00567561D01*
X011021Y00570486D01*
Y00573514D01*
X01101316Y00576439D01*
X01099802Y00579061D01*
X01097661Y00581202D01*
X01095039Y00582716D01*
X01092114Y005835D01*
X01089798D01*
X01083448Y00589849D01*
X01081882Y00591051D01*
X01080057Y00591807D01*
X01078099Y00592065D01*
X01046378D01*
X01045451Y00593451D01*
X01043615Y00594678D01*
X0104145Y00595109D01*
X0102755D01*
X01025384Y00594678D01*
X01023549Y00593451D01*
X01022322Y00591616D01*
X01021891Y0058945D01*
Y00585466D01*
X01020718Y0058498D01*
X00971065Y00634633D01*
Y00774077D01*
X00972238Y00774563D01*
X01016792Y0073001D01*
X01016701Y00729792D01*
X0101607Y00726618D01*
Y00723382D01*
X01016701Y00720207D01*
X0101794Y00717217D01*
X01019738Y00714526D01*
X01022026Y00712238D01*
X01024717Y0071044D01*
X01027707Y00709201D01*
X01030882Y0070857D01*
X01034118D01*
X01037292Y00709201D01*
X01040282Y0071044D01*
X01042973Y00712238D01*
X01045262Y00714526D01*
X0104706Y00717217D01*
X01048298Y00720207D01*
X0104893Y00723382D01*
Y00726618D01*
X01048298Y00729792D01*
X0104706Y00732782D01*
X01045262Y00735473D01*
X01042973Y00737762D01*
X01040282Y0073956D01*
X01037292Y00740798D01*
X01034118Y0074143D01*
X01030882D01*
X01027707Y00740798D01*
X0102749Y00740708D01*
X00983927Y0078427D01*
X00984012Y00785055D01*
X0098449Y00785388D01*
X00985267Y00785721D01*
X009864Y00785251D01*
Y007975D01*
Y00809749D01*
X00985078Y00809201D01*
X00984826Y00809008D01*
X00983687Y0080957D01*
Y0081534D01*
X00983429Y00817298D01*
X00982673Y00819122D01*
X00981471Y00820689D01*
X00979904Y00821891D01*
X0097808Y00822647D01*
X00976122Y00822905D01*
X00954786D01*
X00952828Y00822647D01*
X00951004Y00821891D01*
X00949437Y00820689D01*
X00945373Y00816625D01*
X00944171Y00815058D01*
X00943415Y00813234D01*
X00943344Y00812693D01*
X00942028Y00811863D01*
X00940732Y00812401D01*
X009381Y00812747D01*
X00935469Y00812401D01*
X00934157Y00811857D01*
X00932887Y00812706D01*
Y00816779D01*
X00948108Y00832D01*
X009815D01*
Y00844605D01*
X01102758D01*
X01103244Y00843432D01*
X01077961Y00818149D01*
X01076759Y00816582D01*
X01076003Y00814758D01*
X01075745Y008128D01*
Y00688171D01*
X01053419Y00665845D01*
X010215D01*
X01019542Y00665587D01*
X01017718Y00664831D01*
X01016151Y00663629D01*
X01014949Y00662063D01*
X01014193Y00660238D01*
X0101395Y00658387D01*
X01012549Y00657451D01*
X01011322Y00655616D01*
X01010891Y0065345D01*
Y0063955D01*
X01011322Y00637385D01*
X01012549Y00635549D01*
X01014385Y00634322D01*
X0101655Y00633891D01*
X0102645D01*
X01028616Y00634322D01*
X01030451Y00635549D01*
X01031678Y00637385D01*
X01031853Y00638262D01*
X01033148D01*
X01033322Y00637385D01*
X01034549Y00635549D01*
X01035935Y00634622D01*
Y00630398D01*
X01035579Y00629781D01*
X01035Y00627619D01*
Y00625381D01*
X01035579Y00623219D01*
X01036698Y00621281D01*
X01038281Y00619698D01*
X01040219Y00618579D01*
X01042381Y00618D01*
X01044619D01*
X01046781Y00618579D01*
X01048719Y00619698D01*
X01050302Y00621281D01*
X01051421Y00623219D01*
X01052Y00625381D01*
Y00627619D01*
X01051421Y00629781D01*
X01051065Y00630397D01*
Y00634622D01*
X01052451Y00635549D01*
X01053678Y00637385D01*
X01054109Y0063955D01*
Y00650715D01*
X01056552D01*
X0105851Y00650973D01*
X01060334Y00651729D01*
X01061901Y00652931D01*
X01088659Y00679689D01*
X01088659Y00679689D01*
X01089861Y00681256D01*
X01090617Y0068308D01*
X01090875Y00685038D01*
Y00809667D01*
X01162573Y00881365D01*
X01162573Y00881365D01*
X01163775Y00882932D01*
X01164531Y00884756D01*
X01164789Y00886714D01*
Y00907796D01*
X01164789Y00907796D01*
X01164531Y00909754D01*
X01163775Y00911578D01*
X01162573Y00913145D01*
X01162573Y00913145D01*
X01148349Y00927369D01*
X01146782Y00928571D01*
X01144958Y00929327D01*
X01143Y00929585D01*
X01076312D01*
X01076145Y00930855D01*
X01076177Y00930863D01*
X01078115Y00931982D01*
X01079698Y00933565D01*
X01080817Y00935503D01*
X01081396Y00937665D01*
Y00939903D01*
X01080817Y00942065D01*
X01079698Y00944003D01*
X01078115Y00945586D01*
X01076177Y00946705D01*
X01074015Y00947284D01*
X01071777D01*
X01069615Y00946705D01*
X01067677Y00945586D01*
X01066094Y00944003D01*
X01064975Y00942065D01*
X01064396Y00939903D01*
Y00937665D01*
X01064975Y00935503D01*
X01066094Y00933565D01*
X01067677Y00931982D01*
X01069615Y00930863D01*
X01069647Y00930855D01*
X0106948Y00929585D01*
X01012444D01*
X01012444Y00929585D01*
X01010486Y00929327D01*
X01008662Y00928571D01*
X01007095Y00927369D01*
X01007095Y00927369D01*
X00986521Y00906795D01*
X00985348Y00907281D01*
Y01060402D01*
X015245D01*
X01526451Y0106079D01*
X01528105Y01061895D01*
X0152921Y01063549D01*
X01529598Y010655D01*
Y01099141D01*
X0152921Y01101092D01*
X01528592Y01102017D01*
X0152906Y01102718D01*
X01530298Y01105708D01*
X0153093Y01108882D01*
Y01112118D01*
X01530298Y01115293D01*
X0152906Y01118283D01*
X01528592Y01118983D01*
X0152921Y01119909D01*
X01529598Y01121859D01*
Y011615D01*
X01530014D01*
X01532939Y01162284D01*
X01535561Y01163798D01*
X01537702Y01165939D01*
X01539216Y01168561D01*
X0154Y01171486D01*
Y01174514D01*
X01539216Y01177439D01*
X01537702Y01180061D01*
X01535561Y01182202D01*
X01532939Y01183716D01*
X01530014Y011845D01*
X01529598D01*
Y01218885D01*
X01530139Y012193D01*
X01533562D01*
X01536868Y01220186D01*
X01539832Y01221897D01*
X01542253Y01224318D01*
X01543964Y01227282D01*
X0154485Y01230588D01*
Y01234011D01*
X01543964Y01237318D01*
X01542253Y01240282D01*
X01539832Y01242702D01*
X01536868Y01244414D01*
X01533562Y012453D01*
X01530139D01*
X01529598Y01245715D01*
Y01305914D01*
X01658914D01*
Y01026562D01*
D02*
G37*
G36*
X01405448Y00849714D02*
Y008399D01*
X01405654Y00838866D01*
X01406239Y00837989D01*
X01407116Y00837404D01*
X0140815Y00837198D01*
X01408762D01*
X01409437Y00836187D01*
X01411141Y00835049D01*
X0141315Y00834649D01*
X0141585D01*
X01417859Y00835049D01*
X01419245Y00835974D01*
X01419864Y00835166D01*
X01422416Y00832614D01*
X01423774Y00831572D01*
X01425355Y00830917D01*
X01427052Y00830694D01*
X01484375D01*
X01486072Y00830917D01*
X01487653Y00831572D01*
X01489011Y00832614D01*
X01489262Y00832865D01*
X01490435Y00832379D01*
Y00818D01*
X01490693Y00816042D01*
X01491449Y00814218D01*
X01492651Y00812651D01*
X01498289Y00807013D01*
X0149816Y00805482D01*
X01497055Y00803829D01*
X01496667Y00801878D01*
Y00779586D01*
X01496732Y00779256D01*
X0149671Y0077892D01*
X01496925Y00778289D01*
X01497055Y00777635D01*
X01496516Y00776429D01*
X01495971Y00776115D01*
X01493385Y00773529D01*
X01491557Y00770362D01*
X0149061Y00766829D01*
Y00763172D01*
X01491557Y00759639D01*
X01493385Y00756472D01*
X01495971Y00753885D01*
X01496516Y00753571D01*
X01497055Y00752365D01*
X01496925Y00751712D01*
X0149671Y0075108D01*
X01496732Y00750745D01*
X01496667Y00750415D01*
Y00718118D01*
X01496813Y00717384D01*
X01496886Y00716638D01*
X01497005Y00716415D01*
X01497055Y00716167D01*
X01497471Y00715545D01*
X01497824Y00714884D01*
X0149802Y00714724D01*
X0149816Y00714513D01*
X01498783Y00714097D01*
X01499256Y00713708D01*
X01498103Y00711982D01*
X01496912Y00709107D01*
X01496305Y00706056D01*
Y00702944D01*
X01496893Y00699991D01*
X01411651Y00614749D01*
X01410449Y00613182D01*
X01409693Y00611358D01*
X01409435Y006094D01*
Y00579837D01*
X01408165Y0057887D01*
X01407243Y00578991D01*
X01383816D01*
X01299286Y00663521D01*
X01299773Y00664694D01*
X0131542D01*
X01315798Y00664039D01*
X01317939Y00661898D01*
X01320561Y00660384D01*
X01323486Y006596D01*
X01326514D01*
X01329439Y00660384D01*
X01332061Y00661898D01*
X01334202Y00664039D01*
X01335716Y00666661D01*
X013365Y00669586D01*
Y00672614D01*
X01335716Y00675539D01*
X01334202Y00678161D01*
X01332061Y00680302D01*
X01329439Y00681816D01*
X01326514Y006826D01*
X01323486D01*
X01320561Y00681816D01*
X01317939Y00680302D01*
X01315798Y00678161D01*
X01315593Y00677806D01*
X01295264D01*
X01294778Y00678979D01*
X01324198Y007084D01*
X01326514D01*
X01329439Y00709184D01*
X01332061Y00710698D01*
X01334202Y00712839D01*
X01335716Y00715461D01*
X013365Y00718386D01*
Y00721414D01*
X01335716Y00724339D01*
X01334202Y00726961D01*
X01332061Y00729102D01*
X01329439Y00730616D01*
X01326514Y007314D01*
X01323486D01*
X01320561Y00730616D01*
X01317939Y00729102D01*
X01315798Y00726961D01*
X01314284Y00724339D01*
X013135Y00721414D01*
Y00719098D01*
X01281458Y00687057D01*
X01279903Y00687297D01*
X01279761Y00687511D01*
X01278884Y00688096D01*
X0127785Y00688302D01*
X01266056D01*
Y00690702D01*
X01269136Y00693782D01*
X01270178Y0069514D01*
X01270833Y00696721D01*
X01271056Y00698418D01*
X01270833Y00700115D01*
X01270177Y00701696D01*
X01269136Y00703054D01*
X01267778Y00704096D01*
X01266536Y0070461D01*
X01266053Y00705924D01*
X01290216Y00730086D01*
X01295142D01*
X01296839Y0073031D01*
X0129842Y00730965D01*
X01299778Y00732006D01*
X0130082Y00733364D01*
X01301475Y00734945D01*
X01301698Y00736642D01*
X01301475Y00738339D01*
X0130082Y0073992D01*
X01299778Y00741278D01*
X0129842Y0074232D01*
X01297943Y00742517D01*
X01297645Y00744016D01*
X01320358Y00766729D01*
X01321785D01*
X01323482Y00766953D01*
X01325063Y00767607D01*
X01326421Y00768649D01*
X01353967Y00796196D01*
X01354893Y00795812D01*
X01357944Y00795205D01*
X01361056D01*
X01364107Y00795812D01*
X01366982Y00797003D01*
X01369569Y00798731D01*
X01371769Y00800931D01*
X01373497Y00803518D01*
X01374688Y00806393D01*
X01375295Y00809445D01*
Y00812556D01*
X01374688Y00815607D01*
X01373497Y00818482D01*
X0137312Y00819046D01*
X01404275Y008502D01*
X01405448Y00849714D01*
D02*
G37*
G36*
X00896435Y00738378D02*
X00895049Y00737451D01*
X00893822Y00735615D01*
X00893391Y0073345D01*
Y00732449D01*
X0089228Y00732065D01*
X00890322Y00731807D01*
X00888497Y00731051D01*
X00886931Y00729849D01*
X00811666Y00654585D01*
X00809644Y00655422D01*
X00805733Y006562D01*
X00801746D01*
X00797836Y00655422D01*
X00794153Y00653897D01*
X00790838Y00651682D01*
X00789534Y00650378D01*
X00788361Y00650864D01*
Y00655663D01*
X00841198Y007085D01*
X00843514D01*
X00846439Y00709284D01*
X00849061Y00710798D01*
X00851202Y00712939D01*
X00852716Y00715561D01*
X008535Y00718486D01*
Y00721514D01*
X00852716Y00724439D01*
X00851202Y00727061D01*
X00849061Y00729202D01*
X00846439Y00730716D01*
X00843514Y007315D01*
X00840486D01*
X00837561Y00730716D01*
X00834939Y00729202D01*
X00832798Y00727061D01*
X00831284Y00724439D01*
X00829925Y00724274D01*
X00829202Y00725526D01*
X00827526Y00727202D01*
X00825474Y00728387D01*
X008245Y00728648D01*
Y0072D01*
X00822D01*
Y007175D01*
X00813352D01*
X00813613Y00716526D01*
X00814798Y00714474D01*
X00816474Y00712798D01*
X00818526Y00711613D01*
X00820571Y00711066D01*
X00821164Y00709863D01*
X00775447Y00664145D01*
X00774245Y00662579D01*
X00773489Y00660754D01*
X00773231Y00658796D01*
Y00617946D01*
X00773489Y00615988D01*
X00774245Y00614164D01*
X00775447Y00612597D01*
X00781144Y006069D01*
X00793515Y00594529D01*
Y00590108D01*
X00792342Y00589622D01*
X00791242Y00590722D01*
X00787927Y00592937D01*
X00784244Y00594462D01*
X00780333Y0059524D01*
X00776346D01*
X00772436Y00594462D01*
X00768753Y00592937D01*
X00765438Y00590722D01*
X00762618Y00587902D01*
X00760403Y00584587D01*
X00758878Y00580904D01*
X007581Y00576994D01*
Y00573007D01*
X00758878Y00569096D01*
X00759715Y00567074D01*
X00741157Y00548515D01*
X00739955Y00546949D01*
X00739199Y00545124D01*
X00738941Y00543166D01*
Y00452639D01*
X00704177Y00417875D01*
X00703712Y00418D01*
X00700289D01*
X00696982Y00417114D01*
X00694018Y00415402D01*
X00691598Y00412982D01*
X00689886Y00410018D01*
X00689Y00406711D01*
Y00403288D01*
X00689886Y00399982D01*
X00691598Y00397018D01*
X00694018Y00394597D01*
X00696982Y00392886D01*
X00700289Y00392D01*
X00703712D01*
X00707018Y00392886D01*
X00709982Y00394597D01*
X00712403Y00397018D01*
X00714114Y00399982D01*
X00715Y00403288D01*
Y00406711D01*
X00714875Y00407177D01*
X00751855Y00444157D01*
X00753057Y00445723D01*
X00753813Y00447548D01*
X00754071Y00449506D01*
Y00540033D01*
X00770414Y00556376D01*
X00772436Y00555538D01*
X00776346Y0055476D01*
X00777902D01*
X00778388Y00553587D01*
X00775447Y00550646D01*
X00774245Y00549079D01*
X00773489Y00547255D01*
X00773231Y00545297D01*
Y00465074D01*
X00773489Y00463116D01*
X00774245Y00461292D01*
X00775447Y00459725D01*
X00995421Y00239751D01*
X00996988Y00238549D01*
X00998812Y00237793D01*
X0100077Y00237535D01*
X01056856D01*
X01057097Y00237118D01*
X01059518Y00234697D01*
X01062482Y00232986D01*
X01065788Y002321D01*
X01069212D01*
X01072518Y00232986D01*
X01075482Y00234697D01*
X01077903Y00237118D01*
X01079614Y00240082D01*
X010805Y00243388D01*
Y00246811D01*
X01080375Y00247277D01*
X01120557Y00287458D01*
X01122018Y00285998D01*
X01124982Y00284286D01*
X01128288Y002834D01*
X01131711D01*
X01135018Y00284286D01*
X01136875Y00285359D01*
X01137975Y00284724D01*
Y00279533D01*
X01136802Y00279047D01*
X01136447Y00279402D01*
X01134053Y00280785D01*
X011325Y00281201D01*
Y00271D01*
Y002608D01*
X0113278Y00260875D01*
X01133438Y00259736D01*
X01132177Y00258475D01*
X01131711Y002586D01*
X01128288D01*
X01124982Y00257714D01*
X01122018Y00256003D01*
X01119597Y00253582D01*
X01117886Y00250618D01*
X01117Y00247312D01*
Y00243889D01*
X01117886Y00240582D01*
X01119597Y00237618D01*
X01122018Y00235198D01*
X01124982Y00233486D01*
X01128288Y002326D01*
X01131711D01*
X01135018Y00233486D01*
X01137982Y00235198D01*
X01140402Y00237618D01*
X01142114Y00240582D01*
X01143Y00243889D01*
Y00247312D01*
X01142875Y00247777D01*
X01150889Y00255791D01*
X01152091Y00257358D01*
X01152847Y00259183D01*
X01153105Y0026114D01*
Y00373365D01*
X01154375Y00373891D01*
X01178402Y00349864D01*
X0117976Y00348822D01*
X01181341Y00348167D01*
X01183037Y00347944D01*
X01611381D01*
X01613077Y00348167D01*
X01614659Y00348822D01*
X01616016Y00349864D01*
X01622636Y00356484D01*
X01623678Y00357841D01*
X01624332Y00359423D01*
X01624556Y00361119D01*
Y00400406D01*
X01624332Y00402103D01*
X01623678Y00403684D01*
X01622636Y00405042D01*
X01610142Y00417536D01*
X01608784Y00418578D01*
X01607203Y00419232D01*
X01605506Y00419456D01*
X01593494D01*
X01591797Y00419232D01*
X01590216Y00418578D01*
X01588858Y00417536D01*
X01580364Y00409042D01*
X01579322Y00407684D01*
X01578667Y00406103D01*
X01578444Y00404406D01*
Y003875D01*
X01578667Y00385803D01*
X01579322Y00384222D01*
X01580364Y00382864D01*
X01586386Y00376842D01*
Y003658D01*
X01585776Y00365056D01*
X01187904D01*
X01187437Y00365623D01*
X01187865Y00367023D01*
X01189218Y00367386D01*
X01192182Y00369097D01*
X01194603Y00371518D01*
X01196217Y00374313D01*
X011969Y00374404D01*
X01197584Y00374313D01*
X01199198Y00371518D01*
X01201618Y00369097D01*
X01204583Y00367386D01*
X01207889Y003665D01*
X01211312D01*
X01214618Y00367386D01*
X01217582Y00369097D01*
X01220003Y00371518D01*
X01221617Y00374313D01*
X012223Y00374404D01*
X01222984Y00374313D01*
X01224598Y00371518D01*
X01227018Y00369097D01*
X01229983Y00367386D01*
X01233289Y003665D01*
X01236712D01*
X01240018Y00367386D01*
X01242982Y00369097D01*
X01245403Y00371518D01*
X01247017Y00374313D01*
X012477Y00374404D01*
X01248384Y00374313D01*
X01249998Y00371518D01*
X01252418Y00369097D01*
X01255383Y00367386D01*
X01258689Y003665D01*
X01262112D01*
X01265418Y00367386D01*
X01268382Y00369097D01*
X01270803Y00371518D01*
X01272417Y00374313D01*
X012731Y00374404D01*
X01273784Y00374313D01*
X01275398Y00371518D01*
X01277818Y00369097D01*
X01280782Y00367386D01*
X01284089Y003665D01*
X01287512D01*
X01290818Y00367386D01*
X01293783Y00369097D01*
X01296203Y00371518D01*
X01297817Y00374313D01*
X012985Y00374404D01*
X01299184Y00374313D01*
X01300798Y00371518D01*
X01303218Y00369097D01*
X01306183Y00367386D01*
X01309489Y003665D01*
X01312912D01*
X01316218Y00367386D01*
X01319182Y00369097D01*
X01321603Y00371518D01*
X01323217Y00374313D01*
X013239Y00374404D01*
X01324584Y00374313D01*
X01326198Y00371518D01*
X01328618Y00369097D01*
X01331582Y00367386D01*
X01334889Y003665D01*
X01338312D01*
X01341618Y00367386D01*
X01344583Y00369097D01*
X01347003Y00371518D01*
X01348617Y00374313D01*
X013493Y00374404D01*
X01349984Y00374313D01*
X01351598Y00371518D01*
X01354018Y00369097D01*
X01356983Y00367386D01*
X01360289Y003665D01*
X01363712D01*
X01367018Y00367386D01*
X01369982Y00369097D01*
X01372403Y00371518D01*
X01374017Y00374313D01*
X013747Y00374404D01*
X01375384Y00374313D01*
X01376998Y00371518D01*
X01379418Y00369097D01*
X01382383Y00367386D01*
X01385689Y003665D01*
X01389112D01*
X01392418Y00367386D01*
X01395383Y00369097D01*
X01397803Y00371518D01*
X01399417Y00374313D01*
X014001Y00374404D01*
X01400784Y00374313D01*
X01402398Y00371518D01*
X01404818Y00369097D01*
X01407782Y00367386D01*
X01411089Y003665D01*
X01414512D01*
X01417818Y00367386D01*
X01420782Y00369097D01*
X01423203Y00371518D01*
X01424817Y00374313D01*
X014255Y00374404D01*
X01426184Y00374313D01*
X01427798Y00371518D01*
X01430218Y00369097D01*
X01433183Y00367386D01*
X01436489Y003665D01*
X01439912D01*
X01443218Y00367386D01*
X01446183Y00369097D01*
X01448603Y00371518D01*
X01450314Y00374482D01*
X014512Y00377788D01*
Y00381211D01*
X01450314Y00384518D01*
X01448603Y00387482D01*
X01446183Y00389902D01*
X01443218Y00391614D01*
X01439912Y003925D01*
X01436489D01*
X01433183Y00391614D01*
X01430218Y00389902D01*
X01427798Y00387482D01*
X01426184Y00384687D01*
X014255Y00384596D01*
X01424817Y00384687D01*
X01423203Y00387482D01*
X01420782Y00389902D01*
X01417818Y00391614D01*
X01414512Y003925D01*
X01411089D01*
X01407782Y00391614D01*
X01404818Y00389902D01*
X01402398Y00387482D01*
X01400784Y00384687D01*
X014001Y00384596D01*
X01399417Y00384687D01*
X01397803Y00387482D01*
X01395383Y00389902D01*
X01392418Y00391614D01*
X01389112Y003925D01*
X01385689D01*
X01382383Y00391614D01*
X01379418Y00389902D01*
X01376998Y00387482D01*
X01375384Y00384687D01*
X013747Y00384596D01*
X01374017Y00384687D01*
X01372403Y00387482D01*
X01369982Y00389902D01*
X01367018Y00391614D01*
X01363712Y003925D01*
X01360289D01*
X01356983Y00391614D01*
X01354018Y00389902D01*
X01351598Y00387482D01*
X01349984Y00384687D01*
X013493Y00384596D01*
X01348617Y00384687D01*
X01347003Y00387482D01*
X01344583Y00389902D01*
X01341618Y00391614D01*
X01338312Y003925D01*
X01334889D01*
X01331582Y00391614D01*
X01328618Y00389902D01*
X01326198Y00387482D01*
X01324584Y00384687D01*
X013239Y00384596D01*
X01323217Y00384687D01*
X01321603Y00387482D01*
X01319182Y00389902D01*
X01316218Y00391614D01*
X01312912Y003925D01*
X01309489D01*
X01306183Y00391614D01*
X01303218Y00389902D01*
X01300798Y00387482D01*
X01299184Y00384687D01*
X012985Y00384596D01*
X01297817Y00384687D01*
X01296203Y00387482D01*
X01293783Y00389902D01*
X01290818Y00391614D01*
X01287512Y003925D01*
X01284089D01*
X01280782Y00391614D01*
X01277818Y00389902D01*
X01275398Y00387482D01*
X01273784Y00384687D01*
X012731Y00384596D01*
X01272417Y00384687D01*
X01270803Y00387482D01*
X01268382Y00389902D01*
X01265418Y00391614D01*
X01262112Y003925D01*
X01259068D01*
X01258438Y00393666D01*
X01269638Y00404866D01*
X01452665D01*
X01454362Y00405089D01*
X01455943Y00405744D01*
X01457301Y00406786D01*
X01486736Y00436221D01*
X01487777Y00437579D01*
X01488145Y00438466D01*
X01488432Y0043916D01*
X01488656Y00440857D01*
Y00484163D01*
X01488432Y0048586D01*
X01487777Y00487441D01*
X01486736Y00488799D01*
X01474399Y00501136D01*
X01473041Y00502178D01*
X0147146Y00502833D01*
X01469763Y00503056D01*
X01395716D01*
X01342228Y00556544D01*
X01341802Y00557781D01*
X01342921Y00559719D01*
X013435Y00561881D01*
Y00564119D01*
X01343016Y00565924D01*
X01343699Y00567194D01*
X01349676D01*
X01379506Y00537364D01*
X01380864Y00536322D01*
X01382445Y00535667D01*
X01384142Y00535444D01*
X013845D01*
Y005295D01*
X01398641D01*
X01398667Y00529303D01*
X01399322Y00527722D01*
X01400364Y00526364D01*
X01407864Y00518864D01*
X01409222Y00517822D01*
X01410803Y00517167D01*
X014125Y00516944D01*
X01576284D01*
X01586926Y00506302D01*
X015865Y00504711D01*
Y00501288D01*
X01587386Y00497982D01*
X01589097Y00495018D01*
X01591518Y00492597D01*
X01594482Y00490886D01*
X01597789Y0049D01*
X01601212D01*
X01604518Y00490886D01*
X01607482Y00492597D01*
X01609902Y00495018D01*
X01611614Y00497982D01*
X016125Y00501288D01*
Y00504711D01*
X01611614Y00508018D01*
X01609902Y00510982D01*
X01607482Y00513402D01*
X01604687Y00515016D01*
X01604596Y005157D01*
X01604687Y00516383D01*
X01607482Y00517997D01*
X01609902Y00520418D01*
X01611614Y00523382D01*
X016125Y00526688D01*
Y00530111D01*
X01611614Y00533418D01*
X01609902Y00536382D01*
X01607482Y00538802D01*
X01604687Y00540416D01*
X01604596Y005411D01*
X01604687Y00541783D01*
X01607482Y00543397D01*
X01609902Y00545818D01*
X01611614Y00548782D01*
X016125Y00552088D01*
Y00555511D01*
X01611614Y00558818D01*
X01609902Y00561782D01*
X01607482Y00564202D01*
X01604518Y00565914D01*
X01601212Y005668D01*
X01597789D01*
X01594482Y00565914D01*
X01591518Y00564202D01*
X01589097Y00561782D01*
X01587386Y00558818D01*
X015865Y00555511D01*
Y00552088D01*
X01587386Y00548782D01*
X01589097Y00545818D01*
X01591518Y00543397D01*
X01594313Y00541783D01*
X01594404Y005411D01*
X01594313Y00540416D01*
X01591518Y00538802D01*
X01589097Y00536382D01*
X01588274Y00534956D01*
X014275D01*
Y005545D01*
X01424565D01*
Y00606266D01*
X01427535Y00609237D01*
X014285Y00608405D01*
X014285Y00607269D01*
Y005865D01*
X01437802D01*
X01456394Y00567907D01*
X01456579Y00567219D01*
X01457698Y00565281D01*
X0145928Y00563699D01*
X01461219Y00562579D01*
X0146338Y00562D01*
X01465618D01*
X0146778Y00562579D01*
X01469719Y00563699D01*
X01471301Y00565281D01*
X0147242Y00567219D01*
X01473Y00569381D01*
Y00571619D01*
X0147242Y00573781D01*
X01471301Y00575719D01*
X01469719Y00577302D01*
X0146778Y00578421D01*
X01467093Y00578605D01*
X014465Y00599198D01*
Y006085D01*
X01429766D01*
X01428594Y006085D01*
X01427763Y00609465D01*
X01495493Y00677195D01*
X01496667Y00676709D01*
Y00637D01*
X01497055Y00635049D01*
X0149816Y00633395D01*
X01499814Y0063229D01*
X01501765Y00631902D01*
X01658914D01*
Y00181586D01*
X00637586D01*
Y00828902D01*
X00896435D01*
Y00738378D01*
D02*
G37*
G36*
X00943157Y00690262D02*
Y00648392D01*
X00941942Y00648023D01*
X00941381Y00648862D01*
X00938562Y00651682D01*
X00935247Y00653897D01*
X00931564Y00655422D01*
X00927653Y006562D01*
X00923666D01*
X00919756Y00655422D01*
X00916073Y00653897D01*
X00912758Y00651682D01*
X00909938Y00648862D01*
X00907723Y00645547D01*
X00906198Y00641864D01*
X0090542Y00637954D01*
Y00633967D01*
X00906198Y00630056D01*
X00907723Y00626373D01*
X00909938Y00623058D01*
X00912758Y00620239D01*
X00916073Y00618024D01*
X00919756Y00616498D01*
X00923666Y0061572D01*
X00927653D01*
X00931564Y00616498D01*
X00935247Y00618024D01*
X00938562Y00620239D01*
X00941381Y00623058D01*
X00941942Y00623897D01*
X00943157Y00623528D01*
Y00526472D01*
X00941942Y00526103D01*
X00941381Y00526942D01*
X00938562Y00529762D01*
X00935247Y00531977D01*
X00931564Y00533502D01*
X00927653Y0053428D01*
X00923666D01*
X00919756Y00533502D01*
X00916073Y00531977D01*
X00912758Y00529762D01*
X00909938Y00526942D01*
X00907723Y00523627D01*
X00906198Y00519944D01*
X0090542Y00516034D01*
Y00512047D01*
X00906198Y00508136D01*
X00907723Y00504453D01*
X00909938Y00501138D01*
X00912758Y00498319D01*
X00916073Y00496104D01*
X00918095Y00495266D01*
Y0041134D01*
X00918353Y00409382D01*
X00919109Y00407558D01*
X00919196Y00407444D01*
X00919Y00406711D01*
Y00403288D01*
X00919886Y00399982D01*
X00921598Y00397018D01*
X00924018Y00394597D01*
X00926982Y00392886D01*
X00930289Y00392D01*
X00933712D01*
X00937018Y00392886D01*
X00939982Y00394597D01*
X00942403Y00397018D01*
X00942717Y00397562D01*
X00943985Y00397479D01*
X00944171Y0039703D01*
X00945373Y00395463D01*
X01050285Y00290551D01*
X01050285Y00290551D01*
X01051852Y00289349D01*
X01053676Y00288593D01*
X01055634Y00288335D01*
X01055634Y00288335D01*
X01056856D01*
X01057097Y00287918D01*
X01059518Y00285497D01*
X01062482Y00283786D01*
X01065788Y002829D01*
X01069212D01*
X01072518Y00283786D01*
X01075482Y00285497D01*
X01077903Y00287918D01*
X01079614Y00290882D01*
X010805Y00294188D01*
Y00297611D01*
X01079614Y00300918D01*
X01077903Y00303882D01*
X01075482Y00306302D01*
X01072518Y00308014D01*
X01069212Y003089D01*
X01065788D01*
X01062482Y00308014D01*
X01059518Y00306302D01*
X01057724Y00304508D01*
X01005925Y00356308D01*
X01006734Y00357294D01*
X01007918Y00356503D01*
X01010793Y00355312D01*
X01013844Y00354705D01*
X01016956D01*
X01020007Y00355312D01*
X01022882Y00356503D01*
X01025469Y00358231D01*
X01027669Y00360431D01*
X01029394Y00363014D01*
X01030758Y00363193D01*
X01032582Y00363949D01*
X01034149Y00365151D01*
X01057349Y00388351D01*
X01057349Y00388351D01*
X01058551Y00389918D01*
X01058585Y0039D01*
X0106223D01*
X010625Y0039D01*
X010635D01*
X0106377Y0039D01*
X010845D01*
Y00395944D01*
X01087458D01*
X01089155Y00396167D01*
X01090736Y00396822D01*
X01092094Y00397864D01*
X01136705Y00442475D01*
X01137975Y00441949D01*
Y00308077D01*
X01136875Y00307442D01*
X01135018Y00308514D01*
X01131711Y003094D01*
X01128288D01*
X01124982Y00308514D01*
X01122018Y00306803D01*
X01119597Y00304382D01*
X01119356Y00303965D01*
X011188D01*
X01116842Y00303707D01*
X01115018Y00302951D01*
X01113451Y00301749D01*
X01078764Y00267062D01*
X01077625Y00267719D01*
X01077701Y00268D01*
X0107D01*
Y00260299D01*
X01070281Y00260375D01*
X01070938Y00259236D01*
X01069677Y00257975D01*
X01069212Y002581D01*
X01065788D01*
X01062482Y00257214D01*
X01059518Y00255502D01*
X01057097Y00253082D01*
X01056856Y00252665D01*
X01003904D01*
X00788361Y00468207D01*
Y00499136D01*
X00789534Y00499622D01*
X00790838Y00498319D01*
X00794153Y00496104D01*
X00797836Y00494578D01*
X00801746Y004938D01*
X00805733D01*
X00809644Y00494578D01*
X00813327Y00496104D01*
X00816642Y00498319D01*
X00819461Y00501138D01*
X00821676Y00504453D01*
X00823202Y00508136D01*
X0082398Y00512047D01*
Y00516034D01*
X00823202Y00519944D01*
X00821676Y00523627D01*
X00819461Y00526942D01*
X00816642Y00529762D01*
X00813327Y00531977D01*
X00811304Y00532814D01*
Y00539786D01*
X00812429Y00540911D01*
X00813631Y00542478D01*
X00814387Y00544302D01*
X00814645Y0054626D01*
Y00563409D01*
X00941984Y00690748D01*
X00943157Y00690262D01*
D02*
G37*
%LPC*%
G36*
X01045315Y01246711D02*
Y0123901D01*
X01053016D01*
X010526Y01240563D01*
X01051217Y01242957D01*
X01049262Y01244912D01*
X01046868Y01246294D01*
X01045315Y01246711D01*
D02*
G37*
G36*
X01040315D02*
X01038762Y01246294D01*
X01036368Y01244912D01*
X01034413Y01242957D01*
X01033031Y01240563D01*
X01032615Y0123901D01*
X01040315D01*
Y01246711D01*
D02*
G37*
G36*
X0119368Y0124571D02*
Y0123801D01*
X01201381D01*
X01200965Y01239563D01*
X01199582Y01241957D01*
X01197627Y01243912D01*
X01195233Y01245294D01*
X0119368Y0124571D01*
D02*
G37*
G36*
X0118868D02*
X01187127Y01245294D01*
X01184733Y01243912D01*
X01182778Y01241957D01*
X01181396Y01239563D01*
X0118098Y0123801D01*
X0118868D01*
Y0124571D01*
D02*
G37*
G36*
X01357747Y0124521D02*
Y0123751D01*
X01365448D01*
X01365032Y01239063D01*
X01363649Y01241457D01*
X01361695Y01243412D01*
X013593Y01244794D01*
X01357747Y0124521D01*
D02*
G37*
G36*
X01352747D02*
X01351195Y01244794D01*
X013488Y01243412D01*
X01346845Y01241457D01*
X01345463Y01239063D01*
X01345047Y0123751D01*
X01352747D01*
Y0124521D01*
D02*
G37*
G36*
X0150895Y012425D02*
Y012348D01*
X01516651D01*
X01516234Y01236353D01*
X01514852Y01238747D01*
X01512897Y01240702D01*
X01510503Y01242084D01*
X0150895Y012425D01*
D02*
G37*
G36*
X0150395D02*
X01502397Y01242084D01*
X01500003Y01240702D01*
X01498048Y01238747D01*
X01496666Y01236353D01*
X0149625Y012348D01*
X0150395D01*
Y012425D01*
D02*
G37*
G36*
X01053016Y0123401D02*
X01045315D01*
Y0122631D01*
X01046868Y01226726D01*
X01049262Y01228108D01*
X01051217Y01230063D01*
X010526Y01232457D01*
X01053016Y0123401D01*
D02*
G37*
G36*
X01040315D02*
X01032615D01*
X01033031Y01232457D01*
X01034413Y01230063D01*
X01036368Y01228108D01*
X01038762Y01226726D01*
X01040315Y0122631D01*
Y0123401D01*
D02*
G37*
G36*
X00894583D02*
X00886883D01*
Y0122631D01*
X00888436Y01226726D01*
X0089083Y01228108D01*
X00892785Y01230063D01*
X00894167Y01232457D01*
X00894583Y0123401D01*
D02*
G37*
G36*
X00881883D02*
X00874182D01*
X00874598Y01232457D01*
X00875981Y01230063D01*
X00877936Y01228108D01*
X0088033Y01226726D01*
X00881883Y0122631D01*
Y0123401D01*
D02*
G37*
G36*
X01201381Y0123301D02*
X0119368D01*
Y01225309D01*
X01195233Y01225725D01*
X01197627Y01227108D01*
X01199582Y01229063D01*
X01200965Y01231457D01*
X01201381Y0123301D01*
D02*
G37*
G36*
X0118868D02*
X0118098D01*
X01181396Y01231457D01*
X01182778Y01229063D01*
X01184733Y01227108D01*
X01187127Y01225725D01*
X0118868Y01225309D01*
Y0123301D01*
D02*
G37*
G36*
X01365448Y0123251D02*
X01357747D01*
Y01224809D01*
X013593Y01225226D01*
X01361695Y01226608D01*
X01363649Y01228563D01*
X01365032Y01230957D01*
X01365448Y0123251D01*
D02*
G37*
G36*
X01352747D02*
X01345047D01*
X01345463Y01230957D01*
X01346845Y01228563D01*
X013488Y01226608D01*
X01351195Y01225226D01*
X01352747Y01224809D01*
Y0123251D01*
D02*
G37*
G36*
X01069927Y0124951D02*
X01066504D01*
X01063197Y01248624D01*
X01060233Y01246913D01*
X01057813Y01244492D01*
X01056101Y01241528D01*
X01055215Y01238222D01*
Y01234799D01*
X01056101Y01231492D01*
X01057813Y01228528D01*
X01060233Y01226107D01*
X01063197Y01224396D01*
X01066504Y0122351D01*
X01069927D01*
X01073233Y01224396D01*
X01076197Y01226107D01*
X01078618Y01228528D01*
X01080329Y01231492D01*
X01081215Y01234799D01*
Y01238222D01*
X01080329Y01241528D01*
X01078618Y01244492D01*
X01076197Y01246913D01*
X01073233Y01248624D01*
X01069927Y0124951D01*
D02*
G37*
G36*
X01218292Y0124851D02*
X01214869D01*
X01211562Y01247624D01*
X01208598Y01245912D01*
X01206178Y01243492D01*
X01204466Y01240528D01*
X0120358Y01237221D01*
Y01233798D01*
X01204466Y01230492D01*
X01206178Y01227528D01*
X01208598Y01225107D01*
X01211562Y01223396D01*
X01214869Y0122251D01*
X01218292D01*
X01221598Y01223396D01*
X01224562Y01225107D01*
X01226983Y01227528D01*
X01228694Y01230492D01*
X0122958Y01233798D01*
Y01237221D01*
X01228694Y01240528D01*
X01226983Y01243492D01*
X01224562Y01245912D01*
X01221598Y01247624D01*
X01218292Y0124851D01*
D02*
G37*
G36*
X01167492D02*
X01164069D01*
X01160762Y01247624D01*
X01157798Y01245912D01*
X01155378Y01243492D01*
X01153666Y01240528D01*
X0115278Y01237221D01*
Y01233798D01*
X01153666Y01230492D01*
X01155378Y01227528D01*
X01157798Y01225107D01*
X01160762Y01223396D01*
X01164069Y0122251D01*
X01167492D01*
X01170798Y01223396D01*
X01173762Y01225107D01*
X01176183Y01227528D01*
X01177894Y01230492D01*
X0117878Y01233798D01*
Y01237221D01*
X01177894Y01240528D01*
X01176183Y01243492D01*
X01173762Y01245912D01*
X01170798Y01247624D01*
X01167492Y0124851D01*
D02*
G37*
G36*
X01516651Y012298D02*
X0150895D01*
Y01222099D01*
X01510503Y01222515D01*
X01512897Y01223898D01*
X01514852Y01225853D01*
X01516234Y01228247D01*
X01516651Y012298D01*
D02*
G37*
G36*
X0150395D02*
X0149625D01*
X01496666Y01228247D01*
X01498048Y01225853D01*
X01500003Y01223898D01*
X01502397Y01222515D01*
X0150395Y01222099D01*
Y012298D01*
D02*
G37*
G36*
X01382359Y0124801D02*
X01378936D01*
X0137563Y01247124D01*
X01372665Y01245413D01*
X01370245Y01242992D01*
X01368533Y01240028D01*
X01367648Y01236721D01*
Y01233298D01*
X01368533Y01229992D01*
X01370245Y01227028D01*
X01372665Y01224607D01*
X0137563Y01222896D01*
X01378936Y0122201D01*
X01382359D01*
X01385665Y01222896D01*
X0138863Y01224607D01*
X0139105Y01227028D01*
X01392762Y01229992D01*
X01393647Y01233298D01*
Y01236721D01*
X01392762Y01240028D01*
X0139105Y01242992D01*
X0138863Y01245413D01*
X01385665Y01247124D01*
X01382359Y0124801D01*
D02*
G37*
G36*
X01331559D02*
X01328136D01*
X0132483Y01247124D01*
X01321865Y01245413D01*
X01319445Y01242992D01*
X01317733Y01240028D01*
X01316848Y01236721D01*
Y01233298D01*
X01317733Y01229992D01*
X01319445Y01227028D01*
X01321865Y01224607D01*
X0132483Y01222896D01*
X01328136Y0122201D01*
X01331559D01*
X01334865Y01222896D01*
X0133783Y01224607D01*
X0134025Y01227028D01*
X01341962Y01229992D01*
X01342847Y01233298D01*
Y01236721D01*
X01341962Y01240028D01*
X0134025Y01242992D01*
X0133783Y01245413D01*
X01334865Y01247124D01*
X01331559Y0124801D01*
D02*
G37*
G36*
X01482762Y012453D02*
X01479339D01*
X01476032Y01244414D01*
X01473068Y01242702D01*
X01470648Y01240282D01*
X01468936Y01237318D01*
X0146805Y01234011D01*
Y01230588D01*
X01468936Y01227282D01*
X01470648Y01224318D01*
X01473068Y01221897D01*
X01476032Y01220186D01*
X01479339Y012193D01*
X01482762D01*
X01486068Y01220186D01*
X01489032Y01221897D01*
X01491453Y01224318D01*
X01493164Y01227282D01*
X0149405Y01230588D01*
Y01234011D01*
X01493164Y01237318D01*
X01491453Y01240282D01*
X01489032Y01242702D01*
X01486068Y01244414D01*
X01482762Y012453D01*
D02*
G37*
G36*
X01071229Y011865D02*
X01068201D01*
X01065276Y01185716D01*
X01062654Y01184202D01*
X01060513Y01182061D01*
X01058999Y01179439D01*
X0105764Y01179274D01*
X01056917Y01180526D01*
X01055241Y01182202D01*
X01053189Y01183387D01*
X01052215Y01183648D01*
Y01175D01*
Y01166352D01*
X01053189Y01166613D01*
X01055241Y01167798D01*
X01056917Y01169474D01*
X0105764Y01170726D01*
X01058999Y01170561D01*
X01060513Y01167939D01*
X01062654Y01165798D01*
X01065276Y01164284D01*
X01068201Y011635D01*
X01071229D01*
X01074154Y01164284D01*
X01076776Y01165798D01*
X01078917Y01167939D01*
X01080431Y01170561D01*
X01081215Y01173486D01*
Y01176514D01*
X01080431Y01179439D01*
X01078917Y01182061D01*
X01076776Y01184202D01*
X01074154Y01185716D01*
X01071229Y011865D01*
D02*
G37*
G36*
X01219594Y011855D02*
X01216566D01*
X01213642Y01184716D01*
X01211019Y01183203D01*
X01208878Y01181061D01*
X01207364Y01178439D01*
X01206005Y01178274D01*
X01205282Y01179526D01*
X01203606Y01181202D01*
X01201554Y01182387D01*
X0120058Y01182648D01*
Y01174D01*
Y01165353D01*
X01201554Y01165613D01*
X01203606Y01166798D01*
X01205282Y01168474D01*
X01206005Y01169727D01*
X01207364Y01169561D01*
X01208878Y01166939D01*
X01211019Y01164798D01*
X01213642Y01163284D01*
X01216566Y011625D01*
X01219594D01*
X01222519Y01163284D01*
X01225142Y01164798D01*
X01227283Y01166939D01*
X01228797Y01169561D01*
X0122958Y01172486D01*
Y01175514D01*
X01228797Y01178439D01*
X01227283Y01181061D01*
X01225142Y01183203D01*
X01222519Y01184716D01*
X01219594Y011855D01*
D02*
G37*
G36*
X01383662Y01185D02*
X01380634D01*
X01377709Y01184216D01*
X01375087Y01182702D01*
X01372945Y01180561D01*
X01371431Y01177939D01*
X01370072Y01177774D01*
X01369349Y01179026D01*
X01367674Y01180702D01*
X01365621Y01181887D01*
X01364648Y01182147D01*
Y011735D01*
Y01164852D01*
X01365621Y01165113D01*
X01367674Y01166298D01*
X01369349Y01167974D01*
X01370072Y01169226D01*
X01371431Y01169061D01*
X01372945Y01166439D01*
X01375087Y01164297D01*
X01377709Y01162784D01*
X01380634Y01162D01*
X01383662D01*
X01386586Y01162784D01*
X01389209Y01164297D01*
X0139135Y01166439D01*
X01392864Y01169061D01*
X01393648Y01171986D01*
Y01175014D01*
X01392864Y01177939D01*
X0139135Y01180561D01*
X01389209Y01182702D01*
X01386586Y01184216D01*
X01383662Y01185D01*
D02*
G37*
G36*
X00888782Y01183648D02*
X00887809Y01183387D01*
X00885756Y01182202D01*
X00884081Y01180526D01*
X00882896Y01178474D01*
X00882635Y011775D01*
X00888782D01*
Y01183648D01*
D02*
G37*
G36*
X01047215D02*
X01046241Y01183387D01*
X01044189Y01182202D01*
X01042513Y01180526D01*
X01041328Y01178474D01*
X01041067Y011775D01*
X01047215D01*
Y01183648D01*
D02*
G37*
G36*
X0119558Y01182648D02*
X01194606Y01182387D01*
X01192554Y01181202D01*
X01190878Y01179526D01*
X01189693Y01177474D01*
X01189432Y011765D01*
X0119558D01*
Y01182648D01*
D02*
G37*
G36*
X01359648Y01182147D02*
X01358674Y01181887D01*
X01356622Y01180702D01*
X01354946Y01179026D01*
X01353761Y01176974D01*
X013535Y01176D01*
X01359648D01*
Y01182147D01*
D02*
G37*
G36*
X01506Y01181647D02*
X01505026Y01181387D01*
X01502974Y01180202D01*
X01501298Y01178526D01*
X01500113Y01176474D01*
X01499852Y011755D01*
X01506D01*
Y01181647D01*
D02*
G37*
G36*
X01047215Y011725D02*
X01041067D01*
X01041328Y01171526D01*
X01042513Y01169474D01*
X01044189Y01167798D01*
X01046241Y01166613D01*
X01047215Y01166352D01*
Y011725D01*
D02*
G37*
G36*
X00888782D02*
X00882635D01*
X00882896Y01171526D01*
X00884081Y01169474D01*
X00885756Y01167798D01*
X00887809Y01166613D01*
X00888782Y01166352D01*
Y011725D01*
D02*
G37*
G36*
X0119558Y011715D02*
X01189432D01*
X01189693Y01170526D01*
X01190878Y01168474D01*
X01192554Y01166798D01*
X01194606Y01165613D01*
X0119558Y01165353D01*
Y011715D01*
D02*
G37*
G36*
X01359648Y01171D02*
X013535D01*
X01353761Y01170026D01*
X01354946Y01167974D01*
X01356622Y01166298D01*
X01358674Y01165113D01*
X01359648Y01164852D01*
Y01171D01*
D02*
G37*
G36*
X01506Y011705D02*
X01499852D01*
X01500113Y01169526D01*
X01501298Y01167474D01*
X01502974Y01165798D01*
X01505026Y01164613D01*
X01506Y01164352D01*
Y011705D01*
D02*
G37*
G36*
X010479Y01138647D02*
Y011325D01*
X01054048D01*
X01053787Y01133474D01*
X01052602Y01135526D01*
X01050926Y01137202D01*
X01048874Y01138386D01*
X010479Y01138647D01*
D02*
G37*
G36*
X008885D02*
Y011325D01*
X00894648D01*
X00894387Y01133474D01*
X00893202Y01135526D01*
X00891526Y01137202D01*
X00889474Y01138386D01*
X008885Y01138647D01*
D02*
G37*
G36*
X010429D02*
X01041926Y01138386D01*
X01039874Y01137202D01*
X01038198Y01135526D01*
X01037013Y01133474D01*
X01036752Y011325D01*
X010429D01*
Y01138647D01*
D02*
G37*
G36*
X008835D02*
X00882526Y01138386D01*
X00880474Y01137202D01*
X00878799Y01135526D01*
X00877614Y01133474D01*
X00877353Y011325D01*
X008835D01*
Y01138647D01*
D02*
G37*
G36*
X011956Y01137648D02*
Y011315D01*
X01201748D01*
X01201487Y01132474D01*
X01200302Y01134526D01*
X01198626Y01136202D01*
X01196574Y01137387D01*
X011956Y01137648D01*
D02*
G37*
G36*
X011906D02*
X01189626Y01137387D01*
X01187574Y01136202D01*
X01185898Y01134526D01*
X01184713Y01132474D01*
X01184452Y011315D01*
X011906D01*
Y01137648D01*
D02*
G37*
G36*
X013591Y01137148D02*
Y01131D01*
X01365248D01*
X01364987Y01131974D01*
X01363802Y01134026D01*
X01362126Y01135702D01*
X01360074Y01136887D01*
X013591Y01137148D01*
D02*
G37*
G36*
X013541D02*
X01353126Y01136887D01*
X01351074Y01135702D01*
X01349398Y01134026D01*
X01348214Y01131974D01*
X01347953Y01131D01*
X013541D01*
Y01137148D01*
D02*
G37*
G36*
X01054048Y011275D02*
X010479D01*
Y01121352D01*
X01048874Y01121613D01*
X01050926Y01122798D01*
X01052602Y01124474D01*
X01053787Y01126526D01*
X01054048Y011275D01*
D02*
G37*
G36*
X00894648D02*
X008885D01*
Y01121352D01*
X00889474Y01121613D01*
X00891526Y01122798D01*
X00893202Y01124474D01*
X00894387Y01126526D01*
X00894648Y011275D01*
D02*
G37*
G36*
X010429D02*
X01036752D01*
X01037013Y01126526D01*
X01038198Y01124474D01*
X01039874Y01122798D01*
X01041926Y01121613D01*
X010429Y01121352D01*
Y011275D01*
D02*
G37*
G36*
X008835D02*
X00877353D01*
X00877614Y01126526D01*
X00878799Y01124474D01*
X00880474Y01122798D01*
X00882526Y01121613D01*
X008835Y01121352D01*
Y011275D01*
D02*
G37*
G36*
X01201748Y011265D02*
X011956D01*
Y01120352D01*
X01196574Y01120613D01*
X01198626Y01121798D01*
X01200302Y01123474D01*
X01201487Y01125526D01*
X01201748Y011265D01*
D02*
G37*
G36*
X011906D02*
X01184452D01*
X01184713Y01125526D01*
X01185898Y01123474D01*
X01187574Y01121798D01*
X01189626Y01120613D01*
X011906Y01120352D01*
Y011265D01*
D02*
G37*
G36*
X01365248Y01126D02*
X013591D01*
Y01119853D01*
X01360074Y01120114D01*
X01362126Y01121298D01*
X01363802Y01122974D01*
X01364987Y01125026D01*
X01365248Y01126D01*
D02*
G37*
G36*
X013541D02*
X01347953D01*
X01348214Y01125026D01*
X01349398Y01122974D01*
X01351074Y01121298D01*
X01353126Y01120114D01*
X013541Y01119853D01*
Y01126D01*
D02*
G37*
G36*
X01072314Y011415D02*
X01069286D01*
X01066361Y01140716D01*
X01063739Y01139202D01*
X01061598Y01137061D01*
X01060084Y01134439D01*
X010593Y01131514D01*
Y01128486D01*
X01060084Y01125561D01*
X01061598Y01122939D01*
X01063739Y01120798D01*
X01066361Y01119284D01*
X01069286Y011185D01*
X01072314D01*
X01075239Y01119284D01*
X01077861Y01120798D01*
X01080002Y01122939D01*
X01081516Y01125561D01*
X010823Y01128486D01*
Y01131514D01*
X01081516Y01134439D01*
X01080002Y01137061D01*
X01077861Y01139202D01*
X01075239Y01140716D01*
X01072314Y011415D01*
D02*
G37*
G36*
X01220014Y011405D02*
X01216986D01*
X01214061Y01139716D01*
X01211439Y01138202D01*
X01209298Y01136061D01*
X01207784Y01133439D01*
X01207Y01130514D01*
Y01127486D01*
X01207784Y01124561D01*
X01209298Y01121939D01*
X01211439Y01119798D01*
X01214061Y01118284D01*
X01216986Y011175D01*
X01220014D01*
X01222939Y01118284D01*
X01225561Y01119798D01*
X01227702Y01121939D01*
X01229216Y01124561D01*
X0123Y01127486D01*
Y01130514D01*
X01229216Y01133439D01*
X01227702Y01136061D01*
X01225561Y01138202D01*
X01222939Y01139716D01*
X01220014Y011405D01*
D02*
G37*
G36*
X01383514Y0114D02*
X01380486D01*
X01377561Y01139216D01*
X01374939Y01137702D01*
X01372798Y01135561D01*
X01371284Y01132939D01*
X013705Y01130014D01*
Y01126986D01*
X01371284Y01124061D01*
X01372798Y01121439D01*
X01374939Y01119298D01*
X01377561Y01117784D01*
X01380486Y01117D01*
X01383514D01*
X01386439Y01117784D01*
X01389061Y01119298D01*
X01391203Y01121439D01*
X01392717Y01124061D01*
X013935Y01126986D01*
Y01130014D01*
X01392717Y01132939D01*
X01391203Y01135561D01*
X01389061Y01137702D01*
X01386439Y01139216D01*
X01383514Y0114D01*
D02*
G37*
G36*
X01512Y01124252D02*
X01509123Y01123481D01*
X01505947Y01121647D01*
X01503353Y01119053D01*
X01501519Y01115877D01*
X01500748Y01113D01*
X01512D01*
Y01124252D01*
D02*
G37*
G36*
Y01108D02*
X01500748D01*
X01501519Y01105123D01*
X01503353Y01101947D01*
X01505947Y01099353D01*
X01509123Y0109752D01*
X01512Y01096749D01*
Y01108D01*
D02*
G37*
G36*
X007625Y01090948D02*
X00761526Y01090687D01*
X00759474Y01089502D01*
X00757798Y01087826D01*
X00756613Y01085774D01*
X00756352Y010848D01*
X007625D01*
Y01090948D01*
D02*
G37*
G36*
X00713647Y010825D02*
X007075D01*
Y01076352D01*
X00708474Y01076613D01*
X00710526Y01077798D01*
X00712202Y01079474D01*
X00713387Y01081526D01*
X00713647Y010825D01*
D02*
G37*
G36*
X007025D02*
X00696352D01*
X00696613Y01081526D01*
X00697798Y01079474D01*
X00699474Y01077798D01*
X00701526Y01076613D01*
X007025Y01076352D01*
Y010825D01*
D02*
G37*
G36*
X007625Y010798D02*
X00756352D01*
X00756613Y01078826D01*
X00757798Y01076774D01*
X00759474Y01075098D01*
X00761526Y01073913D01*
X007625Y01073652D01*
Y010798D01*
D02*
G37*
G36*
X009465Y01064297D02*
Y01052D01*
X00958797D01*
X00958424Y01053875D01*
X00957293Y01056605D01*
X00955651Y01059062D01*
X00953562Y01061151D01*
X00951105Y01062793D01*
X00948375Y01063924D01*
X009465Y01064297D01*
D02*
G37*
G36*
X009415D02*
X00939625Y01063924D01*
X00936895Y01062793D01*
X00934438Y01061151D01*
X00932349Y01059062D01*
X00930707Y01056605D01*
X00929577Y01053875D01*
X00929204Y01052D01*
X009415D01*
Y01064297D01*
D02*
G37*
G36*
X00958797Y01047D02*
X009465D01*
Y01034704D01*
X00948375Y01035077D01*
X00951105Y01036207D01*
X00953562Y01037849D01*
X00955651Y01039938D01*
X00957293Y01042395D01*
X00958424Y01045125D01*
X00958797Y01047D01*
D02*
G37*
G36*
X009415D02*
X00929204D01*
X00929577Y01045125D01*
X00930707Y01042395D01*
X00932349Y01039938D01*
X00934438Y01037849D01*
X00936895Y01036207D01*
X00939625Y01035077D01*
X009415Y01034704D01*
Y01047D01*
D02*
G37*
G36*
X00851728Y010911D02*
X00848773D01*
X00845875Y01090524D01*
X00843145Y01089393D01*
X00840688Y01087751D01*
X00838599Y01085662D01*
X00836957Y01083205D01*
X00835827Y01080475D01*
X0083525Y01077577D01*
Y01074623D01*
X00835827Y01071725D01*
X00836957Y01068995D01*
X00838599Y01066538D01*
X00840688Y01064449D01*
X00842686Y01063114D01*
Y01038286D01*
X00840688Y01036951D01*
X00838599Y01034862D01*
X00836957Y01032405D01*
X00835827Y01029675D01*
X0083525Y01026777D01*
Y01023823D01*
X00835827Y01020925D01*
X00836957Y01018195D01*
X00838599Y01015738D01*
X00840688Y01013649D01*
X00843145Y01012007D01*
X00845875Y01010876D01*
X00848773Y010103D01*
X00851728D01*
X00854626Y01010876D01*
X00857355Y01012007D01*
X00859812Y01013649D01*
X00861901Y01015738D01*
X00863543Y01018195D01*
X00864674Y01020925D01*
X0086525Y01023823D01*
Y01026777D01*
X00864674Y01029675D01*
X00863543Y01032405D01*
X00861901Y01034862D01*
X00859812Y01036951D01*
X00857815Y01038286D01*
Y01063114D01*
X00859812Y01064449D01*
X00861901Y01066538D01*
X00863543Y01068995D01*
X00864674Y01071725D01*
X0086525Y01074623D01*
Y01077577D01*
X00864674Y01080475D01*
X00863543Y01083205D01*
X00861901Y01085662D01*
X00859812Y01087751D01*
X00857355Y01089393D01*
X00854626Y01090524D01*
X00851728Y010911D01*
D02*
G37*
G36*
X007725Y00990746D02*
Y00984599D01*
X00778648D01*
X00778387Y00985573D01*
X00777202Y00987625D01*
X00775526Y009893D01*
X00773474Y00990485D01*
X007725Y00990746D01*
D02*
G37*
G36*
X007675D02*
X00766526Y00990485D01*
X00764474Y009893D01*
X00762798Y00987625D01*
X00761613Y00985573D01*
X00761352Y00984599D01*
X007675D01*
Y00990746D01*
D02*
G37*
G36*
X007025Y0098326D02*
X00696352D01*
X00696613Y00982286D01*
X00697798Y00980234D01*
X00699474Y00978558D01*
X00701526Y00977373D01*
X007025Y00977112D01*
Y0098326D01*
D02*
G37*
G36*
X00945724Y01012D02*
X00942277D01*
X00938896Y01011327D01*
X00935711Y01010008D01*
X00932844Y01008093D01*
X00930407Y01005656D01*
X00928492Y01002789D01*
X00927173Y00999604D01*
X009265Y00996224D01*
Y00992776D01*
X00927173Y00989395D01*
X00928492Y0098621D01*
X00930407Y00983344D01*
X00932844Y00980907D01*
X00935711Y00978992D01*
X00938896Y00977672D01*
X00942277Y00977D01*
X00945724D01*
X00949105Y00977672D01*
X0095229Y00978992D01*
X00955156Y00980907D01*
X00957593Y00983344D01*
X00959508Y0098621D01*
X00960828Y00989395D01*
X009615Y00992776D01*
Y00996224D01*
X00960828Y00999604D01*
X00959508Y01002789D01*
X00957593Y01005656D01*
X00955156Y01008093D01*
X0095229Y01010008D01*
X00949105Y01011327D01*
X00945724Y01012D01*
D02*
G37*
G36*
X00778648Y00979599D02*
X007725D01*
Y00973451D01*
X00773474Y00973712D01*
X00775526Y00974897D01*
X00777202Y00976572D01*
X00778387Y00978625D01*
X00778648Y00979599D01*
D02*
G37*
G36*
X007675D02*
X00761352D01*
X00761613Y00978625D01*
X00762798Y00976572D01*
X00764474Y00974897D01*
X00766526Y00973712D01*
X007675Y00973451D01*
Y00979599D01*
D02*
G37*
G36*
X00945724Y00957D02*
X00942277D01*
X00938896Y00956328D01*
X00935711Y00955009D01*
X00932844Y00953093D01*
X00930407Y00950656D01*
X00928492Y0094779D01*
X00927173Y00944605D01*
X009265Y00941224D01*
Y00937777D01*
X00927173Y00934396D01*
X00928492Y00931211D01*
X00930407Y00928345D01*
X00932844Y00925907D01*
X00935711Y00923992D01*
X00938896Y00922673D01*
X00942277Y00922D01*
X00945724D01*
X00949105Y00922673D01*
X0095229Y00923992D01*
X00955156Y00925907D01*
X00957593Y00928345D01*
X00959508Y00931211D01*
X00960828Y00934396D01*
X009615Y00937777D01*
Y00941224D01*
X00960828Y00944605D01*
X00959508Y0094779D01*
X00957593Y00950656D01*
X00955156Y00953093D01*
X0095229Y00955009D01*
X00949105Y00956328D01*
X00945724Y00957D01*
D02*
G37*
G36*
X00706514Y0101726D02*
X00703486D01*
X00700561Y01016476D01*
X00697939Y01014962D01*
X00695798Y01012821D01*
X00694284Y01010199D01*
X006935Y01007274D01*
Y01004246D01*
X00694284Y01001321D01*
X00695798Y00998699D01*
X00697939Y00996557D01*
X00700561Y00995043D01*
X00700726Y00993684D01*
X00699474Y00992962D01*
X00697798Y00991286D01*
X00696613Y00989234D01*
X00696352Y0098826D01*
X00705D01*
Y0098576D01*
X007075D01*
Y00977112D01*
X00708474Y00977373D01*
X00710239Y00978392D01*
X00711509Y00977912D01*
Y00916707D01*
X00707677Y00912875D01*
X00707212Y00913D01*
X00703789D01*
X00700482Y00912114D01*
X00697518Y00910403D01*
X00695098Y00907982D01*
X00693386Y00905018D01*
X006925Y00901712D01*
Y00898289D01*
X00693386Y00894982D01*
X00695098Y00892018D01*
X00697518Y00889598D01*
X00700482Y00887886D01*
X00703789Y00887D01*
X00707212D01*
X00710518Y00887886D01*
X00713482Y00889598D01*
X00715903Y00892018D01*
X00717614Y00894982D01*
X007185Y00898289D01*
Y00901712D01*
X00718375Y00902177D01*
X00724423Y00908225D01*
X00724423Y00908225D01*
X00725625Y00909792D01*
X00726381Y00911616D01*
X00726639Y00913574D01*
X00726639Y00913574D01*
Y00991685D01*
X00726639Y00991686D01*
X00726381Y00993643D01*
X00725625Y00995468D01*
X00724423Y00997035D01*
X00724423Y00997035D01*
X007165Y01004958D01*
Y01007274D01*
X00715716Y01010199D01*
X00714202Y01012821D01*
X00712061Y01014962D01*
X00709439Y01016476D01*
X00706514Y0101726D01*
D02*
G37*
G36*
X00758Y00910201D02*
Y009025D01*
X00765701D01*
X00765285Y00904053D01*
X00763902Y00906447D01*
X00761947Y00908402D01*
X00759553Y00909785D01*
X00758Y00910201D01*
D02*
G37*
G36*
X00753D02*
X00751447Y00909785D01*
X00749053Y00908402D01*
X00747098Y00906447D01*
X00745716Y00904053D01*
X007453Y009025D01*
X00753D01*
Y00910201D01*
D02*
G37*
G36*
X00765701Y008975D02*
X00758D01*
Y008898D01*
X00759553Y00890216D01*
X00761947Y00891598D01*
X00763902Y00893553D01*
X00765285Y00895947D01*
X00765701Y008975D01*
D02*
G37*
G36*
X00753D02*
X007453D01*
X00745716Y00895947D01*
X00747098Y00893553D01*
X00749053Y00891598D01*
X00751447Y00890216D01*
X00753Y008898D01*
Y008975D01*
D02*
G37*
G36*
X00851728Y00926D02*
X00848773D01*
X00845875Y00925424D01*
X00843145Y00924293D01*
X00840688Y00922651D01*
X00838599Y00920562D01*
X00836957Y00918105D01*
X00835827Y00915375D01*
X0083525Y00912477D01*
Y00909523D01*
X00835827Y00906625D01*
X00836957Y00903895D01*
X00838599Y00901438D01*
X00840688Y00899349D01*
X00842686Y00898014D01*
Y00873186D01*
X00840688Y00871851D01*
X00838599Y00869762D01*
X00836957Y00867305D01*
X00835827Y00864575D01*
X0083525Y00861677D01*
Y00858723D01*
X00835827Y00855825D01*
X00836957Y00853095D01*
X00838599Y00850638D01*
X00840688Y00848549D01*
X00843145Y00846907D01*
X00845875Y00845776D01*
X00848773Y008452D01*
X00851728D01*
X00854626Y00845776D01*
X00857355Y00846907D01*
X00859812Y00848549D01*
X00861901Y00850638D01*
X00863543Y00853095D01*
X00864674Y00855825D01*
X0086525Y00858723D01*
Y00861677D01*
X00864674Y00864575D01*
X00863543Y00867305D01*
X00861901Y00869762D01*
X00859812Y00871851D01*
X00857815Y00873186D01*
Y00898014D01*
X00859812Y00899349D01*
X00861901Y00901438D01*
X00863543Y00903895D01*
X00864674Y00906625D01*
X0086525Y00909523D01*
Y00912477D01*
X00864674Y00915375D01*
X00863543Y00918105D01*
X00861901Y00920562D01*
X00859812Y00922651D01*
X00857355Y00924293D01*
X00854626Y00925424D01*
X00851728Y00926D01*
D02*
G37*
G36*
X01517Y00997252D02*
Y00986D01*
X01528251D01*
X01527481Y00988877D01*
X01525647Y00992053D01*
X01523053Y00994647D01*
X01519877Y00996481D01*
X01517Y00997252D01*
D02*
G37*
G36*
X01547Y00986622D02*
Y00978D01*
X01555622D01*
X01555114Y00979897D01*
X01553614Y00982494D01*
X01551493Y00984614D01*
X01548896Y00986114D01*
X01547Y00986622D01*
D02*
G37*
G36*
X01542D02*
X01540103Y00986114D01*
X01537506Y00984614D01*
X01535386Y00982494D01*
X01533886Y00979897D01*
X01533378Y00978D01*
X01542D01*
Y00986622D01*
D02*
G37*
G36*
X01528251Y00981D02*
X01517D01*
Y00969749D01*
X01519877Y00970519D01*
X01523053Y00972353D01*
X01525647Y00974947D01*
X01527481Y00978123D01*
X01528251Y00981D01*
D02*
G37*
G36*
X01555622Y00973D02*
X01547D01*
Y00964378D01*
X01548896Y00964886D01*
X01551493Y00966386D01*
X01553614Y00968507D01*
X01555114Y00971104D01*
X01555622Y00973D01*
D02*
G37*
G36*
X01542D02*
X01533378D01*
X01533886Y00971104D01*
X01535386Y00968507D01*
X01537506Y00966386D01*
X01540103Y00964886D01*
X01542Y00964378D01*
Y00973D01*
D02*
G37*
G36*
X016035Y00942101D02*
Y009344D01*
X01611201D01*
X01610784Y00935953D01*
X01609402Y00938347D01*
X01607447Y00940302D01*
X01605053Y00941684D01*
X016035Y00942101D01*
D02*
G37*
G36*
X015985D02*
X01596947Y00941684D01*
X01594553Y00940302D01*
X01592598Y00938347D01*
X01591216Y00935953D01*
X015908Y009344D01*
X015985D01*
Y00942101D01*
D02*
G37*
G36*
X01611201Y009294D02*
X016035D01*
Y009217D01*
X01605053Y00922116D01*
X01607447Y00923498D01*
X01609402Y00925453D01*
X01610784Y00927847D01*
X01611201Y009294D01*
D02*
G37*
G36*
X015985D02*
X015908D01*
X01591216Y00927847D01*
X01592598Y00925453D01*
X01594553Y00923498D01*
X01596947Y00922116D01*
X015985Y009217D01*
Y009294D01*
D02*
G37*
G36*
X01602712Y009195D02*
X01599289D01*
X01595982Y00918614D01*
X01593018Y00916903D01*
X01590598Y00914482D01*
X01588886Y00911518D01*
X01588Y00908212D01*
Y00904789D01*
X01588886Y00901482D01*
X01590598Y00898518D01*
X01593018Y00896097D01*
X01595813Y00894484D01*
X01595904Y008938D01*
X01595813Y00893117D01*
X01593018Y00891503D01*
X01590598Y00889082D01*
X01588886Y00886118D01*
X01588Y00882812D01*
Y00879389D01*
X01588886Y00876082D01*
X01590598Y00873118D01*
X01593018Y00870697D01*
X01595982Y00868986D01*
X01599289Y008681D01*
X01602712D01*
X01606018Y00868986D01*
X01608982Y00870697D01*
X01611403Y00873118D01*
X01613114Y00876082D01*
X01614Y00879389D01*
Y00882812D01*
X01613114Y00886118D01*
X01611403Y00889082D01*
X01608982Y00891503D01*
X01606187Y00893117D01*
X01606096Y008938D01*
X01606187Y00894484D01*
X01608982Y00896097D01*
X01611403Y00898518D01*
X01613114Y00901482D01*
X01614Y00904789D01*
Y00908212D01*
X01613114Y00911518D01*
X01611403Y00914482D01*
X01608982Y00916903D01*
X01606018Y00918614D01*
X01602712Y009195D01*
D02*
G37*
G36*
X01554622Y008589D02*
X01546D01*
Y00850278D01*
X01547896Y00850786D01*
X01550494Y00852286D01*
X01552614Y00854406D01*
X01554114Y00857003D01*
X01554622Y008589D01*
D02*
G37*
G36*
X01541D02*
X01532378D01*
X01532886Y00857003D01*
X01534386Y00854406D01*
X01536507Y00852286D01*
X01539104Y00850786D01*
X01541Y00850278D01*
Y008589D01*
D02*
G37*
G36*
X016035Y00827101D02*
Y008194D01*
X01611201D01*
X01610784Y00820953D01*
X01609402Y00823347D01*
X01607447Y00825302D01*
X01605053Y00826684D01*
X016035Y00827101D01*
D02*
G37*
G36*
X015985D02*
X01596947Y00826684D01*
X01594553Y00825302D01*
X01592598Y00823347D01*
X01591216Y00820953D01*
X015908Y008194D01*
X015985D01*
Y00827101D01*
D02*
G37*
G36*
X01611201Y008144D02*
X016035D01*
Y008067D01*
X01605053Y00807116D01*
X01607447Y00808498D01*
X01609402Y00810453D01*
X01610784Y00812847D01*
X01611201Y008144D01*
D02*
G37*
G36*
X015985D02*
X015908D01*
X01591216Y00812847D01*
X01592598Y00810453D01*
X01594553Y00808498D01*
X01596947Y00807116D01*
X015985Y008067D01*
Y008144D01*
D02*
G37*
G36*
X01602712Y008045D02*
X01599289D01*
X01595982Y00803614D01*
X01593018Y00801903D01*
X01590598Y00799482D01*
X01588886Y00796518D01*
X01588Y00793212D01*
Y00789789D01*
X01588886Y00786482D01*
X01590598Y00783518D01*
X01593018Y00781097D01*
X01595813Y00779484D01*
X01595904Y007788D01*
X01595813Y00778117D01*
X01593018Y00776503D01*
X01590598Y00774082D01*
X01588886Y00771118D01*
X01588Y00767812D01*
Y00764389D01*
X01588886Y00761082D01*
X01590598Y00758118D01*
X01593018Y00755697D01*
X01595982Y00753986D01*
X01599289Y007531D01*
X01602712D01*
X01606018Y00753986D01*
X01608982Y00755697D01*
X01611403Y00758118D01*
X01613114Y00761082D01*
X01614Y00764389D01*
Y00767812D01*
X01613114Y00771118D01*
X01611403Y00774082D01*
X01608982Y00776503D01*
X01606187Y00778117D01*
X01606096Y007788D01*
X01606187Y00779484D01*
X01608982Y00781097D01*
X01611403Y00783518D01*
X01613114Y00786482D01*
X01614Y00789789D01*
Y00793212D01*
X01613114Y00796518D01*
X01611403Y00799482D01*
X01608982Y00801903D01*
X01606018Y00803614D01*
X01602712Y008045D01*
D02*
G37*
G36*
X01574Y00753752D02*
Y007425D01*
X01585251D01*
X01584481Y00745377D01*
X01582647Y00748553D01*
X01580053Y00751147D01*
X01576877Y00752981D01*
X01574Y00753752D01*
D02*
G37*
G36*
X01569D02*
X01566123Y00752981D01*
X01562947Y00751147D01*
X01560353Y00748553D01*
X01558519Y00745377D01*
X01557749Y007425D01*
X01569D01*
Y00753752D01*
D02*
G37*
G36*
X01585251Y007375D02*
X01574D01*
Y00726248D01*
X01576877Y00727019D01*
X01580053Y00728853D01*
X01582647Y00731447D01*
X01584481Y00734623D01*
X01585251Y007375D01*
D02*
G37*
G36*
X01569D02*
X01557749D01*
X01558519Y00734623D01*
X01560353Y00731447D01*
X01562947Y00728853D01*
X01566123Y00727019D01*
X01569Y00726248D01*
Y007375D01*
D02*
G37*
G36*
X015995Y01117D02*
Y011093D01*
X01607201D01*
X01606785Y01110853D01*
X01605402Y01113247D01*
X01603447Y01115202D01*
X01601053Y01116584D01*
X015995Y01117D01*
D02*
G37*
G36*
X015945D02*
X01592947Y01116584D01*
X01590553Y01115202D01*
X01588598Y01113247D01*
X01587216Y01110853D01*
X015868Y011093D01*
X015945D01*
Y01117D01*
D02*
G37*
G36*
X01607201Y011043D02*
X015995D01*
Y01096599D01*
X01601053Y01097016D01*
X01603447Y01098398D01*
X01605402Y01100353D01*
X01606785Y01102747D01*
X01607201Y011043D01*
D02*
G37*
G36*
X015945D02*
X015868D01*
X01587216Y01102747D01*
X01588598Y01100353D01*
X01590553Y01098398D01*
X01592947Y01097016D01*
X015945Y01096599D01*
Y011043D01*
D02*
G37*
G36*
X01598712Y010944D02*
X01595289D01*
X01591982Y01093514D01*
X01589018Y01091803D01*
X01586597Y01089382D01*
X01584886Y01086418D01*
X01584Y01083111D01*
Y01079688D01*
X01584886Y01076382D01*
X01586597Y01073418D01*
X01589018Y01070997D01*
X01591813Y01069383D01*
X01591904Y010687D01*
X01591813Y01068016D01*
X01589018Y01066403D01*
X01586597Y01063982D01*
X01584886Y01061018D01*
X01584Y01057711D01*
Y01054288D01*
X01584886Y01050982D01*
X01586597Y01048018D01*
X01589018Y01045597D01*
X01591982Y01043886D01*
X01595289Y01043D01*
X01598712D01*
X01602018Y01043886D01*
X01604982Y01045597D01*
X01607403Y01048018D01*
X01609114Y01050982D01*
X0161Y01054288D01*
Y01057711D01*
X01609114Y01061018D01*
X01607403Y01063982D01*
X01604982Y01066403D01*
X01602187Y01068016D01*
X01602096Y010687D01*
X01602187Y01069383D01*
X01604982Y01070997D01*
X01607403Y01073418D01*
X01609114Y01076382D01*
X0161Y01079688D01*
Y01083111D01*
X01609114Y01086418D01*
X01607403Y01089382D01*
X01604982Y01091803D01*
X01602018Y01093514D01*
X01598712Y010944D01*
D02*
G37*
G36*
X01219014Y01043D02*
X01215986D01*
X01213061Y01042216D01*
X01210439Y01040702D01*
X01208298Y01038561D01*
X01206784Y01035939D01*
X01205425Y01035774D01*
X01204702Y01037026D01*
X01203026Y01038702D01*
X01200974Y01039887D01*
X012Y01040148D01*
Y010315D01*
Y01022852D01*
X01200974Y01023113D01*
X01203026Y01024298D01*
X01204702Y01025974D01*
X01205425Y01027226D01*
X01206784Y01027061D01*
X01208298Y01024439D01*
X01210439Y01022298D01*
X01213061Y01020784D01*
X01215986Y0102D01*
X01219014D01*
X01221939Y01020784D01*
X01224561Y01022298D01*
X01226702Y01024439D01*
X01228216Y01027061D01*
X01229Y01029986D01*
Y01033014D01*
X01228216Y01035939D01*
X01226702Y01038561D01*
X01224561Y01040702D01*
X01221939Y01042216D01*
X01219014Y01043D01*
D02*
G37*
G36*
X01073014Y01042D02*
X01069986D01*
X01067061Y01041216D01*
X01064439Y01039702D01*
X01062298Y01037561D01*
X01060784Y01034939D01*
X01059425Y01034774D01*
X01058702Y01036026D01*
X01057026Y01037702D01*
X01054974Y01038886D01*
X01054Y01039147D01*
Y010305D01*
Y01021852D01*
X01054974Y01022113D01*
X01057026Y01023298D01*
X01058702Y01024974D01*
X01059425Y01026226D01*
X01060784Y01026061D01*
X01062298Y01023439D01*
X01064439Y01021298D01*
X01067061Y01019784D01*
X01069986Y01019D01*
X01073014D01*
X01075939Y01019784D01*
X01078561Y01021298D01*
X01080702Y01023439D01*
X01082216Y01026061D01*
X01083Y01028986D01*
Y01032014D01*
X01082216Y01034939D01*
X01080702Y01037561D01*
X01078561Y01039702D01*
X01075939Y01041216D01*
X01073014Y01042D01*
D02*
G37*
G36*
X01195Y01040148D02*
X01194026Y01039887D01*
X01191974Y01038702D01*
X01190298Y01037026D01*
X01189114Y01034974D01*
X01188853Y01034D01*
X01195D01*
Y01040148D01*
D02*
G37*
G36*
X01049Y01039147D02*
X01048026Y01038886D01*
X01045974Y01037702D01*
X01044298Y01036026D01*
X01043113Y01033974D01*
X01042852Y01033D01*
X01049D01*
Y01039147D01*
D02*
G37*
G36*
X01195Y01029D02*
X01188853D01*
X01189114Y01028026D01*
X01190298Y01025974D01*
X01191974Y01024298D01*
X01194026Y01023113D01*
X01195Y01022852D01*
Y01029D01*
D02*
G37*
G36*
X01049Y01028D02*
X01042852D01*
X01043113Y01027026D01*
X01044298Y01024974D01*
X01045974Y01023298D01*
X01048026Y01022113D01*
X01049Y01021852D01*
Y01028D01*
D02*
G37*
G36*
X012736Y00987148D02*
Y00981D01*
X01279747D01*
X01279486Y00981974D01*
X01278302Y00984026D01*
X01276626Y00985702D01*
X01274574Y00986887D01*
X012736Y00987148D01*
D02*
G37*
G36*
X011636D02*
Y00981D01*
X01169748D01*
X01169487Y00981974D01*
X01168302Y00984026D01*
X01166626Y00985702D01*
X01164574Y00986887D01*
X011636Y00987148D01*
D02*
G37*
G36*
X012686D02*
X01267626Y00986887D01*
X01265574Y00985702D01*
X01263898Y00984026D01*
X01262713Y00981974D01*
X01262452Y00981D01*
X012686D01*
Y00987148D01*
D02*
G37*
G36*
X011586D02*
X01157626Y00986887D01*
X01155574Y00985702D01*
X01153898Y00984026D01*
X01152713Y00981974D01*
X01152452Y00981D01*
X011586D01*
Y00987148D01*
D02*
G37*
G36*
X01279747Y00976D02*
X012736D01*
Y00969852D01*
X01274574Y00970113D01*
X01276626Y00971298D01*
X01278302Y00972974D01*
X01279486Y00975026D01*
X01279747Y00976D01*
D02*
G37*
G36*
X01169748D02*
X011636D01*
Y00969852D01*
X01164574Y00970113D01*
X01166626Y00971298D01*
X01168302Y00972974D01*
X01169487Y00975026D01*
X01169748Y00976D01*
D02*
G37*
G36*
X012686D02*
X01262452D01*
X01262713Y00975026D01*
X01263898Y00972974D01*
X01265574Y00971298D01*
X01267626Y00970113D01*
X012686Y00969852D01*
Y00976D01*
D02*
G37*
G36*
X011586D02*
X01152452D01*
X01152713Y00975026D01*
X01153898Y00972974D01*
X01155574Y00971298D01*
X01157626Y00970113D01*
X011586Y00969852D01*
Y00976D01*
D02*
G37*
G36*
X01298014Y0099D02*
X01294986D01*
X01292061Y00989216D01*
X01289439Y00987702D01*
X01287298Y00985561D01*
X01285784Y00982939D01*
X01285Y00980014D01*
Y00976986D01*
X01285784Y00974061D01*
X01287298Y00971439D01*
X01289439Y00969298D01*
X01292061Y00967784D01*
X01294986Y00967D01*
X01298014D01*
X01300939Y00967784D01*
X01303561Y00969298D01*
X01305702Y00971439D01*
X01307216Y00974061D01*
X01308Y00976986D01*
Y00980014D01*
X01307216Y00982939D01*
X01305702Y00985561D01*
X01303561Y00987702D01*
X01300939Y00989216D01*
X01298014Y0099D01*
D02*
G37*
G36*
X01188014D02*
X01184986D01*
X01182061Y00989216D01*
X01179439Y00987702D01*
X01177298Y00985561D01*
X01175784Y00982939D01*
X01175Y00980014D01*
Y00976986D01*
X01175784Y00974061D01*
X01177298Y00971439D01*
X01179439Y00969298D01*
X01182061Y00967784D01*
X01184986Y00967D01*
X01188014D01*
X01190939Y00967784D01*
X01193561Y00969298D01*
X01195702Y00971439D01*
X01197216Y00974061D01*
X01198Y00976986D01*
Y00980014D01*
X01197216Y00982939D01*
X01195702Y00985561D01*
X01193561Y00987702D01*
X01190939Y00989216D01*
X01188014Y0099D01*
D02*
G37*
G36*
X01246555Y00929895D02*
X01243444D01*
X01240393Y00929288D01*
X01237518Y00928097D01*
X01234931Y00926369D01*
X01232731Y00924168D01*
X01231003Y00921581D01*
X01229812Y00918707D01*
X01229205Y00915655D01*
Y00912544D01*
X01229812Y00909492D01*
X01231003Y00906618D01*
X01232731Y00904031D01*
X01234931Y00901831D01*
X01237518Y00900102D01*
X01240393Y00898912D01*
X01243444Y00898305D01*
X01246555D01*
X01249607Y00898912D01*
X01252482Y00900102D01*
X01255069Y00901831D01*
X01257269Y00904031D01*
X01258997Y00906618D01*
X01260188Y00909492D01*
X01260795Y00912544D01*
Y00915655D01*
X01260188Y00918707D01*
X01258997Y00921581D01*
X01257269Y00924168D01*
X01255069Y00926369D01*
X01252482Y00928097D01*
X01249607Y00929288D01*
X01246555Y00929895D01*
D02*
G37*
G36*
X01300556Y00929395D02*
X01297444D01*
X01294393Y00928788D01*
X01291519Y00927597D01*
X01288931Y00925869D01*
X01286731Y00923669D01*
X01285003Y00921082D01*
X01283812Y00918207D01*
X01283205Y00915156D01*
Y00912044D01*
X01283812Y00908993D01*
X01285003Y00906118D01*
X01286731Y00903531D01*
X01288931Y00901331D01*
X01291519Y00899603D01*
X01294393Y00898412D01*
X01297444Y00897805D01*
X01300556D01*
X01303607Y00898412D01*
X01306482Y00899603D01*
X01309069Y00901331D01*
X01311269Y00903531D01*
X01312997Y00906118D01*
X01314188Y00908993D01*
X01314795Y00912044D01*
Y00915156D01*
X01314188Y00918207D01*
X01312997Y00921082D01*
X01311269Y00923669D01*
X01309069Y00925869D01*
X01306482Y00927597D01*
X01303607Y00928788D01*
X01300556Y00929395D01*
D02*
G37*
G36*
X009914Y00809749D02*
Y008D01*
X00996546D01*
Y0080258D01*
X00996285Y00804559D01*
X00995521Y00806403D01*
X00994306Y00807986D01*
X00992723Y00809201D01*
X009914Y00809749D01*
D02*
G37*
G36*
X00996546Y00795D02*
X009914D01*
Y00785251D01*
X00992723Y00785799D01*
X00994306Y00787014D01*
X00995521Y00788597D01*
X00996285Y00790441D01*
X00996546Y0079242D01*
Y00795D01*
D02*
G37*
G36*
X01033118Y0079343D02*
X01029882D01*
X01026708Y00792799D01*
X01023718Y0079156D01*
X01021027Y00789762D01*
X01018738Y00787474D01*
X0101694Y00784783D01*
X01015702Y00781793D01*
X0101507Y00778618D01*
Y00775382D01*
X01015702Y00772208D01*
X0101694Y00769218D01*
X01018738Y00766527D01*
X01021027Y00764238D01*
X01023718Y0076244D01*
X01026708Y00761202D01*
X01029882Y0076057D01*
X01033118D01*
X01036292Y00761202D01*
X01039283Y0076244D01*
X01041974Y00764238D01*
X01044262Y00766527D01*
X0104606Y00769218D01*
X01047299Y00772208D01*
X0104793Y00775382D01*
Y00778618D01*
X01047299Y00781793D01*
X0104606Y00784783D01*
X01044262Y00787474D01*
X01041974Y00789762D01*
X01039283Y0079156D01*
X01036292Y00792799D01*
X01033118Y0079343D01*
D02*
G37*
G36*
X01043956Y00699795D02*
X01040845D01*
X01037793Y00699188D01*
X01034919Y00697998D01*
X01032331Y00696269D01*
X01030132Y00694069D01*
X01028403Y00691482D01*
X01027212Y00688607D01*
X01026605Y00685556D01*
Y00682445D01*
X01027212Y00679393D01*
X01028403Y00676518D01*
X01030132Y00673931D01*
X01032331Y00671731D01*
X01034919Y00670003D01*
X01037793Y00668812D01*
X01040845Y00668205D01*
X01043956D01*
X01047008Y00668812D01*
X01049882Y00670003D01*
X01052469Y00671731D01*
X01054669Y00673931D01*
X01056398Y00676518D01*
X01057588Y00679393D01*
X01058195Y00682445D01*
Y00685556D01*
X01057588Y00688607D01*
X01056398Y00691482D01*
X01054669Y00694069D01*
X01052469Y00696269D01*
X01049882Y00697998D01*
X01047008Y00699188D01*
X01043956Y00699795D01*
D02*
G37*
G36*
X01015956Y00471295D02*
X01012844D01*
X01009793Y00470688D01*
X01006918Y00469498D01*
X01004331Y00467769D01*
X01002131Y00465569D01*
X01000403Y00462982D01*
X00999212Y00460107D01*
X00998605Y00457056D01*
Y00453945D01*
X00999212Y00450893D01*
X01000403Y00448018D01*
X01002131Y00445432D01*
X01004331Y00443231D01*
X01006918Y00441503D01*
X01009793Y00440312D01*
X01012844Y00439705D01*
X01015956D01*
X01019007Y00440312D01*
X01021881Y00441503D01*
X01024469Y00443231D01*
X01026669Y00445432D01*
X01028397Y00448018D01*
X01029588Y00450893D01*
X01030195Y00453945D01*
Y00457056D01*
X01029588Y00460107D01*
X01028397Y00462982D01*
X01026669Y00465569D01*
X01024469Y00467769D01*
X01021881Y00469498D01*
X01019007Y00470688D01*
X01015956Y00471295D01*
D02*
G37*
G36*
X01412Y00832959D02*
Y0083D01*
X01414959D01*
X01414586Y00830899D01*
X01412899Y00832587D01*
X01412Y00832959D01*
D02*
G37*
G36*
X01407D02*
X01406101Y00832587D01*
X01404413Y00830899D01*
X01404041Y0083D01*
X01407D01*
Y00832959D01*
D02*
G37*
G36*
X01414959Y00825D02*
X01412D01*
Y00822041D01*
X01412899Y00822413D01*
X01414586Y00824101D01*
X01414959Y00825D01*
D02*
G37*
G36*
X01407D02*
X01404041D01*
X01404413Y00824101D01*
X01406101Y00822413D01*
X01407Y00822041D01*
Y00825D01*
D02*
G37*
G36*
X01417429Y0077889D02*
X01413771D01*
X01410239Y00777944D01*
X01407071Y00776115D01*
X01404485Y00773529D01*
X01402657Y00770362D01*
X0140171Y00766829D01*
Y00763172D01*
X01402657Y00759639D01*
X01404485Y00756472D01*
X01407071Y00753885D01*
X01410239Y00752057D01*
X01413771Y0075111D01*
X01417429D01*
X01420961Y00752057D01*
X01424129Y00753885D01*
X01426715Y00756472D01*
X01428543Y00759639D01*
X0142949Y00763172D01*
Y00766829D01*
X01428543Y00770362D01*
X01426715Y00773529D01*
X01424129Y00776115D01*
X01420961Y00777944D01*
X01417429Y0077889D01*
D02*
G37*
G36*
X01365014Y007577D02*
X01361986D01*
X01359061Y00756917D01*
X01356439Y00755403D01*
X01354298Y00753261D01*
X01352784Y00750639D01*
X01352Y00747714D01*
Y00744686D01*
X01352784Y00741761D01*
X01354298Y00739139D01*
X01356439Y00736998D01*
X01359061Y00735484D01*
X01361986Y007347D01*
X01365014D01*
X01367939Y00735484D01*
X01370561Y00736998D01*
X01372702Y00739139D01*
X01374216Y00741761D01*
X01375Y00744686D01*
Y00747714D01*
X01374216Y00750639D01*
X01372702Y00753261D01*
X01370561Y00755403D01*
X01367939Y00756917D01*
X01365014Y007577D01*
D02*
G37*
G36*
X01366Y00729448D02*
Y007233D01*
X01372148D01*
X01371887Y00724274D01*
X01370702Y00726326D01*
X01369026Y00728002D01*
X01366974Y00729187D01*
X01366Y00729448D01*
D02*
G37*
G36*
X01361D02*
X01360026Y00729187D01*
X01357974Y00728002D01*
X01356298Y00726326D01*
X01355113Y00724274D01*
X01354852Y007233D01*
X01361D01*
Y00729448D01*
D02*
G37*
G36*
X01372148Y007183D02*
X01366D01*
Y00712153D01*
X01366974Y00712413D01*
X01369026Y00713598D01*
X01370702Y00715274D01*
X01371887Y00717326D01*
X01372148Y007183D01*
D02*
G37*
G36*
X01361D02*
X01354852D01*
X01355113Y00717326D01*
X01356298Y00715274D01*
X01357974Y00713598D01*
X01360026Y00712413D01*
X01361Y00712153D01*
Y007183D01*
D02*
G37*
G36*
X01413Y00717594D02*
Y00707D01*
X01423594D01*
X01422889Y00709632D01*
X01421139Y00712663D01*
X01418663Y00715139D01*
X01415632Y00716889D01*
X01413Y00717594D01*
D02*
G37*
G36*
X01408D02*
X01405368Y00716889D01*
X01402337Y00715139D01*
X01399861Y00712663D01*
X01398111Y00709632D01*
X01397406Y00707D01*
X01408D01*
Y00717594D01*
D02*
G37*
G36*
X012845Y00704959D02*
Y00702D01*
X01287459D01*
X01287087Y00702899D01*
X01285399Y00704587D01*
X012845Y00704959D01*
D02*
G37*
G36*
X012795D02*
X01278601Y00704587D01*
X01276913Y00702899D01*
X01276541Y00702D01*
X012795D01*
Y00704959D01*
D02*
G37*
G36*
X01287459Y00697D02*
X012845D01*
Y00694041D01*
X01285399Y00694413D01*
X01287087Y00696101D01*
X01287459Y00697D01*
D02*
G37*
G36*
X012795D02*
X01276541D01*
X01276913Y00696101D01*
X01278601Y00694413D01*
X012795Y00694041D01*
Y00697D01*
D02*
G37*
G36*
X01423594Y00702D02*
X01413D01*
Y00691406D01*
X01415632Y00692111D01*
X01418663Y00693861D01*
X01421139Y00696337D01*
X01422889Y00699368D01*
X01423594Y00702D01*
D02*
G37*
G36*
X01408D02*
X01397406D01*
X01398111Y00699368D01*
X01399861Y00696337D01*
X01402337Y00693861D01*
X01405368Y00692111D01*
X01408Y00691406D01*
Y00702D01*
D02*
G37*
G36*
X01366Y00691348D02*
Y006852D01*
X01372148D01*
X01371887Y00686174D01*
X01370702Y00688226D01*
X01369026Y00689902D01*
X01366974Y00691087D01*
X01366Y00691348D01*
D02*
G37*
G36*
X01361D02*
X01360026Y00691087D01*
X01357974Y00689902D01*
X01356298Y00688226D01*
X01355113Y00686174D01*
X01354852Y006852D01*
X01361D01*
Y00691348D01*
D02*
G37*
G36*
X0144Y00683729D02*
Y0068077D01*
X01442959D01*
X01442586Y00681669D01*
X01440898Y00683356D01*
X0144Y00683729D01*
D02*
G37*
G36*
X01435D02*
X01434101Y00683356D01*
X01432413Y00681669D01*
X01432041Y0068077D01*
X01435D01*
Y00683729D01*
D02*
G37*
G36*
X01372148Y006802D02*
X01366D01*
Y00674053D01*
X01366974Y00674314D01*
X01369026Y00675498D01*
X01370702Y00677174D01*
X01371887Y00679226D01*
X01372148Y006802D01*
D02*
G37*
G36*
X01361D02*
X01354852D01*
X01355113Y00679226D01*
X01356298Y00677174D01*
X01357974Y00675498D01*
X01360026Y00674314D01*
X01361Y00674053D01*
Y006802D01*
D02*
G37*
G36*
X01444Y0067577D02*
X01431D01*
Y0067D01*
X014375D01*
X01444D01*
Y0067577D01*
D02*
G37*
G36*
Y00665D02*
X0144D01*
Y00659D01*
X01444D01*
Y00665D01*
D02*
G37*
G36*
X01435D02*
X01431D01*
Y00659D01*
X01435D01*
Y00665D01*
D02*
G37*
G36*
X01365014Y006688D02*
X01361986D01*
X01359061Y00668017D01*
X01356439Y00666503D01*
X01354298Y00664361D01*
X01352784Y00661739D01*
X01352Y00658814D01*
Y00655786D01*
X01352784Y00652861D01*
X01354298Y00650239D01*
X01356439Y00648098D01*
X01359061Y00646584D01*
X01361986Y006458D01*
X01365014D01*
X01367939Y00646584D01*
X01370561Y00648098D01*
X01372702Y00650239D01*
X01374216Y00652861D01*
X01375Y00655786D01*
Y00658814D01*
X01374216Y00661739D01*
X01372702Y00664361D01*
X01370561Y00666503D01*
X01367939Y00668017D01*
X01365014Y006688D01*
D02*
G37*
G36*
X008879Y00810249D02*
Y008005D01*
X00893046D01*
Y0080308D01*
X00892785Y00805059D01*
X00892021Y00806903D01*
X00890806Y00808486D01*
X00889223Y00809701D01*
X008879Y00810249D01*
D02*
G37*
G36*
X008829D02*
X00881578Y00809701D01*
X00879994Y00808486D01*
X00878779Y00806903D01*
X00878015Y00805059D01*
X00877755Y0080308D01*
Y008005D01*
X008829D01*
Y00810249D01*
D02*
G37*
G36*
X00893046Y007955D02*
X008879D01*
Y00785751D01*
X00889223Y00786299D01*
X00890806Y00787514D01*
X00892021Y00789097D01*
X00892785Y00790941D01*
X00893046Y0079292D01*
Y007955D01*
D02*
G37*
G36*
X008829D02*
X00877755D01*
Y0079292D01*
X00878015Y00790941D01*
X00878779Y00789097D01*
X00879994Y00787514D01*
X00881578Y00786299D01*
X008829Y00785751D01*
Y007955D01*
D02*
G37*
G36*
X0086Y00813247D02*
X00857369Y008129D01*
X00854917Y00811885D01*
X00852811Y00810269D01*
X00851196Y00808163D01*
X0085018Y00805711D01*
X00849833Y0080308D01*
Y0079292D01*
X0085018Y00790288D01*
X00851196Y00787836D01*
X00852811Y00785731D01*
X00854917Y00784115D01*
X00857369Y00783099D01*
X0086Y00782753D01*
X00862632Y00783099D01*
X00865084Y00784115D01*
X00867189Y00785731D01*
X00868805Y00787836D01*
X00869821Y00790288D01*
X00870167Y0079292D01*
Y0080308D01*
X00869821Y00805711D01*
X00868805Y00808163D01*
X00867189Y00810269D01*
X00865084Y00811885D01*
X00862632Y008129D01*
X0086Y00813247D01*
D02*
G37*
G36*
X008346D02*
X00831969Y008129D01*
X00829517Y00811885D01*
X00827411Y00810269D01*
X00825796Y00808163D01*
X0082478Y00805711D01*
X00824433Y0080308D01*
Y0079292D01*
X0082478Y00790288D01*
X00825796Y00787836D01*
X00827411Y00785731D01*
X00829517Y00784115D01*
X00831969Y00783099D01*
X008346Y00782753D01*
X00837232Y00783099D01*
X00839684Y00784115D01*
X00841789Y00785731D01*
X00843405Y00787836D01*
X00844421Y00790288D01*
X00844767Y0079292D01*
Y0080308D01*
X00844421Y00805711D01*
X00843405Y00808163D01*
X00841789Y00810269D01*
X00839684Y00811885D01*
X00837232Y008129D01*
X008346Y00813247D01*
D02*
G37*
G36*
X00728711Y00793D02*
X00725288D01*
X00721982Y00792114D01*
X00719018Y00790403D01*
X00716597Y00787982D01*
X00714886Y00785018D01*
X00714Y00781711D01*
Y00778288D01*
X00714886Y00774982D01*
X00716597Y00772018D01*
X00719018Y00769597D01*
X00721982Y00767886D01*
X00725288Y00767D01*
X00728711D01*
X00732018Y00767886D01*
X00734982Y00769597D01*
X00737402Y00772018D01*
X00739114Y00774982D01*
X0074Y00778288D01*
Y00781711D01*
X00739114Y00785018D01*
X00737402Y00787982D01*
X00734982Y00790403D01*
X00732018Y00792114D01*
X00728711Y00793D01*
D02*
G37*
G36*
X008195Y00728648D02*
X00818526Y00728387D01*
X00816474Y00727202D01*
X00814798Y00725526D01*
X00813613Y00723474D01*
X00813352Y007225D01*
X008195D01*
Y00728648D01*
D02*
G37*
G36*
X00728711Y00743D02*
X00725288D01*
X00721982Y00742114D01*
X00719018Y00740403D01*
X00716597Y00737982D01*
X00714886Y00735018D01*
X00714Y00731712D01*
Y00728289D01*
X00714886Y00724982D01*
X00716597Y00722018D01*
X00719018Y00719597D01*
X00721982Y00717886D01*
X00725288Y00717D01*
X00728711D01*
X00732018Y00717886D01*
X00734982Y00719597D01*
X00737402Y00722018D01*
X00739114Y00724982D01*
X0074Y00728289D01*
Y00731712D01*
X00739114Y00735018D01*
X00737402Y00737982D01*
X00734982Y00740403D01*
X00732018Y00742114D01*
X00728711Y00743D01*
D02*
G37*
G36*
X01574Y00626752D02*
Y006155D01*
X01585251D01*
X01584481Y00618377D01*
X01582647Y00621553D01*
X01580053Y00624147D01*
X01576877Y00625981D01*
X01574Y00626752D01*
D02*
G37*
G36*
X01569D02*
X01566123Y00625981D01*
X01562947Y00624147D01*
X01560353Y00621553D01*
X01558519Y00618377D01*
X01557749Y006155D01*
X01569D01*
Y00626752D01*
D02*
G37*
G36*
X007097Y00642D02*
X006743D01*
Y006066D01*
X007097D01*
Y00642D01*
D02*
G37*
G36*
X01585251Y006105D02*
X01574D01*
Y00599249D01*
X01576877Y00600019D01*
X01580053Y00601853D01*
X01582647Y00604447D01*
X01584481Y00607623D01*
X01585251Y006105D01*
D02*
G37*
G36*
X01569D02*
X01557749D01*
X01558519Y00607623D01*
X01560353Y00604447D01*
X01562947Y00601853D01*
X01566123Y00600019D01*
X01569Y00599249D01*
Y006105D01*
D02*
G37*
G36*
X01501Y00604548D02*
Y005984D01*
X01507148D01*
X01506887Y00599374D01*
X01505702Y00601426D01*
X01504026Y00603102D01*
X01501974Y00604287D01*
X01501Y00604548D01*
D02*
G37*
G36*
X01496D02*
X01495026Y00604287D01*
X01492974Y00603102D01*
X01491298Y00601426D01*
X01490113Y00599374D01*
X01489852Y005984D01*
X01496D01*
Y00604548D01*
D02*
G37*
G36*
X01507148Y005934D02*
X01501D01*
Y00587253D01*
X01501974Y00587514D01*
X01504026Y00588699D01*
X01505702Y00590374D01*
X01506887Y00592426D01*
X01507148Y005934D01*
D02*
G37*
G36*
X01496D02*
X01489852D01*
X01490113Y00592426D01*
X01491298Y00590374D01*
X01492974Y00588699D01*
X01495026Y00587514D01*
X01496Y00587253D01*
Y005934D01*
D02*
G37*
G36*
X01500014Y00582D02*
X01496986D01*
X01494061Y00581217D01*
X01491439Y00579702D01*
X01489298Y00577561D01*
X01487784Y00574939D01*
X01487Y00572014D01*
Y00568986D01*
X01487784Y00566061D01*
X01489298Y00563439D01*
X01491439Y00561298D01*
X01494061Y00559784D01*
X01496986Y00559D01*
X01500014D01*
X01502939Y00559784D01*
X01505561Y00561298D01*
X01507702Y00563439D01*
X01509216Y00566061D01*
X0151Y00568986D01*
Y00572014D01*
X01509216Y00574939D01*
X01507702Y00577561D01*
X01505561Y00579702D01*
X01502939Y00581217D01*
X01500014Y00582D01*
D02*
G37*
G36*
X00693743Y005277D02*
X00690257D01*
X00686837Y0052702D01*
X00683616Y00525686D01*
X00680717Y00523749D01*
X00678252Y00521283D01*
X00676315Y00518384D01*
X0067498Y00515163D01*
X006743Y00511743D01*
Y00508257D01*
X0067498Y00504837D01*
X00676315Y00501616D01*
X00678252Y00498717D01*
X00680717Y00496251D01*
X00683616Y00494314D01*
X00686837Y0049298D01*
X00690257Y004923D01*
X00693743D01*
X00697163Y0049298D01*
X00700384Y00494314D01*
X00703283Y00496251D01*
X00705749Y00498717D01*
X00707686Y00501616D01*
X0070902Y00504837D01*
X007097Y00508257D01*
Y00511743D01*
X0070902Y00515163D01*
X00707686Y00518384D01*
X00705749Y00521283D01*
X00703283Y00523749D01*
X00700384Y00525686D01*
X00697163Y0052702D01*
X00693743Y005277D01*
D02*
G37*
G36*
X01602Y004878D02*
Y004801D01*
X016097D01*
X01609284Y00481653D01*
X01607902Y00484047D01*
X01605947Y00486002D01*
X01603553Y00487384D01*
X01602Y004878D01*
D02*
G37*
G36*
X01597D02*
X01595447Y00487384D01*
X01593053Y00486002D01*
X01591098Y00484047D01*
X01589716Y00481653D01*
X01589299Y004801D01*
X01597D01*
Y004878D01*
D02*
G37*
G36*
X016097Y004751D02*
X01602D01*
Y00467399D01*
X01603553Y00467815D01*
X01605947Y00469198D01*
X01607902Y00471153D01*
X01609284Y00473547D01*
X016097Y004751D01*
D02*
G37*
G36*
X01597D02*
X01589299D01*
X01589716Y00473547D01*
X01591098Y00471153D01*
X01593053Y00469198D01*
X01595447Y00467815D01*
X01597Y00467399D01*
Y004751D01*
D02*
G37*
G36*
X00753711Y00418D02*
X00750288D01*
X00746982Y00417114D01*
X00744018Y00415402D01*
X00741598Y00412982D01*
X00739886Y00410018D01*
X00739Y00406711D01*
Y00403288D01*
X00739886Y00399982D01*
X00741598Y00397018D01*
X00744018Y00394597D01*
X00746982Y00392886D01*
X00750288Y00392D01*
X00753711D01*
X00757018Y00392886D01*
X00759982Y00394597D01*
X00762403Y00397018D01*
X00764114Y00399982D01*
X00765Y00403288D01*
Y00406711D01*
X00764114Y00410018D01*
X00762403Y00412982D01*
X00759982Y00415402D01*
X00757018Y00417114D01*
X00753711Y00418D01*
D02*
G37*
G36*
X014661Y003897D02*
Y00382D01*
X01473801D01*
X01473385Y00383553D01*
X01472002Y00385947D01*
X01470047Y00387902D01*
X01467653Y00389284D01*
X014661Y003897D01*
D02*
G37*
G36*
X014611D02*
X01459547Y00389284D01*
X01457153Y00387902D01*
X01455198Y00385947D01*
X01453816Y00383553D01*
X014534Y00382D01*
X014611D01*
Y003897D01*
D02*
G37*
G36*
X01473801Y00377D02*
X014661D01*
Y00369299D01*
X01467653Y00369715D01*
X01470047Y00371098D01*
X01472002Y00373053D01*
X01473385Y00375447D01*
X01473801Y00377D01*
D02*
G37*
G36*
X014611D02*
X014534D01*
X01453816Y00375447D01*
X01455198Y00373053D01*
X01457153Y00371098D01*
X01459547Y00369715D01*
X014611Y00369299D01*
Y00377D01*
D02*
G37*
G36*
X011275Y00281201D02*
X01125947Y00280785D01*
X01123553Y00279402D01*
X01121598Y00277447D01*
X01120215Y00275053D01*
X01119799Y002735D01*
X011275D01*
Y00281201D01*
D02*
G37*
G36*
Y002685D02*
X01119799D01*
X01120215Y00266947D01*
X01121598Y00264553D01*
X01123553Y00262598D01*
X01125947Y00261216D01*
X011275Y002608D01*
Y002685D01*
D02*
G37*
G36*
X00883711Y00418D02*
X00880288D01*
X00876982Y00417114D01*
X00874018Y00415402D01*
X00871597Y00412982D01*
X00869886Y00410018D01*
X00869Y00406711D01*
Y00403288D01*
X00869886Y00399982D01*
X00871597Y00397018D01*
X00874018Y00394597D01*
X00876982Y00392886D01*
X00880288Y00392D01*
X00883711D01*
X00887018Y00392886D01*
X00889982Y00394597D01*
X00892402Y00397018D01*
X00894114Y00399982D01*
X00895Y00403288D01*
Y00406711D01*
X00894114Y00410018D01*
X00892402Y00412982D01*
X00889982Y00415402D01*
X00887018Y00417114D01*
X00883711Y00418D01*
D02*
G37*
G36*
X011195Y00383594D02*
Y00373D01*
X01130094D01*
X01129389Y00375632D01*
X01127639Y00378663D01*
X01125163Y00381139D01*
X01122132Y00382889D01*
X011195Y00383594D01*
D02*
G37*
G36*
X011145D02*
X01111868Y00382889D01*
X01108837Y00381139D01*
X01106361Y00378663D01*
X01104611Y00375632D01*
X01103906Y00373D01*
X011145D01*
Y00383594D01*
D02*
G37*
G36*
X01130094Y00368D02*
X011195D01*
Y00357406D01*
X01122132Y00358111D01*
X01125163Y00359861D01*
X01127639Y00362337D01*
X01129389Y00365368D01*
X01130094Y00368D01*
D02*
G37*
G36*
X011145D02*
X01103906D01*
X01104611Y00365368D01*
X01106361Y00362337D01*
X01108837Y00359861D01*
X01111868Y00358111D01*
X011145Y00357406D01*
Y00368D01*
D02*
G37*
G36*
X0107Y002807D02*
Y00273D01*
X01077701D01*
X01077284Y00274553D01*
X01075902Y00276947D01*
X01073947Y00278902D01*
X01071553Y00280284D01*
X0107Y002807D01*
D02*
G37*
G36*
X01065D02*
X01063447Y00280284D01*
X01061053Y00278902D01*
X01059098Y00276947D01*
X01057716Y00274553D01*
X01057299Y00273D01*
X01065D01*
Y002807D01*
D02*
G37*
G36*
Y00268D02*
X01057299D01*
X01057716Y00266447D01*
X01059098Y00264053D01*
X01061053Y00262098D01*
X01063447Y00260715D01*
X01065Y00260299D01*
Y00268D01*
D02*
G37*
%LPD*%
D10*
X01182832Y0068425D02*
X01214D01*
X01181582Y00683D02*
X01182832Y0068425D01*
X011805Y00683D02*
X01181582D01*
X0068635Y0120507D02*
X0069143D01*
X0067477Y0121665D02*
X0068635Y0120507D01*
X0067477Y01235267D02*
X00690514Y0125101D01*
X0067477Y0121665D02*
Y01235267D01*
X00895283Y0125101D02*
X00909783Y0123651D01*
X00690514Y0125101D02*
X00895283D01*
X00909783Y0123651D02*
X01017415D01*
X01455Y00853D02*
X01475D01*
X012245Y0066225D02*
Y00686698D01*
X01145131Y00684D02*
X01155381Y0069425D01*
X01216947D02*
X012245Y00686698D01*
X01155381Y0069425D02*
X01216947D01*
X01144Y00684D02*
X01145131D01*
X012015Y0066475D02*
X01214D01*
X01202343Y0067125D02*
X01214D01*
X01162Y0062525D02*
X012015Y0066475D01*
X01158Y00626907D02*
X01202343Y0067125D01*
X0123725Y00686392D02*
X012875Y00736642D01*
X01295142D01*
X012075Y0063219D02*
Y0063225D01*
X014295Y00890625D02*
X01481684D01*
X01158Y00475542D02*
Y00626907D01*
Y00475542D02*
X01160501D01*
Y00443541D02*
Y00475542D01*
X01158Y00443541D02*
X01160501D01*
X01158Y00379538D02*
Y00443541D01*
Y00379538D02*
X01183037Y003545D01*
X01611381D01*
X01618Y00361119D01*
Y00400406D01*
X01605506Y004129D02*
X01618Y00400406D01*
X01593494Y004129D02*
X01605506D01*
X01585Y00404406D02*
X01593494Y004129D01*
X01585Y003875D02*
Y00404406D01*
Y003875D02*
X015995Y00373D01*
X01162Y00479542D02*
Y0062525D01*
Y00479542D02*
X01164501D01*
Y00439541D02*
Y00479542D01*
X01162Y00439541D02*
X01164501D01*
X01162Y00381194D02*
Y00439541D01*
Y00381194D02*
X01184694Y003585D01*
X01609724D01*
X01614Y00362776D01*
Y003839D01*
X015995Y003984D02*
X01614Y003839D01*
X0132485Y0067125D02*
X01325Y006711D01*
X0127Y0067125D02*
X0132485D01*
X0127Y0066475D02*
X01288785D01*
X013811Y00572435D01*
X01407243D01*
X01409Y00570678D01*
Y00533465D02*
Y00570678D01*
Y00533465D02*
X01414065Y005284D01*
X015995D01*
X01214Y0060625D02*
X012205D01*
X01246Y0058075D01*
Y00539D02*
Y0058075D01*
X01264583Y005205D02*
X0126635D01*
X0131035Y004765D01*
X013112D01*
X0120725Y0063875D02*
X01214D01*
X01192Y006235D02*
X0120725Y0063875D01*
X01192Y005335D02*
Y006235D01*
Y005335D02*
X012015Y00524D01*
X01213142D01*
X01213377Y00524235D01*
X01216735D01*
X012604Y004765D02*
Y004783D01*
X012435Y004952D02*
X012604Y004783D01*
X012435Y004952D02*
Y00497D01*
X01243238D02*
X012435D01*
X01208235Y00534766D02*
X01209Y00534D01*
X0119675Y0054625D02*
X01209Y00534D01*
X0119675Y0054625D02*
Y0062144D01*
X012035Y0062819D01*
Y00628197D01*
X01205053Y0062975D01*
X01205059D01*
X012075Y0063219D01*
Y0063225D02*
X01214D01*
X0127Y0065825D02*
X01289629D01*
X01379879Y00568D01*
X01403243D01*
X01405Y00566243D01*
Y00531D02*
Y00566243D01*
Y00531D02*
X014125Y005235D01*
X01579D01*
X015995Y00503D01*
X0127Y0061925D02*
X012765D01*
X01284459Y00611291D01*
X01303084D01*
X01340625Y0057375D01*
X01352392D01*
X01384142Y00542D01*
X01395D01*
X0120665Y0064525D02*
X01214D01*
X0118725Y0062585D02*
X0120665Y0064525D01*
X0118725Y0050275D02*
Y0062585D01*
Y0050275D02*
X011875Y005025D01*
X01187459D02*
X011875D01*
X01087458Y004025D02*
X011445Y00459541D01*
X01074Y004025D02*
X01087458D01*
X01282205Y00795205D02*
X01299Y00812D01*
X01237836Y00795205D02*
X01282205D01*
X01227705Y00805336D02*
X01237836Y00795205D01*
X01227705Y00805336D02*
Y00819664D01*
X01265998Y00857957D01*
X01329316D01*
X01367609Y0089625D01*
X014095D01*
X0123725Y00647007D02*
Y00686392D01*
Y00647007D02*
X01239007Y0064525D01*
X0127D01*
X01245Y008125D02*
X0128368Y0085118D01*
X01379377D01*
X014145Y00886303D01*
Y0089625D01*
X012595Y00693418D02*
X012645Y00698418D01*
X012595Y0065575D02*
Y00693418D01*
Y0065575D02*
X012635Y0065175D01*
X0127D01*
X01235Y004765D02*
X012495Y00462D01*
X01469606D01*
X014781Y00470494D01*
Y00482506D01*
X01469606Y00491D02*
X014781Y00482506D01*
X0139175Y00491D02*
X01469606D01*
X013005Y0058225D02*
X0139175Y00491D01*
X013005Y0058225D02*
Y0058875D01*
X012765Y0061275D02*
X013005Y0058875D01*
X0127Y0061275D02*
X012765D01*
X012096Y004765D02*
X01212087Y00478988D01*
Y00485087D01*
X012805Y005535D01*
Y0060225D01*
X012765Y0060625D02*
X012805Y0060225D01*
X0127Y0060625D02*
X012765D01*
X01235Y003795D02*
X01266923Y00411422D01*
X01452665D01*
X014821Y00440857D01*
Y00484163D01*
X01469763Y004965D02*
X014821Y00484163D01*
X01393Y004965D02*
X01469763D01*
X01335Y005545D02*
X01393Y004965D01*
X01335Y005545D02*
Y00563D01*
X01258Y00567D02*
Y0057525D01*
X012205Y0061275D02*
X01258Y0057525D01*
X01214Y0061275D02*
X012205D01*
X012096Y003795D02*
Y00412812D01*
X011697Y00452712D02*
X012096Y00412812D01*
X011697Y00452712D02*
Y00482506D01*
X01178194Y00491D01*
X011945D01*
X012185Y00515D01*
X01221642D01*
X012275Y00520858D01*
Y00542916D01*
X01201Y00569416D02*
X012275Y00542916D01*
X01201Y00569416D02*
Y00617493D01*
X01202758Y0061925D01*
X01214D01*
X012205Y0065825D02*
X012245Y0066225D01*
X01214Y0065825D02*
X012205D01*
X0117725Y00615D02*
X01178016Y00615766D01*
Y00622273D01*
X01204993Y0064925D01*
X01205D01*
X012075Y0065175D01*
X01214D01*
Y0062575D02*
X012205D01*
X01229875Y00635125D01*
Y00685517D01*
X01317643Y00773285D01*
X01321785D01*
X013595Y00811D01*
Y00814698D01*
X01407052Y0086225D01*
X01411947D01*
X014145Y00859697D01*
Y0084975D02*
Y00859697D01*
X014295Y00890625D02*
Y0089625D01*
X01481684Y00890625D02*
X01486284Y00886025D01*
X014925D01*
X01497Y00881525D01*
Y00881D02*
Y00881525D01*
X01498Y00850875D02*
Y00853D01*
X01484375Y0083725D02*
X01498Y00850875D01*
X01427052Y0083725D02*
X01484375D01*
X014245Y00839802D02*
X01427052Y0083725D01*
X014245Y00839802D02*
Y0084975D01*
D18*
X014195Y0089625D02*
D03*
X014245D02*
D03*
X014195Y0084975D02*
D03*
X014095D02*
D03*
X014295D02*
D03*
Y0089625D02*
D03*
X014145D02*
D03*
X014095D02*
D03*
X014245Y0084975D02*
D03*
X014145D02*
D03*
D19*
X01475Y00881D02*
D03*
X01497D02*
D03*
X01475Y00853D02*
D03*
D20*
X01214Y0068425D02*
D03*
X0127D02*
D03*
Y0059975D02*
D03*
Y0060625D02*
D03*
Y0061275D02*
D03*
Y0061925D02*
D03*
Y0062575D02*
D03*
Y0063225D02*
D03*
Y0063875D02*
D03*
Y0064525D02*
D03*
Y0065175D02*
D03*
Y0065825D02*
D03*
Y0066475D02*
D03*
Y0067125D02*
D03*
Y0067775D02*
D03*
X01214Y0059975D02*
D03*
Y0060625D02*
D03*
Y0061275D02*
D03*
Y0061925D02*
D03*
Y0062575D02*
D03*
Y0063225D02*
D03*
Y0063875D02*
D03*
Y0064525D02*
D03*
Y0065175D02*
D03*
Y0065825D02*
D03*
Y0066475D02*
D03*
Y0067125D02*
D03*
Y0067775D02*
D03*
D21*
X010435Y006465D02*
D03*
X010215D02*
D03*
X00904Y007265D02*
D03*
X00926D02*
D03*
D22*
X014375Y006675D02*
D03*
Y005975D02*
D03*
D23*
X010345Y005845D02*
D03*
Y005625D02*
D03*
X00748Y011905D02*
D03*
Y012125D02*
D03*
D24*
X01395Y00542D02*
D03*
X01417D02*
D03*
X01052Y004025D02*
D03*
X01074D02*
D03*
D25*
X01498Y00853D02*
D03*
D50*
X014095Y0084975D02*
X014095Y0084975D01*
Y008275D02*
Y0084975D01*
X010435Y006465D02*
X010435Y006465D01*
X010435Y006265D02*
Y006465D01*
X010435Y006265D02*
X010435Y006265D01*
X01142977Y00655828D02*
X01179384D01*
X01201307Y0067775D01*
X01125705Y006731D02*
X01142977Y00655828D01*
X01201307Y0067775D02*
X01214D01*
X0127Y0068425D02*
X012745D01*
X01276604Y00686354D01*
Y00693563D01*
X01282Y00698959D01*
Y006995D01*
X00786493Y00612249D02*
X0080108Y00597662D01*
X01498Y00818D02*
Y00850875D01*
X0089228Y007245D02*
X00904D01*
X0069088Y0099988D02*
X00705Y0098576D01*
X0069088Y0099988D02*
Y0107088D01*
X00705Y01085D01*
X00884383Y011819D02*
Y0123651D01*
Y011819D02*
X00891282Y01175D01*
Y01135282D02*
Y01175D01*
X00886Y0113D02*
X00891282Y01135282D01*
X0119118Y011809D02*
Y0123551D01*
Y011809D02*
X0119808Y01174D01*
Y0113398D02*
Y01174D01*
X011931Y01129D02*
X0119808Y0113398D01*
X0127Y0063225D02*
X01284694D01*
X01284735Y00632291D01*
X0127Y0062575D02*
X01286041D01*
X012905Y00621291D01*
Y005734D02*
Y005825D01*
Y005734D02*
X013874Y004765D01*
X01261584Y00551085D02*
X01261967Y00550702D01*
X01261584Y00551085D02*
X0127Y005595D01*
Y0059975D01*
X01214Y005845D02*
Y0059975D01*
X014375Y005975D02*
X014645Y005705D01*
X01125705Y006731D02*
Y00730989D01*
X01138936Y0074422D01*
X01159764D01*
X01177544Y00762D01*
Y007874D01*
X01168908Y00796036D02*
X01177544Y007874D01*
X011303Y00796036D02*
X01168908D01*
X01113028Y00778764D02*
X011303Y00796036D01*
X01113028Y00648462D02*
Y00778764D01*
Y00648462D02*
X01116Y00572D01*
X01417Y00542D02*
Y006094D01*
X015121Y007045D01*
X00976122Y00781378D02*
X010325Y00725D01*
X00976122Y00781378D02*
Y0081534D01*
X00954786D02*
X00976122D01*
X00950722Y00811276D02*
X00954786Y0081534D01*
X00950722Y00400812D02*
Y00811276D01*
Y00400812D02*
X01055634Y002959D01*
X010675D01*
X01119705Y00738205D02*
X011585Y00777D01*
X01119705Y00669217D02*
Y00738205D01*
Y00669217D02*
X01132586Y00656336D01*
Y00493576D02*
Y00656336D01*
Y00493576D02*
X011555Y00470662D01*
Y00452936D02*
Y00470662D01*
X0114554Y00442976D02*
X011555Y00452936D01*
X0114554Y0026114D02*
Y00442976D01*
X0113Y002456D02*
X0114554Y0026114D01*
X0092566Y0041134D02*
Y0051404D01*
Y0041134D02*
X00932Y00405D01*
X0069143Y0111857D02*
Y0117967D01*
Y0111857D02*
X00705Y01105D01*
X00748Y012125D02*
X00762D01*
X00779018Y01195482D01*
Y01016517D02*
Y01195482D01*
X0077Y01007499D02*
X00779018Y01016517D01*
X00705Y0100576D02*
X00719074Y00991686D01*
Y00913574D02*
Y00991686D01*
X007055Y009D02*
X00719074Y00913574D01*
X010675Y002451D02*
X011188Y002964D01*
X0113D01*
X00780796Y00658796D02*
X00842Y0072D01*
X00780796Y00617946D02*
Y00658796D01*
X0080108Y00565581D02*
Y00597662D01*
X00780796Y00545297D02*
X0080108Y00565581D01*
X00780796Y00465074D02*
Y00545297D01*
Y00465074D02*
X0100077Y002451D01*
X010675D01*
X00780796Y00617946D02*
X00786493Y00612249D01*
X00841248Y00613156D01*
X00913638Y00685546D01*
Y00823214D01*
X01012444Y0092202D01*
X01143D01*
X01157224Y00907796D01*
Y00886714D02*
Y00907796D01*
X0108331Y008128D02*
X01157224Y00886714D01*
X0108331Y00685038D02*
Y008128D01*
X01056552Y0065828D02*
X0108331Y00685038D01*
X010215Y0065828D02*
X01056552D01*
X010215Y006465D02*
Y0065828D01*
X0080374Y0063596D02*
X0089228Y007245D01*
X00904D02*
Y007265D01*
Y011226D01*
X009114Y0113D01*
X0080374Y0051404D02*
Y0054292D01*
X0080708Y0054626D01*
Y00566542D01*
X009381Y00697562D01*
Y007975D01*
X011415Y00889D02*
Y009D01*
X0110467Y0085217D02*
X011415Y00889D01*
X0095758Y0085217D02*
X0110467D01*
X00925322Y00819912D02*
X0095758Y0085217D01*
X00925322Y0072915D02*
Y00819912D01*
Y0072915D02*
X00926Y00728472D01*
Y007265D02*
Y00728472D01*
X010345Y005845D02*
X01078099D01*
X010906Y00572D01*
X009635Y00631499D02*
Y007975D01*
Y00631499D02*
X010325Y005625D01*
X010345D01*
X01052Y003937D02*
Y004025D01*
X010288Y003705D02*
X01052Y003937D01*
X010154Y003705D02*
X010288D01*
X01498Y00818D02*
X015435Y007725D01*
X00746506Y00543166D02*
X0077834Y00575D01*
X00746506Y00449506D02*
Y00543166D01*
X00702Y00405D02*
X00746506Y00449506D01*
X0085025Y008602D02*
Y00911D01*
X00725078Y011905D02*
X00748D01*
X00714248Y0117967D02*
X00725078Y011905D01*
X0069143Y0117967D02*
X00714248D01*
X00728662Y012125D02*
X00748D01*
X00710692Y0123047D02*
X00728662Y012125D01*
X0069143Y0123047D02*
X00710692D01*
X0085025Y010253D02*
Y010761D01*
X01523504Y008866D02*
X015445D01*
X01517904Y00881D02*
X01523504Y008866D01*
X01497Y00881D02*
X01517904D01*
X00909783Y01206476D02*
Y0123651D01*
Y01206476D02*
X00911282Y01204976D01*
Y01175D02*
Y01204976D01*
Y01152516D02*
Y01175D01*
Y01152516D02*
X009114Y01152398D01*
Y0113D02*
Y01152398D01*
X014375Y006675D02*
Y0067827D01*
X01475Y00869105D02*
Y00881D01*
X0140045Y00928878D02*
X01411722D01*
X014195Y009211D01*
Y0089625D02*
Y009211D01*
X0128285Y0067775D02*
X01325Y007199D01*
X0127Y0067775D02*
X0128285D01*
X01256224Y0063875D02*
X0127D01*
X01251204Y0063373D02*
X01256224Y0063875D01*
D51*
X014382Y004765D02*
D03*
X013874D02*
D03*
X013366D02*
D03*
X012858D02*
D03*
X011842D02*
D03*
X012096D02*
D03*
X01235D02*
D03*
X012604D02*
D03*
X013112D02*
D03*
X01362D02*
D03*
X014128D02*
D03*
X014636D02*
D03*
X0121658Y0123551D02*
D03*
X015995Y005538D02*
D03*
X01068215Y0123651D02*
D03*
X0153185Y012323D02*
D03*
X01597Y010814D02*
D03*
Y01056D02*
D03*
X01601Y008811D02*
D03*
Y007661D02*
D03*
X01380647Y0123501D02*
D03*
X0116578Y0123551D02*
D03*
X01597Y011068D02*
D03*
X015995Y004776D02*
D03*
X014636Y003795D02*
D03*
X0113Y00271D02*
D03*
X010675Y002705D02*
D03*
X015995Y00503D02*
D03*
Y005284D02*
D03*
Y003984D02*
D03*
X014128Y003795D02*
D03*
X01362D02*
D03*
X013112D02*
D03*
X012604D02*
D03*
X01235D02*
D03*
X012096D02*
D03*
X011842D02*
D03*
X012858D02*
D03*
X013366D02*
D03*
X013874D02*
D03*
X014382D02*
D03*
X01601Y007915D02*
D03*
Y008169D02*
D03*
Y009065D02*
D03*
Y009319D02*
D03*
X00752Y00405D02*
D03*
X00702D02*
D03*
X00727Y0073D02*
D03*
Y0078D02*
D03*
X00932Y00405D02*
D03*
X00882D02*
D03*
X0113Y002964D02*
D03*
Y002456D02*
D03*
X010675Y002451D02*
D03*
Y002959D02*
D03*
X0150645Y012323D02*
D03*
X0148105D02*
D03*
X00909783Y0123651D02*
D03*
X00884383D02*
D03*
X00858983D02*
D03*
X01042815D02*
D03*
X01017415D02*
D03*
X01355247Y0123501D02*
D03*
X01329848D02*
D03*
X0119118Y0123551D02*
D03*
X011415Y009D02*
D03*
X010655D02*
D03*
X007055D02*
D03*
X007555D02*
D03*
D52*
X012965Y009785D02*
D03*
X0121808Y01174D02*
D03*
X012185Y01129D02*
D03*
X012175Y010315D02*
D03*
X011865Y009785D02*
D03*
X01069715Y01175D02*
D03*
X010715Y010305D02*
D03*
X010708Y0113D02*
D03*
X015285Y01173D02*
D03*
X01382148Y011735D02*
D03*
X01382Y011285D02*
D03*
X014985Y005959D02*
D03*
X013635Y007208D02*
D03*
X012711Y009785D02*
D03*
X011975Y010315D02*
D03*
X010515Y010305D02*
D03*
X011611Y009785D02*
D03*
X00822Y0072D02*
D03*
X013635Y006827D02*
D03*
Y007462D02*
D03*
Y006573D02*
D03*
X014985Y005705D02*
D03*
X00842Y0072D02*
D03*
X00705Y01105D02*
D03*
Y01085D02*
D03*
X00911282Y01175D02*
D03*
X00891282D02*
D03*
X01049715D02*
D03*
X00765Y010823D02*
D03*
Y011077D02*
D03*
X00886Y0113D02*
D03*
X009114D02*
D03*
X010454D02*
D03*
X00705Y0100576D02*
D03*
Y0098576D02*
D03*
X01362148Y011735D02*
D03*
X0119808Y01174D02*
D03*
X0077Y00982099D02*
D03*
Y01007499D02*
D03*
X013566Y011285D02*
D03*
X011931Y01129D02*
D03*
X010906Y00572D02*
D03*
X01116D02*
D03*
X01325Y007199D02*
D03*
Y006711D02*
D03*
X015085Y01173D02*
D03*
D53*
X01299Y009136D02*
D03*
X013595Y009126D02*
D03*
X01245Y009141D02*
D03*
X010424Y00684D02*
D03*
X014105Y007045D02*
D03*
X01117Y003705D02*
D03*
X015121Y007045D02*
D03*
X010154Y003705D02*
D03*
X013595Y00811D02*
D03*
X01245Y008125D02*
D03*
X01299Y00812D02*
D03*
X01144Y00684D02*
D03*
X010144Y004555D02*
D03*
X01116D02*
D03*
D54*
X014156Y00765D02*
D03*
X015045D02*
D03*
X015435Y008614D02*
D03*
Y007725D02*
D03*
X015445Y009755D02*
D03*
Y008866D02*
D03*
D55*
X015715Y00613D02*
D03*
X015145Y011105D02*
D03*
Y009835D02*
D03*
X010315Y00777D02*
D03*
X011585D02*
D03*
X011595Y00725D02*
D03*
X010325D02*
D03*
X015715Y0074D02*
D03*
D56*
X008854Y00798D02*
D03*
X009889Y007975D02*
D03*
X0086Y00798D02*
D03*
X008346D02*
D03*
X009635Y007975D02*
D03*
X009381D02*
D03*
D57*
X00944Y008845D02*
D03*
Y009395D02*
D03*
Y009945D02*
D03*
Y010495D02*
D03*
D58*
X00692Y0051D02*
D03*
D59*
Y006243D02*
D03*
D60*
X0085025Y010761D02*
D03*
Y008602D02*
D03*
Y00911D02*
D03*
Y010253D02*
D03*
D61*
X015995Y00373D02*
D03*
D62*
X0069143Y0123047D02*
D03*
Y0120507D02*
D03*
Y0117967D02*
D03*
D63*
X0080374Y0051404D02*
D03*
X0092566Y0063596D02*
D03*
X0077834Y00575D02*
D03*
X0092566Y0051404D02*
D03*
X0080374Y0063596D02*
D03*
D64*
X014095Y008275D02*
D03*
X011805Y00683D02*
D03*
X010435Y006265D02*
D03*
X01455Y00853D02*
D03*
X01282Y006995D02*
D03*
X012905Y00621291D02*
D03*
Y005825D02*
D03*
X01214Y005845D02*
D03*
X014645Y005705D02*
D03*
X01072896Y00938784D02*
D03*
X014375Y0067827D02*
D03*
X01475Y00869105D02*
D03*
X0140045Y00928878D02*
D03*
X01251204Y0063373D02*
D03*
X011445Y00459541D02*
D03*
X01335Y00563D02*
D03*
X01258Y00567D02*
D03*
X0117725Y00615D02*
D03*
M02*
