G04*
G04 #@! TF.GenerationSoftware,Altium Limited,Altium Designer,23.7.1 (13)*
G04*
G04 Layer_Color=16711935*
%FSTAX44Y44*%
%MOMM*%
G71*
G04*
G04 #@! TF.SameCoordinates,65A94E3A-F732-46F6-9CE8-1871680BC999*
G04*
G04*
G04 #@! TF.FilePolarity,Negative*
G04*
G01*
G75*
%ADD34C,1.8000*%
%ADD35C,1.5032*%
%ADD36C,2.3622*%
%ADD37C,1.5000*%
%ADD38C,1.9812*%
%ADD39C,2.4892*%
%ADD40O,1.2160X2.2320*%
%ADD41C,2.7000*%
%ADD42C,2.7432*%
%ADD43R,2.7432X2.7432*%
%ADD44C,2.2032*%
G04:AMPARAMS|DCode=45|XSize=1.8mm|YSize=1.8mm|CornerRadius=0.18mm|HoleSize=0mm|Usage=FLASHONLY|Rotation=90.000|XOffset=0mm|YOffset=0mm|HoleType=Round|Shape=RoundedRectangle|*
%AMROUNDEDRECTD45*
21,1,1.8000,1.4400,0,0,90.0*
21,1,1.4400,1.8000,0,0,90.0*
1,1,0.3600,0.7200,0.7200*
1,1,0.3600,0.7200,-0.7200*
1,1,0.3600,-0.7200,-0.7200*
1,1,0.3600,-0.7200,0.7200*
%
%ADD45ROUNDEDRECTD45*%
%ADD46O,2.2320X1.2160*%
%ADD47C,1.8032*%
%ADD48C,3.2512*%
%ADD49C,0.9032*%
D34*
X014382Y004765D02*
D03*
X013874D02*
D03*
X013366D02*
D03*
X012858D02*
D03*
X011842D02*
D03*
X012096D02*
D03*
X01235D02*
D03*
X012604D02*
D03*
X013112D02*
D03*
X01362D02*
D03*
X014128D02*
D03*
X014636D02*
D03*
X0121658Y0123551D02*
D03*
X015995Y005538D02*
D03*
X01068215Y0123651D02*
D03*
X0153185Y012323D02*
D03*
X01597Y010814D02*
D03*
Y01056D02*
D03*
X01601Y008811D02*
D03*
Y007661D02*
D03*
X01380647Y0123501D02*
D03*
X0116578Y0123551D02*
D03*
X01597Y011068D02*
D03*
X015995Y004776D02*
D03*
X014636Y003795D02*
D03*
X0113Y00271D02*
D03*
X010675Y002705D02*
D03*
X015995Y00503D02*
D03*
Y005284D02*
D03*
Y003984D02*
D03*
X014128Y003795D02*
D03*
X01362D02*
D03*
X013112D02*
D03*
X012604D02*
D03*
X01235D02*
D03*
X012096D02*
D03*
X011842D02*
D03*
X012858D02*
D03*
X013366D02*
D03*
X013874D02*
D03*
X014382D02*
D03*
X01601Y007915D02*
D03*
Y008169D02*
D03*
Y009065D02*
D03*
Y009319D02*
D03*
X00752Y00405D02*
D03*
X00702D02*
D03*
X00727Y0073D02*
D03*
Y0078D02*
D03*
X00932Y00405D02*
D03*
X00882D02*
D03*
X0113Y002964D02*
D03*
Y002456D02*
D03*
X010675Y002451D02*
D03*
Y002959D02*
D03*
X0150645Y012323D02*
D03*
X0148105D02*
D03*
X00909783Y0123651D02*
D03*
X00884383D02*
D03*
X00858983D02*
D03*
X01042815D02*
D03*
X01017415D02*
D03*
X01355247Y0123501D02*
D03*
X01329848D02*
D03*
X0119118Y0123551D02*
D03*
X011415Y009D02*
D03*
X010655D02*
D03*
D35*
X012965Y009785D02*
D03*
X012185Y01129D02*
D03*
X012175Y010315D02*
D03*
X011865Y009785D02*
D03*
X010708Y0113D02*
D03*
X01382Y011285D02*
D03*
X014985Y005959D02*
D03*
X013635Y007208D02*
D03*
X012711Y009785D02*
D03*
X011975Y010315D02*
D03*
X011611Y009785D02*
D03*
X013635Y006827D02*
D03*
Y007462D02*
D03*
Y006573D02*
D03*
X014985Y005705D02*
D03*
X00765Y010823D02*
D03*
Y011077D02*
D03*
X00886Y0113D02*
D03*
X009114D02*
D03*
X010454D02*
D03*
X0077Y00982099D02*
D03*
Y01007499D02*
D03*
X013566Y011285D02*
D03*
X011931Y01129D02*
D03*
D36*
X01299Y009136D02*
D03*
X013595Y009126D02*
D03*
X01245Y009141D02*
D03*
X010424Y00684D02*
D03*
X014105Y007045D02*
D03*
X01117Y003705D02*
D03*
X015121Y007045D02*
D03*
X010154Y003705D02*
D03*
X013595Y00811D02*
D03*
X01245Y008125D02*
D03*
X01299Y00812D02*
D03*
X01144Y00684D02*
D03*
X010144Y004555D02*
D03*
X01116D02*
D03*
D37*
X0121808Y01174D02*
D03*
X01069715Y01175D02*
D03*
X010715Y010305D02*
D03*
X015285Y01173D02*
D03*
X01382148Y011735D02*
D03*
X010515Y010305D02*
D03*
X00822Y0072D02*
D03*
X00842D02*
D03*
X00705Y01105D02*
D03*
Y01085D02*
D03*
X00911282Y01175D02*
D03*
X00891282D02*
D03*
X01049715D02*
D03*
X00705Y0100576D02*
D03*
Y0098576D02*
D03*
X01362148Y011735D02*
D03*
X0119808Y01174D02*
D03*
X010906Y00572D02*
D03*
X01116D02*
D03*
X01325Y007199D02*
D03*
Y006711D02*
D03*
X015085Y01173D02*
D03*
D38*
X014156Y00765D02*
D03*
X015045D02*
D03*
X015435Y008614D02*
D03*
Y007725D02*
D03*
X015445Y009755D02*
D03*
Y008866D02*
D03*
D39*
X015715Y00613D02*
D03*
X015145Y011105D02*
D03*
Y009835D02*
D03*
X010315Y00777D02*
D03*
X011585D02*
D03*
X011595Y00725D02*
D03*
X010325D02*
D03*
X015715Y0074D02*
D03*
D40*
X008854Y00798D02*
D03*
X009889Y007975D02*
D03*
X0086Y00798D02*
D03*
X008346D02*
D03*
X009635Y007975D02*
D03*
X009381D02*
D03*
D41*
X00944Y008845D02*
D03*
Y009395D02*
D03*
Y009945D02*
D03*
Y010495D02*
D03*
D42*
X00692Y0051D02*
D03*
D43*
Y006243D02*
D03*
D44*
X0085025Y010761D02*
D03*
Y008602D02*
D03*
Y00911D02*
D03*
Y010253D02*
D03*
D45*
X015995Y00373D02*
D03*
D46*
X0069143Y0123047D02*
D03*
Y0120507D02*
D03*
Y0117967D02*
D03*
D47*
X007055Y009D02*
D03*
X007555D02*
D03*
D48*
X0080374Y0051404D02*
D03*
X0092566Y0063596D02*
D03*
X0077834Y00575D02*
D03*
X0092566Y0051404D02*
D03*
X0080374Y0063596D02*
D03*
D49*
X014095Y008275D02*
D03*
X011805Y00683D02*
D03*
X010435Y006265D02*
D03*
X01455Y00853D02*
D03*
X01282Y006995D02*
D03*
X012905Y00621291D02*
D03*
Y005825D02*
D03*
X01214Y005845D02*
D03*
X014645Y005705D02*
D03*
X01072896Y00938784D02*
D03*
X014375Y0067827D02*
D03*
X01475Y00869105D02*
D03*
X0140045Y00928878D02*
D03*
X01251204Y0063373D02*
D03*
X011445Y00459541D02*
D03*
X01335Y00563D02*
D03*
X01258Y00567D02*
D03*
X0117725Y00615D02*
D03*
M02*
